<svg xmlns="http://www.w3.org/2000/svg" width="401.592" height="146.927" viewBox="0 0 401.592 146.927"><defs><style>.a{isolation:isolate;}.b{fill:#fda800;}.c{fill:#e1302d;}.d{fill:#50b1b5;}</style></defs><g class="a" transform="translate(-174.501 -234.31)"><g class="a" transform="translate(190.029 234.31)"><path class="b" d="M306.667,336.621H284.844v28.135H254.6V336.621H182.444V315.756l63.164-84.984h32.54l-58.573,80.582h35.986V286.279h29.283v25.075h21.823Z" transform="translate(-182.444 -228.471)"/><path class="c" d="M270.619,360.08q-13.016-8.227-20.383-23.828t-7.37-37.23q0-21.623,7.37-37.23t20.383-23.828a57.563,57.563,0,0,1,59.339,0q13.016,8.227,20.383,23.828t7.37,37.23q0,21.633-7.37,37.23T329.959,360.08a57.563,57.563,0,0,1-59.339,0Zm48.907-28.519q6.981-10.522,6.988-32.538t-6.988-32.538q-6.988-10.528-19.237-10.529-12.058,0-19.043,10.529t-6.986,32.538q0,22.011,6.986,32.538t19.043,10.529Q312.533,342.09,319.526,331.561Z" transform="translate(-109.46 -229.73)"/><path class="d" d="M425.261,336.621H403.443v28.135H373.2V336.621H301.036V315.756L364.2,230.772h32.54l-58.573,80.582h35.987V286.279h29.288v25.075h21.818Z" transform="translate(-39.197 -228.471)"/></g><g class="a" transform="translate(174.501 242.654)"><path d="M300.724,331.135H278.9v28.137H248.659V331.135H176.5V310.27l63.163-84.984H272.2l-58.571,80.582h35.984V280.793H278.9v25.075h21.823Z" transform="translate(-176.501 -222.988)"/><path d="M264.676,354.595q-13.016-8.23-20.383-23.828t-7.37-37.232q0-21.623,7.37-37.23t20.383-23.828a57.576,57.576,0,0,1,59.339,0q13.016,8.23,20.383,23.828t7.37,37.23q0,21.633-7.37,37.232t-20.383,23.828a57.576,57.576,0,0,1-59.339,0Zm48.909-28.519q6.981-10.522,6.986-32.54T313.586,261q-6.991-10.528-19.24-10.53-12.058,0-19.043,10.53t-6.986,32.538q0,22.01,6.986,32.54T294.346,336.6Q306.59,336.6,313.586,326.075Z" transform="translate(-103.517 -224.245)"/><path d="M419.318,331.135H397.5v28.137H367.256V331.135H295.093V310.27l63.166-84.984H390.8l-58.573,80.582h35.989V280.793H397.5v25.075h21.818Z" transform="translate(-33.254 -222.988)"/></g></g></svg>