<svg xmlns="http://www.w3.org/2000/svg" xmlns:xlink="http://www.w3.org/1999/xlink" width="1366" height="769" viewBox="0 0 1366 769"><defs><style>.a{fill:#fff;}.b{clip-path:url(#a);}.c{opacity:0.696;}.d,.e,.f,.g{fill:none;}.d{stroke:#fda800;}.d,.e,.f{stroke-miterlimit:10;}.e{stroke:#e1302d;}.f{stroke:#50b1b5;}.g{stroke:#a3a3a3;stroke-linecap:round;stroke-linejoin:round;}.h{opacity:0.117;}</style><clipPath id="a"><rect class="a" width="1366" height="769"/></clipPath></defs><rect width="1366" height="769"/><g class="b"><g class="c" transform="translate(-56 -28.925)"><g transform="translate(0 362.793)"><ellipse class="d" cx="87.662" cy="87.89" rx="87.662" ry="87.89"/><ellipse class="d" cx="77.885" cy="78.088" rx="77.885" ry="78.088" transform="translate(9.777 9.536)"/><ellipse class="d" cx="67.636" cy="67.812" rx="67.636" ry="67.812" transform="translate(20.026 18.136)"/></g><g transform="translate(1257.99 618.448)"><ellipse class="e" cx="113.988" cy="114.285" rx="113.988" ry="114.285"/><ellipse class="e" cx="101.274" cy="101.538" rx="101.274" ry="101.538" transform="translate(12.713 12.4)"/><ellipse class="e" cx="87.948" cy="88.177" rx="87.948" ry="88.177" transform="translate(26.04 23.583)"/></g><g transform="translate(1091.149)"><ellipse class="f" cx="90.424" cy="90.66" rx="90.424" ry="90.66" transform="translate(0 0)"/><ellipse class="f" cx="80.339" cy="80.549" rx="80.339" ry="80.549" transform="translate(10.085 9.838)"/><ellipse class="f" cx="69.768" cy="69.949" rx="69.768" ry="69.949" transform="translate(20.657 18.709)"/></g><g transform="translate(108.402 675.006)"><g transform="translate(0 0)"><line class="g" x2="15.675" transform="translate(0 7.859)"/><line class="g" y2="15.716" transform="translate(7.838 0)"/></g></g><g transform="translate(428.979 43.02)"><g transform="translate(0 0)"><line class="g" x2="13.49" transform="translate(0 6.763)"/><line class="g" y2="13.525" transform="translate(6.745 0)"/></g></g><g transform="translate(1314.195 183.522)"><line class="g" x2="15.056" transform="translate(0 7.548)"/><line class="g" y2="15.095" transform="translate(7.528 0)"/></g><path class="g" d="M9.009,5.217,0,0v10.43Z" transform="translate(324.392 181.545) rotate(180)"/><g transform="translate(1337 450.823)"><path class="g" d="M142.707,7815.23l-7.953,13.813H150.66Z" transform="translate(-134.754 -7756.308)"/><path class="g" d="M142.707,7811.442l-7.953,13.813H150.66Z" transform="translate(-134.754 -7781.982)"/><path class="g" d="M142.707,7807.656l-7.953,13.81H150.66Z" transform="translate(-134.754 -7807.656)"/></g><g transform="translate(168.298 191.069)"><path class="g" d="M141.408,7815.23l-6.655,11.558h13.309Z" transform="translate(-134.754 -7765.927)"/><path class="g" d="M141.408,7811.442,134.754,7823h13.309Z" transform="translate(-134.754 -7786.792)"/><path class="g" d="M141.408,7807.656l-6.655,11.555h13.309Z" transform="translate(-134.754 -7807.656)"/></g><g class="h" transform="translate(185.323 635.334) rotate(90)"><path class="a" d="M4.008,7.992A4,4,0,1,1,8.016,4,4.006,4.006,0,0,1,4.008,7.992Z" transform="translate(108.776)"/><path class="a" d="M4.008,7.989a3.994,3.994,0,1,1,4.008-4A4,4,0,0,1,4.008,7.989Z" transform="translate(108.776 27.128)"/><path class="a" d="M4.008,7.993A4,4,0,1,1,8.016,4,4,4,0,0,1,4.008,7.993Z" transform="translate(108.776 54.248)"/><path class="a" d="M4.008,7.993A4,4,0,1,1,8.016,4,4.009,4.009,0,0,1,4.008,7.993Z" transform="translate(108.776 81.372)"/><path class="a" d="M4.008,7.985a3.992,3.992,0,1,1,4.008-4A4,4,0,0,1,4.008,7.985Z" transform="translate(108.776 108.501)"/><path class="a" d="M4.008,7.992a4,4,0,1,1,4-4A4,4,0,0,1,4.008,7.992Z" transform="translate(81.584)"/><path class="a" d="M4.008,7.989a3.994,3.994,0,1,1,4-4A4,4,0,0,1,4.008,7.989Z" transform="translate(81.584 27.128)"/><path class="a" d="M4.008,7.993A4,4,0,1,1,8.008,4,4,4,0,0,1,4.008,7.993Z" transform="translate(81.584 54.248)"/><path class="a" d="M4.008,7.993a4,4,0,1,1,4-4A4,4,0,0,1,4.008,7.993Z" transform="translate(81.584 81.372)"/><path class="a" d="M4.008,7.985a3.992,3.992,0,1,1,4-4A3.993,3.993,0,0,1,4.008,7.985Z" transform="translate(81.584 108.501)"/><path class="a" d="M4,7.992A4,4,0,1,1,8.008,4,4,4,0,0,1,4,7.992Z" transform="translate(54.392)"/><path class="a" d="M4,7.989a3.994,3.994,0,1,1,4.008-4A4,4,0,0,1,4,7.989Z" transform="translate(54.392 27.128)"/><path class="a" d="M4,7.993A4,4,0,1,1,8.008,4,4,4,0,0,1,4,7.993Z" transform="translate(54.392 54.248)"/><path class="a" d="M4,7.993A4,4,0,1,1,8.008,4,4,4,0,0,1,4,7.993Z" transform="translate(54.392 81.372)"/><path class="a" d="M4,7.985a3.992,3.992,0,1,1,4.008-4A3.992,3.992,0,0,1,4,7.985Z" transform="translate(54.392 108.501)"/><path class="a" d="M4.008,7.992a4,4,0,1,1,4-4A4.006,4.006,0,0,1,4.008,7.992Z" transform="translate(27.192)"/><path class="a" d="M4.008,7.989a3.994,3.994,0,1,1,4-4A4,4,0,0,1,4.008,7.989Z" transform="translate(27.192 27.128)"/><path class="a" d="M4.008,7.993A4,4,0,1,1,8.008,4,4,4,0,0,1,4.008,7.993Z" transform="translate(27.192 54.248)"/><path class="a" d="M4.008,7.993a4,4,0,1,1,4-4A4.009,4.009,0,0,1,4.008,7.993Z" transform="translate(27.192 81.372)"/><path class="a" d="M4.008,7.985a3.992,3.992,0,1,1,4-4A4,4,0,0,1,4.008,7.985Z" transform="translate(27.192 108.501)"/><path class="a" d="M4,7.992A4,4,0,1,1,8.008,4,4,4,0,0,1,4,7.992Z" transform="translate(0)"/><path class="a" d="M4,7.989a3.994,3.994,0,1,1,4.008-4A4,4,0,0,1,4,7.989Z" transform="translate(0 27.128)"/><path class="a" d="M4,7.993A4,4,0,1,1,8.008,4,4,4,0,0,1,4,7.993Z" transform="translate(0 54.248)"/><path class="a" d="M4,7.993A4,4,0,1,1,8.008,4,4,4,0,0,1,4,7.993Z" transform="translate(0 81.372)"/><path class="a" d="M4,7.985a3.992,3.992,0,1,1,4.008-4A3.992,3.992,0,0,1,4,7.985Z" transform="translate(0 108.501)"/></g><g class="h" transform="translate(1372.08 191.054) rotate(45)"><path class="a" d="M4.013,8.008a4,4,0,1,1,4-4A4.018,4.018,0,0,1,4.013,8.008Z" transform="translate(108.634 0.141)"/><path class="a" d="M4.013,8a4,4,0,1,1,4-4A4.017,4.017,0,0,1,4.013,8Z" transform="translate(108.67 27.305)"/><path class="a" d="M4.013,8.009a4,4,0,1,1,4-3.989A4.015,4.015,0,0,1,4.013,8.009Z" transform="translate(108.705 54.46)"/><path class="a" d="M4.013,8.008a4,4,0,1,1,4-4A4.021,4.021,0,0,1,4.013,8.008Z" transform="translate(108.74 81.62)"/><path class="a" d="M4.013,8a4,4,0,1,1,4-4A4.011,4.011,0,0,1,4.013,8Z" transform="translate(108.776 108.783)"/><path class="a" d="M4.013,8.008a4,4,0,1,1,3.99-4A4.012,4.012,0,0,1,4.013,8.008Z" transform="translate(81.478 0.106)"/><path class="a" d="M4.013,8A4,4,0,1,1,8,4,4.011,4.011,0,0,1,4.013,8Z" transform="translate(81.513 27.27)"/><path class="a" d="M4.013,8.009A4,4,0,1,1,8,4.02,4.009,4.009,0,0,1,4.013,8.009Z" transform="translate(81.548 54.425)"/><path class="a" d="M4.013,8.008a4,4,0,1,1,3.99-4A4.015,4.015,0,0,1,4.013,8.008Z" transform="translate(81.584 81.585)"/><path class="a" d="M4.013,8A4,4,0,1,1,8,4,4.006,4.006,0,0,1,4.013,8Z" transform="translate(81.619 108.748)"/><path class="a" d="M4.005,8.008a4,4,0,1,1,4-4A4.011,4.011,0,0,1,4.005,8.008Z" transform="translate(54.321 0.071)"/><path class="a" d="M4.005,8A4,4,0,1,1,8,4,4.01,4.01,0,0,1,4.005,8Z" transform="translate(54.357 27.234)"/><path class="a" d="M4.005,8.009A4,4,0,1,1,8,4.02,4.008,4.008,0,0,1,4.005,8.009Z" transform="translate(54.392 54.39)"/><path class="a" d="M4.005,8.008a4,4,0,1,1,4-4A4.014,4.014,0,0,1,4.005,8.008Z" transform="translate(54.427 81.549)"/><path class="a" d="M4.005,8A4,4,0,1,1,8,4,4,4,0,0,1,4.005,8Z" transform="translate(54.463 108.713)"/><path class="a" d="M4.013,8.008a4,4,0,1,1,3.99-4A4.018,4.018,0,0,1,4.013,8.008Z" transform="translate(27.157 0.035)"/><path class="a" d="M4.013,8A4,4,0,1,1,8,4,4.018,4.018,0,0,1,4.013,8Z" transform="translate(27.192 27.199)"/><path class="a" d="M4.013,8.009A4,4,0,1,1,8,4.02,4.015,4.015,0,0,1,4.013,8.009Z" transform="translate(27.227 54.354)"/><path class="a" d="M4.013,8.008a4,4,0,1,1,3.99-4A4.021,4.021,0,0,1,4.013,8.008Z" transform="translate(27.263 81.514)"/><path class="a" d="M4.013,8A4,4,0,1,1,8,4,4.012,4.012,0,0,1,4.013,8Z" transform="translate(27.298 108.677)"/><path class="a" d="M4.005,8.008a4,4,0,1,1,4-4A4.011,4.011,0,0,1,4.005,8.008Z" transform="translate(0)"/><path class="a" d="M4.005,8A4,4,0,1,1,8,4,4.01,4.01,0,0,1,4.005,8Z" transform="translate(0.035 27.164)"/><path class="a" d="M4.005,8.009A4,4,0,1,1,8,4.02,4.008,4.008,0,0,1,4.005,8.009Z" transform="translate(0.071 54.319)"/><path class="a" d="M4.005,8.008a4,4,0,1,1,4-4A4.014,4.014,0,0,1,4.005,8.008Z" transform="translate(0.106 81.479)"/><path class="a" d="M4.005,8A4,4,0,1,1,8,4,4,4,0,0,1,4.005,8Z" transform="translate(0.141 108.642)"/></g></g></g></svg>