<svg xmlns="http://www.w3.org/2000/svg" xmlns:xlink="http://www.w3.org/1999/xlink" width="1366" height="769" viewBox="0 0 1366 769"><defs><style>.a{fill:#fff;}.b{clip-path:url(#a);}.c{opacity:0.696;}.d,.e,.f,.g{fill:none;}.d{stroke:#fda800;}.d,.e,.f{stroke-miterlimit:10;}.e{stroke:#e1302d;}.f{stroke:#50b1b5;}.g{stroke:#a3a3a3;stroke-linecap:round;stroke-linejoin:round;}.h{opacity:0.117;}</style><clipPath id="a"><rect class="a" width="1366" height="769"/></clipPath></defs><rect width="1366" height="769"/><g class="b"><g class="c" transform="translate(-56 -28.951)"><g transform="translate(0 362.805)"><ellipse class="d" cx="87.662" cy="87.893" rx="87.662" ry="87.893"/><ellipse class="d" cx="77.885" cy="78.09" rx="77.885" ry="78.09" transform="translate(9.777 9.536)"/><ellipse class="d" cx="67.636" cy="67.815" rx="67.636" ry="67.815" transform="translate(20.026 18.136)"/></g><g transform="translate(1257.99 618.468)"><ellipse class="e" cx="113.988" cy="114.289" rx="113.988" ry="114.289"/><ellipse class="e" cx="101.274" cy="101.542" rx="101.274" ry="101.542" transform="translate(12.713 12.401)"/><ellipse class="e" cx="87.948" cy="88.18" rx="87.948" ry="88.18" transform="translate(26.04 23.584)"/></g><g transform="translate(1091.149 0)"><ellipse class="f" cx="90.424" cy="90.663" rx="90.424" ry="90.663"/><ellipse class="f" cx="80.339" cy="80.551" rx="80.339" ry="80.551" transform="translate(10.085 9.838)"/><ellipse class="f" cx="69.768" cy="69.952" rx="69.768" ry="69.952" transform="translate(20.657 18.709)"/></g><g transform="translate(108.402 675.028)"><g transform="translate(0 0)"><line class="g" x2="15.675" transform="translate(0 7.859)"/><line class="g" y2="15.717" transform="translate(7.838 0)"/></g></g><g transform="translate(428.979 43.022)"><g transform="translate(0 0)"><line class="g" x2="13.49" transform="translate(0 6.763)"/><line class="g" y2="13.525" transform="translate(6.745 0)"/></g></g><g transform="translate(1314.195 183.528)"><g transform="translate(0 0)"><line class="g" x2="15.056" transform="translate(0 7.548)"/><line class="g" y2="15.096" transform="translate(7.528)"/></g></g><path class="g" d="M9.009,5.217,0,0V10.431Z" transform="translate(324.392 181.55) rotate(180)"/><g transform="translate(1337 450.838)"><path class="g" d="M142.707,7815.231l-7.953,13.813H150.66Z" transform="translate(-134.754 -7756.307)"/><path class="g" d="M142.707,7811.441l-7.953,13.814H150.66Z" transform="translate(-134.754 -7781.98)"/><path class="g" d="M142.707,7807.656l-7.953,13.81H150.66Z" transform="translate(-134.754 -7807.656)"/></g><g transform="translate(168.298 191.075)"><path class="g" d="M141.408,7815.231l-6.655,11.557h13.309Z" transform="translate(-134.754 -7765.926)"/><path class="g" d="M141.408,7811.441,134.754,7823h13.309Z" transform="translate(-134.754 -7786.791)"/><path class="g" d="M141.408,7807.656l-6.655,11.555h13.309Z" transform="translate(-134.754 -7807.656)"/></g><g class="h" transform="translate(185.323 635.355) rotate(90)"><path class="a" d="M4.008,7.992A4,4,0,1,1,8.017,4,4.006,4.006,0,0,1,4.008,7.992Z" transform="translate(108.779)"/><path class="a" d="M4.008,7.989a3.994,3.994,0,1,1,4.008-4A4,4,0,0,1,4.008,7.989Z" transform="translate(108.779 27.128)"/><path class="a" d="M4.008,7.993A4,4,0,1,1,8.017,4,4,4,0,0,1,4.008,7.993Z" transform="translate(108.779 54.248)"/><path class="a" d="M4.008,7.993A4,4,0,1,1,8.017,4,4.009,4.009,0,0,1,4.008,7.993Z" transform="translate(108.779 81.372)"/><path class="a" d="M4.008,7.985a3.992,3.992,0,1,1,4.008-4A4,4,0,0,1,4.008,7.985Z" transform="translate(108.779 108.501)"/><path class="a" d="M4.008,7.992a4,4,0,1,1,4-4A4,4,0,0,1,4.008,7.992Z" transform="translate(81.587)"/><path class="a" d="M4.008,7.989a3.994,3.994,0,1,1,4-4A4,4,0,0,1,4.008,7.989Z" transform="translate(81.587 27.128)"/><path class="a" d="M4.008,7.993A4,4,0,1,1,8.009,4,4,4,0,0,1,4.008,7.993Z" transform="translate(81.587 54.248)"/><path class="a" d="M4.008,7.993a4,4,0,1,1,4-4A4,4,0,0,1,4.008,7.993Z" transform="translate(81.587 81.372)"/><path class="a" d="M4.008,7.985a3.992,3.992,0,1,1,4-4A3.994,3.994,0,0,1,4.008,7.985Z" transform="translate(81.587 108.501)"/><path class="a" d="M4,7.992A4,4,0,1,1,8.009,4,4,4,0,0,1,4,7.992Z" transform="translate(54.394)"/><path class="a" d="M4,7.989a3.994,3.994,0,1,1,4.008-4A4,4,0,0,1,4,7.989Z" transform="translate(54.394 27.128)"/><path class="a" d="M4,7.993A4,4,0,1,1,8.009,4,4,4,0,0,1,4,7.993Z" transform="translate(54.394 54.248)"/><path class="a" d="M4,7.993A4,4,0,1,1,8.009,4,4,4,0,0,1,4,7.993Z" transform="translate(54.394 81.372)"/><path class="a" d="M4,7.985a3.992,3.992,0,1,1,4.008-4A3.992,3.992,0,0,1,4,7.985Z" transform="translate(54.394 108.501)"/><path class="a" d="M4.008,7.992a4,4,0,1,1,4-4A4.006,4.006,0,0,1,4.008,7.992Z" transform="translate(27.193)"/><path class="a" d="M4.008,7.989a3.994,3.994,0,1,1,4-4A4,4,0,0,1,4.008,7.989Z" transform="translate(27.193 27.128)"/><path class="a" d="M4.008,7.993A4,4,0,1,1,8.009,4,4,4,0,0,1,4.008,7.993Z" transform="translate(27.193 54.248)"/><path class="a" d="M4.008,7.993a4,4,0,1,1,4-4A4.009,4.009,0,0,1,4.008,7.993Z" transform="translate(27.193 81.372)"/><path class="a" d="M4.008,7.985a3.992,3.992,0,1,1,4-4A4,4,0,0,1,4.008,7.985Z" transform="translate(27.193 108.501)"/><path class="a" d="M4,7.992A4,4,0,1,1,8.009,4,4,4,0,0,1,4,7.992Z" transform="translate(0)"/><path class="a" d="M4,7.989a3.994,3.994,0,1,1,4.008-4A4,4,0,0,1,4,7.989Z" transform="translate(0 27.128)"/><path class="a" d="M4,7.993A4,4,0,1,1,8.009,4,4,4,0,0,1,4,7.993Z" transform="translate(0 54.248)"/><path class="a" d="M4,7.993A4,4,0,1,1,8.009,4,4,4,0,0,1,4,7.993Z" transform="translate(0 81.372)"/><path class="a" d="M4,7.985a3.992,3.992,0,1,1,4.008-4A3.992,3.992,0,0,1,4,7.985Z" transform="translate(0 108.501)"/></g><g class="h" transform="translate(1372.079 184.29) rotate(45)"><path class="a" d="M4.187,8.181a4,4,0,1,1,4-4A4.018,4.018,0,0,1,4.187,8.181Z" transform="translate(113.25 4.757)"/><path class="a" d="M4.187,8.178a4,4,0,1,1,4-4A4.017,4.017,0,0,1,4.187,8.178Z" transform="translate(113.286 31.921)"/><path class="a" d="M4.187,8.183a4,4,0,1,1,4-3.989A4.015,4.015,0,0,1,4.187,8.183Z" transform="translate(113.321 59.077)"/><path class="a" d="M4.187,8.182a4,4,0,1,1,4-4A4.021,4.021,0,0,1,4.187,8.182Z" transform="translate(113.357 86.237)"/><path class="a" d="M4.187,8.174a4,4,0,1,1,4-4A4.011,4.011,0,0,1,4.187,8.174Z" transform="translate(113.393 113.401)"/><path class="a" d="M4.187,8.181a4,4,0,1,1,3.99-4A4.013,4.013,0,0,1,4.187,8.181Z" transform="translate(86.093 4.721)"/><path class="a" d="M4.187,8.178a4,4,0,1,1,3.99-4A4.012,4.012,0,0,1,4.187,8.178Z" transform="translate(86.129 31.885)"/><path class="a" d="M4.187,8.183a4,4,0,1,1,3.99-3.989A4.009,4.009,0,0,1,4.187,8.183Z" transform="translate(86.164 59.041)"/><path class="a" d="M4.187,8.182a4,4,0,1,1,3.99-4A4.015,4.015,0,0,1,4.187,8.182Z" transform="translate(86.2 86.201)"/><path class="a" d="M4.187,8.174a4,4,0,1,1,3.99-4A4.006,4.006,0,0,1,4.187,8.174Z" transform="translate(86.237 113.365)"/><path class="a" d="M4.179,8.181a4,4,0,1,1,4-4A4.012,4.012,0,0,1,4.179,8.181Z" transform="translate(58.936 4.686)"/><path class="a" d="M4.179,8.178a4,4,0,1,1,4-4A4.011,4.011,0,0,1,4.179,8.178Z" transform="translate(58.972 31.85)"/><path class="a" d="M4.179,8.182a4,4,0,1,1,4-3.99A4.008,4.008,0,0,1,4.179,8.182Z" transform="translate(59.007 59.006)"/><path class="a" d="M4.179,8.182a4,4,0,1,1,4-4A4.014,4.014,0,0,1,4.179,8.182Z" transform="translate(59.043 86.166)"/><path class="a" d="M4.179,8.174a4,4,0,1,1,4-4A4,4,0,0,1,4.179,8.174Z" transform="translate(59.08 113.33)"/><path class="a" d="M4.187,8.181a4,4,0,1,1,3.99-4A4.019,4.019,0,0,1,4.187,8.181Z" transform="translate(31.771 4.65)"/><path class="a" d="M4.187,8.178a4,4,0,1,1,3.99-4A4.018,4.018,0,0,1,4.187,8.178Z" transform="translate(31.807 31.814)"/><path class="a" d="M4.187,8.183a4,4,0,1,1,3.99-3.989A4.015,4.015,0,0,1,4.187,8.183Z" transform="translate(31.842 58.97)"/><path class="a" d="M4.187,8.182a4,4,0,1,1,3.99-4A4.022,4.022,0,0,1,4.187,8.182Z" transform="translate(31.878 86.13)"/><path class="a" d="M4.187,8.174a4,4,0,1,1,3.99-4A4.012,4.012,0,0,1,4.187,8.174Z" transform="translate(31.914 113.293)"/><path class="a" d="M4.179,8.181a4,4,0,1,1,4-4A4.012,4.012,0,0,1,4.179,8.181Z" transform="translate(4.614 4.614)"/><path class="a" d="M4.179,8.178a4,4,0,1,1,4-4A4.011,4.011,0,0,1,4.179,8.178Z" transform="translate(4.65 31.778)"/><path class="a" d="M4.179,8.183a4,4,0,1,1,4-3.989A4.008,4.008,0,0,1,4.179,8.183Z" transform="translate(4.685 58.934)"/><path class="a" d="M4.179,8.182a4,4,0,1,1,4-4A4.014,4.014,0,0,1,4.179,8.182Z" transform="translate(4.721 86.094)"/><path class="a" d="M4.179,8.174a4,4,0,1,1,4-4A4,4,0,0,1,4.179,8.174Z" transform="translate(4.757 113.258)"/></g></g></g></svg>