<svg xmlns="http://www.w3.org/2000/svg" width="80" height="79" viewBox="0 0 80 79"><defs><style>.a,.d{fill:none;}.a{stroke:#f9b807;}.b{fill:#f9b807;}.c{stroke:none;}</style></defs><g transform="translate(0.477 -0.277)"><g class="a" transform="translate(-0.477 0.277)"><ellipse class="c" cx="40" cy="39.5" rx="40" ry="39.5"/><ellipse class="d" cx="40" cy="39.5" rx="39.5" ry="39"/></g><g transform="translate(33.827 32.67)"><path class="b" d="M101.7,6.467,107.945.224a.769.769,0,0,1,1.085,0l.46.46a.768.768,0,0,1,0,1.085l-5.243,5.243L109.5,12.26a.769.769,0,0,1,0,1.086l-.46.46a.769.769,0,0,1-1.085,0L101.7,7.557a.775.775,0,0,1,0-1.089Z" transform="translate(-101.478)"/></g></g></svg>