<svg id="Layer_1" data-name="Layer 1" xmlns="http://www.w3.org/2000/svg" viewBox="0 0 78 78"><defs><style>.cls-1{fill:#fff;opacity:0.15;isolation:isolate;}.cls-2{fill:#5154a1;}</style></defs><circle class="cls-1" cx="39" cy="39" r="39"/><g id="Union_9" data-name="Union 9"><path class="cls-2" d="M30.49,51.76a4.25,4.25,0,0,1-4.25-4.25h0v-17a4.25,4.25,0,0,1,4.25-4.25h17a4.25,4.25,0,0,1,4.25,4.25v17a4.25,4.25,0,0,1-4.25,4.25h-17ZM28.37,30.49v17a2.12,2.12,0,0,0,2.12,2.12h17a2.11,2.11,0,0,0,2.12-2.12h0v-17a2.12,2.12,0,0,0-2.12-2.12h-17A2.12,2.12,0,0,0,28.37,30.49ZM32.62,39A6.38,6.38,0,1,1,39,45.38,6.38,6.38,0,0,1,32.62,39Zm2.13,0A4.25,4.25,0,1,0,39,34.75,4.25,4.25,0,0,0,34.75,39Zm9.57-6.91a1.6,1.6,0,1,1,1.59,1.59A1.6,1.6,0,0,1,44.32,32.09Z"/></g></svg>