<svg xmlns="http://www.w3.org/2000/svg" width="78" height="78" viewBox="0 0 78 78">
  <g id="Groupe_16111" data-name="Groupe 16111" transform="translate(-793 -6504)">
    <g id="Groupe_16110" data-name="Groupe 16110" transform="translate(100 778)">
      <circle id="Ellipse_180" data-name="Ellipse 180" cx="39" cy="39" r="39" transform="translate(693 5726)" fill="#fff" opacity="0.15"/>
    </g>
    <g id="email" transform="translate(819.482 6530.73)">
      <g id="Groupe_15769" data-name="Groupe 15769">
        <g id="Groupe_15768" data-name="Groupe 15768">
          <path id="Tracé_47479" data-name="Tracé 47479" d="M22.834,81H2.2C.987,81,0,82.415,0,84.155v18.23c0,1.74.987,3.155,2.2,3.155H22.834c1.213,0,2.2-1.415,2.2-3.155V84.155C25.034,82.415,24.047,81,22.834,81Zm.733,20.866c0,.58.2,1.706-.981,2.1H2.2c-.7-.476-.542-1-.542-1.576V84.155c0-.58.021-1.591.843-1.618H22.586c1.036.185.981,1.038.981,1.618Z" transform="translate(0 -81)" fill="#2a8add"/>
        </g>
      </g>
    </g>
    <g id="Icon_feather-linkedin" data-name="Icon feather-linkedin" transform="translate(824.646 6535.03)">
      <path id="Tracé_47678" data-name="Tracé 47678" d="M19.691,12a4.691,4.691,0,0,1,4.691,4.691v5.472H21.254V16.691a1.564,1.564,0,1,0-3.127,0v5.472H15V16.691A4.691,4.691,0,0,1,19.691,12Z" transform="translate(-8.746 -7.309)" fill="none" stroke="#2a8add" stroke-linecap="round" stroke-linejoin="round" stroke-width="2"/>
      <path id="Tracé_47679" data-name="Tracé 47679" d="M3,13.5H6.127v9.381H3Z" transform="translate(-3 -8.028)" fill="none" stroke="#2a8add" stroke-linecap="round" stroke-linejoin="round" stroke-width="2"/>
      <path id="Tracé_47680" data-name="Tracé 47680" d="M6.127,4.564A1.564,1.564,0,1,1,4.564,3,1.564,1.564,0,0,1,6.127,4.564Z" transform="translate(-3 -3)" fill="none" stroke="#2a8add" stroke-linecap="round" stroke-linejoin="round" stroke-width="2"/>
    </g>
  </g>
</svg>
