<svg xmlns="http://www.w3.org/2000/svg" xmlns:xlink="http://www.w3.org/1999/xlink" width="245.66" height="306.469" viewBox="0 0 245.66 306.469">
  <defs>
    <clipPath id="clip-path">
      <path id="Tracé_47705" data-name="Tracé 47705" d="M0,0H245.66V306.469H0Z" transform="translate(0 0)" fill="#d9eef1"/>
    </clipPath>
    <linearGradient id="linear-gradient" x1="0.941" y1="0.365" x2="0.351" y2="0.949" gradientUnits="objectBoundingBox">
      <stop offset="0" stop-color="#0f0861"/>
      <stop offset="1" stop-color="#261399"/>
    </linearGradient>
    <linearGradient id="linear-gradient-2" x1="0.996" y1="0.544" x2="0.393" y2="0.413" gradientUnits="objectBoundingBox">
      <stop offset="0" stop-color="#0f0861"/>
      <stop offset="1" stop-color="#250c81"/>
    </linearGradient>
    <linearGradient id="linear-gradient-3" x1="0.5" y1="0" x2="0.5" y2="1" xlink:href="#linear-gradient"/>
    <linearGradient id="linear-gradient-4" x1="0.5" x2="0.5" y2="1" gradientUnits="objectBoundingBox">
      <stop offset="0" stop-color="#b70295"/>
      <stop offset="1" stop-color="#d106a7"/>
    </linearGradient>
    <linearGradient id="linear-gradient-5" x1="0.398" y1="0.396" x2="0.923" y2="0.931" gradientUnits="objectBoundingBox">
      <stop offset="0" stop-color="#7d018b"/>
      <stop offset="1" stop-color="#3d066c"/>
    </linearGradient>
    <linearGradient id="linear-gradient-7" x1="0.822" y1="0.26" x2="0.055" y2="1.033" gradientUnits="objectBoundingBox">
      <stop offset="0" stop-color="#9110ff"/>
      <stop offset="1" stop-color="#c20eff"/>
    </linearGradient>
  </defs>
  <g id="Groupe_16108" data-name="Groupe 16108" transform="translate(8814 -13374)">
    <g id="Groupe_de_masques_15" data-name="Groupe de masques 15" transform="translate(-8814 13374)" clip-path="url(#clip-path)">
      <g id="Groupe_16106" data-name="Groupe 16106" transform="translate(-601.537 -439.483)">
        <g id="Groupe_15948" data-name="Groupe 15948" transform="matrix(0.259, -0.966, 0.966, 0.259, 0, 1381.276)">
          <path id="Tracé_62103" data-name="Tracé 62103" d="M0,0,318.006,7.926l6.59,256.81L6.59,256.81Z" transform="translate(1022.245 523.324) rotate(45)" fill="url(#linear-gradient)"/>
          <path id="Tracé_62104" data-name="Tracé 62104" d="M0,0,515.392-13.226l-16.9,678.152L-16.9,678.152Z" transform="translate(9.012 632.91) rotate(-45)" fill="url(#linear-gradient-2)"/>
          <path id="Tracé_47675" data-name="Tracé 47675" d="M.6,23.246l207.712,5.53s-1.18-53.163.187.108l5.456,212.627L6.065,236.33Z" transform="translate(839.965 432.328) rotate(45)" fill="url(#linear-gradient-3)"/>
          <path id="Tracé_62105" data-name="Tracé 62105" d="M0,0,191.1,4.763l7.926,308.854-191.1-4.763Z" transform="translate(1260.676 18.883) rotate(45)" fill="url(#linear-gradient-4)"/>
          <path id="Tracé_62106" data-name="Tracé 62106" d="M0,0,221.477,5.52l5.422,211.3L5.422,211.3Z" transform="translate(747.331 362.85) rotate(45)" fill="url(#linear-gradient-5)"/>
          <path id="Tracé_62107" data-name="Tracé 62107" d="M0,0,318.006,7.926l7.926,308.854L7.926,308.854Z" transform="translate(960.556 145.594) rotate(45)" fill="url(#linear-gradient)"/>
          <path id="Tracé_62108" data-name="Tracé 62108" d="M0,0,297.345,7.411l7.926,308.854L7.926,308.854Z" transform="translate(1237.97 313.028) rotate(45)" fill="url(#linear-gradient-7)"/>
        </g>
      </g>
    </g>
    <g id="Groupe_16107" data-name="Groupe 16107" transform="translate(-8766.402 13476.373)">
      <g id="risidio_-_logo_final-03" data-name="risidio - logo final-03">
        <g id="Groupe_5" data-name="Groupe 5" transform="translate(0 0)">
          <path id="Tracé_29" data-name="Tracé 29" d="M93.687,97.544a8.917,8.917,0,0,1,2.364,2.263l-2.364,1.878-.9.734a5.1,5.1,0,0,0-1.815-1.63,5.118,5.118,0,0,0-4.425-.2,5.292,5.292,0,0,0-1.633,1.1,5.2,5.2,0,0,0-1.1,1.63,4.937,4.937,0,0,0-.407,2v12.108h-4.2V95.98h4.2v1.564a9.223,9.223,0,0,1,2.405-1.152,9.264,9.264,0,0,1,5.466,0A9.353,9.353,0,0,1,93.687,97.544Z" transform="translate(-57.722 -69.914)" fill="#fff"/>
          <path id="Tracé_30" data-name="Tracé 30" d="M155.052,95.81v21.532h-4.2V95.81Z" transform="translate(-109.804 -69.79)" fill="#fff"/>
          <path id="Tracé_31" data-name="Tracé 31" d="M192.863,107.607a7.091,7.091,0,0,1,.9,1.775,5.588,5.588,0,0,1,.287,2.018,5.9,5.9,0,0,1-.612,2.487,6.824,6.824,0,0,1-1.51,2,6.639,6.639,0,0,1-2.2,1.324,6.942,6.942,0,0,1-2.651.429,7.359,7.359,0,0,1-3.527-1.018,6.249,6.249,0,0,1-2.386-2.487l3.508-2.446a2.3,2.3,0,0,0,.9,1.245,2.664,2.664,0,0,0,1.63.511,2.715,2.715,0,0,0,1.856-.592,1.931,1.931,0,0,0,.794-1.57,1.415,1.415,0,0,0-.041-.407v-.082a.325.325,0,0,1-.041-.142.325.325,0,0,0-.041-.142,2.372,2.372,0,0,0-1.059-1.141,1.631,1.631,0,0,0-.366-.164l.041-.041a13.967,13.967,0,0,0-1.264-.633c-.461-.2-.931-.42-1.406-.652s-.945-.475-1.406-.734a7.921,7.921,0,0,1-1.3-.917v-.041l-.123-.123a6.052,6.052,0,0,1-1.346-1.9,5.114,5.114,0,0,1-.448-2.3,5.464,5.464,0,0,1,.571-2.282,5.984,5.984,0,0,1,1.406-1.835,6.642,6.642,0,0,1,2.058-1.223,6.526,6.526,0,0,1,2.528-.407,7.169,7.169,0,0,1,3.161.857,5.93,5.93,0,0,1,2.222,2.08l-3.426,2.364a2.087,2.087,0,0,0-.794-.775,2.38,2.38,0,0,0-1.245-.325,2.478,2.478,0,0,0-1.611.448,1.431,1.431,0,0,0-.672,1.182.7.7,0,0,0,.041.287,1.448,1.448,0,0,0,.407.775,2.484,2.484,0,0,0,.816.53q.774.45,1.775.917t2.017,1.04a6.311,6.311,0,0,1,1.469.939l.2.2A8.19,8.19,0,0,1,192.863,107.607Z" transform="translate(-131.751 -70.006)" fill="#fff"/>
          <path id="Tracé_32" data-name="Tracé 32" d="M247.822,95.81v21.532h-4.2V95.81Z" transform="translate(-177.247 -69.79)" fill="#fff"/>
          <path id="Tracé_33" data-name="Tracé 33" d="M295.175,68.393a10.591,10.591,0,0,1-.835,4.2,10.744,10.744,0,0,1-5.73,5.73,10.983,10.983,0,0,1-8.4,0,10.744,10.744,0,0,1-5.73-5.73,10.983,10.983,0,0,1,0-8.4,10.744,10.744,0,0,1,5.73-5.73,10.591,10.591,0,0,1,4.2-.835,10.343,10.343,0,0,1,3.527.592,11.164,11.164,0,0,1,3.039,1.652V43.23h4.2V68.393Zm-10.745,6.566a6.415,6.415,0,0,0,2.542-.511,6.547,6.547,0,0,0,4.005-6.055v-.041a6.338,6.338,0,0,0-.508-2.528,6.581,6.581,0,0,0-1.4-2.08,6.548,6.548,0,0,0-4.636-1.916,6.405,6.405,0,0,0-2.542.511,6.542,6.542,0,0,0-2.094,1.406,6.875,6.875,0,0,0-1.422,2.1,6.4,6.4,0,0,0,0,5.1,6.842,6.842,0,0,0,1.422,2.1,6.5,6.5,0,0,0,2.094,1.406A6.4,6.4,0,0,0,284.429,74.959Z" transform="translate(-199.071 -31.564)" fill="#fff"/>
          <path id="Tracé_34" data-name="Tracé 34" d="M371.5,95.81v21.532h-4.2V95.81Z" transform="translate(-267.162 -69.79)" fill="#fff"/>
          <path id="Tracé_35" data-name="Tracé 35" d="M408.1,95.81a10.591,10.591,0,0,1,4.2.835,10.744,10.744,0,0,1,5.73,5.73,10.983,10.983,0,0,1,0,8.4,10.744,10.744,0,0,1-5.73,5.73,10.983,10.983,0,0,1-8.4,0,10.744,10.744,0,0,1-5.73-5.73,10.983,10.983,0,0,1,0-8.4,10.744,10.744,0,0,1,5.73-5.73A10.591,10.591,0,0,1,408.1,95.81Zm.019,17.333a6.415,6.415,0,0,0,2.542-.511,6.5,6.5,0,0,0,2.094-1.406,6.588,6.588,0,0,0,1.4-2.1,6.554,6.554,0,0,0-6.039-9.116,6.4,6.4,0,0,0-2.542.511,6.542,6.542,0,0,0-2.094,1.406,6.876,6.876,0,0,0-1.422,2.1,6.4,6.4,0,0,0,0,5.1,6.843,6.843,0,0,0,1.422,2.1,6.5,6.5,0,0,0,2.094,1.406A6.4,6.4,0,0,0,408.116,113.143Z" transform="translate(-288.993 -69.79)" fill="#fff"/>
          <ellipse id="Ellipse_13" data-name="Ellipse 13" cx="2.31" cy="2.31" rx="2.31" ry="2.31" transform="translate(40.839 19.195)" fill="#f9b807"/>
          <ellipse id="Ellipse_14" data-name="Ellipse 14" cx="2.31" cy="2.31" rx="2.31" ry="2.31" transform="translate(66.163 49.706)" fill="#e9493d"/>
          <ellipse id="Ellipse_15" data-name="Ellipse 15" cx="2.31" cy="2.31" rx="2.31" ry="2.31" transform="translate(99.906 19.162)" fill="#5fbdc1"/>
          <rect id="Rectangle_7" data-name="Rectangle 7" width="150.464" height="69.029" transform="translate(0 0)" fill="none" stroke="#fff" stroke-width="1" opacity="0"/>
        </g>
      </g>
      <text id="Marketplace" transform="translate(5 76.014)" fill="#fff" font-size="23" font-family="Montserrat-Light, Montserrat" font-weight="300"><tspan x="0" y="0">Marketplace</tspan></text>
    </g>
  </g>
</svg>
