<svg id="Layer_1" data-name="Layer 1" xmlns="http://www.w3.org/2000/svg" viewBox="0 0 78 78"><defs><style>.cls-1{fill:#fff;opacity:0.15;isolation:isolate;}.cls-2{fill:#e1302d;}</style></defs><circle class="cls-1" cx="39" cy="39" r="39"/><g id="noun_youtube_897674" data-name="noun youtube 897674"><g id="Path_9223" data-name="Path 9223"><path class="cls-2" d="M50.22,51.76H27.78A6.76,6.76,0,0,1,21,45V33a6.76,6.76,0,0,1,6.76-6.76H50.22A6.76,6.76,0,0,1,57,33V45A6.76,6.76,0,0,1,50.22,51.76ZM27.78,28.28A4.73,4.73,0,0,0,23.06,33V45a4.73,4.73,0,0,0,4.72,4.72H50.22A4.73,4.73,0,0,0,54.94,45V33a4.73,4.73,0,0,0-4.72-4.72ZM35.35,45.5a1.32,1.32,0,0,1-.39-.06,1.27,1.27,0,0,1-.75-.63,1.3,1.3,0,0,1-.14-.58V33.78a1.28,1.28,0,0,1,1.28-1.28h0a1.19,1.19,0,0,1,.58.15l10.17,5.21a1.27,1.27,0,0,1,.63.75,1.24,1.24,0,0,1-.08,1,1.22,1.22,0,0,1-.55.55l-.09,0L35.93,45.36A1.3,1.3,0,0,1,35.35,45.5Zm-.35-2ZM36.11,35V43l7.74-4ZM35,34.46h0Z"/></g></g></svg>