<svg xmlns="http://www.w3.org/2000/svg" width="20.283" height="40.928" viewBox="0 0 20.283 40.928">
  <defs>
    <style>
      .cls-1 {
        fill: #fff;
      }
    </style>
  </defs>
  <path id="Path_47501" data-name="Path 47501" class="cls-1" d="M140.723,36.381h-.518V34.847a.682.682,0,0,0-.682-.682H138.3c-3.2-1.418-3.313-9.654-3.048-13.452h.334a.682.682,0,0,0,.682-.682V18.5h.491a.682.682,0,0,0,.682-.682V15.607a.682.682,0,0,0-.682-.682h-2.134a6.954,6.954,0,0,1,2.339-4.575.682.682,0,0,0,.218-.784A6.627,6.627,0,0,0,133.094,6l-.055-.682a9.3,9.3,0,0,1,.941.177.682.682,0,0,0,.845-.682V2.285a.682.682,0,0,0-.845-.682,9.193,9.193,0,0,1-.934.177,9.194,9.194,0,0,1,.177-.934A.682.682,0,0,0,132.542,0h-2.55a.682.682,0,0,0-.682.845q.111.452.177.914a9.085,9.085,0,0,1-.927-.164.682.682,0,0,0-.845.682V4.794a.682.682,0,0,0,.845.682,9.457,9.457,0,0,1,.941-.164l-.055.682a6.627,6.627,0,0,0-4.091,3.566.682.682,0,0,0,.218.8,7.023,7.023,0,0,1,2.339,4.575h-2.154a.682.682,0,0,0-.682.682v2.209a.682.682,0,0,0,.682.682h.491v1.527a.682.682,0,0,0,.682.682h.334c.266,3.8.15,12.02-3.048,13.452H123a.682.682,0,0,0-.682.682v1.534H121.8a.682.682,0,0,0-.682.682v3.184a.682.682,0,0,0,.682.682h18.919a.682.682,0,0,0,.682-.682V37.062a.682.682,0,0,0-.682-.682ZM126.815,9.655a5.189,5.189,0,0,1,3.409-2.461.682.682,0,0,0,.545-.607c.055-.682.123-1.439.164-1.977a.682.682,0,0,0-.73-.73,6.743,6.743,0,0,0-1.111.13v-.9c.307.048.682.1,1.125.13a.682.682,0,0,0,.73-.73,6.683,6.683,0,0,0-.13-1.118h.873c-.061.361-.1.736-.13,1.132a.682.682,0,0,0,.638.723.7.7,0,0,0,.084,0,6.681,6.681,0,0,0,1.132-.13v.873c-.361-.055-.736-.1-1.118-.13a.681.681,0,0,0-.73.73c.041.545.109,1.364.164,1.991a.682.682,0,0,0,.545.614,5.189,5.189,0,0,1,3.409,2.461,8.482,8.482,0,0,0-2.448,5.27h-3.975a8.482,8.482,0,0,0-2.448-5.27Zm.116,7.5h-.491v-.866h9.64v.845h-9.15Zm7.977,1.364v.845h-7.3V18.5Zm-6.279,2.209h5.257c-.177,2.57-.43,10.131,2.277,13.452h-9.8c2.7-3.334,2.448-10.895,2.27-13.465Zm-4.943,14.8h15.149v.845H123.686Zm16.363,4.029H122.486V37.744h17.556Z" transform="translate(-121.122 0)"/>
</svg>
