<svg xmlns="http://www.w3.org/2000/svg" width="34.687" height="34.684" viewBox="0 0 34.687 34.684">
  <defs>
    <style>
      .cls-1 {
        fill: #fff;
      }
    </style>
  </defs>
  <path id="Union_2" data-name="Union 2" class="cls-1" d="M6336.94,5675.224l-8.872-8.871a1.712,1.712,0,0,1-.3-2.035l-1.991-1.993a11.577,11.577,0,1,1,2.552-2.551l1.991,1.994a1.731,1.731,0,0,1,2.033.3l8.872,8.869a3.03,3.03,0,0,1-2.143,5.173h-.012A3,3,0,0,1,6336.94,5675.224Zm.207-1.425.608.606a1.856,1.856,0,0,0,1.324.549,1.874,1.874,0,0,0,1.324-3.2l-.6-.608Zm-6.428-10.915-1.835,1.834a.581.581,0,0,0,0,.818l7.446,7.445,2.65-2.652-7.444-7.445a.581.581,0,0,0-.817,0Zm-3.978-1.226,1.784,1.785.917-.917-1.784-1.784Zm-18.16-8.671a10.406,10.406,0,1,0,10.406-10.405A10.417,10.417,0,0,0,6308.583,5652.988Zm1.157,0a9.249,9.249,0,1,1,9.25,9.25A9.259,9.259,0,0,1,6309.739,5652.988Zm1.156,0a8.093,8.093,0,1,0,8.094-8.092A8.1,8.1,0,0,0,6310.9,5652.988Z" transform="translate(-6307.426 -5641.427)"/>
</svg>
