<svg xmlns="http://www.w3.org/2000/svg" width="36.696" height="26.448" viewBox="0 0 36.696 26.448">
  <defs>
    <style>
      .cls-1 {
        fill: #fff;
      }
    </style>
  </defs>
  <path id="Union_1" data-name="Union 1" class="cls-1" d="M6661.687,5661.448a2.691,2.691,0,0,1-2.687-2.689v-12.838a.538.538,0,1,1,1.076,0v12.838a1.614,1.614,0,0,0,1.611,1.613h31.323a1.614,1.614,0,0,0,1.611-1.613v-1.4a.538.538,0,0,1,1.075,0v1.4a2.692,2.692,0,0,1-2.687,2.689Zm21.359-5.6a1.612,1.612,0,1,1,0-3.225h6.248a1.612,1.612,0,0,1,0,3.225Zm-.538-1.613a.538.538,0,0,0,.538.538h6.248a.538.538,0,0,0,0-1.076h-6.248A.54.54,0,0,0,6682.509,5654.234Zm-14.24,1.567a.535.535,0,0,1-.311-.692l3.82-10.064a.538.538,0,0,1,1,.383l-3.82,10.063a.537.537,0,0,1-.5.346A.505.505,0,0,1,6668.269,5655.8Zm26.352-.707v-13.86h-34.545v2.38a.538.538,0,0,1-1.076,0v-5.927a2.689,2.689,0,0,1,2.687-2.687h27.08a.538.538,0,0,1,0,1.075h-27.08a1.613,1.613,0,0,0-1.611,1.612v2.473h34.545v-2.473a1.613,1.613,0,0,0-1.611-1.612h-1.884a.538.538,0,1,1,0-1.075h1.884a2.69,2.69,0,0,1,2.687,2.687v17.407a.538.538,0,0,1-1.075,0ZM6674,5653.858a.537.537,0,0,1,0-.76l2.808-2.808-2.85-2.85a.538.538,0,0,1,.759-.761l3.23,3.231a.536.536,0,0,1,0,.759l-3.186,3.188a.538.538,0,0,1-.761,0Zm-8.032,0-3.188-3.188a.536.536,0,0,1,0-.759l3.23-3.231a.538.538,0,0,1,.761.761l-2.85,2.85,2.808,2.808a.538.538,0,0,1-.761.76Zm17.074-2.311a1.613,1.613,0,1,1,0-3.225h8.888a1.613,1.613,0,0,1,0,3.225Zm-.538-1.613a.539.539,0,0,0,.538.538h8.888a.538.538,0,0,0,0-1.075h-8.888A.539.539,0,0,0,6682.509,5649.934Zm.538-2.687a1.613,1.613,0,0,1,0-3.227h3.369a1.613,1.613,0,0,1,0,3.227Zm-.538-1.613a.539.539,0,0,0,.538.538h3.369a.538.538,0,0,0,0-1.075h-3.369A.539.539,0,0,0,6682.509,5645.634Zm-12.806-7.489a1.612,1.612,0,1,1,1.613,1.613A1.614,1.614,0,0,1,6669.7,5638.145Zm1.075,0a.538.538,0,1,0,.538-.538A.537.537,0,0,0,6670.778,5638.145Zm-5.245,0a1.613,1.613,0,1,1,1.613,1.613A1.616,1.616,0,0,1,6665.533,5638.145Zm1.076,0a.538.538,0,1,0,.538-.538A.538.538,0,0,0,6666.609,5638.145Zm-5.243,0a1.612,1.612,0,1,1,1.611,1.613A1.614,1.614,0,0,1,6661.366,5638.145Zm1.074,0a.538.538,0,1,0,.538-.538A.538.538,0,0,0,6662.44,5638.145Z" transform="translate(-6659 -5635)"/>
</svg>
