<svg xmlns="http://www.w3.org/2000/svg" width="38.194" height="39.52" viewBox="0 0 38.194 39.52"><defs><style>.a{fill:#fff;}</style></defs><g transform="translate(-8.053)"><g transform="translate(8.053 0)"><g transform="translate(0 0)"><path class="a" d="M46.231,19.619a.659.659,0,0,0-.22-.36h0l-3.4-2.832L45.4,13.644a.659.659,0,0,0-.319-1.108L35.52,10.364a8.561,8.561,0,1,0-16.767-.141L8.566,12.538a.659.659,0,0,0-.276,1.148l3.345,2.787L8.29,19.259a.659.659,0,0,0,.277,1.148L12,21.188V35.569a.658.658,0,0,0,.512.642L27,39.5a.659.659,0,0,0,.292,0l14.487-3.293a.658.658,0,0,0,.512-.642V21.188l3.438-.782A.659.659,0,0,0,46.231,19.619ZM34.571,12.831c.076-.132.147-.267.215-.4.033-.066.066-.128.1-.193q.132-.274.24-.558c.007-.016.015-.033.021-.049l8.473,1.928-2.193,2.2-7.749-1.64c.024-.028.045-.059.066-.088.115-.138.225-.279.329-.423l.132-.19q.126-.184.243-.373C34.488,12.971,34.53,12.9,34.571,12.831ZM22.547,2.977a7.242,7.242,0,1,1-.3,10.93,7.43,7.43,0,0,1-.693-.734A7.244,7.244,0,0,1,22.547,2.977ZM10.157,13.527,19.1,11.492c.011.028.024.055.035.084.066.175.136.346.213.516.032.07.066.138.1.207q.1.2.2.4c.04.072.081.145.123.217.075.128.155.253.237.377.041.066.082.126.125.188.117.168.24.329.369.491.01.013.018.026.029.039l-7.7,1.751Zm0,5.89,2.674-2.231,12.871,2.926-2.678,2.231ZM26.492,38.036l-13.17-2.994V21.487L23.053,23.7a.648.648,0,0,0,.146.016.662.662,0,0,0,.422-.153l2.87-2.392Zm.659-18.947L15.632,16.472l6-1.366a8.532,8.532,0,0,0,10.9.113L38.565,16.5ZM40.979,35.042l-13.17,2.994V21.171l2.87,2.392a.662.662,0,0,0,.422.153.647.647,0,0,0,.146-.016l9.731-2.212Zm-9.706-12.7L28.6,20.112l12.871-2.926,2.678,2.231Z" transform="translate(-8.053 0)"/></g></g><g transform="translate(23.199 1.985)"><path class="a" d="M199.375,29.7a2.608,2.608,0,0,0-1.39-4.176v-.752a.659.659,0,1,0-1.317,0v.659h-.659v-.659a.659.659,0,1,0-1.317,0v.659h-1.976a.659.659,0,1,0,0,1.317h.659v7.9h-.659a.659.659,0,1,0,0,1.317h1.976v.659a.659.659,0,1,0,1.317,0v-.659h.659v.659a.659.659,0,1,0,1.317,0v-.659a3.286,3.286,0,0,0,1.39-6.266Zm-4.683-2.953h2.634a1.317,1.317,0,0,1,0,2.634h-2.634Zm3.293,7.9h-3.293V30.7h3.293a1.976,1.976,0,1,1,0,3.951Z" transform="translate(-192.058 -24.115)"/></g></g></svg>