<svg xmlns="http://www.w3.org/2000/svg" width="72" height="72" viewBox="0 0 72 72"><defs><style>.a{fill:#e9493d;}.b{fill:#fff;}</style></defs><circle class="a" cx="36" cy="36" r="36"/><g transform="translate(15.229 17.227)"><g transform="translate(0.998 -1.001)"><path class="b" d="M1.95,25.163a4.741,4.741,0,0,0,.671.388c.28.143.748.382.781.55a1.116,1.116,0,0,1-.076.654c-.1.207-.2.385-.284.538-.237.417-.633,1.117-.036,1.606.14.129.381.316.6.485a1.629,1.629,0,0,0-.211.933.933.933,0,0,0,.379.633c.145.1.3.194.452.281.38.216.529.317.582.517a1.784,1.784,0,0,1-.071.783c-.038.168-.075.335-.1.507a3.8,3.8,0,0,0,.218,1.741,2.421,2.421,0,0,0,2.29,1.764,2.629,2.629,0,0,0,.528-.056,48.994,48.994,0,0,0,5.448-1.63c1.455.854,2.376,3.452,2.615,4.427a.646.646,0,0,0,.627.49l16.22-.045a.646.646,0,0,0,.615-.84,4.992,4.992,0,0,0-.655-1.228,6,6,0,0,1-.419-.7,12.3,12.3,0,0,1-.73-1.84,21.778,21.778,0,0,1-.764-3.823,10.94,10.94,0,0,1,.849-5.675,14.445,14.445,0,0,1,1.755-2.774c.388-.523.79-1.066,1.152-1.635a9.995,9.995,0,0,0,1.331-3.147.646.646,0,0,0-1.259-.292A8.724,8.724,0,0,1,33.3,20.523c-.335.531-.723,1.053-1.1,1.558a15.617,15.617,0,0,0-1.9,3.028,12.225,12.225,0,0,0-.947,6.346,22.936,22.936,0,0,0,.815,4.054,13.477,13.477,0,0,0,.8,2.024,7.065,7.065,0,0,0,.5.84l.043.065-14.658.044a10.306,10.306,0,0,0-2.275-4.127l.582-.2c.434-.152.762-.266.931-.323,2.767-.882,4.151-2.142,4.113-3.748a.635.635,0,0,0-.66-.627.646.646,0,0,0-.631.661c.016.661-.529,1.629-3.216,2.485-.176.056-.517.174-.964.332-.48.167-1.089.381-1.761.609h0a50.328,50.328,0,0,1-5.554,1.68,1.151,1.151,0,0,1-1.331-.86,2.585,2.585,0,0,1-.16-1.145c.019-.129.049-.265.079-.4a2.82,2.82,0,0,0,.065-1.391,2.142,2.142,0,0,0-1.193-1.319l-.139-.079a2.378,2.378,0,0,1,.249-.4.646.646,0,0,0-.125-.92c-.154-.114-.517-.388-.788-.6.031-.056.065-.118.1-.174.1-.178.218-.388.33-.625a2.412,2.412,0,0,0,.172-1.446c-.154-.788-.91-1.175-1.461-1.457a3.737,3.737,0,0,1-.532-.31,2.753,2.753,0,0,1-.388-.314c0-.1.105-.335.6-.934a26.073,26.073,0,0,0,2.957-4.8,1.921,1.921,0,0,0,.249-.874,2.262,2.262,0,0,0-.948-1.616c-.262-.24-.509-.467-.537-.657a1.27,1.27,0,0,1,.1-.459c.105-.277.227-.548.349-.82a9.485,9.485,0,0,0,.646-1.752,17.333,17.333,0,0,1,.582-2.138A11.08,11.08,0,0,1,8.611,5.936,10.642,10.642,0,0,1,14.4,3.184a41.994,41.994,0,0,1,6.063-.874,14.145,14.145,0,0,1,2.058.044.648.648,0,1,0,.12-1.29A15.72,15.72,0,0,0,20.4,1.02a43.136,43.136,0,0,0-6.25.9A11.749,11.749,0,0,0,7.67,5.047,12.361,12.361,0,0,0,5.078,9.276a18.892,18.892,0,0,0-.637,2.335,8.369,8.369,0,0,1-.554,1.473c-.129.294-.262.588-.379.894a2.258,2.258,0,0,0-.176,1.085A2.485,2.485,0,0,0,4.278,16.5c.317.29.525.494.528.673a1.1,1.1,0,0,1-.11.28,24.945,24.945,0,0,1-2.828,4.6,2.689,2.689,0,0,0-.856,1.9A1.98,1.98,0,0,0,1.95,25.163Z" transform="translate(-0.998 -0.999)"/><path class="b" d="M11.984,12.5A8.513,8.513,0,0,1,13.757,9.6a8.265,8.265,0,0,1,4.428-2,.646.646,0,0,0-.251-1.268,9.479,9.479,0,0,0-5.116,2.374,9.8,9.8,0,0,0-2.047,3.353,16.435,16.435,0,0,0-.531,1.972l1.262.28A15.445,15.445,0,0,1,11.984,12.5Z" transform="translate(-4.267 -2.881)"/><path class="b" d="M29.31,4.619l-.388,1.934A7.694,7.694,0,0,0,27.834,7l-1.641-1.1a1.292,1.292,0,0,0-1.623.169L23.5,7.147a1.292,1.292,0,0,0-.171,1.638l1.093,1.633a7.694,7.694,0,0,0-.452,1.088l-1.931.388A1.292,1.292,0,0,0,21,13.162v1.525a1.292,1.292,0,0,0,1.034,1.267l1.934.388a7.694,7.694,0,0,0,.452,1.088l-1.1,1.641a1.292,1.292,0,0,0,.169,1.623l1.073,1.073a1.3,1.3,0,0,0,1.638.17l1.633-1.093a7.694,7.694,0,0,0,1.088.452l.388,1.931a1.292,1.292,0,0,0,1.268,1.037H32.1A1.292,1.292,0,0,0,33.37,23.23l.388-1.934a7.7,7.7,0,0,0,1.088-.452l1.641,1.1a1.292,1.292,0,0,0,1.623-.169L39.182,20.7a1.292,1.292,0,0,0,.171-1.638l-1.093-1.633a7.694,7.694,0,0,0,.452-1.088l1.931-.388a1.287,1.287,0,0,0,.89-.673l.974.653a1.18,1.18,0,0,0,.627.182,1.163,1.163,0,0,0,.825-.343l.859-.859a1.174,1.174,0,0,0,.151-1.47L44.135,12.2a6.074,6.074,0,0,0,.313-.751l1.462-.291a1.163,1.163,0,0,0,.939-1.146V8.794a1.163,1.163,0,0,0-.934-1.144l-1.469-.293a5.982,5.982,0,0,0-.311-.751l.847-1.262a1.168,1.168,0,0,0-.162-1.453l-.859-.859a1.173,1.173,0,0,0-1.47-.151l-1.247.834a6.074,6.074,0,0,0-.751-.313L40.2,1.939A1.163,1.163,0,0,0,39.056,1H37.841a1.163,1.163,0,0,0-1.144.934L36.4,3.4a5.982,5.982,0,0,0-.751.313L34.391,2.87a1.169,1.169,0,0,0-1.453.162l-.582.582a1.324,1.324,0,0,0-.254-.028H30.577A1.292,1.292,0,0,0,29.31,4.619Zm9.88,2.533-.3-.3a2.571,2.571,0,0,1,.8,4.851l-.981-.194a7.7,7.7,0,0,0-.452-1.088l1.1-1.641a1.292,1.292,0,0,0-.167-1.625ZM33.781,4.014l1.477.993a.646.646,0,0,0,.69.019,4.727,4.727,0,0,1,1.183-.494.646.646,0,0,0,.465-.5l.347-1.741h1.011L39.3,4.037a.646.646,0,0,0,.465.5,4.727,4.727,0,0,1,1.183.494.646.646,0,0,0,.69-.023l1.477-.991.717.717-.991,1.478a.646.646,0,0,0-.019.69,4.728,4.728,0,0,1,.494,1.183.646.646,0,0,0,.5.465l1.745.347V9.906l-1.742.347a.646.646,0,0,0-.5.465,4.727,4.727,0,0,1-.494,1.183.646.646,0,0,0,.019.69l.991,1.477-.717.717-1.44-.964v-.66a1.3,1.3,0,0,0-.452-.984,3.868,3.868,0,0,0-2.695-6.654,3.74,3.74,0,0,0-1.15.189,1.311,1.311,0,0,0-.9.2L34.846,7a7.694,7.694,0,0,0-1.088-.452L33.37,4.621a1.185,1.185,0,0,0-.045-.153ZM30.112,7.189l.465-2.312H32.1l.465,2.314a.646.646,0,0,0,.465.5,6.366,6.366,0,0,1,1.526.633.646.646,0,0,0,.684-.022L37.2,6.991,38.28,8.068l-1.312,1.957a.646.646,0,0,0-.022.684,6.366,6.366,0,0,1,.633,1.526.646.646,0,0,0,.5.465l2.312.462v1.526l-2.314.465a.646.646,0,0,0-.5.465,6.366,6.366,0,0,1-.633,1.526.646.646,0,0,0,.022.684l1.308,1.955L37.2,20.865l-1.957-1.312a.646.646,0,0,0-.684-.022,6.366,6.366,0,0,1-1.526.633.646.646,0,0,0-.465.5L32.1,22.972H30.577l-.465-2.314a.646.646,0,0,0-.465-.5,6.366,6.366,0,0,1-1.526-.633.646.646,0,0,0-.684.022l-1.956,1.308L24.4,19.781l1.312-1.957a.646.646,0,0,0,.022-.684,6.366,6.366,0,0,1-.633-1.526.646.646,0,0,0-.5-.465l-2.312-.463V13.162l2.314-.465a.646.646,0,0,0,.5-.465,6.366,6.366,0,0,1,.633-1.526.646.646,0,0,0-.022-.684L24.406,8.068l1.077-1.083L27.44,8.3a.646.646,0,0,0,.684.022,6.366,6.366,0,0,1,1.526-.633A.646.646,0,0,0,30.112,7.189Z" transform="translate(-8.074 -0.999)"/><path class="b" d="M34.524,23.047A4.524,4.524,0,1,0,30,18.524,4.524,4.524,0,0,0,34.524,23.047Zm0-7.755a3.231,3.231,0,1,1-3.231,3.231A3.231,3.231,0,0,1,34.524,15.292Z" transform="translate(-11.258 -5.598)"/><circle class="b" cx="0.5" cy="0.5" r="0.5" transform="translate(22.773 12.775)"/><circle class="b" cx="0.5" cy="0.5" r="0.5" transform="translate(4.773 12.775)"/></g></g></svg>