<svg xmlns="http://www.w3.org/2000/svg" xmlns:xlink="http://www.w3.org/1999/xlink" width="221.015" height="199.262" viewBox="0 0 221.015 199.262"><defs><style>.a{fill:#fff;}.b{fill:#d9d9d9;}.c{fill:#e6e6e6;}.d{fill:#151515;}.e{fill:#323657;}.f{fill:#e9493d;}.g{fill:#d53125;}.h{fill:#deccc5;}.i{fill:url(#a);}.j{fill:#5fbdc1;}.k{fill:#c5d2de;}.l{fill:#c93024;}.m{fill:#3aa1a5;}.n{fill:#eea886;}.o{fill:#292c47;}.p{fill:#f9b807;}.q{fill:#434343;}.r{fill:#a77860;}.s{fill:#6e6760;}.t{fill:#c98462;}.u{fill:#cfbfb8;}.v{fill:#25354d;}.w{fill:#2f4563;}.x{fill:#eddad3;}.y{fill:#c4c4c4;}.z{fill:#de9673;}.aa{fill:#1e2d40;}.ab{fill:#3c4145;}.ac{fill:#eea987;}.ad{fill:#23344a;}.ae{fill:#464240;}.af{fill:#ffb755;}.ag{fill:#d8d8d8;}.ah{fill:#e2d2ca;}.ai{fill:#706865;}.aj{fill:#ccbdb7;}.ak{fill:url(#b);}.al{fill:#b59074;}.am{fill:#ead8cf;}.an{fill:#da9b5b;}.ao{fill:#424773;}.ap{fill:#3a3f47;}.aq{fill:#736a67;}.ar{fill:#5e5854;}.as{fill:#bfb2ac;}.at{fill:#f5f7ff;}.au{fill:#ffc655;}.av{fill:#918783;}.aw{fill:#dfe1e8;}.ax{fill:#36572b;}.ay{fill:#45613c;}.az{fill:#925e2e;}.ba{fill:#48753a;}.bb{fill:#538742;}.bc{fill:#877670;}.bd{fill:#876455;}.be{fill:#715346;}.bf{fill:#9e633a;}.bg{fill:#97a43c;}.bh{fill:#82522f;}.bi{fill:#c67b47;}</style><linearGradient id="a" x1="-23.552" y1="0.5" x2="-22.303" y2="0.5" gradientUnits="objectBoundingBox"><stop offset="0" stop-color="#7f90de"/><stop offset="1" stop-color="#5fbdc1"/></linearGradient><linearGradient id="b" x1="0.5" y1="0.527" x2="0.5" y2="1.056" gradientUnits="objectBoundingBox"><stop offset="0.083" stop-color="#bcd7e8"/><stop offset="1" stop-color="#e6e7e8"/></linearGradient></defs><g transform="translate(0 0)"><g transform="translate(125.667 33.649)"><path class="a" d="M2045.706,509.881a9.121,9.121,0,0,1,2.666.392,7.614,7.614,0,0,1,14.255.914,5.562,5.562,0,0,1,1.969-.357,5.19,5.19,0,0,1,5.316,5.053h-31.695C2038.217,512.569,2041.57,509.881,2045.706,509.881Z" transform="translate(-2038.217 -505.75)"/></g><g transform="translate(63.31 36.719)"><path class="a" d="M1512.2,535.457a7.707,7.707,0,0,1,2.253.331,6.434,6.434,0,0,1,12.045.773,4.7,4.7,0,0,1,1.664-.3,4.385,4.385,0,0,1,4.492,4.27h-26.782C1505.867,537.728,1508.7,535.457,1512.2,535.457Z" transform="translate(-1505.867 -531.966)"/></g><g transform="translate(0 0)"><g transform="translate(96.717 104.924)"><rect class="b" width="16.259" height="49.385" transform="translate(16.259 49.385) rotate(180)"/></g><rect class="c" width="146.67" height="104.251" rx="17" transform="translate(31.726 24.321)"/><g transform="translate(39.612 33.173)"><rect class="d" width="130.223" height="76.191"/></g><rect class="c" width="73.148" height="3.728" transform="translate(68.273 152.445)"/><g transform="translate(45.24 101.223)"><path class="e" d="M1351.612,1082.645h-.006C1351.632,1082.657,1351.636,1082.658,1351.612,1082.645Z" transform="translate(-1351.606 -1082.645)"/></g><g transform="translate(149.291 140.134)"><path class="f" d="M9.989,0H57.77a0,0,0,0,1,0,0V19.979a0,0,0,0,1,0,0H9.99A9.99,9.99,0,0,1,0,9.989v0A9.989,9.989,0,0,1,9.989,0Z"/><path class="g" d="M2495.394,1416.892v15.866h.945v2.056h-39.206a3.747,3.747,0,0,1-3.748-3.748v-12.483a3.748,3.748,0,0,1,3.748-3.748h39.206v2.057Z" transform="translate(-2428.379 -1414.835)"/><path class="a" d="M7.933,0h31.2a0,0,0,0,1,0,0V15.866a0,0,0,0,1,0,0H7.933A7.933,7.933,0,0,1,0,7.933v0A7.933,7.933,0,0,1,7.933,0Z" transform="translate(27.887 2.056)"/><rect class="h" width="15.247" height="0.393" transform="translate(45.49 9.91)"/><rect class="h" width="16.281" height="0.393" transform="translate(38.343 11.104)"/></g><g transform="translate(138.103 124.769)"><path class="i" d="M7.712,0H57.769a0,0,0,0,1,0,0V15.424a0,0,0,0,1,0,0H7.712A7.712,7.712,0,0,1,0,7.712v0A7.712,7.712,0,0,1,7.712,0Z" transform="translate(67.96 15.424) rotate(180)"/><path class="j" d="M2145.327,1285.251V1297.5h-.944v1.588h39.062a3.892,3.892,0,0,0,3.892-3.892v-7.64a3.892,3.892,0,0,0-3.892-3.893h-39.062v1.588Z" transform="translate(-2144.383 -1283.663)"/><path class="a" d="M6.125,0H39.842a0,0,0,0,1,0,0V12.249a0,0,0,0,1,0,0H6.125A6.125,6.125,0,0,1,0,6.125v0A6.125,6.125,0,0,1,6.125,0Z" transform="translate(40.787 13.837) rotate(180)"/><rect class="k" width="11.811" height="0.235" transform="translate(28.479 5.54) rotate(180)"/><rect class="k" width="12.613" height="0.235" transform="translate(34.016 6.253) rotate(180)"/></g><g transform="translate(146.231 114.084)"><path class="f" d="M5.343,0H64.593a0,0,0,0,1,0,0V10.685a0,0,0,0,1,0,0H5.343A5.343,5.343,0,0,1,0,5.343v0A5.343,5.343,0,0,1,5.343,0Z"/><path class="l" d="M2613.454,1193.539v8.486h.944v1.1h-40.611a2.343,2.343,0,0,1-2.344-2.344v-6a2.343,2.343,0,0,1,2.344-2.343H2614.4v1.1Z" transform="translate(-2539.615 -1192.44)"/><path class="a" d="M4.243,0H40.122a0,0,0,0,1,0,0V8.486a0,0,0,0,1,0,0H4.243A4.243,4.243,0,0,1,0,4.243v0A4.243,4.243,0,0,1,4.243,0Z" transform="translate(33.717 1.1)"/><rect class="h" width="15.246" height="0.303" transform="translate(52.314 2.911)"/><rect class="h" width="16.281" height="0.21" transform="translate(45.167 5.938)"/></g><g transform="translate(150.975 103.398)"><path class="j" d="M5.343,0H46.989a0,0,0,0,1,0,0V10.685a0,0,0,0,1,0,0H5.343A5.343,5.343,0,0,1,0,5.343v0A5.343,5.343,0,0,1,5.343,0Z"/><path class="m" d="M2482.513,1102.314v8.486h.687v1.1h-28.9a2.347,2.347,0,0,1-2.347-2.347v-5.992a2.347,2.347,0,0,1,2.347-2.347h28.9v1.1Z" transform="translate(-2428.797 -1101.215)"/><path class="a" d="M4.243,0H29.187a0,0,0,0,1,0,0V8.486a0,0,0,0,1,0,0H4.243A4.243,4.243,0,0,1,0,4.243v0A4.243,4.243,0,0,1,4.243,0Z" transform="translate(24.528 1.1)"/><rect class="k" width="11.091" height="0.303" transform="translate(38.056 2.911)"/><rect class="k" width="11.843" height="0.21" transform="translate(32.857 5.939)"/></g><path class="n" d="M1991.628,932.573s1.256,2.865,2.458,2.506a10.784,10.784,0,0,1,3.549-.192c.749.083,3.187-.489,3.043.422s-3.98,1.126-4.783,1.325,2.082,2.238,2.283,3.023-3.825,5.329-5.625,3.7-2.544-4.553-2.923-4.777a22.377,22.377,0,0,1-2.03-2.555Z" transform="translate(-1867.862 -848.928)"/><path class="n" d="M2035.86,988.947s5.147,5.347,5.164,5.992-.315.909-.818.429-5.136-5.021-5.136-5.021,4.932,7.359,5.067,7.879c.079.3-.534.85-.83.618s-5.633-7.238-5.633-7.238,4.591,6.879,4.568,7.353a.62.62,0,0,1-1.087.3c-.378-.486-5.028-6.623-5.028-6.623s3,5.223,2.736,5.623c-.163.245-.672.739-1.4-.634s-2.815-4.422-2.815-4.422Z" transform="translate(-1905.866 -898.699)"/><g transform="translate(62.983 80.822)"><path class="o" d="M1538.619,937.015h-15.885c-.351-1.844-.664-2.959-.893-2.933s-.68,1.137-1.248,2.933h-17.517c.807-6.864,1.838-14.52,2.641-20.6.053-.377.1-.744.149-1.094.276-2.077.484-3.608.584-4.341.042-.319.064-.489.064-.489.382-.175.781-.335,1.2-.483,9.924-3.565,29.062.207,29.062.207s.01.1.032.271c.026.212.064.553.117.988.111.94.276,2.348.462,3.974,0,.016.006.026.006.037.005.048.01.1.016.149.67,5.8,1,8.984,1.525,15.173C1538.953,931.16,1538.826,933.572,1538.619,937.015Z" transform="translate(-1503.076 -908.472)"/></g><g transform="translate(49.488 27.211)"><path class="p" d="M1426.131,451.5s16.251,3.45,17.606,7.966,3.985,15.123,7.645,26.659c2.189,6.9,13.313,22.619,13.313,22.619s-6.365,4.691-6.365,4.059-14.988-20.633-15.169-23.072-4.722-14.91-4.722-14.91-2.151,23.978-2.151,27.681.244,11.2.244,11.2-6.022,2.307-17.715,1.7c0,0-18.611-.639-15.434-6.312,2.4-4.289.93-33.143.568-33.324s-6.849,7.946-6.217,9.51,17.423,7.176,17.423,7.176.491,1.808-2.118,5.905c0,0-25.08-7.329-25.17-8.864s10.432-31.356,13.868-32.917c4.947-2.247,17.884-5.781,17.884-5.781Z" transform="translate(-1387.868 -450.794)"/></g><path class="n" d="M1633.572,391.253s-.67,3.67.482,6.176c0,0,1.172,5.841-4.807,6.1s-6.117-5.1-6.117-5.1,1.431-1.921.476-7.147S1633.572,391.253,1633.572,391.253Z" transform="translate(-1546.084 -368.989)"/><g transform="translate(74.697 0.968)"><path class="n" d="M1612.233,226.822s7.651,1.234,6.486,13.494-7.918,11.254-8.369,11.242-6.779.224-7.272-14.744C1603.078,236.813,1602.862,225.745,1612.233,226.822Z" transform="translate(-1603.077 -226.748)"/></g><g transform="translate(90.012 10.668)"><path class="n" d="M1734.274,309.966s.838-.916,1.145.011-1.091,4.924-1.195,5.259c0,0-.153.36-.354.162A45.952,45.952,0,0,1,1734.274,309.966Z" transform="translate(-1733.829 -309.562)"/></g><g transform="translate(73.687 10.499)"><path class="n" d="M1595.656,308.537s-.82-.933-1.145-.011,1.029,5.125,1.1,5.282c0,0,.146.363.351.169A45.943,45.943,0,0,0,1595.656,308.537Z" transform="translate(-1594.46 -308.119)"/></g><g transform="translate(73.981)"><path class="q" d="M1613.436,231.44l-1.1,1.5a30.689,30.689,0,0,0-.145-3.8c-.176-.516.208-2.311.061-2.682s-5.233,1.011-13.575.161c0,0,.928,2.962.384,3.172s-.277,3.85-.277,3.85l-.9-1.041s-1.017-6.218-.918-7.256c.132-1.381-.337-7.833,11.4-6.726a7.1,7.1,0,0,1,3.708,1.457,5.306,5.306,0,0,1,2.333,4.429A67.662,67.662,0,0,1,1613.436,231.44Z" transform="translate(-1596.963 -218.488)"/></g><path class="r" d="M1635.408,424.681s3.157,3.686,8.168,0a5.407,5.407,0,0,1-4.351,2.861A4.051,4.051,0,0,1,1635.408,424.681Z" transform="translate(-1556.924 -400.528)"/><rect class="s" width="24.619" height="37.074" transform="matrix(0.96, 0.279, -0.279, 0.96, 64.041, 42.284)"/><path class="t" d="M1658.435,803.395s1.543-.042,2.016-.111.16.937-.388,1.126S1658.435,803.395,1658.435,803.395Z" transform="translate(-1577.254 -734.781)"/><path class="n" d="M1609.412,810.725a3.157,3.157,0,0,1-1,.091s-.589-.177-1.016-.278a2.928,2.928,0,0,0-.333-.064,5.777,5.777,0,0,1-1.819-.306c-.764-.3-3.354-1.627-3.354-1.627l.741-2.408.558-1.908s4.378-1.165,5.122-.969a1.941,1.941,0,0,1,.208.067,7.373,7.373,0,0,1,1.283.81c.113.058,1.2.71,1.253,1.083a1.235,1.235,0,0,1-.343,1.151,2.953,2.953,0,0,1-.269,1.6,1.836,1.836,0,0,1-.545,1.526S1609.922,810.463,1609.412,810.725Z" transform="translate(-1527.33 -734.74)"/><path class="p" d="M1447.19,591.038a9.07,9.07,0,0,1-2.118,5.905s-18.417-5.747-20.611-6.609,7.971-27.872,7.971-27.872l7.478,2.546-4.018,7.6s-1.989,4.256-6.126,11.257C1429.766,583.862,1432.312,586.28,1447.19,591.038Z" transform="translate(-1370.413 -522.17)"/><path class="p" d="M1624.807,452.818l-1.7-5.355s-2.735,1.272-10.661.39l-1.8,5.124S1617.448,458.9,1624.807,452.818Z" transform="translate(-1535.063 -420.642)"/><g transform="translate(154.771 65.162)"><path class="u" d="M2318.28,1052.6a5.144,5.144,0,0,1-.64-1.323,1.567,1.567,0,0,0-.365-.769,7.022,7.022,0,0,1-2.885-1.047c-.8-.743-2.5-2.769-3.3-2.162s.581,3.161,1.4,3.932,1.924,2.124,2.929,2.024S2317.794,1052.674,2318.28,1052.6Z" transform="translate(-2308.018 -1015.276)"/><path class="v" d="M2366.71,1023.966l-1.005-1.964s4.812-.882,6.22-1.729c.353-.213.7-.426,1.031-.627a18.489,18.489,0,0,0,1.577-1.041c.695-.591,3.481-2.564,4.233-3.289s1.64-.283,2.814-.271,5.422,1.189,6.694,1.358,5.862,1.021,5.862,1.021C2393.327,1019.632,2366.71,1023.966,2366.71,1023.966Z" transform="translate(-2356.448 -986.775)"/><path class="w" d="M2365.99,1035.833s-2.59.373-3.256.424c-.681.052-4.538.362-6.4.541s-5.513.072-6.238.391-4.914,1.738-6.285,2.181-10.281,2.074-10.281,2.074a3.013,3.013,0,0,0,.636,2.134,35,35,0,0,1,6-.046,16.921,16.921,0,0,0,7.889-1.156c2.2-1,5.679-.087,7.625.6A45.364,45.364,0,0,0,2366,1044a9.239,9.239,0,0,0,4.122-2.561C2371.461,1039.975,2365.99,1035.833,2365.99,1035.833Z" transform="translate(-2328.034 -1005.255)"/><path class="x" d="M2292.813,1049.74a5.146,5.146,0,0,1-.3-1.439,1.293,1.293,0,0,0-.121-.734,7.8,7.8,0,0,1-2.594-1.813c-.6-.915-1.754-3.291-2.678-2.9s-.2,3.207.406,4.154.982,3.465,1.982,3.611S2292.323,1049.7,2292.813,1049.74Z" transform="translate(-2286.678 -1011.419)"/><path class="w" d="M2559.933,1021.68s3.273,7.428-1.808,9.229c-4.052,1.436-11.524.114-11.524.114l4.6-7.243Z" transform="translate(-2516.155 -992.76)"/><path class="e" d="M2587.282,775.674c1.246.277.5,3.407,1.338,7.782s3.472,5.059,3.472,5.059a7.839,7.839,0,0,1-1.043-3.969c.1-1.585,2.02-5.909.122-8.736-1.466-2.184-4.05-.2-4.05-.2Z" transform="translate(-2551.929 -774.785)"/><path class="n" d="M2580.5,843.536l-2.424,2.494a5.389,5.389,0,0,0-.363-1.479c-.084-.227-.171-.433-.24-.592-.092-.209-.157-.339-.157-.339l2.162-2.286Z" transform="translate(-2543.274 -833.538)"/><path class="p" d="M2562.223,858.933a6.008,6.008,0,0,1-.747,2.306c-.653,1.107-1.732,2.943-1.579,4.138a2.93,2.93,0,0,0,1.12,2.058,15.221,15.221,0,0,1,1.872,4.727,22.914,22.914,0,0,1-.041,5.5s8.5.986,9.354-.5c0,0-1.055-4.774-1.552-5.971s-1.539-8.355-1.986-9.572a13.619,13.619,0,0,0-2.145-3.238c-.575-.754-1.624-2.157-1.624-2.157Z" transform="translate(-2527.881 -846.685)"/><path class="n" d="M2543.888,784.42a3.8,3.8,0,0,0-3.571,3.922,9.3,9.3,0,0,0,.447,1.39c.266.6-.082,2.515.075,2.589a4.081,4.081,0,0,0,.776.121s.884,1.942,1.59,1.843a5.909,5.909,0,0,0,4.294-3.617C2548.472,788.012,2548.417,784.118,2543.888,784.42Z" transform="translate(-2510.607 -783.277)"/><path class="e" d="M2539.694,784.483a10.1,10.1,0,0,0,3.779,1.067c1.826.042,3.323,2.969,3.323,2.969s2.211-4.959-.321-7.476S2538.906,781.085,2539.694,784.483Z" transform="translate(-2509.984 -779.418)"/><path class="n" d="M2576.21,822.09a.556.556,0,0,1,.921-.506c.625.41.05,2.152-.437,2.044S2576.241,822.451,2576.21,822.09Z" transform="translate(-2542.294 -815.976)"/><path class="r" d="M2580.388,851.908a10.909,10.909,0,0,1-1.492,1.979c-.085-.227-.171-.433-.24-.592A7.623,7.623,0,0,0,2580.388,851.908Z" transform="translate(-2544.455 -842.874)"/><rect class="y" width="12.086" height="1.052" transform="matrix(-0.983, 0.186, -0.186, -0.983, 29.71, 31.164)"/><rect class="y" width="12.086" height="1.052" transform="translate(17.83 33.407) rotate(-124.438)"/><path class="n" d="M2458.186,1027.319c-.059-.264,0-.7.831-1.15a14.174,14.174,0,0,1,3.258-1.482c.631-.024,1.874.075,2.129.074s-.4,1.5-.4,1.5Z" transform="translate(-2438.082 -995.412)"/><path class="n" d="M2497.765,904.135s3.465-1.364,4.027-1.635,3.187-1.154,3.42-1.27a59.413,59.413,0,0,0,1.427-8.316c.1-1.649.194-5.141,2.057-4.986s2.309,1.377,2.076,3.783-1.611,11.019-2.192,11.31-7.264,1.785-10.786,2.488C2494.421,906.181,2497.765,904.135,2497.765,904.135Z" transform="translate(-2471.734 -874.67)"/><path class="x" d="M2582.644,890.7s2.684.5,4.231.656c0,0,1.925-5.485-.7-6.361C2583.072,883.957,2582.378,888.208,2582.644,890.7Z" transform="translate(-2547.93 -871.945)"/></g><g transform="translate(152.587 117.299)"><path class="z" d="M2354.89,1440.138a9.862,9.862,0,0,0-2.47.417c-.541.3-4.189-.849-4.257-1.115a.6.6,0,0,1,0-.4h7.162Z" transform="translate(-2338.75 -1413.373)"/><g transform="translate(13.735 17.901)"><path class="z" d="M2396.362,1373.059s.616,4.838,0,5.472c-2.352,2.422-11.068,2.23-11.068,2.23l0,.985s13.248,1.652,14.479-.917c1.479-3.088.906-8.123.906-8.123Z" transform="translate(-2385.294 -1372.705)"/></g><g transform="translate(28.388 66.85)"><path class="w" d="M2511.177,1792.971l-.787-.9,1.421-1.486,1.2.84Z" transform="translate(-2510.39 -1790.588)"/></g><g transform="translate(24.665 67.691)"><path class="aa" d="M2484.948,1797.764a10.044,10.044,0,0,1-2.073,1.27c-.451.049-.664.25-.61.937s-.659,3.581-1.156,3.628-2.186.056-2.494,1.17,5.364.88,5.715-.034,2.792-5.344,2.5-5.7A3.475,3.475,0,0,0,2484.948,1797.764Z" transform="translate(-2478.604 -1797.764)"/></g><g transform="translate(13.284 32.104)"><path class="ab" d="M2388.762,1494.92s-10.594,18.454-6.294,22.272c1.687,1.5,3.31,2.851,5.644,4.855a57.583,57.583,0,0,1,4.513,4.147l.074.077c1.266,1.32,2.311,2.435,2.633,2.78.012.011.021.022.03.032l.036.038,1.179,1.125,1.73-1.521a51.29,51.29,0,0,1-3.067-4.8,30.611,30.611,0,0,0-5.366-7.323c-2.067-1.643-2.635-1.966-2.635-3.537,0-1.685,9.71-11.1,9.71-11.1s1.409-5.891-1.956-7.433A6.948,6.948,0,0,0,2388.762,1494.92Z" transform="translate(-2381.441 -1493.958)"/></g><path class="ac" d="M2512.281,1822.418a5.253,5.253,0,0,0-.076-1.394c-.144-.543,2.193-.231,2.193-.231a20.292,20.292,0,0,1,.213,2.789C2514.524,1824.1,2512.281,1822.418,2512.281,1822.418Z" transform="translate(-2483.598 -1750.327)"/><g transform="translate(20.566 32.378)"><path class="ab" d="M2451.295,1534.619l3.151.568s.227-4.021.186-7.1c-.044-3.311.123-5.914-.888-8.549a12.074,12.074,0,0,1-.813-5.087c-.083-1.682.808-10.349.808-10.349s1.076-3.88-1.416-6.617c-2.427-2.667-8.708-.011-8.708-.011s1.309,11.839,4.449,19.161c.889,2.072.408,3.332,1.542,6.534C2449.606,1523.168,2451.329,1530.151,2451.295,1534.619Z" transform="translate(-2443.615 -1496.296)"/></g><g transform="translate(25.457 7.773)"><path class="ac" d="M2485.411,1288.615a3.636,3.636,0,0,1,.373,1.013,8.781,8.781,0,0,1,.173,1.081,12.641,12.641,0,0,1,.063,1.376s4.2-.915,3.514-1.9-.284-3.951-.284-3.951S2484.867,1287.7,2485.411,1288.615Z" transform="translate(-2485.364 -1286.24)"/></g><g transform="translate(21.921 1.308)"><path class="n" d="M2456.4,1231.788s-1.075.934-.594,3.626a9.2,9.2,0,0,1-.567,2.518c-.328.374.882.512,1.009.781a5.349,5.349,0,0,0,1.21,2.289c.843.76,5.019-1.531,5.222-2.824s3.1-6.839-1.483-7.093S2456.4,1231.788,2456.4,1231.788Z" transform="translate(-2455.181 -1231.044)"/></g><g transform="translate(19.433 11.904)"><path class="p" d="M2434.766,1331.516c.085.27-.236,4.412-.207,4.769a27.343,27.343,0,0,1-.544,6c-.048.252-.074.381-.074.381,4.539,2.219,10.851,2.025,10.851,2.025-.022-.172-.9-2.3-.926-2.468-.374-2.664-.926-3.881-.776-5.683h0a11.242,11.242,0,0,1,.875-3.382,15.467,15.467,0,0,0,1.206-8.388,10.256,10.256,0,0,0-.875-3.267l-3.835.412c-.814.9-1.538,1.382-3.851,3.435C2434.149,1327.538,2433.719,1328.2,2434.766,1331.516Z" transform="translate(-2433.941 -1321.506)"/></g><g transform="translate(22.422 71.851)"><path class="ad" d="M2468.187,1834.1s-2.218-.631-2.284-.693-.081-.2-.386-.074-.432.586-.733.733-2.13.682-3.133,1.175c-.362.178-1.9.763-2.116,1.252s-.152,1.222,2.482,1.048,5.517.2,6.094-.091S2468.339,1834.86,2468.187,1834.1Z" transform="translate(-2459.455 -1833.281)"/></g><g transform="translate(22.416)"><path class="ae" d="M2459.42,1224.591s-.515-5.59,4.9-4.591,2.626,7.107,1.9,9.1c0,0,.089-3.093-2.521-3.193A7.127,7.127,0,0,1,2459.42,1224.591Z" transform="translate(-2459.406 -1219.88)"/></g><g transform="translate(26.836 4.95)"><path class="ac" d="M2497.439,1262.43a.747.747,0,0,1,1.317.6c-.127.865-1.024,1.728-1.322,1.309A1.677,1.677,0,0,1,2497.439,1262.43Z" transform="translate(-2497.142 -1262.14)"/></g><g transform="translate(14.767 15.751)"><path class="ac" d="M2406.348,1354.819s.446,4.789-.169,5.423c-2.352,2.422-11.63,2.468-11.63,2.468l-.444,1.392s13.793.939,15.024-1.631c1.479-3.088.905-8.123.905-8.123Z" transform="translate(-2394.105 -1354.349)"/></g><path class="ae" d="M2514.136,1226.491s2.087-2,3.571.266-1.763,5.432-3.079,3.554A4.183,4.183,0,0,1,2514.136,1226.491Z" transform="translate(-2485.084 -1224.996)"/><path class="r" d="M2488.952,1303.865a8.777,8.777,0,0,1,.173,1.081,6.759,6.759,0,0,0,2.44-2.581,10.759,10.759,0,0,1-2.613,1.5Z" transform="translate(-2463.075 -1292.704)"/><rect class="y" width="13.155" height="0.734" transform="translate(19.08 26.239) rotate(180)"/><rect class="y" width="13.155" height="0.734" transform="translate(5.926 26.239) rotate(-116.775)"/><path class="ac" d="M2363.5,1421.249a7.944,7.944,0,0,1-2.47-.531c-.54-.383-4.189,1.081-4.257,1.419a.959.959,0,0,0,0,.5h7.163Z" transform="translate(-2346.348 -1397.137)"/><path class="af" d="M2492.552,1315.978l-.27-.734-3.682.734v.652Z" transform="translate(-2462.764 -1304.073)"/><g transform="translate(26.982 13.25)"><path class="ac" d="M2498.421,1336.031s-.4-2.776,1.537-3.019,2.144,2.5,2.144,2.5Z" transform="translate(-2498.387 -1332.996)"/></g></g><g transform="translate(45.422 170.003)"><path class="c" d="M1463.909,1669.824H1360.551l-7.392,27.628H1471.3Z" transform="translate(-1353.16 -1669.824)"/><path class="a" d="M1414.008,1732.469h6.763a.407.407,0,0,1,.443.457l-.655,2.942a.438.438,0,0,1-.443.313h-6.879a.405.405,0,0,1-.44-.469l.771-2.942A.441.441,0,0,1,1414.008,1732.469Z" transform="translate(-1405.802 -1725.131)"/><path class="a" d="M1501.562,1732.469h5.113l-.681,3.711h-5.21Z" transform="translate(-1483.492 -1725.131)"/><path class="a" d="M1568.124,1732.469h5.113l-.535,3.711-5.21,0Z" transform="translate(-1542.386 -1725.131)"/><path class="a" d="M1634.7,1732.469h5.113l-.389,3.711h-5.21Z" transform="translate(-1601.292 -1725.131)"/><path class="a" d="M1701.267,1732.469h5.112l-.243,3.711h-5.21Z" transform="translate(-1660.191 -1725.131)"/><path class="a" d="M1767.833,1732.469h5.113l-.1,3.711-5.21,0Z" transform="translate(-1719.089 -1725.131)"/><path class="a" d="M2235.4,1732.469h-7.668l.826,3.711h7.814Z" transform="translate(-2125.289 -1725.131)"/><path class="a" d="M2167.374,1732.469h-5.113l.681,3.711h5.21Z" transform="translate(-2067.487 -1725.131)"/><path class="a" d="M2101.906,1732.469h-5.113l.535,3.711,5.211,0Z" transform="translate(-2009.687 -1725.131)"/><path class="a" d="M2036.436,1732.469h-5.113l.389,3.711h5.21Z" transform="translate(-1951.887 -1725.131)"/><path class="a" d="M1970.967,1732.469h-5.113l.243,3.711h5.21Z" transform="translate(-1894.086 -1725.131)"/><path class="a" d="M1905.5,1732.469h-5.112l.1,3.711,5.21,0Z" transform="translate(-1836.287 -1725.131)"/><path class="a" d="M1834.77,1732.469h5.113l.085,3.711h-5.2Z" transform="translate(-1778.357 -1725.131)"/><path class="a" d="M1397.9,1787.757h10.683l-.608,3.828h-10.885Z" transform="translate(-1391.943 -1773.943)"/><path class="a" d="M2207.91,1787.757H2194.7l.752,3.828h13.456Z" transform="translate(-2096.13 -1773.943)"/><path class="a" d="M2132.345,1787.757h-5.282l.6,3.828h5.383Z" transform="translate(-2036.411 -1773.943)"/><path class="a" d="M2064.7,1787.757h-5.282l.45,3.828h5.383Z" transform="translate(-1976.694 -1773.943)"/><path class="a" d="M1997.061,1787.757h-5.282l.3,3.828h5.383Z" transform="translate(-1916.974 -1773.943)"/><path class="a" d="M1929.421,1787.757h-5.282l.15,3.828h5.382Z" transform="translate(-1857.257 -1773.943)"/><path class="a" d="M1382.881,1846.016H1393.8l-.8,3.8h-11.121Z" transform="translate(-1378.52 -1825.377)"/><path class="a" d="M1501.31,1846.016h5.461l-.647,3.8h-5.561Z" transform="translate(-1483.296 -1825.377)"/><path class="a" d="M1572.366,1846.016h40.954l.153,3.8h-41.7Z" transform="translate(-1546.162 -1825.377)"/><path class="a" d="M1949.836,1846.016h5.461l.3,3.8h-5.56Z" transform="translate(-1879.944 -1825.377)"/><path class="a" d="M2019.766,1846.016h5.461l.448,3.8h-5.561Z" transform="translate(-1941.682 -1825.377)"/><path class="a" d="M2089.7,1846.016h5.461l.6,3.8h-5.56Z" transform="translate(-2003.421 -1825.377)"/><path class="a" d="M2159.627,1846.016h5.461l.747,3.8h-5.561Z" transform="translate(-2065.161 -1825.377)"/><path class="a" d="M2229.557,1846.016h10.922l1,3.8h-11.121Z" transform="translate(-2126.899 -1825.377)"/><path class="a" d="M1862.2,1787.757h-5.239v3.828h5.34Z" transform="translate(-1797.944 -1773.943)"/><path class="a" d="M1793.1,1787.757h-5.282l-.151,3.828h5.382Z" transform="translate(-1736.771 -1773.943)"/><path class="a" d="M1724.325,1787.757h-5.282l-.3,3.828h5.382Z" transform="translate(-1675.92 -1773.943)"/><path class="a" d="M1655.55,1787.757h-5.282l-.451,3.828h5.383Z" transform="translate(-1615.068 -1773.943)"/><path class="a" d="M1586.775,1787.757h-5.282l-.6,3.828h5.382Z" transform="translate(-1554.216 -1773.943)"/><path class="a" d="M1518,1787.757h-5.282l-.752,3.828h5.383Z" transform="translate(-1493.363 -1773.943)"/><path class="a" d="M1425.348,1687.584l.868-3.313h2.482l-.81,3.313Z" transform="translate(-1416.892 -1682.578)"/><path class="a" d="M1469.253,1684.271h4.964l-.694,3.313h-5.051Z" transform="translate(-1454.965 -1682.578)"/><path class="a" d="M1533.811,1684.271h4.964l-.564,3.313h-5.051Z" transform="translate(-1512.075 -1682.578)"/><path class="a" d="M1598.367,1684.271h4.965l-.434,3.313h-5.052Z" transform="translate(-1569.184 -1682.578)"/><path class="a" d="M1662.924,1684.271h4.965l-.3,3.313h-5.051Z" transform="translate(-1626.295 -1682.578)"/><path class="a" d="M1727.48,1684.271h4.964l-.173,3.313h-5.052Z" transform="translate(-1683.404 -1682.578)"/><path class="a" d="M1792.036,1684.271H1797l-.043,3.313h-5.052Z" transform="translate(-1740.513 -1682.578)"/><path class="a" d="M1856.594,1684.271h4.965l.087,3.313h-5.052Z" transform="translate(-1797.624 -1682.578)"/><path class="a" d="M1920.17,1684.271h4.965l.217,3.313H1920.3Z" transform="translate(-1853.753 -1682.578)"/><path class="a" d="M1983.744,1684.271h4.965l.347,3.313H1984Z" transform="translate(-1909.88 -1682.578)"/><path class="a" d="M2047.32,1684.271h4.964l.477,3.313h-5.052Z" transform="translate(-1966.009 -1682.578)"/><path class="a" d="M2110.9,1684.271h4.965l.607,3.313h-5.051Z" transform="translate(-2022.138 -1682.578)"/><path class="a" d="M2174.47,1684.271h4.965l.737,3.313h-5.052Z" transform="translate(-2078.266 -1682.578)"/><path class="a" d="M2238.047,1684.271h4.965l.868,3.313h-5.051Z" transform="translate(-2134.395 -1682.578)"/><rect class="b" width="118.141" height="1.63" transform="translate(0 27.628)"/></g><g transform="translate(0 92.387)"><g transform="translate(25.952 1.182)"><rect class="ag" width="40.196" height="26.643"/></g><g transform="translate(26.486 34.862)"><rect class="ah" width="16.307" height="0.968"/></g><g transform="translate(28.672 38.349)"><rect class="ai" width="1.429" height="44.024" transform="translate(1.429 44.024) rotate(180)"/></g><g transform="translate(40.241 34.587)"><rect class="aj" width="11.335" height="1.382"/></g><g transform="translate(43.763 22.792)"><rect class="ak" width="4.292" height="13.037"/></g><g transform="translate(20.637 35.846)"><rect class="al" width="62.803" height="2.503"/></g><g transform="translate(3.482 16.491)"><path class="af" d="M773.108,1152.2s-.687,9.633,1.2,10.785c1.179.722,5.88,3.158,5.741,3.615s-2.654,4.064-2.654,4.064-9.03-5.947-9.321-7.82c-.284-1.831.445-14.1,1.685-14.67.93-.424,1.421-.073,2.592.8A2.743,2.743,0,0,1,773.108,1152.2Z" transform="translate(-768.007 -1147.993)"/></g><g transform="translate(23.289 20.877)"><path class="am" d="M938.848,1188.008l.8-.294s-.993-2.33-1.426-2.273a10.83,10.83,0,0,0-1.122.23Z" transform="translate(-937.096 -1185.439)"/></g><g transform="translate(20.133 20.721)"><path class="an" d="M915.247,1187.236c-.1-.076-1.692-3.126-1.692-3.126l-3.4.462,1.836,3.613Z" transform="translate(-910.158 -1184.11)"/></g><g transform="translate(16.003 76.11)"><path class="ao" d="M878.591,1657.223s-.281,1.949-.316,2.242-3.124-.172-3.124-.172l-.25-2.32A18.293,18.293,0,0,1,878.591,1657.223Z" transform="translate(-874.902 -1656.971)"/></g><g transform="translate(15.521 78.224)"><path class="o" d="M874.67,1675.147a8.346,8.346,0,0,0,1.925,1.686c.946.512,2.434.715,2.993,1.244.4.383,1.472,2.029-2.459,2s-5.826.232-6.247-.4.609-4.66.609-4.66A8.327,8.327,0,0,0,874.67,1675.147Z" transform="translate(-870.78 -1675.015)"/></g><g transform="translate(35.792 76.128)"><path class="ao" d="M1047.526,1657.38s-.281,1.949-.316,2.242-3.124-.172-3.124-.172l-.25-2.32A18.31,18.31,0,0,1,1047.526,1657.38Z" transform="translate(-1043.836 -1657.129)"/></g><g transform="translate(35.309 78.242)"><path class="o" d="M1043.6,1675.3a8.338,8.338,0,0,0,1.925,1.686c.946.512,4.429.933,4.989,1.462.4.383,1.076,1.922-4.455,1.778-3.93-.1-5.826.233-6.248-.4s.609-4.66.609-4.66A7.555,7.555,0,0,0,1043.6,1675.3Z" transform="translate(-1039.715 -1675.172)"/></g><g transform="translate(6.931 42.694)"><path class="o" d="M800.25,1371.693s11.229,1.9,13.765,2.3,16.288,3.82,18.007,4.863c1.369.83-.718,20.763-1.206,28.369H825.4l-.393-22.813c-6.5.162-11.138-1.521-15.871-.8s-8.679,1.74-11.687-2.293C797.451,1381.314,797.339,1372.574,800.25,1371.693Z" transform="translate(-797.45 -1371.693)"/></g><g transform="translate(4.723 45.122)"><path class="o" d="M794.674,1425.545l-5.278-.326-.514-22.505a32.1,32.1,0,0,1-6.022-.382l-4.262-9.906c3.735.747,15.7,3.765,17.3,4.733C797.264,1397.988,795.162,1417.939,794.674,1425.545Z" transform="translate(-778.598 -1392.425)"/></g><g transform="translate(12.073 0.407)"><path class="n" d="M844.174,1010.882s4.116-1.138,5.687,2.058.859,9.254-1.216,9.823-5.058-.086-5.919-2.075a15.259,15.259,0,0,1-1.342-6.645A4.011,4.011,0,0,1,844.174,1010.882Z" transform="translate(-841.347 -1010.685)"/></g><g transform="translate(12.786 9.047)"><path class="n" d="M852.944,1087.243a12.589,12.589,0,0,0,.223,2.948c.268.518-5.732.388-5.732.388a12.175,12.175,0,0,0,.409-5.4C847.313,1082.713,852.944,1087.243,852.944,1087.243Z" transform="translate(-847.435 -1084.442)"/></g><g transform="translate(11.834)"><path class="ap" d="M840.346,1016.069s.321.652,1.874.547,3.6-1.979,4.26-2.146.7-.543.7-.543l.349.62.676.1s-.459-1.878.541-2.539-.45-5.987-5.514-4.7c0,0-3.865.708-3.917,2.866S839.6,1014.926,840.346,1016.069Z" transform="translate(-839.309 -1007.21)"/></g><g transform="translate(12.865 13.135)"><path class="ah" d="M854.075,1120.945s-.017-.99-.466-1.085-4.716-.682-5.267-.465l-.236,1.307S849.167,1121.355,854.075,1120.945Z" transform="translate(-848.106 -1119.347)"/></g><g transform="translate(18.341 5.175)"><path class="n" d="M896.583,1052.492c-.115-.811-1.038-1.743-1.566-.48s.357,3.1.949,3.005S896.739,1053.593,896.583,1052.492Z" transform="translate(-894.855 -1051.393)"/></g><g transform="translate(36.701 26.428)"><path class="e" d="M1051.6,1232.827h-.008C1051.627,1232.84,1051.631,1232.841,1051.6,1232.827Z" transform="translate(-1051.596 -1232.826)"/></g><g transform="translate(11.185 1.182)"><path class="ap" d="M836.28,1017.3s-5.019-.236-.876,7.6Z" transform="translate(-833.765 -1017.304)"/></g><g transform="translate(2.517 74.947)"><path class="aq" d="M759.767,1653.008l.373,1.05,15.775-4.888-.756-2.127Z" transform="translate(-759.767 -1647.044)"/></g><g transform="translate(17.414 59.175)"><rect class="aq" width="1.793" height="17.151"/></g><g transform="translate(13.023 58.264)"><rect class="ar" width="10.575" height="1.011"/></g><g transform="translate(18.093 74.814)"><path class="aq" d="M908.893,1652l-.374,1.05-15.775-4.888.693-2.26Z" transform="translate(-892.745 -1645.904)"/></g><g transform="translate(18.093 74.814)"><path class="aq" d="M897.778,1652.94v1.222l-5.034-6,.693-2.26Z" transform="translate(-892.745 -1645.904)"/></g><g transform="translate(32.768 80.898)"><circle class="as" cx="1.474" cy="1.474" r="1.474"/></g><g transform="translate(20.304 80.898)"><path class="as" d="M914.565,1699.322a1.474,1.474,0,1,1-1.474-1.474A1.474,1.474,0,0,1,914.565,1699.322Z" transform="translate(-911.616 -1697.848)"/></g><g transform="translate(1.043 80.898)"><path class="as" d="M750.13,1699.322a1.474,1.474,0,1,1-1.474-1.474A1.475,1.475,0,0,1,750.13,1699.322Z" transform="translate(-747.181 -1697.848)"/></g><g transform="translate(5.853 54.436)"><path class="aq" d="M1.914,0H23.14a1.914,1.914,0,0,1,1.914,1.914v0A1.914,1.914,0,0,1,23.14,3.828H1.914A1.914,1.914,0,0,1,0,1.914v0A1.914,1.914,0,0,1,1.914,0Z"/></g><g transform="translate(73.976 38.349)"><rect class="ai" width="1.429" height="44.024"/></g><g transform="translate(28.828 4.339)"><rect class="at" width="34.161" height="20.636"/></g><g transform="translate(43.767 32.52)"><path class="au" d="M1121.739,1288.2v-.465s-.654-2.894-5.281-2.894-4.533,3.359-4.533,3.359Z" transform="translate(-1111.925 -1284.836)"/></g><g transform="translate(42.689 31.157)"><path class="n" d="M1103.741,1274.995a4.564,4.564,0,0,0,1.373-.3c.368-.222,2.572-1.7,3.089-1.467s3.962,1.292,3.842,1.8-.438.455-.681.366a17.736,17.736,0,0,0-2.965-.526s2.457.9,2.466,1.55-.514.813-.747,1.06-.513.861-1.146.909-3.722-1.028-4.358-1.077a15.529,15.529,0,0,1-1.893-.064A17.618,17.618,0,0,1,1103.741,1274.995Z" transform="translate(-1102.719 -1273.202)"/></g><g transform="translate(4.462 14.49)"><path class="p" d="M797.321,1132.526c-3.205-.563-6.578-1.372-6.578-1.372l-5.969-.243a58.082,58.082,0,0,0-7.635,2.18c-.2.093-.206,4.887-.767,6.144l1.789,3.773s1.033,7.475,1.248,10.8c.1,1.526-.278,14.749-.278,14.749a22.967,22.967,0,0,0,4.61.714c4.074.449,14.252-.162,14.316-.643s-1.971-17.916-2.061-18.819c-.138-1.386.4-7.789.4-7.789.767,1.031,2.724,5.687,4.764,7.9,1.2,1.3,7.14,2.1,8.26,2.139,2.437.081,6.884.566,7.014.33.1-.142.387-3.947.109-4.04-.244-.082-8.5-.557-10.616-1.679-.774-.411-3.087-5.455-3.087-5.455S799.089,1133.321,797.321,1132.526Z" transform="translate(-776.371 -1130.911)"/></g><g transform="translate(0 27.825)"><path class="aq" d="M8.639,0h0a8.639,8.639,0,0,1,8.639,8.639V15.29a8.639,8.639,0,0,1-8.639,8.639h0A8.639,8.639,0,0,1,0,15.291V8.639A8.639,8.639,0,0,1,8.639,0Z"/></g><g transform="translate(5.209 43.102)"><path class="av" d="M791.756,1389.384a7.916,7.916,0,0,1-6.141-2.543c-3.454-3.813-2.833-10.516-2.805-10.8a.961.961,0,0,1,1.913.189c-.007.077-.558,6.153,2.321,9.324a5.994,5.994,0,0,0,4.712,1.907.961.961,0,1,1,0,1.922Z" transform="translate(-782.749 -1375.175)"/></g><g transform="translate(31.25 5.982)"><path class="aw" d="M.545,0H9.462a.545.545,0,0,1,.545.545v0a.545.545,0,0,1-.545.545H.545A.545.545,0,0,1,0,.545v0A.545.545,0,0,1,.545,0Z"/></g><g transform="translate(31.25 8.321)"><rect class="aw" width="10.007" height="1.09" rx="0.545"/></g><g transform="translate(31.25 11.003)"><rect class="aw" width="10.007" height="12.328" rx="5.003"/></g><g transform="translate(43.277 5.982)"><path class="aw" d="M8.674,0h.472A8.674,8.674,0,0,1,17.82,8.674v0a8.674,8.674,0,0,1-8.674,8.674H8.674A8.674,8.674,0,0,1,0,8.674v0A8.674,8.674,0,0,1,8.674,0Z"/></g><g transform="translate(68.796 13.077)"><path class="ax" d="M1354.335,1133.451a4.043,4.043,0,1,1,3.459-1.949A4.044,4.044,0,0,1,1354.335,1133.451Z" transform="translate(-1347.398 -1124.601)"/><path class="ay" d="M1328.425,1148.655a2.83,2.83,0,0,1-2.83-2.83c0-.09,0-.179.013-.268a2.83,2.83,0,1,1,2.817,3.1Z" transform="translate(-1325.595 -1140.167)"/><path class="az" d="M1351.99,1161.7s.225,1.878.3,4.432-1.953,2.554-1.953,2.554v9.355h-1.408s.033-9.543-.668-10.311-.7-4.407-.7-4.407l.4-.234s-.6,4.307,2.137,4.941,1.7-6.143,1.7-6.143Z" transform="translate(-1344.987 -1156.68)"/><path class="ba" d="M1358.115,1130.059a8.378,8.378,0,0,1-4.677-2.339,4.044,4.044,0,1,1,7.134,3.783C1360.461,1130.953,1359.859,1130.384,1358.115,1130.059Z" transform="translate(-1350.177 -1124.601)"/><path class="bb" d="M1327.694,1146.6a4.677,4.677,0,0,1-1.991-1.044,2.83,2.83,0,1,1,4.367,2.635A3.606,3.606,0,0,0,1327.694,1146.6Z" transform="translate(-1325.69 -1140.167)"/><path class="bc" d="M1329.1,1264.082h9.515l-.491,1.766h-8.436Z" transform="translate(-1328.688 -1247.069)"/><path class="bd" d="M1339.248,1279.157h7.062l-.981,3.995h-5.395Z" transform="translate(-1337.649 -1260.379)"/><path class="bb" d="M1342.633,1137.577l-.244.075s-.384-1.043-.409-1.185A10.924,10.924,0,0,1,1342.633,1137.577Z" transform="translate(-1340.06 -1134.393)"/><path class="bb" d="M1327.876,1146.67l1.21.367s-.008.109-.167.109A6.6,6.6,0,0,1,1327.876,1146.67Z" transform="translate(-1327.609 -1143.41)"/><path class="bb" d="M1330.6,1168.333h.309a1.645,1.645,0,0,1-.309.751C1330.349,1169.376,1330.6,1168.333,1330.6,1168.333Z" transform="translate(-1329.915 -1162.536)"/><path class="ba" d="M1389.387,1118.85c.125.092-.442,1.478-.442,1.478h-.284S1389.261,1118.758,1389.387,1118.85Z" transform="translate(-1381.273 -1118.846)"/><path class="ba" d="M1383.557,1120.958a2.494,2.494,0,0,1,.242-1.01v.951S1383.607,1121.333,1383.557,1120.958Z" transform="translate(-1376.762 -1119.819)"/><path class="ba" d="M1401.313,1164.606c-.175-.143-.184-1.4-.184-1.4l.276.1S1401.489,1164.749,1401.313,1164.606Z" transform="translate(-1392.282 -1158.006)"/><path class="be" d="M1359.22,1279.157h4.723l-.981,3.995h-1.546A3.1,3.1,0,0,0,1359.22,1279.157Z" transform="translate(-1355.281 -1260.379)"/></g><g transform="translate(74.596 27.341)"><path class="bf" d="M1377.833,1286.881c-.387-.162-1.013-1.991-1.314-2.939-.107-.336-.173-.561-.173-.561h3.543a10.7,10.7,0,0,1-1.05,3.5Z" transform="translate(-1376.202 -1278.373)"/><path class="bg" d="M1379.409,1258.882c0-.127-.569-.66-.853-1.008s.109-1.008.109-1.008a1.923,1.923,0,0,1,1.05,2.016S1379.409,1259.01,1379.409,1258.882Z" transform="translate(-1378.061 -1254.963)"/><path class="bg" d="M1391.595,1244.6h-.153s-.109-2.576.831-2.926.941-1.05.941-1.05.284.963-.175,1.466-.984,1.094-.9,1.575S1391.595,1244.6,1391.595,1244.6Z" transform="translate(-1389.526 -1240.62)"/><path class="bh" d="M1376.519,1283.943c-.107-.336-.173-.561-.173-.561h3.543a10.7,10.7,0,0,1-1.05,3.5h-.231A2.739,2.739,0,0,0,1376.519,1283.943Z" transform="translate(-1376.202 -1278.373)"/><path class="bi" d="M1375.259,1274.079h3.569l.2,1.09h-3.918Z" transform="translate(-1375.114 -1270.16)"/></g></g></g></g></svg>