<svg xmlns="http://www.w3.org/2000/svg" xmlns:xlink="http://www.w3.org/1999/xlink" width="213.383" height="206.395" viewBox="0 0 213.383 206.395"><defs><style>.a,.aa,.ae,.af,.ag,.ai,.al,.as,.d,.g,.k,.l,.t,.u,.x,.y{fill:none;}.b{fill:#023d5f;}.c{clip-path:url(#a);}.d,.u,.y{stroke:#17a59e;}.af,.ag,.ai,.al,.as,.d,.g,.k,.t,.x{stroke-miterlimit:10;}.e{fill:#dae4e5;}.f{clip-path:url(#b);}.g{stroke:#023d5f;stroke-width:2px;}.h{fill:#2dc1bd;}.i{fill:#17a59e;}.j{clip-path:url(#c);}.k{stroke:#2dc1bd;}.l{stroke:#63bace;stroke-dasharray:3 2.5;}.aa,.ae,.l,.u,.y{stroke-linecap:round;stroke-linejoin:round;}.m{fill:#fdd247;}.n{fill:#fcded6;}.o{fill:#71606e;}.o,.v{opacity:0.2;}.ad,.ar,.as,.o,.v,.z{mix-blend-mode:multiply;}.aa,.ad,.ar,.as,.ay,.ba,.o,.v,.z{isolation:isolate;}.p{fill:#167f7f;}.q{fill:#fc9549;}.r{fill:#fc5e49;}.s{fill:#2085b7;}.ai,.t,.x{stroke:#fff;}.t{stroke-width:3px;}.v{fill:#ffb839;}.w,.z{fill:#b3e5e1;}.ae,.af,.y{stroke-width:0.5px;}.ad,.ax,.z{opacity:0.55;}.aa{stroke:#ffe1b0;stroke-width:16px;}.aa,.ay,.ba{mix-blend-mode:screen;}.ab{fill:#0c877e;}.ac{fill:#c5e6ef;}.ad{fill:#71c9c4;}.ae{stroke:#95c6c6;stroke-dasharray:2 2.5;}.af,.ag{stroke:#c5e6ef;}.ag,.ai{stroke-width:0.25px;}.ah{fill:#f39f86;}.aj{fill:#fff;}.ak{fill:#95c6c6;}.al{stroke:#062f44;}.am{fill:#062f44;}.an{fill:#16405a;}.ao{fill:#103649;}.ap{opacity:0.5;}.aq{fill:#3a3a3a;}.ar{fill:#ffe7c5;}.as{stroke:#ffe7c5;stroke-width:0.588px;}.at{fill:#ffc25b;}.au{fill:#ffa92c;}.av{fill:#0b0b3a;}.aw{fill:#8fd8d3;}.az{fill:#afd4dd;}.ba{fill:#ffb27e;}.bb{fill:#db856e;}.bc{fill:#ed9c80;}</style><clipPath id="a"><path class="a" d="M294.819,294.394c-10.726.6-18.767,12.8-18.767,12.8s9.35,11.229,20.077,10.63,18.767-12.8,18.767-12.8S305.546,293.794,294.819,294.394Z" transform="translate(-276.052 -294.37)"/></clipPath><clipPath id="b"><path class="a" d="M156.8,293.072c12.153,10.488,33.458,5.719,33.458,5.719s1.6-21.774-10.55-32.263-33.458-5.719-33.458-5.719S144.647,282.584,156.8,293.072Z" transform="translate(-146.18 -259.727)"/></clipPath><clipPath id="c"><path class="a" d="M316.467,277.6c-11.013,9.975-30.418,6.5-30.418,6.5s-1.549-19.654,9.464-29.629,30.418-6.5,30.418-6.5S327.481,267.626,316.467,277.6Z" transform="translate(-285.974 -247.384)"/></clipPath></defs><g transform="translate(0 0)"><g transform="translate(132.932 107.07)"><path class="b" d="M294.819,294.394c-10.726.6-18.767,12.8-18.767,12.8s9.35,11.229,20.077,10.63,18.767-12.8,18.767-12.8S305.546,293.794,294.819,294.394Z" transform="translate(-276.052 -294.37)"/><g class="c"><g transform="translate(-1.023 0.639)"><line class="d" y1="2.284" x2="40.886" transform="translate(0 9.918)"/><line class="d" x1="9.943" y1="11.663" transform="translate(9.014 11.699)"/><line class="d" x1="9.942" y1="11.663" transform="translate(23.235 10.905)"/><line class="d" y1="11.281" x2="10.769" transform="translate(16.502)"/><line class="d" y1="7.519" x2="7.379" transform="translate(26.027 3.268)"/></g></g></g><ellipse class="e" cx="81.317" cy="10.46" rx="81.317" ry="10.46" transform="translate(29.149 143.56)"/><g transform="translate(52.711 85.671)"><path class="b" d="M156.8,293.072c12.153,10.488,33.458,5.719,33.458,5.719s1.6-21.774-10.55-32.263-33.458-5.719-33.458-5.719S144.647,282.584,156.8,293.072Z" transform="translate(-146.18 -259.727)"/><g transform="translate(0)"><g class="f"><g transform="translate(-1.124 -5.47)"><line class="d" x1="46.321" y1="39.977" transform="translate(0 5.598)"/><line class="d" x1="1.417" y2="22.856" transform="translate(36.108 13.905)"/><line class="d" x1="1.417" y2="22.856" transform="translate(19.997)"/><line class="d" x1="23.283" y2="0.95" transform="translate(4.341 29.439)"/><line class="d" x1="15.735" y2="0.425" transform="translate(1.139 20.085)"/></g></g></g></g><g transform="translate(3.638 61.453)"><g transform="translate(0 85.098)"><path class="e" d="M119.82,362.022c0,2.061-11.883,3.733-26.544,3.733s-26.542-1.672-26.542-3.733,11.884-3.735,26.542-3.735S119.82,359.959,119.82,362.022Z" transform="translate(-66.735 -358.287)"/></g><g transform="translate(10.047 1.645)"><line class="g" y1="87.461" x2="8.359"/><line class="g" x1="8.359" y1="87.461" transform="translate(24.967)"/><line class="g" x2="17.94" transform="translate(7.693 6.973)"/><line class="g" x2="19.947" transform="translate(6.69 17.47)"/><line class="g" x2="21.953" transform="translate(5.686 27.967)"/><line class="g" x2="23.96" transform="translate(4.683 38.464)"/><line class="g" x2="25.93" transform="translate(3.68 48.961)"/><line class="g" x2="27.943" transform="translate(2.676 59.458)"/><line class="g" x2="29.972" transform="translate(1.673 69.955)"/><line class="g" x2="31.651" transform="translate(0.67 80.452)"/></g><path class="h" d="M112.883,222.691H94.1a1.085,1.085,0,0,1-1.085-1.085h0A1.085,1.085,0,0,1,94.1,220.52h18.779a1.086,1.086,0,0,1,1.085,1.086h0A1.086,1.086,0,0,1,112.883,222.691Z" transform="translate(-76.783 -220.52)"/></g><g transform="translate(139.061 78.047)"><path class="i" d="M316.467,277.6c-11.013,9.975-30.418,6.5-30.418,6.5s-1.549-19.654,9.464-29.629,30.418-6.5,30.418-6.5S327.481,267.626,316.467,277.6Z" transform="translate(-285.974 -247.384)"/><g class="j"><g transform="translate(-0.939 -4.549)"><line class="k" y1="38.023" x2="41.979" transform="translate(0 4.226)"/><line class="k" x2="1.384" y2="20.641" transform="translate(7.871 13.225)"/><line class="k" x2="1.384" y2="20.641" transform="translate(22.472)"/><line class="k" y1="0.056" x2="21.189" transform="translate(16.943 26.846)"/><line class="k" y1="0.235" x2="14.319" transform="translate(26.686 17.774)"/></g></g></g><g transform="translate(42.755 109.377)"><g transform="translate(3.192 32.548)"><path class="l" d="M208.564,363.047v5.358a9.626,9.626,0,0,1-9.626,9.626H182.5a5.749,5.749,0,0,1-5.749-5.749v-8.259" transform="translate(-151.102 -355.48)"/><path class="l" d="M135.23,360.406v10.737a11.218,11.218,0,0,0,11.218,11.218H182A16.662,16.662,0,0,0,198.657,365.7V350.8" transform="translate(-135.23 -350.797)"/><path class="l" d="M175.76,401.9" transform="translate(-150.725 -370.333)"/><path class="l" d="M149.324,366.354v10.737a11.217,11.217,0,0,0,11.217,11.218h14.49" transform="translate(-140.618 -356.744)"/><path class="l" d="M162.911,366.354v10.737a11.218,11.218,0,0,0,11.218,11.218h15.6" transform="translate(-145.813 -356.744)"/></g><g transform="translate(0 0.003)"><path class="m" d="M136.321,311.507V349.6l-6.128.009-.13-38.091Z" transform="translate(-130.063 -303.232)"/><g transform="translate(0.005)"><path class="n" d="M133.12,298.11l.624.887,2.579,7.389-6.253.009,2.451-7.427Z" transform="translate(-130.071 -298.11)"/><path class="m" d="M134.638,298.11l.624.887-.329.205-.294-.235-.317.319-.283-.318Z" transform="translate(-131.588 -298.11)"/></g><g transform="translate(0.005 8.276)"><path class="n" d="M130.071,311.521l.9.673.635-.676Z" transform="translate(-130.071 -311.512)"/><path class="n" d="M132.549,311.517l.9.673.635-.676Z" transform="translate(-131.018 -311.51)"/><path class="n" d="M135.028,311.514l.9.673.635-.676Z" transform="translate(-131.966 -311.509)"/><path class="n" d="M137.506,311.51l.9.673.764-.676Z" transform="translate(-132.914 -311.507)"/></g></g><path class="o" d="M134.458,298.1l.624.887,2.579,7.392v38.089l-1.986,0-.13-38.092-1.976-6.538.29-.882Z" transform="translate(-131.403 -298.105)"/><rect class="p" width="6.13" height="1.126" transform="translate(0.129 45.961)"/><g transform="translate(8.59)"><g transform="translate(0 0.003)"><path class="q" d="M150.228,311.507V349.6l-6.128.009-.13-38.091Z" transform="translate(-143.969 -303.232)"/><g transform="translate(0.005)"><path class="n" d="M147.027,298.11l.624.887,2.579,7.389-6.253.009,2.451-7.427Z" transform="translate(-143.978 -298.11)"/><path class="q" d="M148.544,298.11l.624.887-.329.205-.294-.235-.317.319-.283-.318Z" transform="translate(-145.495 -298.11)"/></g><g transform="translate(0.005 8.276)"><path class="n" d="M143.978,311.521l.9.673.635-.676Z" transform="translate(-143.978 -311.512)"/><path class="n" d="M146.456,311.517l.9.673.635-.676Z" transform="translate(-144.925 -311.51)"/><path class="n" d="M148.935,311.514l.9.673.635-.676Z" transform="translate(-145.873 -311.509)"/><path class="n" d="M151.413,311.51l.9.673.764-.676Z" transform="translate(-146.82 -311.507)"/></g></g><path class="o" d="M148.365,298.1l.624.887,2.579,7.392v38.089l-1.986,0-.13-38.092-1.976-6.538.29-.882Z" transform="translate(-145.31 -298.105)"/><rect class="p" width="6.13" height="1.126" transform="translate(0.129 45.961)"/></g><g transform="translate(17.18)"><g transform="translate(0 0.003)"><path class="r" d="M164.134,311.507V349.6l-6.128.009-.13-38.091Z" transform="translate(-157.876 -303.232)"/><g transform="translate(0.005)"><path class="n" d="M160.934,298.11l.624.887,2.579,7.389-6.253.009,2.451-7.427Z" transform="translate(-157.884 -298.11)"/><path class="r" d="M162.451,298.11l.624.887-.329.205-.294-.235-.317.319-.283-.318Z" transform="translate(-159.402 -298.11)"/></g><g transform="translate(0.005 8.276)"><path class="n" d="M157.884,311.521l.9.673.635-.676Z" transform="translate(-157.884 -311.512)"/><path class="n" d="M160.363,311.517l.9.673.635-.676Z" transform="translate(-158.832 -311.51)"/><path class="n" d="M162.841,311.514l.9.673.635-.676Z" transform="translate(-159.78 -311.509)"/><path class="n" d="M165.32,311.51l.9.673.764-.676Z" transform="translate(-160.727 -311.507)"/></g></g><path class="o" d="M162.272,298.1l.624.887,2.579,7.392v38.089l-1.986,0-.13-38.092-1.976-6.538.29-.882Z" transform="translate(-159.217 -298.105)"/><rect class="p" width="6.13" height="1.126" transform="translate(0.129 45.961)"/></g><g transform="translate(25.77)"><g transform="translate(0 0.003)"><path class="s" d="M178.041,311.507V349.6l-6.128.009-.13-38.091Z" transform="translate(-171.783 -303.232)"/><g transform="translate(0.005)"><path class="n" d="M174.841,298.11l.624.887,2.579,7.389-6.253.009,2.451-7.427Z" transform="translate(-171.791 -298.11)"/><path class="s" d="M176.358,298.11l.624.887-.329.205-.294-.235-.317.319-.283-.318Z" transform="translate(-173.308 -298.11)"/></g><g transform="translate(0.005 8.276)"><path class="n" d="M171.791,311.521l.9.673.635-.676Z" transform="translate(-171.791 -311.512)"/><path class="n" d="M174.27,311.517l.9.673.635-.676Z" transform="translate(-172.739 -311.51)"/><path class="n" d="M176.748,311.514l.9.673.635-.676Z" transform="translate(-173.686 -311.509)"/><path class="n" d="M179.227,311.51l.9.673.764-.676Z" transform="translate(-174.634 -311.507)"/></g></g><path class="o" d="M176.178,298.1l.624.887,2.579,7.392v38.089l-1.986,0-.13-38.092-1.976-6.538.29-.882Z" transform="translate(-173.124 -298.105)"/><rect class="p" width="6.13" height="1.126" transform="translate(0.129 45.961)"/></g></g><path class="l" d="M312.825,382.624h22.982c1.157,0,2.095,1.582,2.095,3.533h0c0,1.951-.938,3.533-2.095,3.533H263.46c-3.8,0-6.882-5.2-6.882-11.605V364.332" transform="translate(-135.675 -214.047)"/><path class="l" d="M234.754,367.155v23.422a11.736,11.736,0,0,1-11.736,11.736h-4.126" transform="translate(-121.267 -215.126)"/><path class="l" d="M269.281,356.081v9.692c0,3.885,3.527,7.036,7.878,7.036h47.513" transform="translate(-140.531 -210.892)"/><g transform="translate(59.198)"><path class="m" d="M257.9,142.629c-10.065-12.46-25.029-21.3-41.358-21.583-9.446-.165-19.4,1.087-27.833,5.587a62.924,62.924,0,0,0-19.1,16c-9.017,11.162-14.212,25.722-12.651,39.986,1.3,11.91,7.19,22.833,14.967,31.774,7.584,8.72,18.641,15.916,20.535,28.233.541,3.517-.755,8.379,1.927,11.192,3.193,3.348,8.378,2.182,12.464,2.149q7.292-.057,14.584-.091c3.485-.019,9.056.948,11.686-2.058,2.683-2.813,1.387-7.675,1.927-11.192,1.428-9.279,8.662-16.8,15.322-22.841,7.644-6.938,13.7-14.914,17.115-24.763C273.8,176.783,269.942,157.535,257.9,142.629Z" transform="translate(-156.682 -121.032)"/><path class="t" d="M231.4,303.863s-1.213-32.511-2.7-48.444a63.246,63.246,0,0,0-2.806-15.14c-3.428-10.773-8.913-12.34-12.242-9.892-4.2,3.092-1.5,9.6,4.6,12.266,3.68,1.609,10.489.878,14.005-1.2,6.178-3.649,8.9-12.3,8.031-18.8-.435-3.267-6.758-6.953-9.01-.881-1.576,4.249,1.917,19.763,10.106,20.216a17.313,17.313,0,0,0,11.882-4.224c2.767-2.319,7.492-7.94,5.689-11.863-.868-1.89-3.348-2.611-5.351-2.051a10.043,10.043,0,0,0-4.876,3.723c-5.1,6.423-7.058,14.542-7.465,22.574-.972,19.165-1.217,34.231-1.828,53.41" transform="translate(-177.685 -158.3)"/><rect class="i" width="32.948" height="3.251" transform="translate(40.271 134.749)"/><path class="h" d="M255.225,355.047a1.917,1.917,0,0,1,.059-2.444l.2-.219a1.919,1.919,0,0,0,.083-2.414l-.333-.419a1.909,1.909,0,0,1,.151-2.483,1.912,1.912,0,0,0,.178-2.447l-.882-1.177a1.7,1.7,0,0,0-1.363-.681h-32.74a1.705,1.705,0,0,0-1.363.681l-.882,1.177a1.911,1.911,0,0,0,.179,2.447,1.909,1.909,0,0,1,.151,2.483l-.332.419a1.918,1.918,0,0,0,.083,2.414l.2.219a1.917,1.917,0,0,1,.059,2.444l-.26.313a1.912,1.912,0,0,0,.093,2.479l.136.137a3.524,3.524,0,0,0,2.492,1.082h31.622a3.523,3.523,0,0,0,2.492-1.082l.137-.137a1.913,1.913,0,0,0,.093-2.479Z" transform="translate(-180.104 -205.801)"/><line class="u" x2="15.259" transform="translate(58.209 141.371)"/><line class="u" x2="8.458" transform="translate(42.951 141.371)"/><line class="u" x2="22.114" transform="translate(40.739 145.109)"/><line class="u" x2="6.524" transform="translate(66.999 145.109)"/><line class="u" x2="11.831" transform="translate(42.951 148.847)"/><line class="u" x2="4.754" transform="translate(62.521 148.847)"/><line class="u" x2="1.714" transform="translate(53.529 141.371)"/><path class="v" d="M280.819,142.629c-10.065-12.46-25.029-21.3-41.358-21.583-1.862-.033-3.743-.007-5.628.084,26.145,1.6,48.792,24.323,47.936,51.665-.72,22.984-11.944,39.374-35.153,49.424-4.857,2.1-8.341,5.312-9.114,10.876-.714,5.142.909,10.352-.158,15.479a4.333,4.333,0,0,1-.95,2.145,4.716,4.716,0,0,1-1.9,1.067,34.329,34.329,0,0,1-17.858,1.132,5.255,5.255,0,0,0,.675.9c3.193,3.348,8.378,2.182,12.464,2.149q7.292-.057,14.584-.091c3.485-.019,9.056.948,11.686-2.058,2.683-2.813,1.387-7.675,1.927-11.192,1.428-9.279,8.662-16.8,15.322-22.841,7.644-6.938,13.7-14.914,17.115-24.763C296.723,176.784,292.86,157.536,280.819,142.629Z" transform="translate(-179.601 -121.032)"/></g><g transform="translate(0 158.128)"><g transform="translate(3.516 30.183)"><path class="e" d="M108.872,428.379c0,1.372-9.477,2.486-21.168,2.486s-21.166-1.114-21.166-2.486,9.477-2.487,21.166-2.487S108.872,427.006,108.872,428.379Z" transform="translate(-66.538 -425.892)"/></g><g transform="translate(0 0)"><path class="w" d="M62.771,400.851a16.025,16.025,0,0,1-.806-13.432,16.494,16.494,0,0,1,4.752-6.668,18.147,18.147,0,0,1,6.463-3.142A15.937,15.937,0,0,1,85.2,378.992a17.036,17.036,0,0,1,6.6,7.686c1.4,3.024,1.992,6.784,5.011,8.734.862.557,2.295.789,2.719,1.827.5,1.235-.413,2.463-.9,3.534q-.875,1.913-1.743,3.828c-.416.915-.818,2.5-1.92,2.834-1.056.374-2.184-.54-3.173-.812-2.611-.718-5.443.3-7.819,1.341a17.246,17.246,0,0,1-8.537,1.586A15.623,15.623,0,0,1,62.771,400.851Z" transform="translate(-60.845 -377.028)"/><path class="x" d="M108.107,409.07s-8.415-4.152-12.434-6.423a18.264,18.264,0,0,1-3.637-2.508c-.943-.84-2.853-2.822-1.628-4.131,1.446-1.545,3.148.977,3.135,2.384a5.349,5.349,0,0,1-1.967,3.546,5.7,5.7,0,0,1-5.9-.1,1.344,1.344,0,0,1,.83-2.477c1.3.086,4.976,2.835,4.13,5.044a4.994,4.994,0,0,1-2.505,2.626c-2.014.982-4.625-1.57-1.8-2.478,2.011-.645,4.579.049,6.464.781,5.16,2,9.155,3.715,14.276,5.816" transform="translate(-70.095 -384.099)"/><rect class="i" width="9.503" height="0.938" transform="translate(39.754 21.501) rotate(114.124)"/><path class="h" d="M121.455,422.057a.552.552,0,0,0-.65-.272l-.082.028a.553.553,0,0,1-.645-.262l-.071-.137a.552.552,0,0,0-.671-.253.551.551,0,0,1-.665-.242l-.206-.371a.491.491,0,0,1-.019-.439l3.86-8.619a.491.491,0,0,1,.34-.279l.413-.094a.551.551,0,0,1,.623.335.551.551,0,0,0,.636.333l.149-.038a.553.553,0,0,1,.626.306l.033.08a.552.552,0,0,0,.636.3l.113-.031a.552.552,0,0,1,.642.317l.02.052a1.016,1.016,0,0,1-.009.784l-3.728,8.325a1.016,1.016,0,0,1-.578.528l-.053.02a.551.551,0,0,1-.663-.267Z" transform="translate(-82.85 -390.056)"/><line class="y" x1="1.799" y2="4.017" transform="translate(36.727 26.621)"/><line class="y" x1="0.997" y2="2.227" transform="translate(39.328 22.604)"/><line class="y" x1="2.607" y2="5.821" transform="translate(38.963 22.462)"/><line class="y" x1="0.769" y2="1.717" transform="translate(37.705 29.375)"/><line class="y" x1="1.395" y2="3.114" transform="translate(40.898 23.485)"/><line class="y" x1="0.56" y2="1.252" transform="translate(39.425 28.637)"/><line class="y" x1="0.202" y2="0.451" transform="translate(38.876 25.389)"/><path class="z" d="M62.771,406.371a16.025,16.025,0,0,1-.806-13.432c.211-.494.439-.986.686-1.471-2.661,7.071.651,15.712,7.949,18.71,6.136,2.52,11.774,1.5,17.155-3.428a3.906,3.906,0,0,1,3.938-1.117c1.438.418,2.618,1.46,4.093,1.783a1.252,1.252,0,0,0,.676,0,1.36,1.36,0,0,0,.505-.376,9.9,9.9,0,0,0,2.4-4.568,1.52,1.52,0,0,1,.157.284c.5,1.235-.413,2.463-.9,3.534q-.875,1.913-1.743,3.828c-.416.915-.818,2.5-1.92,2.834-1.056.374-2.184-.54-3.173-.812-2.611-.718-5.443.3-7.819,1.341a17.246,17.246,0,0,1-8.537,1.586A15.623,15.623,0,0,1,62.771,406.371Z" transform="translate(-60.845 -382.548)"/></g></g><g transform="translate(156.499 143.305)"><g transform="translate(0 34.096)"><path class="e" d="M375.113,411.294c0,1.691-11.679,3.064-26.088,3.064s-26.085-1.373-26.085-3.064,11.679-3.064,26.085-3.064S375.113,409.6,375.113,411.294Z" transform="translate(-322.94 -408.23)"/></g><path class="w" d="M381.761,381.121A18.654,18.654,0,0,0,383.02,365.5a19.2,19.2,0,0,0-5.372-7.875,21.129,21.129,0,0,0-7.447-3.812,18.559,18.559,0,0,0-14.022,1.323,19.843,19.843,0,0,0-7.866,8.789c-1.7,3.488-2.481,7.848-6.042,10.047-1.017.628-2.69.864-3.209,2.061-.617,1.426.423,2.877.967,4.136q.973,2.247,1.938,4.5c.462,1.075.893,2.925,2.166,3.345,1.221.461,2.555-.576,3.714-.87,3.056-.773,6.328.48,9.07,1.748a20.061,20.061,0,0,0,9.9,2.05A18.19,18.19,0,0,0,381.761,381.121Z" transform="translate(-329.031 -353.032)"/><path class="x" d="M340.26,389.769s9.895-4.632,14.626-7.179a21.223,21.223,0,0,0,4.315-2.85c2.883-2.471,2.649-4.372,1.456-5.081-1.506-.9-3.164.793-3.19,3.03a6.233,6.233,0,0,0,2.2,4.174c1.938,1.432,4.97,1.14,6.867.022.953-.563,1.266-3-.907-2.9-1.52.069-5.86,3.181-4.929,5.772a5.814,5.814,0,0,0,2.862,3.121,6.173,6.173,0,0,0,3.911.49c2.219-.671-.153-2.894-1.353-3.227a13.071,13.071,0,0,0-7.958.647c-6.053,2.209-10.745,4.106-16.756,6.428" transform="translate(-329.561 -361.206)"/><rect class="i" width="11.064" height="1.092" transform="matrix(0.39, 0.921, -0.921, 0.39, 9.759, 24.056)"/><path class="h" d="M335.285,404.581a.644.644,0,0,1,.763-.3l.095.035a.645.645,0,0,0,.757-.29l.086-.157a.641.641,0,0,1,.788-.279.642.642,0,0,0,.78-.266l.248-.427a.573.573,0,0,0,.032-.511l-4.287-10.124a.57.57,0,0,0-.389-.332l-.479-.119a.642.642,0,0,0-.733.376.641.641,0,0,1-.748.372l-.173-.048a.645.645,0,0,0-.736.342l-.041.091a.643.643,0,0,1-.748.339l-.131-.04a.642.642,0,0,0-.755.353l-.024.06a1.184,1.184,0,0,0-.009.912l4.14,9.779a1.183,1.183,0,0,0,.661.629l.061.024a.642.642,0,0,0,.779-.3Z" transform="translate(-325.446 -367.85)"/><line class="y" x2="1.998" y2="4.719" transform="translate(10.06 30.47)"/><line class="y" x2="1.108" y2="2.616" transform="translate(8.062 25.752)"/><line class="y" x2="2.895" y2="6.838" transform="translate(6.617 25.557)"/><line class="y" x2="0.854" y2="2.017" transform="translate(10.055 33.678)"/><line class="y" x2="1.549" y2="3.659" transform="translate(5.75 26.731)"/><line class="y" x2="0.623" y2="1.47" transform="translate(8.313 32.783)"/><line class="y" x2="0.224" y2="0.53" transform="translate(9.447 29.023)"/><path class="z" d="M381.761,387.77a18.654,18.654,0,0,0,1.259-15.616c-.233-.58-.488-1.158-.763-1.73,2.929,8.294-1.133,18.273-9.7,21.588-7.2,2.786-13.74,1.461-19.887-4.4a4.548,4.548,0,0,0-4.557-1.394c-1.684.452-3.082,1.636-4.807,1.978a1.462,1.462,0,0,1-.788-.013,1.585,1.585,0,0,1-.579-.449,11.526,11.526,0,0,1-2.688-5.375,1.772,1.772,0,0,0-.189.326c-.617,1.426.423,2.877.967,4.136q.973,2.247,1.938,4.5c.462,1.075.893,2.925,2.166,3.345,1.221.461,2.555-.576,3.714-.87,3.056-.773,6.328.48,9.07,1.747a20.061,20.061,0,0,0,9.9,2.05A18.19,18.19,0,0,0,381.761,387.77Z" transform="translate(-329.031 -359.681)"/></g><path class="aa" d="M182.147,172.8c-4.78,6.406-9.324,14.4-9.212,29.048" transform="translate(-103.697 -140.825)"/><path class="aa" d="M207.566,150.956a9.966,9.966,0,0,0-2.416,2.248" transform="translate(-116.014 -132.472)"/><g transform="translate(58.442 146.128)"><g transform="translate(0 52.24)"><path class="e" d="M199.55,446.187c0,2.216-9.87,4.013-22.047,4.013s-22.045-1.8-22.045-4.013,9.87-4.014,22.045-4.014S199.55,443.971,199.55,446.187Z" transform="translate(-155.458 -442.173)"/></g><g transform="translate(17.341 32.475)"><path class="ab" d="M202.785,431.754H183.531l9.607-3.133H212.66l-.072.207-9.282,2.844A1.688,1.688,0,0,1,202.785,431.754Z" transform="translate(-183.531 -417.227)"/><path class="ac" d="M202.639,431.426H183.822l9.427-2.8h19.085l-9.174,2.723A1.688,1.688,0,0,1,202.639,431.426Z" transform="translate(-183.642 -417.227)"/><path class="ad" d="M204.073,431.246H191.585l6.256-1.861h12.666l-6.088,1.807A1.127,1.127,0,0,1,204.073,431.246Z" transform="translate(-186.61 -417.519)"/><path class="ab" d="M218.606,421.569H199.084l2.461-10.795a.921.921,0,0,1,.89-.6h17.6a.848.848,0,0,1,.881,1.062Z" transform="translate(-189.477 -410.175)"/><path class="i" d="M218.169,421.569H199.084l2.461-10.795a.921.921,0,0,1,.89-.6H219.6a.848.848,0,0,1,.881,1.062Z" transform="translate(-189.477 -410.175)"/><path class="ac" d="M217.959,421.313h-17.22l2.214-10.044a.008.008,0,0,1,.008,0h17.213Z" transform="translate(-190.11 -410.591)"/><path class="ae" d="M217.569,420.812H204.854l1.636-7.417a.006.006,0,0,1,.006,0h12.711Z" transform="translate(-191.683 -411.404)"/><line class="af" x2="15.663" transform="translate(4.975 13.217)"/><line class="ag" x2="15.663" transform="translate(7.863 12.415)"/><path class="ah" d="M188.96,429.423a5.6,5.6,0,0,1,2.648-.787,13.806,13.806,0,0,1,2.547-.037c.49.023.364.592-.057.662a4.924,4.924,0,0,1-1.457.023,2.326,2.326,0,0,1-1.284.851,5.228,5.228,0,0,1-1.557.149c-.147,0-.332-.04-.363-.184" transform="translate(-185.607 -417.203)"/><g transform="translate(17.215 1.987)"><line class="ai" x1="3.581" y1="3.581" transform="translate(3.123 0.174)"/><path class="aj" d="M222.166,419.383a.174.174,0,1,1,0,.246A.174.174,0,0,1,222.166,419.383Z" transform="translate(-215.497 -415.663)"/><path class="aj" d="M219.988,421.361a.174.174,0,1,1,0,.246A.174.174,0,0,1,219.988,421.361Z" transform="translate(-214.664 -416.419)"/><path class="aj" d="M213.969,415.342a.174.174,0,1,1,0,.246A.175.175,0,0,1,213.969,415.342Z" transform="translate(-212.363 -414.118)"/><path class="aj" d="M216.226,413.442a.174.174,0,1,1,0,.246A.174.174,0,0,1,216.226,413.442Z" transform="translate(-213.226 -413.391)"/><path class="ai" d="M214.2,415.426a2.811,2.811,0,0,1,3.718,3.717" transform="translate(-212.471 -414.078)"/><g transform="translate(0.769 1.916)"><path class="aj" d="M214.431,416.853l2.311-.36-1.78,1.922a.522.522,0,1,0,0,.743.522.522,0,0,0,0-.743l0,0,1.868-1.835s-.272,1.6-.365,2.391a29.049,29.049,0,0,0-2.8,1.712c-.092.068-1.059-.937-1.019-.988C213.252,418.929,214.431,416.853,214.431,416.853Z" transform="translate(-212.645 -416.493)"/></g><g transform="translate(0 4.588)"><path class="aj" d="M211.455,421.261l.388-.388a.186.186,0,0,1,.263,0l1.56,1.56a.185.185,0,0,1,.009.253l-.009.01-.388.388a.186.186,0,0,1-.263,0l-1.56-1.56A.186.186,0,0,1,211.455,421.261Z" transform="translate(-211.4 -420.818)"/></g></g><path class="ak" d="M207.9,413.03a.554.554,0,1,1-.553-.554A.554.554,0,0,1,207.9,413.03Z" transform="translate(-192.425 -411.055)"/><path class="ak" d="M205.066,425.062a.554.554,0,1,1-.554-.553A.554.554,0,0,1,205.066,425.062Z" transform="translate(-191.34 -415.655)"/><circle class="ak" cx="0.554" cy="0.554" r="0.554" transform="translate(25.245 8.854)"/><path class="ak" d="M228.058,413.03a.554.554,0,1,1-.553-.554A.554.554,0,0,1,228.058,413.03Z" transform="translate(-200.13 -411.055)"/></g><path class="b" d="M165.281,432.164a36.817,36.817,0,0,0-.558,3.824c-.382,2.062-.534,4.436.855,6.006a4.06,4.06,0,0,0,3.4,1.586c1.279.018,2.549-.209,3.827-.243.858-.023,3.485.21,4.342.244,3.827.152,5.992-.694,9.778-1.161a90.072,90.072,0,0,0,9.949-2c9.8-2.683,6.25-6.635,4.084-7.265-.471-.138-2.6-.849-2.6-.849l-2.863.8H185.469a48.764,48.764,0,0,1-5.973-.613" transform="translate(-158.899 -386.107)"/><path class="ah" d="M211.515,423.409a5.778,5.778,0,0,1,.6.408,7.064,7.064,0,0,0,1.364.67l1.374.556a.781.781,0,0,1,.266.151.765.765,0,0,1,.165.405,10.008,10.008,0,0,1,.187,4.451,5.727,5.727,0,0,1-.8-1.606,1.76,1.76,0,0,0-.379-.785,2.25,2.25,0,0,0-.439-.277,4.687,4.687,0,0,1-1.213-1.154.751.751,0,0,1-.2-.361.47.47,0,0,0-.028-.149.274.274,0,0,0-.1-.1l-1.694-1.088" transform="translate(-176.544 -382.76)"/><path class="h" d="M164.5,414.932c-.788-.582-1.647-1.235-2.463-1.917-1.86-1.561-3.521-3.258-3.727-4.493-.454-2.768-.1-11,.121-14.879.007-.235.021-.455.035-.66a6.976,6.976,0,0,1,3.181-5.892c.5,4.77,1.64,15.539,1.732,16.093C163.5,403.893,164.5,414.932,164.5,414.932Z" transform="translate(-156.466 -368.875)"/><path class="i" d="M164.956,418.3c-.788-.582-1.647-1.235-2.463-1.917-.07-3.033-1.175-2.374-2.445-7.677a35.368,35.368,0,0,1-.359-12.81l3.031.461c.5,4.721,1.051,9.818,1.115,10.194C163.955,407.259,164.956,418.3,164.956,418.3Z" transform="translate(-156.915 -372.24)"/><path class="ah" d="M171.153,374.768a10.261,10.261,0,0,0,.365-3.823c-.284-1.623-1.258-4.546-.893-6.737s3.125-4.018,6.047-3.734,3.775,3.084,4.261,4.707a16.742,16.742,0,0,1,.284,5.439,3.764,3.764,0,0,1-1.339,2.679c-.487.284-2.319-.091-2.641.259a8.712,8.712,0,0,0-.565,2.42" transform="translate(-161.226 -358.688)"/><path class="h" d="M169.3,385.122a3.7,3.7,0,0,1,.649-1.738c.487-.455,3.734-.455,4.708-.332a14.939,14.939,0,0,1,3.693,1.478c.318.237-.309,1.469-.309,1.469Z" transform="translate(-160.748 -367.305)"/><path class="b" d="M170.483,370.913s4.059.345,4.83,0a3.071,3.071,0,0,0,1.989-2.476c.1-1.38-.183-1.806.345-2.577s.994-.508,1.076.223a7.615,7.615,0,0,0,.3,2.147c.259.131.566-.8.467-2.208a8.722,8.722,0,0,0-.589-2.983c-.365-.812-.563-.766-.893-.913a2.522,2.522,0,0,0,1.44-1.289,2.018,2.018,0,0,0-1.786-3.237c-3.757.014-7.752.751-7.833,3.531,0,0-1.319-.2-1.36,2.334s1.583,5.6,1.7,6.392S170.077,370.731,170.483,370.913Z" transform="translate(-160.434 -357.601)"/><path class="h" d="M178.477,411.42c.149,1.271,1.264,3.237.5,3.513a14.468,14.468,0,0,1-3.067-.092h-.042c-.028,0-.05-.007-.071-.007-1.349-.114-2.89-.263-4.182-.363-5.16-.22-7.794.81-8.312.518-.248-.149-.256-.6-.177-1.057a12.029,12.029,0,0,0,.085-3.421c-.128-.959-.306-2.1-.554-3.408-.852-4.522-2.52-11.429-2.768-15.582-.4-6.509,6.574-5.892,6.574-5.892,8.874-.553,13.041,2,13.523,5.814.036.269.057.561.078.866.227,3.933-.973,10.279-1.541,15.021A23.9,23.9,0,0,0,178.477,411.42Z" transform="translate(-157.147 -368.288)"/><path class="i" d="M188.4,415.258c.149,1.271,1.264,3.237.5,3.513a14.462,14.462,0,0,1-3.067-.092c1.371.1,1.626-.951,1.321-1.654a10.037,10.037,0,0,1-.88-4.2c.064-1.888.774-6.148,1.193-10.173a32.749,32.749,0,0,0,.007-7.057c.213.426.823,1.022,2.541,1.42.036,3.954-1.043,9.747-1.568,14.155A23.9,23.9,0,0,0,188.4,415.258Z" transform="translate(-167.073 -372.126)"/><path class="h" d="M182.924,387.072s4.068-.324,5.857,1.179c1.427,1.2,4.175,16.375,4.175,16.375l-3.8,1.571s-4.138-10.373-5.217-10.212" transform="translate(-165.958 -368.856)"/><path class="h" d="M192.77,416.4c1.291,4.084,11.823,5.63,11.823,5.63l.587-1.875s-6.433-4.79-8.753-5.439" transform="translate(-169.723 -379.436)"/><path class="al" d="M214.789,433.788q1.407.077,2.812.208" transform="translate(-178.14 -386.728)"/><path class="am" d="M194.158,446.687c-3.492-.17-6.943.662-10.4,1.17s-7.125.667-10.317-.76a1.31,1.31,0,0,0-1.724.2,5.088,5.088,0,0,1-1.885.915,4.66,4.66,0,0,1-2.235-.2.428.428,0,0,0-.288.02c-.023.014-.027.038-.042.057a4.063,4.063,0,0,0,2.789,1.038c1.279.018,2.549-.209,3.827-.243.858-.023,3.485.21,4.342.244,3.827.152,5.992-.694,9.778-1.161,1.571-.195,3.914-.623,6.089-1.085A.491.491,0,0,0,194.158,446.687Z" transform="translate(-159.972 -391.65)"/></g><g transform="translate(149.781 32.344)"><path class="h" d="M361.47,220.521a5.663,5.663,0,0,0-1.69-.791c-.877-.248-.435-.9-1.346-.74-1.734.291-5.732,1.092-8.154,1.758-.023,0-.042.006-.067.012-1.216.3-1.631,0-1.631,0l-.51.574.067.2a1.964,1.964,0,0,0-.749,1.405c-.012.127-.139.618-.191,1.1-.057.444-.052.888.139,1.056l.011.012a.347.347,0,0,0,.069.023,6.664,6.664,0,0,0,2.244.311,55.787,55.787,0,0,0,7.054-.681c1.725-.23,3.357-.455,4.413-.565a1.883,1.883,0,0,0,1.067-.484,1.654,1.654,0,0,0,.525-.906A2.3,2.3,0,0,0,361.47,220.521Z" transform="translate(-320.089 -190.816)"/><g transform="translate(17.677 24.262)"><path class="h" d="M344.184,221.644a1.88,1.88,0,0,1-.266.49,2.3,2.3,0,0,1-.156.174c-1.794,1.8-4.056,0-5.365-1.055-1.869-1.5-4.079-4.137-5.819-5.79-.054-.052-.7-.6-.625-.692l1.6-2.1s4.3,3.9,6.826,4.779a16.377,16.377,0,0,1,2.941,1.2,3.154,3.154,0,0,1,.271.179A3.054,3.054,0,0,1,344.184,221.644Z" transform="translate(-331.947 -212.672)"/><path class="i" d="M355.785,226.915a55.781,55.781,0,0,1-7.054.681,6.647,6.647,0,0,1-2.244-.311.348.348,0,0,1-.069-.023l-.011-.012c-1.662-.7-2.683-2.267-.138-1.056a8.528,8.528,0,0,0,1.436.582,5.167,5.167,0,0,0,.946.086h.143C351.139,226.853,358,221.713,355.785,226.915Z" transform="translate(-336.835 -217.227)"/></g><g transform="translate(35.017 11.447)"><path class="h" d="M372.857,234.256a7.248,7.248,0,0,0-.326,4.181c.616,2.771-.085,2.957-.085,2.957a35.62,35.62,0,0,1-6.881,3.358c-2.239.7-4.147.579-4.094-1.893v-.034c0-.15.008-.293.011-.434.106-5.556-1.053-5.838-1.338-12.059-.3-6.382-.232-10.161,1.812-11.19a13.553,13.553,0,0,1,9.635-.866c3.264.769,4.339,1.636,4.312,4.051a18.942,18.942,0,0,1-.351,2.973A53.7,53.7,0,0,1,372.857,234.256Z" transform="translate(-360.018 -201.815)"/><path class="i" d="M373.758,236.764a7.248,7.248,0,0,0-.326,4.181c.616,2.771-.085,2.957-.085,2.957a35.622,35.622,0,0,1-6.881,3.358l-2.919-.277-1.169-.918,0-.733c0-.15.008-.293.011-.434a21.621,21.621,0,0,0,4.408-.115,18.3,18.3,0,0,0,4.323-1.083,1.684,1.684,0,0,0,1.062-1.872,24.186,24.186,0,0,1-.4-3.875,20.644,20.644,0,0,1,1.038-4.782,9.627,9.627,0,0,0,.389-3.535,31.554,31.554,0,0,1,0-4.03l2.314-1.253,1.288.481a18.933,18.933,0,0,1-.351,2.973A53.7,53.7,0,0,1,373.758,236.764Z" transform="translate(-360.919 -204.323)"/><g transform="translate(1.69)"><path class="b" d="M364.016,198.994a5.474,5.474,0,0,1-1.24-3.891,3.067,3.067,0,0,1,2.546-3.127c1.1-.267,2.666.562,3.785,1.81,3.492.292,4.63,2.7,4.769,5.426l-4.1-.915Z" transform="translate(-362.755 -191.925)"/><path class="ah" d="M373.4,202.715a6.689,6.689,0,0,1-2.777,4.94l.18,2.847-1.82,1.179-1.249.809-.717-1.5-.1-1.836a.947.947,0,0,0-.752-.872,3.445,3.445,0,0,1-1.775-1.072,1.221,1.221,0,0,1-.113-.14l0,0c-1.182-1.612-1.63-7.782,2.418-9.535C370.877,195.721,373.484,199.583,373.4,202.715Z" transform="translate(-363.021 -193.892)"/></g><path class="an" d="M367.261,222.316s-1.786,11.1-1.108,16.415L367.4,241l1.364-2.475s-1.306-9.271-.587-16.022Z" transform="translate(-362.305 -203.544)"/><path class="ao" d="M367.662,220.461l.018.145a2.871,2.871,0,0,0,.217.8h0l.916.187.8-.594-.915-1.064-.143.036a2.019,2.019,0,0,0-.878.478Z" transform="translate(-362.94 -202.633)"/><path class="i" d="M373.033,216.667a2.9,2.9,0,0,1,.877.9,11.557,11.557,0,0,0-1.124.588c-.478.292-2.775,1.915-2.775,1.915l-.675-1.387A18.475,18.475,0,0,1,373.033,216.667Z" transform="translate(-363.58 -201.384)"/><path class="i" d="M368.591,218.77a1.919,1.919,0,0,0-1.051.875,2.838,2.838,0,0,1,.114-2.19,3.643,3.643,0,0,1,.78-.566Z" transform="translate(-362.835 -201.469)"/></g><g class="ap" transform="translate(27.755 103.111)"><path class="e" d="M348.262,342.7c0,1.313,8.024,2.377,17.924,2.377s17.922-1.065,17.922-2.377-8.025-2.378-17.922-2.378S348.262,341.387,348.262,342.7Z" transform="translate(-348.262 -340.322)"/></g><g transform="translate(32.344 101.27)"><path class="ah" d="M363.371,338.435a4,4,0,0,0-.279,1.351c.04.537,1.749.577,1.948.3a15.064,15.064,0,0,0,.3-2.743" transform="translate(-358.519 -337.342)"/><path class="aq" d="M362.664,341.767a11.413,11.413,0,0,1-.156,1.471h-1.97l-.1-.329a3.094,3.094,0,0,1-1.14.329h-1.663c-1.217,0-1.908-.155-1.939-.369-.128-.9,1.326-.854,1.7-.854a3.094,3.094,0,0,0,2.52-1.061c.186-.4.1-.5.329-.427a.562.562,0,0,1,.338.292,1,1,0,0,0,1.027.56,1.191,1.191,0,0,0,.665-.321A.719.719,0,0,1,362.664,341.767Z" transform="translate(-355.691 -338.551)"/></g><g transform="translate(53.34 99.329)"><path class="ah" d="M394.569,335.376a16.133,16.133,0,0,0,.6,1.926c.236.484,1.838-.112,1.92-.445a15.1,15.1,0,0,0-.739-2.658" transform="translate(-391.551 -334.199)"/><path class="aq" d="M395.815,338.622c.208.52.515,1.527.515,1.527l-1.493.89-.293-.221a2.914,2.914,0,0,1-.786.821,6.391,6.391,0,0,1-1.478.613,3.709,3.709,0,0,1-2.526-.027c-.451-.784,1.357-1.215,1.709-1.355a2.435,2.435,0,0,0,1.506-1.988c.025-.441-.089-.5.148-.518a.562.562,0,0,1,.421.146,1,1,0,0,0,1.162.14,1.186,1.186,0,0,0,.5-.545A.719.719,0,0,1,395.815,338.622Z" transform="translate(-389.683 -335.692)"/></g><g transform="translate(35.579 51.025)"><path class="b" d="M375.132,267.062s2.676-6.409-1.992-11.062a25.816,25.816,0,0,1-7.173,2,15.792,15.792,0,0,1-3.788-.091,81.38,81.38,0,0,0-.255,11.978Z" transform="translate(-361.273 -256)"/><path class="b" d="M364.746,323.755c-.08.006-.161.006-.236.006a13.479,13.479,0,0,1-2.607-.179V323.1c.092-7.337-.8-19.328-.969-23.119a4.23,4.23,0,0,1,.023-.726c.288-2.775,3.155-2.411,4.361.138a10.2,10.2,0,0,1,.681,1.961,17.951,17.951,0,0,1,.444,2.769C367,310.46,365.236,319.025,364.746,323.755Z" transform="translate(-360.928 -271.799)"/><path class="b" d="M369.727,274c-.012.075-.029.156-.046.237-.634,3.34-2.694,12.367-3.674,15.3v.006a1.764,1.764,0,0,1-1.263.923c-1.442.392-3.594-.144-3.778-3.022a7.009,7.009,0,0,1,.012-1.038c.19-2.336.7-15.245.807-16.491s.323-3.063.981-3.294C366.047,265.483,370.586,269.331,369.727,274Z" transform="translate(-360.937 -259.983)"/><path class="am" d="M368.4,287.562c1.053-3.9,2.5-10.345,3.017-13.052l-.7-3.1-3.357-4.026-1.874-.259a34.947,34.947,0,0,0,2.5,10.919s-.023,6.864-.923,9.805l-.807,2.261s.092.219.225.623a20.587,20.587,0,0,1,.854,8.8c-.67,5.192-1.079,12.684-1.079,12.684.075,0,.156,0,.236-.006.474-4.568,2.13-12.711,1.739-18.969a2.584,2.584,0,0,0-.043-.66,16.1,16.1,0,0,1,.213-5.019Z" transform="translate(-362.67 -260.254)"/><path class="b" d="M383.12,299.695c-2.222-2.09-5.313-1.1-3.869,2.143,1.544,3.468,6.318,13.1,8.905,19.962l.179.446a14.012,14.012,0,0,0,2.709-.877c-1.231-4.455-2.127-12.134-4.686-17.484A14.478,14.478,0,0,0,383.12,299.695Z" transform="translate(-367.791 -272.285)"/><g transform="translate(2.791 4.144)"><path class="b" d="M365.467,265.439c-.431-5.16,6-1.733,9.085-.029a4.391,4.391,0,0,1,1.948,3.5c.175,1.351,1.841,15.256,2.176,17.793.755,5.72-4.241,2.592-4.713,1.007C372.772,283.711,365.7,268.251,365.467,265.439Z" transform="translate(-365.447 -262.709)"/></g><path class="b" d="M384.777,295.818a13.853,13.853,0,0,0,2.5,6.112s-3.762-1.737-3.944-1.993a14.124,14.124,0,0,1-.767-3.187C382.642,296.469,384.777,295.818,384.777,295.818Z" transform="translate(-369.199 -271.223)"/></g><path class="aj" d="M310.5,185.527a9.886,9.886,0,0,0,3.713-3.451,6.34,6.34,0,0,0,.067-1.083,4.54,4.54,0,0,0-2.8-4.5c-3.492-1.281-5.746,1.083-8.152-3.1,0,0,0,.022.012.065C303.954,177.361,303.346,185.554,310.5,185.527Z" transform="translate(-303.329 -173.394)"/><path class="ar" d="M310.508,185.568a9.885,9.885,0,0,0,3.713-3.451,6.34,6.34,0,0,0,.067-1.083c-8.047,7.582-10.75-6.469-10.941-7.534C303.961,177.4,303.354,185.594,310.508,185.568Z" transform="translate(-303.336 -173.434)"/><path class="as" d="M303.348,173.5a7.219,7.219,0,0,0,3.416,3.945c1.229.612,2.588.516,3.876.878a3.688,3.688,0,0,1,2.4,4.895" transform="translate(-303.336 -173.434)"/><path class="as" d="M303.348,173.5s.791,4.864,4.856,6.572c2.3.965,3.652,2.2,3.682,4.217" transform="translate(-303.336 -173.434)"/><g transform="translate(50.471 56.979)"><path class="i" d="M388.311,272.367a1.753,1.753,0,0,1-.541-.119c-2.072-.806-2.616-5.477-2.671-6.007l-.062-.6.577.186c.511.164,5.006,1.667,5.433,3.783a1.984,1.984,0,0,1-.836,1.93A2.71,2.71,0,0,1,388.311,272.367Zm-2.342-5.581c.241,1.562.893,4.26,2.088,4.724.456.177,1.006-.015,1.633-.57a1.251,1.251,0,0,0,.58-1.177C390.024,268.539,387.468,267.347,385.97,266.786Z" transform="translate(-385.037 -265.638)"/></g><g transform="translate(7.063 8.661)"><rect class="at" width="5.07" height="61.885" transform="translate(1.151 4.704) rotate(-41.532)"/><rect class="au" width="5.07" height="1.768" transform="matrix(0.749, -0.663, 0.663, 0.749, 0, 3.362)"/></g><rect class="q" width="5.07" height="61.885" transform="translate(8.214 13.365) rotate(-41.532)"/><rect class="av" width="5.07" height="1.768" transform="matrix(0.749, -0.663, 0.663, 0.749, 7.063, 12.023)"/><path class="o" d="M358.356,238.46l-1.44,1.273-40.979-46.357-1.174-1.321,1.433-1.281,1.174,1.321Z" transform="translate(-307.7 -180.038)"/><rect class="i" width="5.07" height="0.989" transform="translate(48.569 58.969) rotate(-41.532)"/><g transform="translate(41.47 29.11)"><path class="ah" d="M374.654,258.2l-1.333-1.109s-.5.654-.754.733c-.067.021-.209-.034-.28-.034a2.368,2.368,0,0,0-1.077.334c-.314.144-.728.275-.744.4s.2.324.42.307a.6.6,0,0,0,.109-.022.482.482,0,0,0,.025.132,1.447,1.447,0,0,0,2.7.12A3.738,3.738,0,0,1,374.654,258.2Z" transform="translate(-370.466 -234.502)"/><path class="h" d="M379,226.612a51.108,51.108,0,0,0,2.416,7.147c.026.057.051.108.077.153.007.012.013.019.019.032a2.131,2.131,0,0,0,.09.268,2.178,2.178,0,0,0,2.129,1.46c.064,0,.236.006.453.019a8.464,8.464,0,0,0,.886,0c.369-.026.695-.1.8-.281a.006.006,0,0,0,.007-.006,1.187,1.187,0,0,0,.045-.185.505.505,0,0,0,.019-.1.6.6,0,0,0,.019-.108c.013-.1.019-.2.025-.306a1.272,1.272,0,0,0,.006-.153,10.431,10.431,0,0,0-.121-1.492c-.191-2.053-2.219-8.48-2.907-11.158a1.857,1.857,0,0,0-.631-.988,1.634,1.634,0,0,0-.963-.382c-.006,0-.006,0-.012-.006a1.269,1.269,0,0,0-.153,0,2.375,2.375,0,0,0-1.932,1.581,5.492,5.492,0,0,0-.529,1.779A6.291,6.291,0,0,0,379,226.612Z" transform="translate(-373.611 -220.521)"/><path class="h" d="M374.193,250.963l1.122,1.014.007.006.293.255s2.276-1.977,4.049-3.647a20.172,20.172,0,0,0,4.348-5.368c.051-.1.1-.2.147-.3v-.013a1.183,1.183,0,0,0,.045-.185.507.507,0,0,0,.019-.1.607.607,0,0,0,.019-.108c.013-.1.019-.2.025-.306a1.278,1.278,0,0,0,.006-.153,1.867,1.867,0,0,0-.414-1.2c-.026-.031-.057-.064-.083-.1A1.983,1.983,0,0,0,383,240.3a3.159,3.159,0,0,0-2.537.344c-.07.07-.146.147-.217.23-.153.166-.313.351-.472.548a9.181,9.181,0,0,0-1.224,2.046A73.9,73.9,0,0,1,374.193,250.963Z" transform="translate(-371.891 -228.027)"/></g><path class="b" d="M363.987,198.529a8.091,8.091,0,0,1,4.749.574,3.8,3.8,0,0,0,3.418.111l.776-.364s-.767-.889-.883-.967a6.741,6.741,0,0,0-1.176-1c-.4-.167-2.082-.71-2.3-.746a4.615,4.615,0,0,0-1.348,0,3.372,3.372,0,0,0-1.053.355c-.271.13-1.049.62-1.049.62Z" transform="translate(-326.519 -182.072)"/><path class="ah" d="M331.33,212.52s-1.934-1.684-2.033-2.866c-.11-1.305.807-1.932,1.411-1.212a4.634,4.634,0,0,1,.78,2.985l.356.419Z" transform="translate(-313.253 -186.677)"/><path class="i" d="M376.009,244.471l.007.006.293.255s2.276-1.977,4.049-3.647a20.172,20.172,0,0,0,4.348-5.368c.051-.1.1-.2.147-.3V235.4a1.2,1.2,0,0,0,.044-.185.5.5,0,0,0,.019-.1.6.6,0,0,0,.019-.108c.013-.1.019-.2.025-.306a1.272,1.272,0,0,0,.006-.153,10.431,10.431,0,0,0-.121-1.492c-.191-2.053-2.219-8.48-2.907-11.158a1.857,1.857,0,0,0-.631-.988,1.634,1.634,0,0,0-.963-.382c-.006,0-.006,0-.012-.006a1.27,1.27,0,0,0-.153,0,17.778,17.778,0,0,1,1.715,4.864c.905,3.717,1.543,5.961,1.8,7.4a5.014,5.014,0,0,1,.115,1.549,4.817,4.817,0,0,1-.65,1.352C381.594,238.28,377.629,243.361,376.009,244.471Z" transform="translate(-331.115 -191.411)"/><path class="b" d="M374.552,208.837a10.455,10.455,0,0,1-.29-2.318s1.326-.937,1.326-1.893c0-1.33-1.481,0-1.481,0a9.7,9.7,0,0,1-.379-1.873c-.12-1.494,2.39-2.591,2.39-2.591l1.315.957.636,1.242S378.125,207.569,374.552,208.837Z" transform="translate(-330.241 -183.627)"/></g><g transform="translate(116.23 92.371)"><path class="aw" d="M288.394,271.152l-16.206,9.336a.448.448,0,0,1-.614-.167l-1.286-2.232a.449.449,0,0,1,.164-.615l16.206-9.336a.451.451,0,0,1,.614.167l1.286,2.232A.45.45,0,0,1,288.394,271.152Z" transform="translate(-270.228 -268.078)"/><g class="ax" transform="translate(1.158 0.456)"><g class="ay" transform="translate(14.215)"><path class="az" d="M295.961,269.543a.076.076,0,0,1-.1-.028l-.358-.622.133-.077.358.622A.077.077,0,0,1,295.961,269.543Z" transform="translate(-295.262 -268.816)"/><path class="az" d="M295.32,269.418a.037.037,0,0,1-.05-.014l-.154-.268.066-.038.154.268A.038.038,0,0,1,295.32,269.418Z" transform="translate(-295.116 -268.924)"/></g><g class="ay" transform="translate(13.644 0.327)"><path class="az" d="M295.042,270.072a.076.076,0,0,1-.1-.028l-.358-.622.132-.077.359.622A.076.076,0,0,1,295.042,270.072Z" transform="translate(-294.34 -269.346)"/><path class="az" d="M294.4,269.949a.039.039,0,0,1-.053-.012l-.154-.268.067-.038.154.268A.038.038,0,0,1,294.4,269.949Z" transform="translate(-294.192 -269.455)"/></g><g class="ay" transform="translate(13.077 0.655)"><path class="az" d="M294.121,270.6a.08.08,0,0,1-.108-.027l-.358-.622.135-.078.358.622A.078.078,0,0,1,294.121,270.6Z" transform="translate(-293.419 -269.876)"/><path class="az" d="M293.48,270.478a.039.039,0,0,1-.053-.012l-.154-.268.067-.038.154.268A.038.038,0,0,1,293.48,270.478Z" transform="translate(-293.273 -269.985)"/></g><g class="ay" transform="translate(12.509 0.983)"><path class="az" d="M293.2,271.134a.076.076,0,0,1-.1-.028l-.358-.622.133-.076.358.622A.076.076,0,0,1,293.2,271.134Z" transform="translate(-292.5 -270.408)"/><path class="az" d="M292.558,271.009a.037.037,0,0,1-.05-.014l-.154-.268.066-.038.154.267A.038.038,0,0,1,292.558,271.009Z" transform="translate(-292.354 -270.516)"/></g><g class="ay" transform="translate(11.941 1.31)"><path class="az" d="M292.279,271.664a.077.077,0,0,1-.105-.028l-.358-.622.133-.077.358.622A.076.076,0,0,1,292.279,271.664Z" transform="translate(-291.58 -270.937)"/><path class="az" d="M291.639,271.539a.038.038,0,0,1-.051-.014l-.154-.268.067-.038.154.268A.038.038,0,0,1,291.639,271.539Z" transform="translate(-291.434 -271.045)"/></g><g class="ay" transform="translate(11.371 1.638)"><path class="az" d="M291.36,272.193a.076.076,0,0,1-.1-.028l-.358-.622.133-.077.358.622A.076.076,0,0,1,291.36,272.193Z" transform="translate(-290.659 -271.467)"/><path class="az" d="M290.718,272.07a.038.038,0,0,1-.053-.012l-.154-.268.066-.038.154.268A.038.038,0,0,1,290.718,272.07Z" transform="translate(-290.511 -271.576)"/></g><g class="ay" transform="translate(10.803 1.964)"><path class="az" d="M290.439,272.723a.079.079,0,0,1-.107-.027l-.358-.622.135-.078.358.623A.078.078,0,0,1,290.439,272.723Z" transform="translate(-289.738 -271.996)"/><path class="az" d="M289.8,272.6a.039.039,0,0,1-.053-.012l-.154-.268.066-.038.154.268A.037.037,0,0,1,289.8,272.6Z" transform="translate(-289.592 -272.105)"/></g><g class="ay" transform="translate(10.235 2.293)"><path class="az" d="M289.517,273.255a.077.077,0,0,1-.1-.028l-.358-.622.133-.076.358.621A.077.077,0,0,1,289.517,273.255Z" transform="translate(-288.818 -272.529)"/><path class="az" d="M288.877,273.13a.038.038,0,0,1-.051-.014l-.154-.268.067-.038.154.268A.039.039,0,0,1,288.877,273.13Z" transform="translate(-288.672 -272.636)"/></g><g class="ay" transform="translate(9.667 2.62)"><path class="az" d="M288.6,273.784a.075.075,0,0,1-.1-.028l-.358-.622.133-.077.358.622A.076.076,0,0,1,288.6,273.784Z" transform="translate(-287.899 -273.058)"/><path class="az" d="M287.957,273.66a.037.037,0,0,1-.05-.014l-.154-.268.066-.038.154.268A.038.038,0,0,1,287.957,273.66Z" transform="translate(-287.753 -273.166)"/></g><g class="ay" transform="translate(9.096 2.948)"><path class="az" d="M287.678,274.314a.076.076,0,0,1-.1-.028l-.359-.622.133-.077.358.622A.075.075,0,0,1,287.678,274.314Z" transform="translate(-286.977 -273.588)"/><path class="az" d="M287.037,274.191a.039.039,0,0,1-.053-.012l-.154-.268.067-.038.154.268A.038.038,0,0,1,287.037,274.191Z" transform="translate(-286.829 -273.697)"/></g><g class="ay" transform="translate(8.529 3.274)"><path class="az" d="M286.758,274.844a.08.08,0,0,1-.107-.027l-.358-.622.135-.078.358.622A.079.079,0,0,1,286.758,274.844Z" transform="translate(-286.056 -274.117)"/><path class="az" d="M286.117,274.72a.038.038,0,0,1-.052-.012l-.154-.267.066-.038.154.268A.037.037,0,0,1,286.117,274.72Z" transform="translate(-285.91 -274.226)"/></g><g class="ay" transform="translate(7.961 3.603)"><path class="az" d="M285.836,275.376a.076.076,0,0,1-.1-.028l-.358-.622.133-.077.358.622A.077.077,0,0,1,285.836,275.376Z" transform="translate(-285.137 -274.649)"/><path class="az" d="M285.2,275.251a.037.037,0,0,1-.05-.014l-.154-.268.066-.038.154.268A.038.038,0,0,1,285.2,275.251Z" transform="translate(-284.991 -274.757)"/></g><g class="ay" transform="translate(7.393 3.93)"><path class="az" d="M284.916,275.905a.076.076,0,0,1-.105-.028l-.358-.622.133-.077.358.622A.076.076,0,0,1,284.916,275.905Z" transform="translate(-284.217 -275.179)"/><path class="az" d="M284.276,275.781a.038.038,0,0,1-.051-.014l-.154-.268.067-.038.154.268A.038.038,0,0,1,284.276,275.781Z" transform="translate(-284.071 -275.287)"/></g><g class="ay" transform="translate(6.822 4.258)"><path class="az" d="M284,276.435a.076.076,0,0,1-.1-.028l-.358-.621.133-.077.358.622A.076.076,0,0,1,284,276.435Z" transform="translate(-283.296 -275.709)"/><path class="az" d="M283.355,276.311a.037.037,0,0,1-.052-.012l-.154-.268.066-.038.154.268A.037.037,0,0,1,283.355,276.311Z" transform="translate(-283.148 -275.818)"/></g><g class="ay" transform="translate(6.254 4.585)"><path class="az" d="M283.076,276.965a.079.079,0,0,1-.107-.027l-.358-.622.135-.078.359.622A.079.079,0,0,1,283.076,276.965Z" transform="translate(-282.374 -276.238)"/><path class="az" d="M282.435,276.841a.039.039,0,0,1-.053-.012l-.154-.267.067-.038.154.267A.038.038,0,0,1,282.435,276.841Z" transform="translate(-282.228 -276.347)"/></g><g class="ay" transform="translate(5.687 4.913)"><path class="az" d="M282.154,277.5a.077.077,0,0,1-.105-.028l-.358-.622.133-.077.358.622A.077.077,0,0,1,282.154,277.5Z" transform="translate(-281.455 -276.77)"/><path class="az" d="M281.514,277.372a.038.038,0,0,1-.051-.014l-.154-.268.066-.038.154.268A.039.039,0,0,1,281.514,277.372Z" transform="translate(-281.309 -276.878)"/></g><g class="ay" transform="translate(5.119 5.241)"><path class="az" d="M281.235,278.026a.076.076,0,0,1-.1-.028l-.358-.622.133-.077.358.622A.076.076,0,0,1,281.235,278.026Z" transform="translate(-280.536 -277.3)"/><path class="az" d="M280.594,277.9a.038.038,0,0,1-.05-.014l-.154-.268.066-.038.154.268A.038.038,0,0,1,280.594,277.9Z" transform="translate(-280.39 -277.408)"/></g><g class="ay" transform="translate(4.548 5.567)"><path class="az" d="M280.315,278.556a.077.077,0,0,1-.105-.028l-.358-.622.133-.077.358.622A.076.076,0,0,1,280.315,278.556Z" transform="translate(-279.614 -277.829)"/><path class="az" d="M279.674,278.432a.038.038,0,0,1-.053-.012l-.154-.268.067-.038.154.268A.037.037,0,0,1,279.674,278.432Z" transform="translate(-279.466 -277.938)"/></g><g class="ay" transform="translate(3.98 5.895)"><path class="az" d="M279.394,279.085a.078.078,0,0,1-.107-.026l-.358-.622.135-.078.358.622A.078.078,0,0,1,279.394,279.085Z" transform="translate(-278.693 -278.359)"/><path class="az" d="M278.754,278.962a.038.038,0,0,1-.053-.012l-.154-.268.066-.038.154.267A.038.038,0,0,1,278.754,278.962Z" transform="translate(-278.547 -278.468)"/></g><g class="ay" transform="translate(3.413 6.223)"><path class="az" d="M278.473,279.617a.075.075,0,0,1-.1-.028l-.358-.622.133-.077.358.622A.076.076,0,0,1,278.473,279.617Z" transform="translate(-277.774 -278.891)"/><path class="az" d="M277.832,279.493a.038.038,0,0,1-.051-.014l-.154-.268.066-.038.154.268A.038.038,0,0,1,277.832,279.493Z" transform="translate(-277.628 -278.999)"/></g><g class="ay" transform="translate(2.844 6.551)"><path class="az" d="M277.553,280.147a.077.077,0,0,1-.1-.028l-.358-.622.133-.077.358.622A.076.076,0,0,1,277.553,280.147Z" transform="translate(-276.854 -279.421)"/><path class="az" d="M276.913,280.022a.038.038,0,0,1-.051-.013l-.154-.268.067-.038.154.268A.037.037,0,0,1,276.913,280.022Z" transform="translate(-276.708 -279.529)"/></g><g class="ay" transform="translate(2.274 6.877)"><path class="az" d="M276.634,280.677a.076.076,0,0,1-.1-.028l-.358-.622.133-.077.358.622A.077.077,0,0,1,276.634,280.677Z" transform="translate(-275.933 -279.95)"/><path class="az" d="M275.992,280.553a.037.037,0,0,1-.052-.012l-.154-.268.066-.038.154.268A.037.037,0,0,1,275.992,280.553Z" transform="translate(-275.785 -280.059)"/></g><g class="ay" transform="translate(1.706 7.205)"><path class="az" d="M275.713,281.206a.078.078,0,0,1-.107-.027l-.359-.622.135-.078.358.622A.077.077,0,0,1,275.713,281.206Z" transform="translate(-275.011 -280.48)"/><path class="az" d="M275.073,281.083a.039.039,0,0,1-.053-.012l-.154-.268.067-.038.154.268A.038.038,0,0,1,275.073,281.083Z" transform="translate(-274.865 -280.589)"/></g><g class="ay" transform="translate(1.138 7.533)"><path class="az" d="M274.791,281.738a.076.076,0,0,1-.1-.028l-.358-.622.133-.077.358.622A.076.076,0,0,1,274.791,281.738Z" transform="translate(-274.092 -281.012)"/><path class="az" d="M274.15,281.614a.037.037,0,0,1-.05-.014l-.154-.268.066-.038.154.268A.038.038,0,0,1,274.15,281.614Z" transform="translate(-273.946 -281.12)"/></g><g class="ay" transform="translate(0.571 7.861)"><path class="az" d="M273.872,282.268a.076.076,0,0,1-.1-.028l-.358-.623.133-.076.358.622A.076.076,0,0,1,273.872,282.268Z" transform="translate(-273.173 -281.542)"/><path class="az" d="M273.231,282.143a.038.038,0,0,1-.051-.014l-.154-.267.066-.038.154.267A.038.038,0,0,1,273.231,282.143Z" transform="translate(-273.027 -281.65)"/></g><g class="ay" transform="translate(0 8.188)"><path class="az" d="M272.952,282.8a.077.077,0,0,1-.1-.028l-.358-.622.133-.077.358.622A.077.077,0,0,1,272.952,282.8Z" transform="translate(-272.251 -282.071)"/><path class="az" d="M272.311,282.674a.039.039,0,0,1-.053-.012l-.154-.268.067-.038.154.268A.038.038,0,0,1,272.311,282.674Z" transform="translate(-272.103 -282.18)"/></g></g><g transform="translate(14.345 97.422)"><path class="e" d="M325.146,428.181c0,1.316-7.095,2.384-15.848,2.384s-15.847-1.067-15.847-2.384,7.1-2.384,15.847-2.384S325.146,426.864,325.146,428.181Z" transform="translate(-293.451 -425.797)"/></g><g transform="translate(29.645 94.747)"><path class="ah" d="M325.735,421.466s.054,2.18.1,2.736,1.812.6,2.017.309a15.628,15.628,0,0,0,.309-2.841" transform="translate(-321.093 -421.466)"/><path class="aq" d="M325.442,426.381a11.838,11.838,0,0,1-.161,1.524h-2.04l-.1-.341a3.2,3.2,0,0,1-1.182.341h-1.722c-1.261,0-1.976-.161-2.008-.382-.133-.927,1.373-.885,1.765-.885a3.206,3.206,0,0,0,2.611-1.1c.193-.415.108-.52.34-.442a.582.582,0,0,1,.35.3,1.034,1.034,0,0,0,1.064.581,1.233,1.233,0,0,0,.689-.333A.745.745,0,0,1,325.442,426.381Z" transform="translate(-318.221 -422.845)"/></g><g transform="translate(24.001 92.94)"><path class="ah" d="M314.143,419.76a16.7,16.7,0,0,0,.622,1.994c.244.5,1.9-.116,1.988-.46a15.612,15.612,0,0,0-.765-2.754" transform="translate(-311.017 -418.541)"/><path class="aq" d="M315.435,423.124c.214.538.533,1.581.533,1.581l-1.547.922-.3-.229a3.012,3.012,0,0,1-.814.851,6.641,6.641,0,0,1-1.531.634,3.84,3.84,0,0,1-2.616-.028c-.467-.812,1.405-1.258,1.77-1.4a2.525,2.525,0,0,0,1.56-2.06c.025-.457-.093-.523.153-.537a.581.581,0,0,1,.436.151,1.035,1.035,0,0,0,1.2.145,1.229,1.229,0,0,0,.518-.564A.744.744,0,0,1,315.435,423.124Z" transform="translate(-309.083 -420.088)"/></g><path class="ac" d="M331.781,324.283c.733-.541,1.532-1.149,2.292-1.783,1.73-1.453,3.276-3.032,3.467-4.181.423-2.576.093-10.23-.112-13.843-.006-.218-.02-.423-.033-.615a6.489,6.489,0,0,0-2.959-5.481c-.469,4.438-1.526,14.457-1.612,14.972C332.712,314.014,331.781,324.283,331.781,324.283Z" transform="translate(-293.76 -279.663)"/><path class="az" d="M331.778,327.414c.733-.541,1.532-1.149,2.292-1.783.065-2.823.906-6.764,2.088-11.7,1.4-6.219.521-7.363.521-7.363l-2.82.429c-.469,4.392-.978,9.134-1.037,9.483C332.709,317.145,331.778,327.414,331.778,327.414Z" transform="translate(-293.759 -282.794)"/><path class="b" d="M320.66,363.312a67.984,67.984,0,0,0,.876,8.675c.375,1.925,6.425,2.278,5.647.795-1.122-2.153.835-8.905,1.8-20.418.139-1.742.922-1.943,1.442-5.526a10.991,10.991,0,0,0-1.46-6.7l-8.4-.78-.108,10.456-.032,3.536S320.408,358.2,320.66,363.312Z" transform="translate(-289.419 -295.328)"/><path class="b" d="M327.007,389.4a8.576,8.576,0,0,1,1.413,5.7c-.229,3.69-1.514,14.7-1.514,14.7a7.906,7.906,0,0,1-2.919-.082s-2.077-20.425-2.085-22.744S327.007,389.4,327.007,389.4Z" transform="translate(-289.983 -313.289)"/><path class="am" d="M320.66,365.315a64.942,64.942,0,0,1,2.439-6.787,13.082,13.082,0,0,1,2.38-3.686c4.26-4.469,1.33-10.248,1.33-10.248s-3.468,2.873-3.71,3.171c-.23.278-1.617,2.718-2.64,4.05l-.032,3.536S320.408,360.2,320.66,365.315Z" transform="translate(-289.419 -297.33)"/><path class="b" d="M303.682,375.91s-1.9,6.264-1.6,8.228,7.263,20.331,7.263,20.331a7.006,7.006,0,0,0,2.792-.691s-.15-8.086-1.515-13.146-2.951-8.156-4.31-8.609S304.059,376.963,303.682,375.91Z" transform="translate(-282.392 -309.303)"/><path class="an" d="M312,381.933s-2.065,3.288-.794,6.239-2.128,2.46-2.128,2.46-1.7-4.947-1.322-5.588,1.775-2.794,2.228-2.908A19.793,19.793,0,0,1,312,381.933Z" transform="translate(-284.552 -311.605)"/><path class="b" d="M308.183,339.426s-4.416,20.446-4.993,25.955c-.245,2.336,2.211,6.195,4.476,4.082,2.7-2.521,7.083-14.064,8.443-16.1s6.446-3.908,2.972-14.254" transform="translate(-282.823 -295.232)"/><path class="ah" d="M323.087,286.918a9.547,9.547,0,0,1-.34-3.557c.264-1.51,1.171-4.229.831-6.268s-2.907-3.738-5.627-3.474-3.512,2.87-3.964,4.38a15.578,15.578,0,0,0-.264,5.06,3.5,3.5,0,0,0,1.246,2.492c.453.264,2.158-.085,2.457.241a8.093,8.093,0,0,1,.526,2.251" transform="translate(-286.823 -270.186)"/><path class="ac" d="M325.751,296.55a3.438,3.438,0,0,0-.6-1.617c-.453-.423-3.474-.423-4.38-.309A13.9,13.9,0,0,0,317.331,296c-.3.221.287,1.366.287,1.366Z" transform="translate(-288.203 -278.202)"/><path class="ah" d="M279.9,278.034c.022-.214.3-.112.371.064a1.249,1.249,0,0,1,.04.153c-.028-.353-.046-.641-.038-.712.02-.2.276-.129.364.03-.007-.142-.009-.249-.006-.295.022-.261.3-.154.373.061a3.01,3.01,0,0,1,.065.361,1.733,1.733,0,0,1,0-.2c.022-.214.268-.161.34.015a2.659,2.659,0,0,1,.077.415c.034.215.1.445.127.662a4.513,4.513,0,0,0,.138.612,2.677,2.677,0,0,0,.993.767l.588-.32a7.752,7.752,0,0,1,.142,1.366c-.039.317-.271.713-.245.9a4.653,4.653,0,0,0,.245.7l-1.625.673a4.122,4.122,0,0,0-.436-1.2,13.2,13.2,0,0,1-1.109-1.334,7.034,7.034,0,0,1-.245-.805l-.115-.606-.052-.591S279.893,278.1,279.9,278.034Z" transform="translate(-273.922 -271.535)"/><path class="ac" d="M282.6,286.156s.548,3.177,1.09,5.719a24.761,24.761,0,0,0,1.9,5.858c.006.013.006.033.013.046.535,1.162,1.533,2.582,2.213,2.727a20.584,20.584,0,0,0,3.064-.013,67.421,67.421,0,0,0,8.361-.826l.146-.02c1.473-.2,2.82-.376,3.745-.476a1.932,1.932,0,0,0,1.143-.508,1.74,1.74,0,0,0,.555-.957c.006-.007.006-.007.006-.014a2.452,2.452,0,0,0-1.334-2.443,1.288,1.288,0,0,0-.126-.08c1.077-1.07,2.18-2.239,2.18-2.239s-3.038.145-4.735.258c-1.156.079-9.041,2.186-9.986,2.483-.073.027-.139.052-.205.073,0,0-.119.013-.3.052-.053.014-.119.04-.185.059a9.716,9.716,0,0,0-1.149-2.159,78.227,78.227,0,0,1-4.438-8.136l-1.533.456-.02.006-.007.007Z" transform="translate(-274.957 -274.762)"/><path class="b" d="M323.37,283.331s-3.776.321-4.494,0a2.857,2.857,0,0,1-1.85-2.3c-.095-1.284.17-1.681-.321-2.4s-.925-.472-1,.208-.105,1.907-.283,2c-.241.122-.527-.742-.434-2.054a8.12,8.12,0,0,1,.547-2.775c.34-.755.524-.713.831-.85a2.347,2.347,0,0,1-1.34-1.2,1.878,1.878,0,0,1,1.662-3.011c3.5.014,7.212.7,7.288,3.285,0,0,1.227-.188,1.264,2.171s-1.472,5.211-1.586,5.947S323.747,283.161,323.37,283.331Z" transform="translate(-287.219 -269.174)"/><path class="ac" d="M310.831,321.016c-.139,1.182-1.175,3.012-.469,3.269a13.523,13.523,0,0,0,2.852-.086h.04c.026,0,.046-.007.066-.007,1.255-.106,2.688-.245,3.89-.337,4.8-.205,7.251.753,7.734.482.231-.138.238-.555.165-.984a11.174,11.174,0,0,1-.079-3.183c.119-.892.284-1.955.515-3.17.793-4.207,2.344-10.633,2.576-14.5.369-6.056-6.116-5.481-6.116-5.481-8.255-.515-12.132,1.862-12.581,5.409-.033.251-.052.521-.072.805-.211,3.659.9,9.563,1.433,13.975A22.265,22.265,0,0,1,310.831,321.016Z" transform="translate(-285.175 -279.117)"/><path class="az" d="M310.83,324.587c-.139,1.182-1.175,3.012-.469,3.27a13.531,13.531,0,0,0,2.853-.086c-1.274.092-1.512-.885-1.228-1.539a9.345,9.345,0,0,0,.819-3.91c-.06-1.757-.72-5.719-1.11-9.464a30.494,30.494,0,0,1-.006-6.565c-.2.4-.767.951-2.365,1.321-.033,3.678.971,9.067,1.46,13.169A22.265,22.265,0,0,1,310.83,324.587Z" transform="translate(-285.174 -282.688)"/></g><g transform="translate(21.071 21.403)"><g transform="translate(0 13.133)"><path class="aw" d="M127.343,198.918l9.209-21.975-6.842,1.385-.108.018-13.679,2.769-.232.043-13.783,2.79-.232.043-6.719,1.36Zm2.3-16.368L125.28,192.97l-15.494-6.493Z" transform="translate(-94.958 -176.943)"/><g transform="translate(3.744 0.758)"><g class="ap" transform="translate(0 6.796)"><g transform="translate(0 0.065)"><path class="ba" d="M101.02,189.308l.148-.03.2,1a.076.076,0,1,1-.148.03Z" transform="translate(-101.02 -189.278)"/></g><g transform="translate(0.363)"><path class="ba" d="M101.607,189.194l.107-.022.1.49a.055.055,0,0,1-.107.022Z" transform="translate(-101.607 -189.172)"/></g></g><g class="ap" transform="translate(0.7 6.654)"><g transform="translate(0 0.065)"><path class="ba" d="M102.154,189.078l.148-.03.2,1a.076.076,0,1,1-.149.03Z" transform="translate(-102.154 -189.048)"/></g><g transform="translate(0.363)"><path class="ba" d="M102.741,188.965l.107-.022.1.49a.055.055,0,0,1-.107.022Z" transform="translate(-102.741 -188.943)"/></g></g><g class="ap" transform="translate(1.4 6.512)"><g transform="translate(0 0.065)"><path class="ba" d="M103.287,188.849l.149-.03.2,1a.079.079,0,0,1-.058.093.08.08,0,0,1-.09-.064Z" transform="translate(-103.287 -188.819)"/></g><g transform="translate(0.363)"><path class="ba" d="M103.874,188.735l.107-.022.1.49a.055.055,0,0,1-.107.022Z" transform="translate(-103.874 -188.713)"/></g></g><g class="ap" transform="translate(2.101 6.371)"><g transform="translate(0 0.065)"><path class="ba" d="M104.421,188.619l.148-.03.2,1a.076.076,0,1,1-.148.03Z" transform="translate(-104.421 -188.589)"/></g><g transform="translate(0.367)"><path class="ba" d="M105.015,188.505l.1-.021.1.49a.056.056,0,0,1-.043.064.053.053,0,0,1-.061-.044Z" transform="translate(-105.015 -188.484)"/></g></g><g class="ap" transform="translate(2.801 6.229)"><g transform="translate(0 0.064)"><path class="ba" d="M105.555,188.389l.153-.03.2,1a.083.083,0,0,1-.062.094.08.08,0,0,1-.09-.064Z" transform="translate(-105.555 -188.359)"/></g><g transform="translate(0.366)"><path class="ba" d="M106.148,188.275l.1-.02.1.49a.056.056,0,0,1-.043.064.052.052,0,0,1-.061-.043Z" transform="translate(-106.148 -188.255)"/></g></g><g class="ap" transform="translate(3.502 6.092)"><g transform="translate(0 0.064)"><path class="ba" d="M106.69,188.167l.153-.031.2.993a.078.078,0,1,1-.153.031Z" transform="translate(-106.69 -188.136)"/></g><g transform="translate(0.366)"><path class="ba" d="M107.283,188.052l.1-.02.1.486a.052.052,0,0,1-.038.064.056.056,0,0,1-.064-.043Z" transform="translate(-107.283 -188.032)"/></g></g><g class="ap" transform="translate(4.202 5.95)"><g transform="translate(0 0.064)"><path class="ba" d="M107.823,187.937l.153-.031.2.993a.078.078,0,1,1-.153.031Z" transform="translate(-107.823 -187.906)"/></g><g transform="translate(0.367)"><path class="ba" d="M108.417,187.823l.1-.021.1.486a.052.052,0,0,1-.038.064.056.056,0,0,1-.065-.043Z" transform="translate(-108.417 -187.802)"/></g></g><g class="ap" transform="translate(4.903 5.807)"><g transform="translate(0 0.065)"><path class="ba" d="M108.957,187.708l.153-.031.2.993a.079.079,0,0,1-.058.093.084.084,0,0,1-.095-.062Z" transform="translate(-108.957 -187.677)"/></g><g transform="translate(0.367)"><path class="ba" d="M109.551,187.593l.107-.022.1.486a.054.054,0,0,1-.107.022Z" transform="translate(-109.551 -187.571)"/></g></g><g class="ap" transform="translate(5.607 5.666)"><g transform="translate(0 0.065)"><path class="ba" d="M110.1,187.477l.148-.03.2.993a.079.079,0,0,1-.059.093.078.078,0,0,1-.09-.063Z" transform="translate(-110.098 -187.447)"/></g><g transform="translate(0.362)"><path class="ba" d="M110.684,187.364l.107-.022.1.486a.055.055,0,1,1-.107.022Z" transform="translate(-110.684 -187.342)"/></g></g><g class="ap" transform="translate(6.307 5.523)"><g transform="translate(0 0.065)"><path class="ba" d="M111.231,187.248l.148-.03.2.993a.08.08,0,0,1-.059.093.079.079,0,0,1-.09-.064Z" transform="translate(-111.231 -187.218)"/></g><g transform="translate(0.363)"><path class="ba" d="M111.818,187.134l.107-.022.1.486a.055.055,0,0,1-.107.022Z" transform="translate(-111.818 -187.112)"/></g></g><g class="ap" transform="translate(7.008 5.382)"><g transform="translate(0 0.065)"><path class="ba" d="M112.365,187.018l.148-.03.2.993a.076.076,0,1,1-.148.03Z" transform="translate(-112.365 -186.988)"/></g><g transform="translate(0.363)"><path class="ba" d="M112.952,186.9l.107-.022.1.486a.055.055,0,0,1-.043.064.056.056,0,0,1-.064-.043Z" transform="translate(-112.952 -186.883)"/></g></g><g class="ap" transform="translate(7.708 5.24)"><g transform="translate(0 0.065)"><path class="ba" d="M113.5,186.789l.149-.03.2.993a.076.076,0,1,1-.148.03Z" transform="translate(-113.498 -186.759)"/></g><g transform="translate(0.363)"><path class="ba" d="M114.085,186.675l.107-.022.1.486a.055.055,0,1,1-.107.022Z" transform="translate(-114.085 -186.653)"/></g></g><g class="ap" transform="translate(8.408 5.098)"><g transform="translate(0 0.065)"><path class="ba" d="M114.632,186.559l.148-.03.2.993a.076.076,0,1,1-.149.03Z" transform="translate(-114.632 -186.529)"/></g><g transform="translate(0.367)"><path class="ba" d="M115.226,186.445l.1-.021.1.486a.056.056,0,0,1-.043.064.052.052,0,0,1-.061-.043Z" transform="translate(-115.226 -186.424)"/></g></g><g class="ap" transform="translate(9.109 4.956)"><g transform="translate(0 0.064)"><path class="ba" d="M115.766,186.329l.153-.031.2.993a.083.083,0,0,1-.062.094.08.08,0,0,1-.09-.063Z" transform="translate(-115.766 -186.298)"/></g><g transform="translate(0.366)"><path class="ba" d="M116.359,186.215l.1-.021.1.486a.056.056,0,0,1-.043.065.052.052,0,0,1-.06-.044Z" transform="translate(-116.359 -186.194)"/></g></g><g class="ap" transform="translate(9.809 4.815)"><g transform="translate(0 0.064)"><path class="ba" d="M116.9,186.1l.152-.031.2.993a.083.083,0,0,1-.062.094.078.078,0,0,1-.09-.063Z" transform="translate(-116.9 -186.069)"/></g><g transform="translate(0.366)"><path class="ba" d="M117.493,185.986l.1-.021.1.486a.053.053,0,0,1-.038.064.057.057,0,0,1-.065-.043Z" transform="translate(-117.493 -185.965)"/></g></g><g class="ap" transform="translate(10.509 4.673)"><g transform="translate(0 0.064)"><path class="ba" d="M118.033,185.87l.153-.031.2.993a.079.079,0,0,1-.058.093.08.08,0,0,1-.094-.062Z" transform="translate(-118.033 -185.839)"/></g><g transform="translate(0.367)"><path class="ba" d="M118.627,185.756l.1-.021.1.486a.052.052,0,0,1-.039.064.055.055,0,0,1-.064-.043Z" transform="translate(-118.627 -185.735)"/></g></g><g class="ap" transform="translate(11.209 4.531)"><g transform="translate(0 0.065)"><path class="ba" d="M119.167,185.641l.153-.031.2.993a.079.079,0,0,1-.058.093.083.083,0,0,1-.094-.062Z" transform="translate(-119.167 -185.61)"/></g><g transform="translate(0.366)"><path class="ba" d="M119.76,185.527l.107-.022.1.486a.055.055,0,1,1-.107.022Z" transform="translate(-119.76 -185.505)"/></g></g><g class="ap" transform="translate(11.914 4.389)"><g transform="translate(0 0.065)"><path class="ba" d="M120.307,185.411l.148-.03.2.993a.076.076,0,1,1-.148.03Z" transform="translate(-120.307 -185.381)"/></g><g transform="translate(0.363)"><path class="ba" d="M120.894,185.3l.107-.022.1.486a.055.055,0,0,1-.107.022Z" transform="translate(-120.894 -185.275)"/></g></g><g class="ap" transform="translate(12.614 4.247)"><g transform="translate(0 0.065)"><path class="ba" d="M121.441,185.181l.148-.03.2.993a.078.078,0,0,1-.058.093.079.079,0,0,1-.09-.063Z" transform="translate(-121.441 -185.151)"/></g><g transform="translate(0.363)"><path class="ba" d="M122.028,185.068l.107-.022.1.486a.055.055,0,0,1-.043.064.056.056,0,0,1-.064-.043Z" transform="translate(-122.028 -185.046)"/></g></g><g class="ap" transform="translate(13.314 4.105)"><g transform="translate(0 0.065)"><path class="ba" d="M122.575,184.952l.148-.03.2.993a.076.076,0,1,1-.148.03Z" transform="translate(-122.575 -184.922)"/></g><g transform="translate(0.362)"><path class="ba" d="M123.161,184.838l.107-.022.1.486a.055.055,0,0,1-.107.022Z" transform="translate(-123.161 -184.816)"/></g></g><g class="ap" transform="translate(14.014 3.964)"><g transform="translate(0 0.065)"><path class="ba" d="M123.708,184.722l.148-.03.2.993a.076.076,0,1,1-.148.03Z" transform="translate(-123.708 -184.692)"/></g><g transform="translate(0.363)"><path class="ba" d="M124.295,184.609l.107-.022.1.486a.055.055,0,0,1-.107.022Z" transform="translate(-124.295 -184.587)"/></g></g><g class="ap" transform="translate(14.715 3.822)"><g transform="translate(0 0.065)"><path class="ba" d="M124.842,184.492l.148-.03.2.993a.079.079,0,0,1-.058.093.08.08,0,0,1-.09-.064Z" transform="translate(-124.842 -184.462)"/></g><g transform="translate(0.366)"><path class="ba" d="M125.435,184.378l.1-.021.1.486a.055.055,0,0,1-.043.064.051.051,0,0,1-.06-.043Z" transform="translate(-125.435 -184.357)"/></g></g><g class="ap" transform="translate(15.415 3.68)"><g transform="translate(0 0.064)"><path class="ba" d="M125.976,184.263l.152-.031.2.993a.083.083,0,0,1-.062.094.079.079,0,0,1-.09-.063Z" transform="translate(-125.976 -184.232)"/></g><g transform="translate(0.366)"><path class="ba" d="M126.569,184.149l.1-.021.1.486a.056.056,0,0,1-.043.064.053.053,0,0,1-.061-.044Z" transform="translate(-126.569 -184.128)"/></g></g><g class="ap" transform="translate(16.115 3.538)"><g transform="translate(0 0.064)"><path class="ba" d="M127.109,184.033l.153-.031.2.993a.083.083,0,0,1-.062.095.079.079,0,0,1-.09-.064Z" transform="translate(-127.109 -184.002)"/></g><g transform="translate(0.367)"><path class="ba" d="M127.7,183.919l.1-.021.1.486a.052.052,0,0,1-.039.064.056.056,0,0,1-.064-.043Z" transform="translate(-127.703 -183.898)"/></g></g><g class="ap" transform="translate(16.816 3.397)"><g transform="translate(0 0.064)"><path class="ba" d="M128.243,183.8l.153-.031.2.993a.078.078,0,1,1-.153.031Z" transform="translate(-128.243 -183.773)"/></g><g transform="translate(0.366)"><path class="ba" d="M128.836,183.69l.1-.021.1.486a.052.052,0,0,1-.038.064.056.056,0,0,1-.064-.043Z" transform="translate(-128.836 -183.669)"/></g></g><g class="ap" transform="translate(17.517 3.258)"><g transform="translate(0 0.065)"><path class="ba" d="M129.378,183.581l.153-.031.2.988a.079.079,0,0,1-.059.093.082.082,0,0,1-.094-.062Z" transform="translate(-129.378 -183.55)"/></g><g transform="translate(0.366)"><path class="ba" d="M129.971,183.467l.107-.022.1.482a.055.055,0,0,1-.107.022Z" transform="translate(-129.971 -183.445)"/></g></g><g class="ap" transform="translate(18.221 3.116)"><g transform="translate(0 0.065)"><path class="ba" d="M130.518,183.35l.148-.03.2.989a.079.079,0,0,1-.058.093.08.08,0,0,1-.09-.063Z" transform="translate(-130.518 -183.32)"/></g><g transform="translate(0.363)"><path class="ba" d="M131.1,183.237l.107-.022.1.482a.056.056,0,0,1-.043.065.056.056,0,0,1-.064-.043Z" transform="translate(-131.105 -183.215)"/></g></g><g class="ap" transform="translate(18.921 2.975)"><g transform="translate(0 0.065)"><path class="ba" d="M131.652,183.121l.148-.03.2.988a.079.079,0,0,1-.058.093.078.078,0,0,1-.09-.063Z" transform="translate(-131.652 -183.091)"/></g><g transform="translate(0.363)"><path class="ba" d="M132.239,183.008l.107-.022.1.482a.055.055,0,0,1-.107.022Z" transform="translate(-132.239 -182.986)"/></g></g><g class="ap" transform="translate(19.622 2.833)"><g transform="translate(0 0.065)"><path class="ba" d="M132.786,182.891l.148-.03.2.989a.076.076,0,1,1-.148.03Z" transform="translate(-132.786 -182.861)"/></g><g transform="translate(0.362)"><path class="ba" d="M133.372,182.778l.107-.022.1.482a.055.055,0,1,1-.107.022Z" transform="translate(-133.372 -182.756)"/></g></g><g class="ap" transform="translate(20.322 2.691)"><g transform="translate(0 0.065)"><path class="ba" d="M133.919,182.662l.148-.03.2.988a.076.076,0,1,1-.148.03Z" transform="translate(-133.919 -182.632)"/></g><g transform="translate(0.363)"><path class="ba" d="M134.506,182.549l.107-.022.1.482a.055.055,0,1,1-.107.022Z" transform="translate(-134.506 -182.527)"/></g></g><g class="ap" transform="translate(21.022 2.549)"><g transform="translate(0 0.065)"><path class="ba" d="M135.053,182.432l.148-.03.2.989a.076.076,0,1,1-.148.03Z" transform="translate(-135.053 -182.402)"/></g><g transform="translate(0.366)"><path class="ba" d="M135.646,182.318l.1-.021.1.482a.056.056,0,0,1-.043.065.053.053,0,0,1-.061-.044Z" transform="translate(-135.646 -182.297)"/></g></g><g class="ap" transform="translate(21.723 2.408)"><g transform="translate(0 0.064)"><path class="ba" d="M136.187,182.2l.152-.031.2.988a.082.082,0,0,1-.062.094.078.078,0,0,1-.09-.063Z" transform="translate(-136.187 -182.172)"/></g><g transform="translate(0.366)"><path class="ba" d="M136.78,182.088l.1-.02.1.482a.056.056,0,0,1-.043.064.052.052,0,0,1-.061-.043Z" transform="translate(-136.78 -182.068)"/></g></g><g class="ap" transform="translate(22.422 2.266)"><g transform="translate(0 0.064)"><path class="ba" d="M137.32,181.973l.153-.031.2.988a.083.083,0,0,1-.062.095.08.08,0,0,1-.09-.064Z" transform="translate(-137.32 -181.942)"/></g><g transform="translate(0.367)"><path class="ba" d="M137.914,181.859l.1-.021.1.482a.051.051,0,0,1-.038.064.055.055,0,0,1-.064-.043Z" transform="translate(-137.914 -181.838)"/></g></g><g class="ap" transform="translate(23.123 2.124)"><g transform="translate(0 0.064)"><path class="ba" d="M138.454,181.744l.153-.031.2.988a.078.078,0,1,1-.153.031Z" transform="translate(-138.454 -181.713)"/></g><g transform="translate(0.366)"><path class="ba" d="M139.047,181.629l.1-.02.1.482a.052.052,0,0,1-.038.064.057.057,0,0,1-.065-.043Z" transform="translate(-139.047 -181.609)"/></g></g><g class="ap" transform="translate(23.823 1.982)"><g transform="translate(0 0.065)"><path class="ba" d="M139.588,181.514l.152-.031.2.989a.079.079,0,0,1-.058.093.083.083,0,0,1-.094-.063Z" transform="translate(-139.588 -181.483)"/></g><g transform="translate(0.366)"><path class="ba" d="M140.181,181.4l.107-.022.1.482a.055.055,0,0,1-.107.022Z" transform="translate(-140.181 -181.378)"/></g></g><g class="ap" transform="translate(24.527 1.839)"><g transform="translate(0 0.065)"><path class="ba" d="M140.728,181.284l.148-.03.2.988a.076.076,0,1,1-.148.03Z" transform="translate(-140.728 -181.254)"/></g><g transform="translate(0.363)"><path class="ba" d="M141.315,181.17l.107-.022.1.482a.055.055,0,0,1-.107.022Z" transform="translate(-141.315 -181.148)"/></g></g><g class="ap" transform="translate(25.228 1.698)"><g transform="translate(0 0.065)"><path class="ba" d="M141.862,181.054l.148-.03.2.989a.076.076,0,1,1-.148.03Z" transform="translate(-141.862 -181.024)"/></g><g transform="translate(0.362)"><path class="ba" d="M142.448,180.941l.107-.022.1.482a.055.055,0,0,1-.107.022Z" transform="translate(-142.448 -180.919)"/></g></g><g class="ap" transform="translate(25.928 1.556)"><g transform="translate(0 0.065)"><path class="ba" d="M142.995,180.825l.148-.03.2.988a.076.076,0,1,1-.148.03Z" transform="translate(-142.995 -180.795)"/></g><g transform="translate(0.363)"><path class="ba" d="M143.582,180.711l.107-.022.1.482a.055.055,0,0,1-.043.064.056.056,0,0,1-.064-.043Z" transform="translate(-143.582 -180.689)"/></g></g><g class="ap" transform="translate(26.628 1.415)"><g transform="translate(0 0.065)"><path class="ba" d="M144.129,180.6l.148-.03.2.989a.076.076,0,1,1-.148.03Z" transform="translate(-144.129 -180.565)"/></g><g transform="translate(0.363)"><path class="ba" d="M144.716,180.482l.107-.022.1.482a.055.055,0,0,1-.107.022Z" transform="translate(-144.716 -180.46)"/></g></g><g class="ap" transform="translate(27.329 1.272)"><g transform="translate(0 0.065)"><path class="ba" d="M145.263,180.366l.148-.03.2.988a.076.076,0,1,1-.148.03Z" transform="translate(-145.263 -180.336)"/></g><g transform="translate(0.366)"><path class="ba" d="M145.856,180.251l.1-.021.1.482a.056.056,0,0,1-.043.064.053.053,0,0,1-.061-.044Z" transform="translate(-145.856 -180.23)"/></g></g><g class="ap" transform="translate(28.029 1.131)"><g transform="translate(0 0.064)"><path class="ba" d="M146.4,180.136l.153-.031.2.988a.083.083,0,0,1-.062.095.08.08,0,0,1-.09-.064Z" transform="translate(-146.396 -180.105)"/></g><g transform="translate(0.367)"><path class="ba" d="M146.99,180.022l.1-.021.1.482a.055.055,0,0,1-.043.064.051.051,0,0,1-.06-.043Z" transform="translate(-146.99 -180.001)"/></g></g><g class="ap" transform="translate(28.729 0.989)"><g transform="translate(0 0.064)"><path class="ba" d="M147.53,179.906l.153-.031.2.989a.083.083,0,0,1-.062.094.079.079,0,0,1-.09-.063Z" transform="translate(-147.53 -179.875)"/></g><g transform="translate(0.366)"><path class="ba" d="M148.123,179.792l.1-.021.1.482a.052.052,0,0,1-.038.063.056.056,0,0,1-.065-.043Z" transform="translate(-148.123 -179.771)"/></g></g><g class="ap" transform="translate(29.43 0.847)"><g transform="translate(0 0.064)"><path class="ba" d="M148.664,179.677l.152-.031.2.988a.078.078,0,0,1-.058.093.079.079,0,0,1-.094-.062Z" transform="translate(-148.664 -179.646)"/></g><g transform="translate(0.366)"><path class="ba" d="M149.257,179.563l.1-.021.1.482a.052.052,0,0,1-.039.064.055.055,0,0,1-.064-.043Z" transform="translate(-149.257 -179.542)"/></g></g><g class="ap" transform="translate(30.129 0.705)"><g transform="translate(0 0.065)"><path class="ba" d="M149.8,179.447l.153-.031.2.989a.079.079,0,0,1-.058.093.084.084,0,0,1-.094-.062Z" transform="translate(-149.797 -179.416)"/></g><g transform="translate(0.367)"><path class="ba" d="M150.391,179.333l.107-.022.1.482a.055.055,0,1,1-.107.022Z" transform="translate(-150.391 -179.311)"/></g></g><g class="ap" transform="translate(30.834 0.567)"><g transform="translate(0 0.061)"><path class="ba" d="M150.938,179.217l.148-.03.2.988a.079.079,0,0,1-.059.093.078.078,0,0,1-.09-.063Z" transform="translate(-150.938 -179.187)"/></g><g transform="translate(0.362)"><path class="ba" d="M151.524,179.106l.108-.018.1.478a.055.055,0,0,1-.107.022Z" transform="translate(-151.524 -179.088)"/></g></g><g class="ap" transform="translate(31.535 0.426)"><g transform="translate(0 0.065)"><path class="ba" d="M152.073,178.994l.148-.03.2.985a.078.078,0,0,1-.058.093.08.08,0,0,1-.09-.064Z" transform="translate(-152.073 -178.964)"/></g><g transform="translate(0.362)"><path class="ba" d="M152.659,178.881l.107-.022.1.477a.056.056,0,0,1-.043.065.056.056,0,0,1-.064-.043Z" transform="translate(-152.659 -178.859)"/></g></g><g class="ap" transform="translate(32.235 0.284)"><g transform="translate(0 0.065)"><path class="ba" d="M153.206,178.765l.148-.03.2.984a.076.076,0,1,1-.148.03Z" transform="translate(-153.206 -178.735)"/></g><g transform="translate(0.363)"><path class="ba" d="M153.793,178.651l.107-.022.1.478a.055.055,0,1,1-.107.022Z" transform="translate(-153.793 -178.629)"/></g></g><g class="ap" transform="translate(32.936 0.142)"><g transform="translate(0 0.065)"><path class="ba" d="M154.34,178.535l.148-.03.2.985a.076.076,0,1,1-.148.03Z" transform="translate(-154.34 -178.505)"/></g><g transform="translate(0.363)"><path class="ba" d="M154.927,178.422l.107-.022.1.477a.055.055,0,1,1-.107.022Z" transform="translate(-154.927 -178.4)"/></g></g><g class="ap" transform="translate(33.636)"><g transform="translate(0 0.065)"><path class="ba" d="M155.474,178.306l.148-.03.2.984a.076.076,0,1,1-.148.03Z" transform="translate(-155.474 -178.276)"/></g><g transform="translate(0.366)"><path class="ba" d="M156.067,178.191l.1-.021.1.478a.055.055,0,0,1-.043.064.052.052,0,0,1-.06-.043Z" transform="translate(-156.067 -178.17)"/></g></g></g></g><path class="bb" d="M99.843,185.911c-.7,5.348,1.5,10.745,3.723,9.256,3.482-2.336,8.649-10,9.15-10.021a14.058,14.058,0,0,0,1.4.178,7.534,7.534,0,0,0,1.512-.227c.085-.02.188-.065.188-.153a.175.175,0,0,0-.086-.131,1.053,1.053,0,0,0-.613-.154c-.177,0-.4-.027-.452-.2a.269.269,0,0,1,.112-.274.785.785,0,0,1,.289-.117c.549-.141,1.234-.268,1.783-.409-.334-.1-.809-.21-1.149-.292a4.39,4.39,0,0,0-.778-.132,10.451,10.451,0,0,0-1.621.062,4.966,4.966,0,0,0-1.722.651,7.119,7.119,0,0,0-1.156.78c-.939.735-4.51,4.917-5.287,5.5" transform="translate(-96.776 -166.212)"/><g transform="translate(1.344 31.174)"><path class="bb" d="M132.679,216.673a24.536,24.536,0,0,0-1.639,5.75c-.376,2.611,1.079,6.776.915,9.811a9.941,9.941,0,0,1-.358,2.436c-.282.521-.9,1.1-.966,1.793a1.073,1.073,0,0,0,.692,1.045c.487.222.806-.035.982-.02,1.013.086,1.2.816,2.945,1.037a2.776,2.776,0,0,0,1.82-.5.372.372,0,0,0,.066-.516c-.105-.15-1.392-.532-1.976-.868a3.571,3.571,0,0,1-1.263-1.553,14.911,14.911,0,0,1,.261-2.756c.749-4.892,1.676-11.777,2.174-14.632" transform="translate(-109.939 -210.172)"/><path class="b" d="M137.05,249.531c.124-.211.151-.525.032-.6a10.1,10.1,0,0,0-1.091-.59c-.339-.138-.875-.253-.685-.161s-.151.465-.467.456a9.722,9.722,0,0,1-2.525-.828,1.666,1.666,0,0,1-1.154-1.326,4.19,4.19,0,0,0-.8,1.169,1.979,1.979,0,0,0-.119.9,1.986,1.986,0,0,1,.112.851,1.724,1.724,0,0,0,.647.2,2.662,2.662,0,0,0,.692-.011l.069-.54a2.64,2.64,0,0,1,.554.035,1.837,1.837,0,0,1,.847.427c.133.13.265.337.434.4a3.678,3.678,0,0,0,1.4.287C136.163,250.236,136.84,249.892,137.05,249.531Z" transform="translate(-109.782 -221.57)"/><path class="bb" d="M105.023,206.149l-7.889,4.512a4.973,4.973,0,0,0,4.07,3.727c2.072.443,5.327-.149,6.186-.1s14.469.534,14.469.534,1.352.3,1.594-.768c.38-1.668,0-2.193-1.117-2.936C120.444,209.859,113.221,207.485,105.023,206.149Z" transform="translate(-97.134 -206.149)"/></g><g transform="translate(1.508 31.733)"><path class="bc" d="M133.589,217.981a24.562,24.562,0,0,0,.012,5.979c.36,2.613,3.05,6.979,3.731,9.942a9.962,9.962,0,0,1,.329,2.441c-.127.579-.567,1.3-.434,1.99a1.074,1.074,0,0,0,.954.813c.529.079.766-.256.938-.29,1-.2,1.382.452,3.117.184a2.773,2.773,0,0,0,1.611-.981.37.37,0,0,0-.079-.514c-.142-.116-1.485-.127-2.138-.289a3.575,3.575,0,0,1-1.642-1.144,14.887,14.887,0,0,1-.51-2.72c-.631-4.908-1.87-13.177-2.18-16.059" transform="translate(-111.166 -210.983)"/><path class="b" d="M146.271,250.2c.061-.237,0-.547-.135-.584a9.989,9.989,0,0,0-1.211-.266c-.364-.039-.911,0-.7.035s-.017.489-.322.568a9.758,9.758,0,0,1-2.655-.1,1.665,1.665,0,0,1-1.474-.956,4.186,4.186,0,0,0-.448,1.344,1.987,1.987,0,0,0,.133.9,1.981,1.981,0,0,1,.343.786,1.726,1.726,0,0,0,.678.016,2.649,2.649,0,0,0,.663-.2l-.083-.538a2.687,2.687,0,0,1,.543-.119,1.834,1.834,0,0,1,.931.177,1.665,1.665,0,0,0,.529.268,3.679,3.679,0,0,0,1.424-.111C145.613,251.124,146.168,250.607,146.271,250.2Z" transform="translate(-113.426 -223.052)"/><path class="bc" d="M105.288,207.054,97.4,211.565a4.546,4.546,0,0,0,3.886,3.635c2.072.443,5.51-.056,6.37-.013s14.468.534,14.468.534,1.331.285,1.4-.8c.09-1.454.2-2.158-.921-2.9C120.708,210.765,113.486,208.39,105.288,207.054Z" transform="translate(-97.399 -207.054)"/></g><path class="b" d="M98.665,202.857s-2.47,4.808-1.838,6.855,1.836,3.985,5.226,4.01,11.883.025,11.883.025a12.737,12.737,0,0,1,1.041-3.6,10.51,10.51,0,0,1,1.953-2.46s-8.615-2.655-9.213-3.226a7.651,7.651,0,0,1-1.183-1.838" transform="translate(-95.633 -173.629)"/><path class="ac" d="M101.086,177.809a16.859,16.859,0,0,0-1.794,6.807,20.7,20.7,0,0,0,3.415.488" transform="translate(-96.615 -164.141)"/><path class="ac" d="M107.475,174.887c.452.15.284,1.229.736,1.378.328.109.97-.036,1.271.134,1.594.9,1.185,2.693,1.377,4.917.675,1.706.855,3.252.317,4.205a14.923,14.923,0,0,1-2.193,2.5c-.613.733-.814,2.239-.94,3.859-.022.279.211.767.143,1.038-.13.52-.92.682-1.8.7-2.028.039-5.1-.7-6.008-.666-.852.032-1.656-.382-1.573-.885.058-.351.41-.5.549-1.175.306-1.5.541-5.236.78-6.5a35.373,35.373,0,0,1,2.388-8.655" transform="translate(-96.426 -163.024)"/><path class="az" d="M118.093,186a15.192,15.192,0,0,0-1.84-2.41l-1.733.78a20.19,20.19,0,0,1,1.337,5.112,4.05,4.05,0,0,0,1-.1c.169-.275.106-.138.33-.535A7.013,7.013,0,0,0,118.093,186Z" transform="translate(-102.437 -166.351)"/><path class="bc" d="M116.7,163.748a8.646,8.646,0,0,0,.3-2.242c-.05-1.288-.213-3.154-2.354-3.921s-4.5-.306-5.2,1.237-.538,3.881-.641,5.131a7.709,7.709,0,0,1-1.019,2.745l4.61,1.985a8.721,8.721,0,0,1,1.063-1.833c.309-.2.418.584,1.445.5.436-.036.9-.819,1.254-1.782.01-.028.022-.065.033-.1a4.67,4.67,0,0,0,.549-.047c.318-.1.293-.235.222-.437A5.217,5.217,0,0,1,116.7,163.748Z" transform="translate(-99.858 -156.27)"/><path class="bc" d="M134.345,207.852a2.47,2.47,0,0,0,1.506,1.326.819.819,0,0,0,.532-.1c.266.071,1.065.03.7-.385a2.263,2.263,0,0,0,1.757.09c.211-.045.163-.291-.32-.341a2.36,2.36,0,0,1-1.642-.98c.085-.09.184.033.453.032.3,0,.431-.157.42-.285-.009-.1-.376-.151-.46-.19l-.962-.433a1.675,1.675,0,0,0-.968-.185c-.064.006-.683.145-.491.347" transform="translate(-110.016 -175.068)"/><path class="bc" d="M116.9,187.255s2.42,6.522,2.84,7.055c1.658,2.1,8.175,5.4,8.175,5.4a1.277,1.277,0,0,0,.809-1.422c-2-.881-5.706-4.94-6.516-5.436-.524-.321-2.841-8.294-2.841-8.294" transform="translate(-103.347 -166.722)"/><path class="ac" d="M115.34,175.939c-1.752-.67-3.427-.673-4.769-2.014-1.361,1.047,1.644,7.1,2.387,7.265.759.167,1.749,3.509,1.935,3.964a4.06,4.06,0,0,0,3.313-1.387C117.216,180.724,117.038,176.588,115.34,175.939Z" transform="translate(-100.794 -162.656)"/><path class="b" d="M109.619,169.13c-.12-.455-.465-.818-.542-1.283a2.1,2.1,0,0,1,.258-1.381,2.527,2.527,0,0,1,.6-.566,2.077,2.077,0,0,0,.977-2.525,3.1,3.1,0,0,1-.164-1.141c.035-.348.106-.712.481-.756.261-.03.428.033.52.253.064.154-.062,1.256.3.631a2.552,2.552,0,0,0,.644-2.02c0-.164-.057-.828.044-.926a2.625,2.625,0,0,1,.9,1.852,1.345,1.345,0,0,0,.618-1.161,3.073,3.073,0,0,0-.254-1.38,4.049,4.049,0,0,0-2.474-2.444,5.548,5.548,0,0,0-2.272-.6c-.788.021-1.765.255-1.993.846-1.093-.282-1.718.673-1.975,1.017a5.544,5.544,0,0,0-.844,1.627c-.279.863-.345,1.781-.565,2.662a3.875,3.875,0,0,1-1.041,1.959c-.532.481-1.28.526-1.859.967a2.909,2.909,0,0,0-1.1,2.418c.04.925.515,1.922-.043,2.77-.182.276-.436.5-.615.774a2.1,2.1,0,0,0,.042,2.172,3.852,3.852,0,0,0,1.883,1.61,5.537,5.537,0,0,0,2.037.28,5.313,5.313,0,0,0,3.851-1.2c.8-.68.287-1.069,1.05-1.789.428-.4,1.036-.62,1.349-1.145a2.045,2.045,0,0,0,.2-1.47Z" transform="translate(-96.478 -155.681)"/></g></g></svg>