<svg xmlns="http://www.w3.org/2000/svg" width="203.91" height="199.769" viewBox="0 0 203.91 199.769"><defs><style>.a{fill:#e6e6e6;}.b{fill:#151515;}.c{fill:#5ebcc0;}.d{fill:#ff7e55;}.e{fill:#424773;}.f{fill:#292c47;}.g{fill:#eea886;}.h{fill:#754836;}.i{fill:#e2d2ca;}.j{fill:#e8483d;}.k{fill:#d0d0d0;}.l{fill:#fff;}.m{fill:#b1b1b1;}.n{fill:#e0e0e0;}.o{fill:#f9b804;}.p{opacity:0.76;}.q{fill:#4aafff;}.r{fill:#1a598c;}.s{fill:#2273b5;}.t{fill:#3788cc;}.u{fill:#414773;}.v{fill:#2d314f;}.w{fill:#2b3b57;}.x{fill:#ffc655;}.y{fill:#353a3d;}.z{fill:#d4d8e8;}.aa{fill:#e55353;}.ab{fill:#6069a8;}.ac{fill:#202338;}.ad{fill:#464240;}.ae{fill:#eb4747;}.af{fill:#325bb3;}.ag{fill:#a77860;}.ah{fill:#5e5853;}.ai{fill:#91887f;}.aj{fill:#eddad3;}.ak{fill:#6e6760;}.al{fill:#807066;}</style></defs><g transform="translate(0 0)"><g transform="translate(40.85 42.529)"><path class="a" d="M0,0H146.343a0,0,0,0,1,0,0V98.925a9.474,9.474,0,0,1-9.474,9.474H9.474A9.474,9.474,0,0,1,0,98.925V0A0,0,0,0,1,0,0Z" transform="translate(146.343 108.399) rotate(180)"/></g><g transform="translate(46.023 47.839)"><rect class="b" width="135.738" height="83.385" transform="translate(135.738 83.385) rotate(180)"/></g><g transform="translate(41.511 116.496)"><rect class="c" width="13.676" height="1.548" transform="translate(0)"/></g><g transform="translate(0.109 106.974)"><path class="d" d="M113.487,287.3s-.619,8.683,1.077,9.722c1.063.652,5.3,2.847,5.175,3.259s-2.393,3.663-2.393,3.663-8.14-5.36-8.4-7.049c-.256-1.651.4-12.714,1.52-13.224.838-.382,1.28-.066,2.337.718A2.471,2.471,0,0,1,113.487,287.3Z" transform="translate(-108.888 -283.511)"/></g><g transform="translate(0.435 173.73)"><path class="e" d="M112.816,407.1s-.253,1.757-.285,2.021-2.816-.155-2.816-.155l-.226-2.092A16.5,16.5,0,0,1,112.816,407.1Z" transform="translate(-109.49 -406.87)"/></g><g transform="translate(0 175.635)"><g transform="translate(0 0)"><path class="f" d="M112.193,410.509a7.506,7.506,0,0,0,1.735,1.521c.853.462,2.194.644,2.7,1.122.364.345,1.327,1.829-2.217,1.8s-5.252.21-5.631-.359.549-4.2.549-4.2A7.516,7.516,0,0,0,112.193,410.509Z" transform="translate(-108.687 -410.391)"/></g></g><g transform="translate(14.37 173.73)"><g transform="translate(0)"><path class="e" d="M138.566,407.1s-.254,1.757-.286,2.021-2.816-.155-2.816-.155l-.225-2.092A16.5,16.5,0,0,1,138.566,407.1Z" transform="translate(-135.24 -406.87)"/></g></g><g transform="translate(13.934 175.635)"><g transform="translate(0 0)"><path class="f" d="M137.942,410.509a7.519,7.519,0,0,0,1.735,1.521c.853.462,3.993.84,4.5,1.318.364.345.97,1.733-4.016,1.6-3.543-.092-5.252.21-5.632-.359s.549-4.2.549-4.2A6.819,6.819,0,0,0,137.942,410.509Z" transform="translate(-134.435 -410.391)"/></g></g><g transform="translate(0 128.809)"><path class="f" d="M113.447,323.861s-2.616,4.157-2.421,7.914a79.217,79.217,0,0,1-.626,11.7c-.438,4.376-1.632,13.482-1.7,15.822s.085,11.148.085,11.148l4.538-.034s1.61-17.792,2.392-19.64,3.985-15.214,4.114-16.693S113.447,323.861,113.447,323.861Z" transform="translate(-108.686 -323.861)"/></g><g transform="translate(3.444 128.094)"><g transform="translate(0 0)"><path class="f" d="M130.138,323.818s1.034,10.214,1.293,12.514.083,12.264.212,13.7-.869,16.638-1.116,19.533l-4.987-.031s-.344-12.3-.344-18.272a46.768,46.768,0,0,0-3.29-16.872c-1.757-3.942-5.777-4.035-6.857-11.349C115.05,323.042,128.677,321.5,130.138,323.818Z" transform="translate(-115.05 -322.539)"/></g></g><g transform="translate(6.003 92.882)"><g transform="translate(0 0)"><path class="g" d="M121.3,258.353s3.117-2.082,5.306.148,3.265,7.475,1.693,8.522-4.239,1.321-5.5-.1a13.4,13.4,0,0,1-2.949-5.167A3.52,3.52,0,0,1,121.3,258.353Z" transform="translate(-119.78 -257.47)"/></g></g><g transform="translate(7.927 100.568)"><path class="g" d="M128.871,273.893a11.325,11.325,0,0,0,.2,2.658c.242.467-4.549.479-4.549.479a31.472,31.472,0,0,0-1.127-4.686C122.658,270.2,128.871,273.893,128.871,273.893Z" transform="translate(-123.335 -271.673)"/></g><g transform="translate(5.584 92.404)"><g transform="translate(0)"><path class="h" d="M121.529,265.386s.446.455,1.712-.061,2.456-2.641,2.959-2.962.433-.645.433-.645l.462.421.591-.1s-.9-1.438-.248-2.264-2.024-4.865-5.892-2.4c0,0-3.026,1.655-2.474,3.467A10.51,10.51,0,0,0,121.529,265.386Z" transform="translate(-119.005 -256.588)"/></g></g><g transform="translate(8.567 104.077)"><g transform="translate(0 0)"><path class="i" d="M129.9,279.47s-.015-.892-.419-.978a28.87,28.87,0,0,0-4.961-.28v1.039S125.475,279.84,129.9,279.47Z" transform="translate(-124.518 -278.158)"/></g></g><g transform="translate(11.746 96.381)"><g transform="translate(0 0)"><path class="g" d="M131.613,264.442c-.146-.292-1.14-.989-1.218.026s.976,2.108,1.372,1.9S131.984,265.18,131.613,264.442Z" transform="translate(-130.391 -263.937)"/></g></g><g transform="translate(4.978 94.301)"><path class="h" d="M119.53,260.093s-4.458,1.2,1.3,6.729Z" transform="translate(-117.886 -260.093)"/></g><g transform="translate(37.458 117.066)"><g transform="translate(0)"><path class="g" d="M186.9,303.1l-4.542-.042c.392-.228,1.025-.639.886-.826-.2-.266-1.487.319-2.009.372a7.642,7.642,0,0,0-1.893.209l-1.435.611,1.316,1.217s2.376.341,3.072.39a13.162,13.162,0,0,0,4.649-1.472C187.044,303.19,186.9,303.1,186.9,303.1Z" transform="translate(-177.905 -302.161)"/></g></g><g transform="translate(0.993 105.17)"><g transform="translate(0)"><path class="j" d="M129.407,281.633c-2.89-.508-5.931-1.237-5.931-1.237l-5.381-.22a52.32,52.32,0,0,0-6.883,1.966c-.185.083-.185,4.406-.692,5.539l1.612,3.4s.932,6.738,1.125,9.735c.089,1.376-1.921,12.9-1.921,12.9a37.165,37.165,0,0,0,5.826,1.038c3.672.4,12.848-.146,12.905-.58s-1.777-16.151-1.858-16.965c-.124-1.249.36-7.021.36-7.021a37.067,37.067,0,0,0,6.645,5.523c1.39.788,4.8.306,5.8.2,2.173-.223,8.174-.651,8.291-.865a5.97,5.97,0,0,0-.6-2.4c-.22-.073-7.967-.456-9.911-.356-.788.042-3.361-2.831-3.361-2.831S131,282.349,129.407,281.633Z" transform="translate(-110.521 -280.177)"/></g></g><path class="k" d="M316.98,335.811H170.694l-16.008,59.834h178.3Z" transform="translate(-129.793 -200.535)"/><path class="l" d="M193.117,355.21h8.988a.542.542,0,0,1,.589.607l-.871,3.91a.583.583,0,0,1-.589.415h-9.141a.538.538,0,0,1-.585-.623l1.024-3.909A.587.587,0,0,1,193.117,355.21Z" transform="translate(-146.682 -209.436)"/><path class="l" d="M217.842,355.21h6.794l-.9,4.932h-6.924Z" transform="translate(-158.298 -209.436)"/><path class="l" d="M236.839,355.21h6.794l-.71,4.932-6.925.007Z" transform="translate(-167.103 -209.436)"/><path class="l" d="M255.838,355.21h6.795l-.517,4.932h-6.924Z" transform="translate(-175.91 -209.436)"/><path class="l" d="M274.836,355.21h6.794l-.323,4.932h-6.923Z" transform="translate(-184.716 -209.436)"/><path class="l" d="M293.834,355.21h6.8l-.129,4.932-6.925.007Z" transform="translate(-193.522 -209.436)"/><path class="l" d="M436.124,355.21H425.932l1.1,4.932h10.385Z" transform="translate(-254.253 -209.436)"/><path class="l" d="M413.892,355.21H407.1l.9,4.932h6.923Z" transform="translate(-245.611 -209.436)"/><path class="l" d="M395.059,355.21h-6.8l.71,4.932,6.925.007Z" transform="translate(-236.969 -209.436)"/><path class="l" d="M376.225,355.21h-6.8l.517,4.932h6.924Z" transform="translate(-228.328 -209.436)"/><path class="l" d="M357.391,355.21H350.6l.323,4.932h6.924Z" transform="translate(-219.686 -209.436)"/><path class="l" d="M338.557,355.21h-6.8l.13,4.932,6.924.007Z" transform="translate(-211.044 -209.436)"/><path class="l" d="M312.887,355.21h6.8l.112,4.932h-6.907Z" transform="translate(-202.383 -209.436)"/><path class="l" d="M188.056,371.115h14.2l-.809,5.088H186.978Z" transform="translate(-144.61 -216.734)"/><path class="l" d="M433.98,371.115H416.43l1,5.088h17.883Z" transform="translate(-249.893 -216.734)"/><path class="l" d="M403.991,371.115h-7.02l.8,5.088h7.153Z" transform="translate(-240.965 -216.734)"/><path class="l" d="M384.533,371.115h-7.02l.6,5.088h7.153Z" transform="translate(-232.036 -216.734)"/><path class="l" d="M365.075,371.115h-7.02l.4,5.088h7.153Z" transform="translate(-223.108 -216.734)"/><path class="l" d="M345.616,371.115H338.6l.2,5.088h7.153Z" transform="translate(-214.179 -216.734)"/><path class="l" d="M183.928,387.875h14.515l-1.059,5.054H182.6Z" transform="translate(-142.603 -224.424)"/><path class="l" d="M217.737,387.875h7.257l-.86,5.054h-7.39Z" transform="translate(-158.268 -224.424)"/><path class="l" d="M238.023,387.875h54.428l.2,5.054H237.229Z" transform="translate(-167.668 -224.424)"/><path class="l" d="M345.988,387.875h7.257l.4,5.054h-7.39Z" transform="translate(-217.572 -224.424)"/><path class="l" d="M366.105,387.875h7.257l.6,5.054h-7.39Z" transform="translate(-226.802 -224.424)"/><path class="l" d="M386.223,387.875h7.257l.795,5.054h-7.39Z" transform="translate(-236.033 -224.424)"/><path class="l" d="M406.34,387.875H413.6l.993,5.054H407.2Z" transform="translate(-245.264 -224.424)"/><path class="l" d="M426.457,387.875h14.515l1.324,5.054h-14.78Z" transform="translate(-254.494 -224.424)"/><path class="l" d="M326.233,371.115H319.27V376.2h7.1Z" transform="translate(-205.312 -216.734)"/><path class="l" d="M306.556,371.115h-7.02l-.2,5.088h7.153Z" transform="translate(-196.165 -216.734)"/><path class="l" d="M286.929,371.115h-7.02l-.4,5.088h7.153Z" transform="translate(-187.068 -216.734)"/><path class="l" d="M267.3,371.115h-7.02l-.6,5.088h7.154Z" transform="translate(-177.969 -216.734)"/><path class="l" d="M247.672,371.115h-7.02l-.8,5.088H247Z" transform="translate(-168.871 -216.734)"/><path class="l" d="M228.044,371.115h-7.02l-1,5.088h7.153Z" transform="translate(-159.774 -216.734)"/><path class="l" d="M195.107,345.748l1.153-4.4h3.3l-1.076,4.4Z" transform="translate(-148.34 -203.074)"/><path class="l" d="M208.551,341.345h6.6l-.923,4.4h-6.713Z" transform="translate(-154.033 -203.074)"/><path class="l" d="M226.987,341.345h6.6l-.749,4.4h-6.714Z" transform="translate(-162.571 -203.074)"/><path class="l" d="M245.423,341.345h6.6l-.577,4.4H244.73Z" transform="translate(-171.11 -203.074)"/><path class="l" d="M263.858,341.345h6.6l-.4,4.4h-6.713Z" transform="translate(-179.648 -203.074)"/><path class="l" d="M282.293,341.345h6.6l-.23,4.4h-6.714Z" transform="translate(-188.187 -203.074)"/><path class="l" d="M300.729,341.345h6.6l-.058,4.4h-6.713Z" transform="translate(-196.725 -203.074)"/><path class="l" d="M319.164,341.345h6.6l.115,4.4h-6.714Z" transform="translate(-205.263 -203.074)"/><path class="l" d="M337.453,341.345h6.6l.288,4.4h-6.714Z" transform="translate(-213.655 -203.074)"/><path class="l" d="M355.742,341.345h6.6l.461,4.4h-6.713Z" transform="translate(-222.047 -203.074)"/><path class="l" d="M374.031,341.345h6.6l.634,4.4H374.55Z" transform="translate(-230.439 -203.074)"/><path class="l" d="M392.32,341.345h6.6l.807,4.4h-6.714Z" transform="translate(-238.831 -203.074)"/><path class="l" d="M410.609,341.345h6.6l.981,4.4h-6.713Z" transform="translate(-247.223 -203.074)"/><path class="l" d="M428.9,341.345h6.6l1.154,4.4h-6.714Z" transform="translate(-255.615 -203.074)"/><path class="m" d="M328.33,451.037H159.344a4.658,4.658,0,0,1-4.658-4.658h178.3A4.658,4.658,0,0,1,328.33,451.037Z" transform="translate(-129.793 -251.269)"/><path class="a" d="M320.588,409.1a2.182,2.182,0,0,0-2.153-1.826H281.286a2.181,2.181,0,0,0-2.152,1.826l-2.321,14.045a2.181,2.181,0,0,0,2.152,2.537h41.791a2.182,2.182,0,0,0,2.153-2.537Z" transform="translate(-185.817 -233.326)"/><g transform="translate(55.188 54.913)"><rect class="n" width="15.122" height="1.548"/><g transform="translate(19.354 11.659)"><rect class="n" width="10.918" height="1.548"/></g><g transform="translate(31.972 11.659)"><rect class="c" width="7.245" height="1.548"/></g><g transform="translate(0.172 40.977)"><rect class="c" width="7.245" height="1.548"/></g><g transform="translate(40.649 11.659)"><rect class="n" width="17.492" height="1.548"/></g><g transform="translate(0.172 35.105)"><rect class="n" width="11.24" height="1.548"/></g><g transform="translate(15.84 46.807)"><rect class="n" width="6.862" height="1.548"/></g><g transform="translate(0.172 46.807)"><rect class="c" width="13.595" height="1.548"/></g><g transform="translate(0.172 52.636)"><rect class="n" width="7.498" height="1.548"/></g><g transform="translate(18.063)"><rect class="o" width="10.735" height="1.548"/></g><g transform="translate(18.063 17.488)"><rect class="c" width="10.735" height="1.548"/></g><g transform="translate(12.696 23.317)"><rect class="n" width="4.587" height="1.548"/></g><g transform="translate(8.109 29.233)"><rect class="o" width="10.303" height="1.548"/></g><g transform="translate(19.969 29.233)"><rect class="c" width="14.222" height="1.548"/></g><g transform="translate(0.172 23.36)"><rect class="c" width="10.735" height="1.548"/></g><g transform="translate(0.172 29.233)"><rect class="c" width="6.37" height="1.548"/></g><g transform="translate(19.445 23.36)"><rect class="j" width="6.009" height="1.548"/></g><g transform="translate(0.352 58.465)"><rect class="j" width="6.009" height="1.548"/></g><g transform="translate(0.129 11.659)"><rect class="o" width="10.734" height="1.548"/></g><g transform="translate(9.622 40.977)"><rect class="o" width="10.735" height="1.548"/></g><g transform="translate(9.755 52.636)"><rect class="o" width="10.734" height="1.548"/></g><g transform="translate(28.824 52.636)"><rect class="o" width="10.734" height="1.548"/></g><g transform="translate(0.129 17.488)"><rect class="o" width="15.302" height="1.548"/></g><g transform="translate(71.836)"><rect class="o" width="10.734" height="1.548"/></g><g transform="translate(33.595 58.465)"><rect class="o" width="10.735" height="1.548"/></g><g transform="translate(85.91)"><rect class="o" width="7.186" height="1.548"/></g><g transform="translate(110.222 5.829)"><rect class="o" width="7.186" height="1.548"/></g><g transform="translate(31.688)"><rect class="c" width="13.677" height="1.548"/></g><g transform="translate(84.976 5.829)"><rect class="c" width="13.676" height="1.548"/></g><g transform="translate(68.202 11.659)"><rect class="c" width="13.677" height="1.548"/></g><g transform="translate(50.396 17.488)"><rect class="c" width="13.676" height="1.548"/></g><g transform="translate(83.6 11.659)"><rect class="o" width="9.722" height="1.548"/></g><g transform="translate(55.48)"><rect class="j" width="13.676" height="1.548"/></g><g transform="translate(39.874 17.488)"><rect class="j" width="8.019" height="1.548"/></g><g transform="translate(33.595 41.063)"><rect class="j" width="8.019" height="1.548"/></g><g transform="translate(47.893)"><rect class="n" width="5.007" height="1.548"/></g><g transform="translate(31.688 17.488)"><rect class="n" width="5.006" height="1.548"/></g><g transform="translate(101.95 5.829)"><rect class="n" width="5.007" height="1.548"/></g><g transform="translate(0 5.829)"><rect class="c" width="7.832" height="1.548"/></g><g transform="translate(20.897 35.147)"><rect class="c" width="6.183" height="1.548"/></g><g transform="translate(9.755 5.829)"><rect class="c" width="2.528" height="1.548"/></g><g transform="translate(61.669 5.829)"><rect class="n" width="20.902" height="1.548"/></g><g transform="translate(41.614 52.636)"><rect class="n" width="20.902" height="1.548"/></g><g transform="translate(14.141 5.829)"><rect class="j" width="2.58" height="1.548"/></g><g transform="translate(52.9 5.829)"><rect class="c" width="6.838" height="1.548"/></g><g transform="translate(59.738 11.659)"><rect class="j" width="6.838" height="1.548"/></g><g transform="translate(24.575 58.465)"><rect class="j" width="6.838" height="1.548"/></g><g transform="translate(36.54 5.829)"><rect class="c" width="14.55" height="1.548"/></g><g transform="translate(22.996 41.063)"><rect class="c" width="8.5" height="1.548"/></g><g transform="translate(22.449 52.636)"><rect class="c" width="4.251" height="1.548"/></g><g transform="translate(29.469 5.829)"><rect class="o" width="5.007" height="1.548"/></g><g transform="translate(12.619 11.659)"><rect class="j" width="5.006" height="1.548"/></g><g transform="translate(13.617 35.147)"><rect class="j" width="5.006" height="1.548"/></g><g transform="translate(18.837 5.829)"><rect class="c" width="8.722" height="1.548"/></g></g><g class="p" transform="translate(136.314 74.339)"><path class="l" d="M4.015,0H63.583A4.014,4.014,0,0,1,67.6,4.014V44.178a4.015,4.015,0,0,1-4.015,4.015H4.015A4.015,4.015,0,0,1,0,44.178V4.015A4.015,4.015,0,0,1,4.015,0Z" transform="translate(0 0)"/></g><g transform="translate(184.886 99.141)"><g transform="translate(0 0)"><path class="q" d="M1.539,0h9.478a1.541,1.541,0,0,1,1.541,1.541v.267a1.54,1.54,0,0,1-1.54,1.54H1.541A1.541,1.541,0,0,1,0,1.807V1.539A1.539,1.539,0,0,1,1.539,0Z"/></g></g><g transform="translate(184.886 105.411)"><g transform="translate(0)"><path class="q" d="M1.539,0h9.479a1.541,1.541,0,0,1,1.541,1.541v.267a1.54,1.54,0,0,1-1.54,1.54H1.541A1.541,1.541,0,0,1,0,1.807V1.539A1.539,1.539,0,0,1,1.539,0Z"/></g></g><g transform="translate(184.886 111.681)"><g transform="translate(0 0)"><path class="q" d="M1.54,0h9.477a1.541,1.541,0,0,1,1.541,1.541v.267a1.541,1.541,0,0,1-1.541,1.541H1.541A1.541,1.541,0,0,1,0,1.808V1.54A1.54,1.54,0,0,1,1.54,0Z"/></g></g><g transform="translate(142.583 79.292)"><g transform="translate(0 0)"><path class="q" d="M408.4,244.737A18.658,18.658,0,1,0,373.262,257.3q.211.593.459,1.164a18.658,18.658,0,0,0,34.677-13.73Zm-12.857,19.455A13.973,13.973,0,0,1,378,256.6c-.123-.284-.239-.576-.345-.872a13.988,13.988,0,1,1,17.882,8.462Z" transform="translate(-372.167 -232.358)"/></g><g transform="translate(0.852 0.008)"><path class="r" d="M378.2,246.859l-4.458-1.392a18.682,18.682,0,0,1,17.253-13.093l.14,4.668a14.009,14.009,0,0,0-12.935,9.818Z" transform="translate(-373.741 -232.373)"/></g><g transform="translate(0 13.102)"><path class="s" d="M378,267.711l-4.282,1.864q-.248-.571-.459-1.163a18.576,18.576,0,0,1-.244-11.844l4.458,1.392a13.925,13.925,0,0,0,.182,8.879C377.765,267.136,377.88,267.427,378,267.711Z" transform="translate(-372.167 -256.568)"/></g><g transform="translate(1.554 24.245)"><path class="t" d="M377.931,283.668a18.587,18.587,0,0,1-2.892-4.644l4.282-1.864a13.9,13.9,0,0,0,2.168,3.483Z" transform="translate(-375.039 -277.16)"/></g></g><g transform="translate(149.16 91.133)"><g transform="translate(18.034 8.987)"><path class="g" d="M417.926,279.747s-.9-1.582.53-5.821a4.272,4.272,0,0,1,7.709-1.1c1.525,2.626,1.01,4.258-1.235,7.223S418.857,281.1,417.926,279.747Z" transform="translate(-417.645 -270.846)"/></g><g transform="translate(29.461 90.591)"><path class="g" d="M438.76,421.867s.237,1.74.267,2,2.641-.154,2.641-.154l.211-2.073A14.688,14.688,0,0,0,438.76,421.867Z" transform="translate(-438.76 -421.642)"/></g><g transform="translate(25.168 92.479)"><path class="u" d="M435.358,425.249a7.194,7.194,0,0,1-1.628,1.505c-.8.458-2.057.639-2.531,1.112-.341.341-1.244,1.812,2.08,1.783s4.927.208,5.283-.356-.515-4.162-.515-4.162A9.159,9.159,0,0,1,435.358,425.249Z" transform="translate(-430.827 -425.131)"/></g><g transform="translate(11.377 90.591)"><path class="g" d="M405.342,421.867s.238,1.74.267,2,2.641-.154,2.641-.154l.212-2.073A14.692,14.692,0,0,0,405.342,421.867Z" transform="translate(-405.342 -421.642)"/></g><g transform="translate(5.548 92.479)"><path class="u" d="M400.64,425.249a7.189,7.189,0,0,1-1.628,1.505c-.8.458-3.745.833-4.218,1.306-.342.342-.91,1.717,3.767,1.588,3.323-.091,4.927.208,5.283-.356s-.515-4.162-.515-4.162A13.824,13.824,0,0,1,400.64,425.249Z" transform="translate(-394.572 -425.131)"/></g><g transform="translate(21.619 47.47)"><path class="v" d="M431.232,341.959a25.83,25.83,0,0,1,1.162,7.747c-.176,3.586.693,7.511,1.048,11.257.4,4.176,2.016,14.064,2.075,16.3s-.251,9.368-.251,9.368l-3.244.078s-2.724-17.285-3.429-19.049-4.2-14.337-4.322-15.748S431.232,341.959,431.232,341.959Z" transform="translate(-424.269 -341.959)"/></g><g transform="translate(11.009 46.154)"><path class="v" d="M408.787,340.409s-1.969,11-2.2,13.2-.392,10.622-.509,11.994-.784,17.951-1.411,19.989h3.617s3.713-12.053,3.713-17.755,2.458-12.4,4.046-16.159,5.22-3.852,6.2-10.833C422.235,340.843,410.108,338.2,408.787,340.409Z" transform="translate(-404.662 -339.526)"/></g><g transform="translate(19.606 17.709)"><path class="g" d="M420.57,288.26a3.146,3.146,0,0,1,0,2.035c-.408.847,5.212.339,5.212.339a6.041,6.041,0,0,1,.481-3.192C427,286,420.57,288.26,420.57,288.26Z" transform="translate(-420.549 -286.963)"/></g><g transform="translate(14.952 47.037)"><path class="w" d="M425.839,342.5s-2.021,2.076-13.889-.324l.181-1.017,13.491.509Z" transform="translate(-411.95 -341.158)"/></g><g transform="translate(2.231 6.864)"><path class="g" d="M404.987,281.375s-2.076.212-2.669.325-4.585-.715-5.4-.8a16.735,16.735,0,0,1-4.424-2.76,58.242,58.242,0,0,1-2.238-6.477c-.113-1.1-1.96-.534-1.8.226.3,1.42.676,4.866.885,5.865a15.6,15.6,0,0,0,1.167,3.822,24.336,24.336,0,0,0,6.561,3.709,26.148,26.148,0,0,1,5.4,2.514h15.171s5.9-8.435,6.028-9.706-4.122-9.717-4.969-10.777-2.073.346-2.073.346,2.538,7.449,2.877,8.509-2.953,5.712-3.857,5.726-3.224-.283-4.255-.325a7.233,7.233,0,0,1-2.119-.495Z" transform="translate(-388.441 -266.922)"/></g><g transform="translate(9.019 18.655)"><path class="x" d="M404.2,297.006a4.9,4.9,0,0,1,2.027,3.352,43.858,43.858,0,0,0,1.186,6.609c.339,1.145-.3,9.447-.382,10.04s11.74,2,13.556.594c0,0,.508-7.753.72-9.956a57.914,57.914,0,0,1,1.567-8.26c.339-.72,4.448-6.484,4.618-7.244,0,0-2.126-3.389-3.651-3.431,0,0-2.422,2.838-3.212,2.965a44.645,44.645,0,0,1-5.631-.767s-.529.72-3.337-.128c0,0-3.345.377-3.889.446-.659.085-5.238-.574-5.238-.574s-1.838,3.1-1.516,4.669Z" transform="translate(-400.985 -288.71)"/></g><g transform="translate(0 3.863)"><path class="g" d="M388.467,269.781s-.415-1.963.086-2.527c.284-.32.967-1.171,1.029-1.3s.8-.547.8-.749-.718-.452-1.342.125-1.014.7-1.264.64-.609-2.138-.64-2.652-.23-1.873-.552-1.779-.306.686-.306.686-.375-1.03-.624-.827-.219.7-.219.7-.468-.578-.593-.156a1.458,1.458,0,0,0,0,.8s-.484-.265-.515.39a9.97,9.97,0,0,0,.484,3.262,25.7,25.7,0,0,1,1.781,3.184C386.741,270.281,388.467,269.781,388.467,269.781Z" transform="translate(-384.319 -261.376)"/></g><g transform="translate(25.842 0)"><path class="g" d="M437.052,263.058a12.922,12.922,0,0,0-1.892-2.585,8.09,8.09,0,0,1-1.751-.756c-.593-.423-1.377-.776-1.335-.917s.741-.085,1.49.24,1.076.168,1.147,0a4.361,4.361,0,0,0-.625-1.648c-.226-.283-1.836-1.9-1.567-2.142s1.313.65,1.483.833c0,0-.833-1.751-.509-1.836s.932.536.932.536-.07-1.5,1.54.932c0,0-.339-.8.155-.536s.975,1.779,1.13,2.542.86,3.191,1.461,3.777S437.052,263.058,437.052,263.058Z" transform="translate(-432.073 -254.238)"/></g><g transform="translate(18.806 8.627)"><path class="y" d="M425.584,279.742a6.41,6.41,0,0,1-2.325-.48c-1.582-.547-1.7-3.311-2.042-2.984a1,1,0,0,1-1.621-.188s.772-1.016.415-1.507a3.79,3.79,0,0,0-.941-.846s1.113-5.361,6.175-2.919C431.176,273.68,425.584,279.742,425.584,279.742Z" transform="translate(-419.07 -270.18)"/></g><g transform="translate(19.627 20.259)"><path class="z" d="M420.588,292.458l.178-.775a41.094,41.094,0,0,1,4.994.189l.186.926A6.938,6.938,0,0,1,420.588,292.458Z" transform="translate(-420.588 -291.676)"/></g><g transform="translate(19.971 13.626)"><path class="g" d="M421.677,279.838c.293-.487,1.378-.816,1.506.565.1,1.071-1.939,2.241-1.958,1.243A3.013,3.013,0,0,1,421.677,279.838Z" transform="translate(-421.223 -279.417)"/></g><g transform="translate(2.335 11.822)"><path class="aa" d="M390.37,276.085a3.217,3.217,0,0,0-1.731.539,1.157,1.157,0,0,0,.094.58,7.2,7.2,0,0,1,1.785-.56S390.505,276.22,390.37,276.085Z" transform="translate(-388.634 -276.085)"/></g><g transform="translate(2.657 11.806)"><path class="y" d="M389.269,276.361a.5.5,0,1,0,.657-.267A.5.5,0,0,0,389.269,276.361Z" transform="translate(-389.229 -276.055)"/></g></g><g transform="translate(120.462 60.426)"><g transform="translate(0 0)"><path class="ab" d="M334.049,198.885a17.87,17.87,0,0,0,2.37,3.286c.955.626.357,1.259-.1,1.26s-2.77.167-3.28-.413-.763-2.315-1.238-2.769-.964-2.259.231-2.7C333.092,197.164,334.049,198.885,334.049,198.885Z" transform="translate(-331.288 -197.495)"/></g></g><g transform="translate(121.127 60.483)"><path class="ac" d="M333.891,197.691s1.908,3.308,2.237,3.8-.62.488-1.207.255-2.065-2.6-2.278-3.036a1.593,1.593,0,0,1-.045-1.106Z" transform="translate(-332.518 -197.601)"/></g><g transform="translate(120.567 62.353)"><g transform="translate(0 0)"><path class="ab" d="M331.483,201.057l.441,3.391.234.01-.073-2.44Z" transform="translate(-331.483 -201.057)"/></g></g><g transform="translate(103.932 60.437)"><path class="ab" d="M303.509,198.894a17.9,17.9,0,0,0,2.37,3.286c.955.626.357,1.259-.1,1.26s-2.77.167-3.28-.413-.764-2.315-1.238-2.769-.981-2.305.231-2.7C302.558,197.217,303.509,198.894,303.509,198.894Z" transform="translate(-300.742 -197.515)"/></g><g transform="translate(104.604 60.483)"><path class="ac" d="M303.456,197.7s1.809,3.3,2.138,3.79-.62.488-1.207.255-2.066-2.6-2.278-3.036a1.594,1.594,0,0,1-.045-1.106Z" transform="translate(-301.984 -197.601)"/></g><g transform="translate(104.043 62.353)"><g transform="translate(0 0)"><path class="ab" d="M300.947,201.057l.441,3.391.234.01-.072-2.44Z" transform="translate(-300.947 -201.057)"/></g></g><g transform="translate(99.305 33.756)"><path class="ac" d="M292.192,150.564l15.079,6.87a2.9,2.9,0,0,1,1.872,2.416c.589,5.834,4.952,15.088,4.952,15.088,1.4.684,1.293.09,1.293.09-.882-2.832-1.956-14.505-2.339-19.2-.082-.994-.132-1.675-.143-1.892-.008-.148-.169-.341-.448-.568-2.069-1.678-10.583-5.152-10.583-5.152C295.482,148.057,292.192,150.564,292.192,150.564Z" transform="translate(-292.192 -148.212)"/></g><g transform="translate(96.402 32.72)"><g transform="translate(0)"><path class="ac" d="M286.889,152.636c.466,4.076,6.285,3.609,6.285,3.609h7.051a44,44,0,0,0-2.568,7.6c-.759,3.69-2.548,10.217-2.548,10.217s.117.221,1.392.1c0,0,5.535-11.031,7.655-13.8a18.731,18.731,0,0,0,1.987-5.769c.076-.65.029-1.152-.214-1.356a17.636,17.636,0,0,0-1.557-1.064c-2.209-1.392-6.045-3.537-8.182-4.017-2.862-.643-7.389-1.849-7.389-1.849A7.792,7.792,0,0,0,286.889,152.636Z" transform="translate(-286.829 -146.297)"/></g></g><g transform="translate(100.579)"><path class="ad" d="M295.23,93.5a6.568,6.568,0,0,1-.541-4.138c.515-2.134,2.494-4.259,5.393-3.283s5.243,3.229,3.505,5.833,1.573,3.779.729,5.019a2.4,2.4,0,0,0-.167,2.822,3.287,3.287,0,0,1,1.383,2.533c-.127,1.217-5.625-3.546-5.625-3.546S296.913,92.721,295.23,93.5Z" transform="translate(-294.548 -85.834)"/></g><g transform="translate(98.4 32.295)"><path class="ae" d="M302.218,146.492s-.437,2.121-11.7-.557C290.52,145.935,294.295,144.681,302.218,146.492Z" transform="translate(-290.52 -145.512)"/></g><g transform="translate(95.983 13.021)"><path class="af" d="M288.342,130.188l-.523,1,12.35.36c-.651-2.18-.44-5.133-.326-7.375.14-2.738,1.651-4.641,1.49-7.41.814.132.955.157,1.771.282-1.248-3.554-1.675-5.315-5.549-6.683a7.242,7.242,0,0,0-3.456-.421c-4.488.37-5.842.423-8.045,4.489,3.45.55,2.882,1.789,3.929,5.221a12.3,12.3,0,0,1,.769,5.308C290.481,126.7,288.342,128.6,288.342,130.188Z" transform="translate(-286.053 -109.896)"/></g><g transform="translate(103.953 9.473)"><path class="g" d="M302.262,108.215c-1.837-.347-1.446-1.369-1.446-1.369s.085-.576.118-1.305c.008-.186.013-.383.012-.583a7.772,7.772,0,0,0-.05-.9c-.151-1.233,3.333-.5,3.333-.5s-.2,2.495.28,3.242S304.1,108.561,302.262,108.215Z" transform="translate(-300.781 -103.34)"/></g><g transform="translate(101.93 12.639)"><path class="g" d="M297.043,109.524a58.008,58.008,0,0,0,5.074,5.269s1.573-1.422.6-5.176C302.721,109.617,300.932,108.72,297.043,109.524Z" transform="translate(-297.043 -109.189)"/></g><g transform="translate(101.171 1.988)"><path class="g" d="M296.5,90.2s-1.924,3.707-.017,7.219,5.658-1.529,5.9-2.121,1.528-3.936-1.029-4.953S297.045,89.19,296.5,90.2Z" transform="translate(-295.64 -89.507)"/></g><g transform="translate(101.098 1.22)"><path class="ad" d="M297.078,90.861a8.344,8.344,0,0,0-1.481,3.025,6.89,6.89,0,0,1,.963-4.765c1.491-2.335,5.282-.111,5.789.821s2,1.755-.5,5.764C301.846,95.706,297.35,92.584,297.078,90.861Z" transform="translate(-295.506 -88.088)"/></g><g transform="translate(104.106 10.266)"><path class="ag" d="M302.7,104.8a3.592,3.592,0,0,1-1.639,1.409c.008-.186.013-.383.012-.583A3.117,3.117,0,0,0,302.7,104.8Z" transform="translate(-301.065 -104.804)"/></g><g transform="translate(82.482 29.847)"><path class="g" d="M264.923,141.119s-.914.406-1.349.222a4.046,4.046,0,0,0-1.316-.221c-.283,0-1.168-.316-1.153.03s1.438.587,1.729.7-.871.747-.979,1.031,1.2,2.149,1.943,1.617,1.141-1.592,1.291-1.659a5.439,5.439,0,0,0,.555-.365Z" transform="translate(-261.106 -140.988)"/></g><g transform="translate(81.188 31.57)"><path class="g" d="M260.9,144.173a19.147,19.147,0,0,0-2.178,2.019c-.034.24.079.353.287.195s2.127-1.658,2.127-1.658-2.149,2.538-2.222,2.726c-.042.11.164.34.284.266s2.405-2.464,2.405-2.464-2,2.374-2.013,2.552a.233.233,0,0,0,.393.157c.162-.166,2.154-2.26,2.154-2.26a11.851,11.851,0,0,0-1.257,1.983c.051.1.22.3.55-.178s1.235-1.531,1.235-1.531Z" transform="translate(-258.715 -144.173)"/></g><g transform="translate(96.403 32.72)"><path class="j" d="M299.49,156.246h-6.315s-5.819.466-6.284-3.609a7.791,7.791,0,0,1,1.913-6.34s3.073.819,5.757,1.467a20.815,20.815,0,0,1,4.854-.423s11.375,3.758,11.032,5.737C310.446,153.078,305.688,150.534,299.49,156.246Z" transform="translate(-286.83 -146.297)"/></g><g transform="translate(104.953 35.433)"><path class="ah" d="M302.629,151.488l12.041-.177L308.59,154.4Z" transform="translate(-302.629 -151.311)"/></g><g transform="translate(102.508 32.933)"><path class="af" d="M304.3,147.83a10.3,10.3,0,0,1-6.029.1l-.156-1.24,6.837.38Z" transform="translate(-298.112 -146.69)"/></g><g transform="translate(104.953 35.611)"><path class="ai" d="M308.59,154.548l-5.961-2.309v-.6l6.432,2.321Z" transform="translate(-302.629 -151.639)"/></g><g transform="translate(85.249 12.706)"><g transform="translate(22.359 0.359)"><path class="aj" d="M308.578,131.558a.6.6,0,0,0,.828.59l.7-.3a.5.5,0,0,0,.3-.537c-.291-1.821-.915-8.911,0-10.127a4.42,4.42,0,0,0,.666-1.188c.6,1.554,1.353,3.555,1.651,4.632L318.4,132.2l1.908.484a64.571,64.571,0,0,0-4.292-8.774c-.373-1-1.44-4.026-2.385-6.721-.6-1.7-1.145-3.271-1.439-4.114a1.931,1.931,0,0,0-.833-1.02c-.881-.527-2.349-1.357-3.681-2l-.016-.008-.127-.062h0c2.531,3.83,1.544,14.647,1.045,21.565Z" transform="translate(-307.535 -109.978)"/></g><g transform="translate(0 0)"><path class="aj" d="M280.223,110c-.811.126-2.822,2.077-3.89,4.048-1.219,2.249-2.46,4.809-3.389,5.651-1.71,1.549-6.5,7.024-6.723,6.892a14.772,14.772,0,0,0,1.49,1.713c.089.04,7.866-6.7,8.612-7.726.708-.974,2.6-5.059,3.168-4.969l0,0v0a30.378,30.378,0,0,1,1.385,3.77c.01.036.021.073.032.109a12.12,12.12,0,0,1,.165,5.034,17.143,17.143,0,0,1-1.862,4.81.76.76,0,0,0,.025.584h0a.42.42,0,0,0,.207.242l2.283.846.537.2a1.17,1.17,0,0,0,1.565-.945,69.358,69.358,0,0,1,1.662-9.4,14.238,14.238,0,0,0-.878-11.55A42.5,42.5,0,0,0,280.223,110Z" transform="translate(-266.218 -109.314)"/></g></g><g transform="translate(110.914 28.742)"><path class="ak" d="M313.645,148.724l3.582-9.779,11.546.188-3.414,9.011Z" transform="translate(-313.645 -138.945)"/></g><g transform="translate(117.982 32.157)"><path class="al" d="M326.914,146.167c-.352.7-.246,1.471.238,1.714s1.162-.134,1.514-.838.246-1.471-.238-1.713S327.266,145.463,326.914,146.167Z" transform="translate(-326.707 -145.256)"/></g><g transform="translate(105.298 6.29)"><path class="ad" d="M303.988,97.536a2.077,2.077,0,0,1,.056,2.144c-.683.993.173,1.969.32,3.019s-2.852,3.844.485,5.249,4.4-.918,3.547-2.2a7.222,7.222,0,0,1-1.527-4.139C306.8,99.79,306.2,96.948,303.988,97.536Z" transform="translate(-303.267 -97.457)"/></g></g></svg>