<svg xmlns="http://www.w3.org/2000/svg" xmlns:xlink="http://www.w3.org/1999/xlink" width="233.7" height="199.027" viewBox="0 0 233.7 199.027"><defs><style>.a,.af,.ah,.i,.o{fill:none;}.b{fill:#3b868a;}.c{fill:#34417d;}.d{fill:#5fbdc1;}.e{fill:#2f8e91;}.f{fill:#151515;}.g{fill:#e6ebf4;}.h{fill:#acb9e8;}.af,.ah,.i,.o{stroke:#19034d;stroke-miterlimit:10;}.i{stroke-width:7px;}.j{fill:#19034d;}.k{fill:#ff735f;}.l{fill:#d4a100;}.m{fill:#f5ba00;}.n{fill:url(#a);}.o{stroke-width:5px;}.p{fill:#db6352;}.q{fill:#e01919;}.r{fill:url(#b);}.s{fill:url(#c);}.t{fill:url(#d);}.u{clip-path:url(#e);}.v{fill:#fff;}.w{clip-path:url(#f);}.x{fill:#ff977d;}.y{fill:url(#g);}.z{fill:#bf0033;}.aa{fill:#0c7b7d;}.ab{fill:#320699;}.ac{fill:url(#h);}.ad,.ai{opacity:0.6;mix-blend-mode:multiply;isolation:isolate;}.ad{fill:url(#i);}.ae{fill:#0c3df0;opacity:0.34;}.af{stroke-width:6px;}.ag{clip-path:url(#j);}.ah{stroke-width:0.5px;}.ai{fill:url(#k);}</style><linearGradient id="a" x1="10.849" y1="-5.087" x2="11.893" y2="-5.087" gradientUnits="objectBoundingBox"><stop offset="0.018" stop-color="#022a5d"/><stop offset="1" stop-color="#0c4691"/></linearGradient><linearGradient id="b" x1="1.193" y1="0.909" x2="0.162" y2="0.172" gradientUnits="objectBoundingBox"><stop offset="0.265" stop-color="#201b59" stop-opacity="0.914"/><stop offset="0.555" stop-color="#0c7b7d" stop-opacity="0"/></linearGradient><linearGradient id="c" x1="-0.119" y1="0.313" x2="1.271" y2="0.734" gradientUnits="objectBoundingBox"><stop offset="0.159" stop-color="#201b59" stop-opacity="0.914"/><stop offset="0.717" stop-color="#fc0" stop-opacity="0"/></linearGradient><linearGradient id="d" x1="-0.347" y1="-0.188" x2="1.785" y2="1.072" gradientUnits="objectBoundingBox"><stop offset="0.265" stop-color="#201b59" stop-opacity="0.914"/><stop offset="0.555" stop-color="#ff735f" stop-opacity="0"/></linearGradient><clipPath id="e"><circle class="a" cx="16.066" cy="16.066" r="16.066"/></clipPath><clipPath id="f"><circle class="a" cx="13.692" cy="13.692" r="13.692" transform="translate(0 26.636) rotate(-76.574)"/></clipPath><linearGradient id="g" x1="1.618" y1="0.384" x2="0.077" y2="0.533" xlink:href="#c"/><linearGradient id="h" x1="16.866" y1="-0.247" x2="17.046" y2="0.978" xlink:href="#d"/><linearGradient id="i" x1="1.063" y1="1.213" x2="0.148" y2="0.054" gradientUnits="objectBoundingBox"><stop offset="0.265" stop-color="#19034d" stop-opacity="0.914"/><stop offset="0.555" stop-color="#320699" stop-opacity="0"/></linearGradient><clipPath id="j"><path class="a" d="M285.746,79.366l-72.234-9.327V91.252l67.242-8.143Z" transform="translate(-213.513 -70.038)"/></clipPath><linearGradient id="k" x1="0.525" y1="-0.197" x2="0.921" y2="1.558" xlink:href="#i"/></defs><g transform="translate(0 2.162)"><g transform="translate(0 10.143)"><path class="b" d="M188.625,151.837a23.525,23.525,0,0,1-1.714-2.361c-.635-1.2.887-1.365,1.657-2.011a6.837,6.837,0,0,0,1.146-1.229c.154-.212.564-1.259.748-1.331a7.05,7.05,0,0,1-6.726-.949,9.754,9.754,0,0,0,5.351-3.722,9.694,9.694,0,0,1-3.713-1.009,9.965,9.965,0,0,1-1.395-.769c-.308-.226-.815-1.029-1.234-1.027a7.544,7.544,0,0,0,4.812-1.788,8.945,8.945,0,0,1-3.941-2.225c-.9-.873-2.48-2.6-.237-2.441a7.5,7.5,0,0,0,2.88-.36,28.677,28.677,0,0,1-6.169-4.187,9.1,9.1,0,0,0,3.514-.948,19.566,19.566,0,0,1-6.763-4.314,11.315,11.315,0,0,0,3.6-.6,17.477,17.477,0,0,1-4.415-3.372,28.588,28.588,0,0,1-2.388-3.295c-.521-.733-.51-.771-.91-.068-.286.5-.45,1.079-.753,1.584a9.4,9.4,0,0,1-5.574,4.246,4.734,4.734,0,0,0,4.024.815,8.844,8.844,0,0,1-4.333,3.223,10.092,10.092,0,0,0-2.751,1.061,9.2,9.2,0,0,0,1.862.861,4.166,4.166,0,0,0,2.185-.117,9.223,9.223,0,0,1-6.551,4.337,5.113,5.113,0,0,0,4.236.89c-1.228,2.427-4.037,3.526-6.606,4.421a5.542,5.542,0,0,0,4.331,1.13c-1.385,2.1-4.115,2.745-6.581,3.225a6.967,6.967,0,0,0,5.812.639,6.786,6.786,0,0,1-3.093,3.178,20.2,20.2,0,0,1-4.235,1.549,12.355,12.355,0,0,1,1.687.876,6.453,6.453,0,0,0,5.649-.378c.2,0,.16.317.045.48-.805,1.138-1.967,1.94-2.869,3q-1.7,1.992-3.4,3.99c-2.081,2.44-4.167,4.888-6.412,7.18,2.065,2.466,4.361,2.977,5.308,6.9.411,1.7.718,3.791,1.074,5.841h28.738l-1.3-3.628,8.012-1.554a21.028,21.028,0,0,0,3.541-.872c.5-.189,1-.227,1.5-.418.209-.08,1.5-1.26,1.584-1.134C194.8,160.647,191.7,156.27,188.625,151.837Z" transform="translate(-90.885 -98.801)"/><path class="c" d="M148.332,154.985a55.719,55.719,0,0,0,7.851-1.014c-3.406-1.82-7.086-3.362-9.214-6.8a4.474,4.474,0,0,0,4.433-1.6,23.467,23.467,0,0,1-12.4-6.349,14.373,14.373,0,0,0,5.942-2.133c-2.752-.558-6.332-1.494-8.608-3.274q2.851-.959,5.649-2.065a1,1,0,0,0,.588-.818c-.008.077-3.681-1.008-4.006-1.132-.563-.214-3.4-1.143-3.309-1.833a11.692,11.692,0,0,0,2.853-.055,20.444,20.444,0,0,0,2.916-.4.715.715,0,0,0,.593-.784,25.928,25.928,0,0,1-3.777-1.56,19,19,0,0,1-1.786-1.048c-.166-.11-1.337-.76-.968-1.021a.418.418,0,0,1,.252-.049,13.985,13.985,0,0,0,4.695-.645.784.784,0,0,0,.167-.084,17.566,17.566,0,0,1-1.911-.975,33.614,33.614,0,0,1-3.367-2.232,15.3,15.3,0,0,1-1.564-1.372,8.311,8.311,0,0,1-.7-.78c-.086-.114-.51-.514-.523-.611s.105-.133.2-.141a6.689,6.689,0,0,0,.959-.08c.175-.04.941-.412.936-.642,0-.211-.748-.522-.935-.645a16.187,16.187,0,0,1-2.2-1.737,27.438,27.438,0,0,1-3.577-4.2,22.509,22.509,0,0,1-2.64-4.795c-.064-.164-.119-.33-.175-.495a1.183,1.183,0,0,0-.153-.016,33.837,33.837,0,0,1-5.249,7.113,37.208,37.208,0,0,1-4.753,4.448,22.762,22.762,0,0,1-2.4,1.66c-.475.272-1,.481-1.5.744-.283.518-.094,1.258.674,1.23.646-.025,1.288-.015,1.924,0-1.376.994-2.839,1.872-4.318,2.738a.846.846,0,0,0,.2,1.529,27.519,27.519,0,0,0,3.671.673c-.434.263-.884.514-1.345.774q-2.481,1.394-5,2.725a.843.843,0,0,0,0,1.445,11.288,11.288,0,0,0,3.959,1.238,24.752,24.752,0,0,1-9.449,3.859c.51-.092,1.871.695,2.509.763a11.66,11.66,0,0,0,3.234-.412c1.22-.188,3.56-.467,4.743.071-7.127,3.832-16.834,10.6-24.063,14.555,3.087,1.978,6.52,2.388,7.935,5.534a48.136,48.136,0,0,1,1.605,4.685H139.9l-1.946-2.911C138.4,156.739,147.185,155.1,148.332,154.985Z" transform="translate(-63.462 -94.503)"/><path class="b" d="M391.4,196.526c-3.267-3.236-4.415-6.1.395-13.285,4.676-6.988,1.295-18.379-8.3-19.343-3.568-.358-7.673-2.092-6.758-6.555.54-2.635,2.576-4.666,4.5-6.548s3.923-3.968,4.358-6.623c.689-4.211-2.473-5.9-4.173-9.059-1.649-3.06-1.278-6.574-.426-9.829.985-3.761,2.378-7.762,1.055-11.417-1.586-4.382-6.834-7.449-6.43-12.092.16-1.839,1.249-3.549,1.147-5.392-.589-10.721-13.43-12.962-14.5-1.343-.349,3.783.65,7.54,1.315,11.281s.965,7.759-.667,11.19c-1.981,4.165-6.352,6.585-9.355,10.087a19.712,19.712,0,0,0-4.58,12.978c.064,5.358,2.162,10.7,1.15,15.965-1.05,5.46-5.247,9.743-9.619,13.178s-9.205,6.476-12.477,10.971c-3.585,4.926-4.407,10.613-3.824,16.531.422,4.274,5.914,10.81,3.172,14.52a18.256,18.256,0,0,1-1.823,1.834,10.829,10.829,0,0,0-2.585,9.288c2.391,14.8,23.34,17.285,35,20.422,9.49,2.551,21.218.19,29.294-5.407,5.35-3.708,9.906-12.232,12.356-18.085,2.217-5.3,2.56-11.937-1.141-16.328A88.891,88.891,0,0,0,391.4,196.526Z" transform="translate(-167.585 -87.282)"/><path class="d" d="M96.341,237.993c3.767-4.795,7.071-11.211,4.532-16.754-1.569-3.427-5.2-5.966-5.509-9.723-.3-3.6,2.616-6.624,3.6-10.1a9.918,9.918,0,0,0-1.937-8.928c-3.072-3.637-4.021-4.922-3.757-9.615.289-5.137.395-9.612,2.328-14.515a51.389,51.389,0,0,0-3.83-45.732c-2.44-4-5.767-7.84-6-12.52-.168-3.343,1.309-6.611,1.106-9.952a4.691,4.691,0,0,0-1.5-3.485c-1.4-1.093-3.437-.747-5.073-.058-5.752,2.423-8.917,8.169-10.161,14.043-.655,3.093-.726,6.294-1.481,9.364-1.515,6.158-6.427,7.429-10.2,11.829a19.755,19.755,0,0,0-2.794,20.784c1.012,2.145,2.462,4.292,2.217,6.651-.294,2.833-2.877,4.776-4.5,7.115a11.7,11.7,0,0,0-1.288,10.68c2.675,6.958,2.129,7.858-2.666,12.97-3.595,3.833-5.049,7.769-3.339,13.079,1.37,4.252,4.182,7.857,6.513,11.669,3.81,6.231,5.634,12.692,7.472,19.664,1.323,5.02,3.932,10.566,9.209,12.451,4.182,1.494,11.324,2.146,15.765,1.135C89.826,246.951,93.507,241.6,96.341,237.993Z" transform="translate(-44.872 -91.121)"/><path class="b" d="M80.642,318.133a18.036,18.036,0,0,0,4.683-5.646,7.786,7.786,0,0,0,.031-7.1c-1.9-3.279-6.718-3.944-10.047-2.132a23.834,23.834,0,0,0,3.511-9.6c.278-2.069-.108-4.744-2.115-5.319-1.974-.566-3.686,1.4-4.807,3.116a12.319,12.319,0,0,0-3.7-12.252,5.559,5.559,0,0,0-3.173-1.535,4.669,4.669,0,0,0-4.063,2.359,10.407,10.407,0,0,0-1.289,4.715c-.6,7.589,1.866,15.047,4.3,22.26a14.957,14.957,0,0,0-9.716-5.159,3.375,3.375,0,0,0-2.556.494c-1.2,1.009-.705,2.952.037,4.334a21.87,21.87,0,0,0,5.705,6.8,12.338,12.338,0,0,0-10.851-1.119,3.686,3.686,0,0,0-1.623,1.033c-.968,1.207-.366,3.062.677,4.2a13.769,13.769,0,0,0,4.284,2.808c4.168,2.04,12.208,7.721,16.256,6.955C71.075,326.414,77,321.321,80.642,318.133Z" transform="translate(-44.479 -171.482)"/><path class="d" d="M398.941,332.817a15.567,15.567,0,0,0,4.041-4.871,6.718,6.718,0,0,0,.027-6.129c-1.641-2.829-5.8-3.4-8.669-1.839a20.574,20.574,0,0,0,3.03-8.286c.24-1.785-.094-4.093-1.825-4.59-1.7-.489-3.181,1.2-4.148,2.689a10.631,10.631,0,0,0-3.195-10.572,4.8,4.8,0,0,0-2.738-1.324,4.029,4.029,0,0,0-3.506,2.036A8.984,8.984,0,0,0,380.846,304c-.519,6.547,1.61,12.983,3.711,19.207a12.9,12.9,0,0,0-8.384-4.45,2.91,2.91,0,0,0-2.205.426c-1.036.871-.609,2.548.032,3.74a18.863,18.863,0,0,0,4.923,5.864,10.648,10.648,0,0,0-9.363-.966,3.181,3.181,0,0,0-1.4.892c-.835,1.042-.316,2.642.584,3.628a11.9,11.9,0,0,0,3.7,2.423c3.6,1.76,10.533,6.662,14.027,6C390.687,339.963,395.8,335.568,398.941,332.817Z" transform="translate(-187.456 -180.432)"/><path class="e" d="M114.618,320.687a16.318,16.318,0,0,0,5.1-2.319c.888-.6,1.722.838.84,1.437a17.711,17.711,0,0,1-5.494,2.487A.833.833,0,0,1,114.618,320.687Z" transform="translate(-75.24 -189.427)"/><path class="e" d="M116.383,282.411l4.076-1.717c.986-.415,1.416,1.195.443,1.605l-4.077,1.717C115.839,284.431,115.409,282.821,116.383,282.411Z" transform="translate(-76.039 -172.798)"/><path class="e" d="M115.284,217.433a7.241,7.241,0,0,0,3.752-3.609c.459-.967,1.895-.124,1.437.839a8.609,8.609,0,0,1-4.348,4.207C115.151,219.29,114.3,217.856,115.284,217.433Z" transform="translate(-75.603 -143.062)"/></g><g transform="translate(23.9 50.994)"><g transform="translate(0 0)"><rect class="f" width="176.606" height="122.684" rx="11.611"/><rect class="g" width="171.659" height="108.833" transform="translate(2.166 7.514)"/></g><rect class="h" width="43.533" height="34.629" transform="translate(5.194 51.408)"/><rect class="h" width="29.187" height="43.533" transform="translate(98.691 51.408)"/><rect class="h" width="42.381" height="35.135" transform="translate(52.402 11.911)"/><g transform="translate(52.685 52.524)"><rect class="h" width="43.533" height="2.809"/><rect class="h" width="43.533" height="2.809" transform="translate(0 12.93)"/><rect class="h" width="43.533" height="2.809" transform="translate(0 22.294)"/></g><rect class="h" width="40.07" height="3.16" transform="translate(131.341 51.408)"/><rect class="h" width="40.07" height="3.16" transform="translate(131.341 59.251)"/><rect class="h" width="40.07" height="3.16" transform="translate(131.341 67.093)"/><rect class="h" width="40.07" height="3.16" transform="translate(131.341 74.936)"/><rect class="h" width="40.07" height="3.16" transform="translate(131.341 82.778)"/><rect class="h" width="40.07" height="3.16" transform="translate(131.341 90.621)"/><g transform="translate(97.321 12.369)"><rect class="h" width="73.867" height="3.16"/><rect class="h" width="73.867" height="3.16" transform="translate(0 7.978)"/><rect class="h" width="73.867" height="3.16" transform="translate(0 15.956)"/><rect class="h" width="73.867" height="3.16" transform="translate(0 23.935)"/><rect class="h" width="73.867" height="3.16" transform="translate(0 31.913)"/></g><g transform="translate(5.301 12.369)"><rect class="h" width="44.309" height="3.16"/><rect class="h" width="44.309" height="3.16" transform="translate(0 7.978)"/><rect class="h" width="44.309" height="3.16" transform="translate(0 15.956)"/><rect class="h" width="44.309" height="3.16" transform="translate(0 23.935)"/><rect class="h" width="44.309" height="3.16" transform="translate(0 31.913)"/></g><g transform="translate(5.194 88.016)"><rect class="h" width="43.533" height="2.809"/><rect class="h" width="43.533" height="2.809" transform="translate(0 7.803)"/><rect class="h" width="43.533" height="2.809" transform="translate(0 15.606)"/><rect class="h" width="43.533" height="2.809" transform="translate(0 23.41)"/></g><g transform="translate(52.685 80.1)"><rect class="h" width="43.533" height="2.075"/><rect class="h" width="43.533" height="2.075" transform="translate(0 6.917)"/><rect class="h" width="43.533" height="2.075" transform="translate(0 13.835)"/></g><rect class="h" width="40.07" height="2.803" transform="translate(131.341 98.642)"/><rect class="h" width="40.07" height="2.803" transform="translate(131.341 106.485)"/><g transform="translate(52.685 101.178)"><rect class="h" width="43.533" height="2.075"/><rect class="h" width="43.533" height="2.075" transform="translate(0 6.917)"/></g><g transform="translate(99.532 101.178)"><rect class="h" width="28.156" height="2.075"/><rect class="h" width="28.156" height="2.075" transform="translate(0 6.917)"/></g></g><g transform="translate(90.241 110.309)"><path class="i" d="M255.335,316.188" transform="translate(-227.981 -288.693)"/><path class="i" d="M319.383,370.594" transform="translate(-256.309 -312.757)"/><g transform="translate(27.354 16.127)"><path class="j" d="M310.933,406.382c.029.451-.037,1.047-.526,1.257a1.339,1.339,0,0,1-.512.079l-1.085.019a2.582,2.582,0,0,1-.724-.054c-.181-.05-.339-.142-.512-.208-.889-.337-2.017.046-3.055.173a5.92,5.92,0,0,1-4.217-1.066c-1.021-.905.293-2.168,1.6-2.187,1.214-.017,2.374.365,3.6.069a1.6,1.6,0,0,0,.911-.51,1.386,1.386,0,0,0,.159-1.088l-.234-1.616a1.991,1.991,0,0,0-.313-.7,14.147,14.147,0,0,0,2.814-.061c.8-.048,1.576-.35,1.75.431A37.424,37.424,0,0,1,310.933,406.382Z" transform="translate(-275.063 -342.062)"/><path class="j" d="M393.183,406.623a.516.516,0,0,1,.434.786,31.489,31.489,0,0,1-1.589,4.368,5.239,5.239,0,0,1-1.593,2.252,4.5,4.5,0,0,1-1.962.678,3.559,3.559,0,0,1-2.268-.254,1.563,1.563,0,0,1-.737-1.965,1.688,1.688,0,0,1,1.7-.693c.356.013.61.223.873-.025.173-.163.229-.7.281-.923a1.4,1.4,0,0,0-.079-1.077,1.477,1.477,0,0,0-1.129-.521,1.032,1.032,0,0,1-.745-.286.934.934,0,0,1-.1-.658q.038-.38.1-.757c.071-.452.119-1.525.457-1.856a.918.918,0,0,1,.619-.137,10.949,10.949,0,0,1,2.071.258C390.74,406.035,391.972,406.3,393.183,406.623Z" transform="translate(-312.834 -344.346)"/><path class="d" d="M342.353,359.076c-.546-1.137-2.355-1.812-3.466-2.2a56.563,56.563,0,0,0-12.451-2.419c-1.8-.2-3.594-.39-5.4-.477-1.589-.076-3.212-.219-4.8-.173l-2.067.059a6.709,6.709,0,0,0-1.483.153,3.279,3.279,0,0,0-1.886.844,10.223,10.223,0,0,0-2.41,5.052q-.068.345-.12.691c-.009,3.571.012,7.138.305,10.711.276,3.375.628,6.742.983,10.109,1.447.04,2.894.08,4.341.13l1.435-.01c1.709-5.42,2-11.223,2.183-16.927a110.525,110.525,0,0,0,15.373,2.491c3.765.314,8.405.076,9.548-4.353a7.85,7.85,0,0,0,.223-1.722A4.194,4.194,0,0,0,342.353,359.076Z" transform="translate(-278.748 -321.455)"/><path class="k" d="M318.91,303.576a3.638,3.638,0,0,0-.708,2.88,5.336,5.336,0,0,0,.547,1.468,3.35,3.35,0,0,0,2.482,2.07,15.949,15.949,0,0,1,1.849-.115,2.948,2.948,0,0,1,1.484.959,23.431,23.431,0,0,1,2.517,3.01,7.073,7.073,0,0,0,3.3-1.934,67.714,67.714,0,0,0-6.472-8.268C322.438,302.036,320.393,301.695,318.91,303.576Z" transform="translate(-283.115 -298.676)"/><path class="l" d="M322.749,319.659a2.9,2.9,0,0,0-2.918-.971c-1.78.492-2.647,3.352-3.255,4.875a21.943,21.943,0,0,1-2.586,5.014,12.724,12.724,0,0,1-10.05,5.05,28.976,28.976,0,0,1,.67,4.863,8.954,8.954,0,0,1,2.621.233c4.348.647,8.669-1.831,11.465-5.018,1.692-1.928,4.26-5.709,4.947-9.165A5.668,5.668,0,0,0,322.749,319.659Z" transform="translate(-276.834 -305.886)"/><path class="m" d="M334.832,331.51a58.769,58.769,0,0,0,6.457,8.447c.37-.641.793-.563,1.446-.668a20.058,20.058,0,0,0,2.678-.786c2.8-.867,8.233-2.612,8.545-2.768.158-.079-6.423-8.81-7.066-9.571a72.355,72.355,0,0,0-4.954-5.349q-1.342-1.3-2.773-2.494A12.375,12.375,0,0,0,336.5,316.4a1.981,1.981,0,0,0-1.431-.225,6.741,6.741,0,0,0-1.26.244,4.246,4.246,0,0,0-2.49,2.448,7.05,7.05,0,0,0-.38,3.542,16.573,16.573,0,0,0,1.491,4.555A37.323,37.323,0,0,0,334.832,331.51Z" transform="translate(-288.744 -304.796)"/><g transform="translate(47.911 27.395)"><path class="n" d="M348.732,361.193c0-.033.007-.176-.058-.192s-.146.057-.192.1c.068.023.184.156.215.181s.011-.027.021-.037S348.735,361.227,348.732,361.193Z" transform="translate(-344.445 -352.035)"/><path class="d" d="M368.875,377.727c-5.332-1.752-10.588-3.65-16.028-5.051.321.082,2.613-4.537,2.867-5.027,2.017-3.9,4.322-7.992,4.425-12.535a12.977,12.977,0,0,0-.562-3.839,20.137,20.137,0,0,0-2.018-4.638c-.346-.587-.724-1.154-1.116-1.71-3.751,2.653-8.164,4.2-12.4,5.958.076.134.154.266.225.4a11.434,11.434,0,0,1,1.067,2.37,9.992,9.992,0,0,1-.037,3.554,46.185,46.185,0,0,1-1.361,5.58c-.783,2.827-1.336,5.486-1.909,8.486-.481,2.52-1.729,6.481.508,8.418,2.461,2.132,5.644,2.08,8.431,2.408,4.141.486,7.533.916,11.563,1.647,1.467.267,3.2.465,4.79.645C367.873,382.182,368.378,379.955,368.875,377.727Z" transform="translate(-341.243 -344.927)"/></g><line class="o" x1="35.72" y1="30.342" transform="translate(0 11.368)"/><path class="p" d="M300.422,347.053c-.194.026-.388.053-.581.088a5.677,5.677,0,0,1-1,.129,1.674,1.674,0,0,1-.539-.083c-.929-.316-1.562-.491-2.248.4a2.734,2.734,0,0,0-.573,2.064,1.97,1.97,0,0,0,.761,1.2,3.129,3.129,0,0,0,2.552.239,4.361,4.361,0,0,0,.624-.219,2.5,2.5,0,0,0,1.238-.951c.157-.269.239-.541.368-.785C300.8,348.448,300.621,347.747,300.422,347.053Z" transform="translate(-273.076 -318.418)"/><path class="k" d="M297.181,348.993a2.1,2.1,0,0,0-1.866-1.354,16.968,16.968,0,0,0-2.242.235,2.462,2.462,0,0,1-2.081-.631,6.455,6.455,0,0,1-.78-2.036,3,3,0,0,0-1.19-1.433.492.492,0,0,0-.188.537,2.63,2.63,0,0,0,.244.557c.591,1.245.12,2.7-1.332,1.6a18.321,18.321,0,0,0-2.922-1.8.422.422,0,0,0-.369-.054.369.369,0,0,0-.137.38,5.258,5.258,0,0,0,.458,1.2,9.544,9.544,0,0,1,.285,1.319,2.746,2.746,0,0,0,1.9,2.155,14.039,14.039,0,0,0,3.751.633c2.053.064,4.068.832,5.969-.413A.9.9,0,0,0,297.181,348.993Z" transform="translate(-268.152 -317.022)"/><g transform="translate(24.798 13.323)"><path class="m" d="M323.856,323.256a5.258,5.258,0,0,0-.847-1.689,4.394,4.394,0,0,0-2.033-1.692,2.491,2.491,0,0,0-2.515.364,3.476,3.476,0,0,0-.854,1.784,40.071,40.071,0,0,1-2.684,6.95,7.8,7.8,0,0,1-1.424,2.313,11.463,11.463,0,0,1-2.945,2.048,14.444,14.444,0,0,1-2.392.982,38.4,38.4,0,0,1-8.33,1.388c.013,1.587.018,3.174-.031,4.761,4.7.067,9.082.83,13.448-1.234a21.909,21.909,0,0,0,8.645-7.424A10.316,10.316,0,0,0,323.856,323.256Z" transform="translate(-299.8 -319.694)"/></g><g transform="translate(33.191 1.464)"><path class="j" d="M338.648,306.8a3.374,3.374,0,0,0-2.441-2.521,3.233,3.233,0,0,0-.65-.074,13.1,13.1,0,0,0-3.156.674,1.594,1.594,0,0,1-1.548-.22c-.326-.349-.317-.919-.646-1.266a1.538,1.538,0,0,0-1.553-.182,6.824,6.824,0,0,0-1.194.481c-.362.187-1,.434-1.354.1-.292-.275-.2-.751-.093-1.138a1.611,1.611,0,0,0-.718-1.84c-.372-.211-.793-.209-1.174-.388a4.239,4.239,0,0,1-1.135-.891,2.98,2.98,0,0,0-1.852-1.106c-.881-.027-1.564.71-2.223,1.294a8.475,8.475,0,0,1-2.559,1.559c-.583.226-1.275.466-1.462,1.063a.875.875,0,0,0,.177.842.758.758,0,0,0,.824.191c.38-.159.689-.629,1.159-.379.328.173.467.721.681,1.009a9.117,9.117,0,0,0,1.192,1.309,4.458,4.458,0,0,0,4.418.9c.4-.145.772-.355,1.181-.463.586-.155,1.079-.119,1.369.43a7.548,7.548,0,0,1,.538,1.737,13.369,13.369,0,0,0,.763,2.215,4.347,4.347,0,0,0,.72,1.19,3.816,3.816,0,0,0,.964.727,7.158,7.158,0,0,0,4.716.8,6.928,6.928,0,0,0,4.3-2.539A4.452,4.452,0,0,0,338.648,306.8Z" transform="translate(-314.849 -298.431)"/></g><path class="q" d="M327.641,298.907l-3.4.012a.716.716,0,0,0-.073-.442,5.247,5.247,0,0,0-3.718-2.661,5.093,5.093,0,0,0-4.607,2.575,1.028,1.028,0,0,0-.184.593l-3.826.011a.5.5,0,0,0,.009.966l15.809-.088a.5.5,0,0,0-.01-.966Z" transform="translate(-280.158 -295.805)"/><path class="r" d="M333.158,370.152c.818.2,1.63.433,2.454.637a41.9,41.9,0,0,0,4.71.542c.026-.018.05-.027.076-.049,0,.034,1-4.5,1.641-6.768A42.7,42.7,0,0,1,333.158,370.152Z" transform="translate(-289.756 -326.195)"/><path class="s" d="M342.358,334.756a13.109,13.109,0,0,0-.986-2.553,6.45,6.45,0,0,0-.573-.805,15.1,15.1,0,0,1-2.485,5.651,11.44,11.44,0,0,1-.727,1.352l.334.445a3.332,3.332,0,0,0,1.474,1.3,2.248,2.248,0,0,0,2.162-.616C343.079,338.107,342.862,336.607,342.358,334.756Z" transform="translate(-291.715 -311.548)"/><path class="t" d="M328.447,312.808q.41,1.738.726,3.5l-.762-.862a2.2,2.2,0,0,0-.511-.468,3.755,3.755,0,0,1-.417-.227,1.333,1.333,0,0,0-.829-.347c.094-.281.619-.484.849-.674A10.717,10.717,0,0,0,328.447,312.808Z" transform="translate(-286.88 -303.325)"/></g><g transform="translate(0)"><g class="u"><rect class="g" width="35.702" height="33.798" transform="translate(-0.952 -0.476)"/><g transform="translate(-7.575 -0.926)"><rect class="h" width="47.086" height="4.82" transform="translate(0 26.541)"/><rect class="h" width="47.086" height="4.82" transform="translate(0 17.493)"/><rect class="h" width="47.086" height="4.82" transform="translate(0 9.048)"/><rect class="h" width="47.086" height="4.82"/></g></g></g><circle class="o" cx="16.066" cy="16.066" r="16.066" transform="translate(0)"/><g transform="translate(3.567 8.167)"><path class="v" d="M225.391,301.5a12.764,12.764,0,0,1-7.719-2.659,12.33,12.33,0,0,1-4.983-9.375,12.684,12.684,0,0,1,2.14-7.414,1.153,1.153,0,0,1,1.7-.252l.065.055a1.159,1.159,0,0,1,.2,1.542,10.263,10.263,0,0,0-1.724,5.988,9.96,9.96,0,0,0,4.044,7.561,10.26,10.26,0,0,0,7.509,2.095,1.156,1.156,0,0,1,1.285.863l.021.085a1.153,1.153,0,0,1-.98,1.41A12.026,12.026,0,0,1,225.391,301.5Z" transform="translate(-212.683 -281.531)"/></g></g><g transform="translate(27.736 66.808)"><path class="k" d="M145.145,237.988c-.4-.175-.879-.132-1.228-.387a1.545,1.545,0,0,1-.427-.567,8.725,8.725,0,0,1-.77-2.123,3.107,3.107,0,0,1,.346-2.618c1.637,1.192,2.035,3.511,3.486,4.924a2.78,2.78,0,0,1,.6.682C147.926,239.426,145.5,238.143,145.145,237.988Z" transform="translate(-115.611 -208.085)"/><path class="k" d="M146.748,240.993c.207-.416.424-.8.552-1.084a1.325,1.325,0,0,0,.163-.637c-.058-.675-.977-1.46-1.257-2.1a6.374,6.374,0,0,1-.53-2.9.35.35,0,0,1,.125-.3c.13-.074.285.035.39.142a16.832,16.832,0,0,1,2.2,3.248c.562.922,2.091,2.14,1.926,3.284a3.909,3.909,0,0,1-.562,1.346l-1.075,1.872c-.185.321-.412.674-.775.746-.6.118-1.25-.715-1.485-1.2A2.669,2.669,0,0,1,146.748,240.993Z" transform="translate(-116.971 -208.819)"/><path class="d" d="M141.689,245.755l3.551,2.125a23.963,23.963,0,0,0-4.25,17.788,46.491,46.491,0,0,1,.855,5.247c.1,2.028-.722,5.905-3.089,6.474a2.575,2.575,0,0,1-2.4-.693,4.707,4.707,0,0,1-1.007-2.08,32.089,32.089,0,0,1,.317-18.112C135.927,255.681,140.765,245.209,141.689,245.755Z" transform="translate(-111.899 -214.03)"/><g transform="translate(23.889 2.704)"><g class="w" transform="translate(0 0)"><rect class="g" width="30.427" height="28.804" transform="translate(1.994 2.399)"/><g transform="translate(-3.651 2.016)"><rect class="h" width="40.129" height="4.107" transform="translate(0 22.62)"/><rect class="h" width="40.129" height="4.107" transform="translate(0 14.909)"/><rect class="h" width="40.129" height="4.107" transform="translate(0 7.711)"/><rect class="h" width="40.129" height="4.107"/></g></g></g><g transform="translate(26.431)"><path class="c" d="M156.61,222.043a15.021,15.021,0,0,1-15-15c0-8.273,8.83-18.152,17.1-18.152a15.021,15.021,0,0,1,15,15C173.712,212.164,164.883,222.043,156.61,222.043Zm0-27.385c-6.827,0-13.955,7.653-13.955,14.48a12.4,12.4,0,0,0,12.381,12.38c6.827,0,13.955-7.652,13.955-14.479A12.4,12.4,0,0,0,156.61,194.658Z" transform="translate(-141.606 -188.887)"/></g><g transform="translate(25.382 4.197)"><path class="j" d="M154.728,226.421a15,15,0,1,1,15-15A15.021,15.021,0,0,1,154.728,226.421Zm0-27.385a12.381,12.381,0,1,0,12.38,12.38A12.395,12.395,0,0,0,154.728,199.036Z" transform="translate(-139.724 -196.413)"/></g><g transform="translate(29.734 12.469)"><path class="v" d="M158.358,228.26a10.878,10.878,0,0,1-6.579-2.266,10.506,10.506,0,0,1-4.246-7.99,10.806,10.806,0,0,1,1.823-6.319.982.982,0,0,1,1.446-.214l.056.046a.988.988,0,0,1,.171,1.314,8.746,8.746,0,0,0-1.469,5.1,8.488,8.488,0,0,0,3.447,6.444,8.747,8.747,0,0,0,6.4,1.785.985.985,0,0,1,1.1.736l.017.072a.982.982,0,0,1-.835,1.2A10.276,10.276,0,0,1,158.358,228.26Z" transform="translate(-147.528 -211.245)"/></g><g transform="translate(0 28.326)"><path class="j" d="M94.385,395.922c-.031.062-.059.127-.084.193-.441,1.168.88,2.312,1.486,3.19l2.959,4.287a4.994,4.994,0,0,0,1.138,1.3c1.151.818,3.242.652,2.889-1.2a5.086,5.086,0,0,0-1.079-1.937,8.8,8.8,0,0,1-1.817-4.215c-.144-1.612.7-2.828,1.5-4.15a9.955,9.955,0,0,0,1.279-3.424,2.606,2.606,0,0,0,.018-1.065,1.07,1.07,0,0,0-.662-.785,1.229,1.229,0,0,0-.589-.012,5.2,5.2,0,0,0-3.149,2.622,23.429,23.429,0,0,1-2.976,4.021A5.251,5.251,0,0,0,94.385,395.922Z" transform="translate(-94.213 -305.312)"/><path class="j" d="M144.079,406.2a1.242,1.242,0,0,0,1.384,1.784q3.135.044,6.26.349a5.468,5.468,0,0,0,2.7-.314,1.529,1.529,0,0,0,1.069-.969,1.285,1.285,0,0,0-.726-1.315,4.626,4.626,0,0,0-1.555-.393c-1.118-.171-2.747-.228-3.475-1.2a5.177,5.177,0,0,1-.6-3.134c0-.736.081-1.473.031-2.207a3.564,3.564,0,0,0-.714-2.051,1.924,1.924,0,0,0-1.966-.685,2.055,2.055,0,0,0-1.2,1.19,6.1,6.1,0,0,0-.375,1.7C144.617,401.339,144.145,403.786,144.079,406.2Z" transform="translate(-116.246 -308.816)"/><path class="k" d="M180.129,241.825c-.465.462-.966.887-1.486,1.312-.913.747-1.576.371-2.646.159a1.31,1.31,0,0,0-.525-.032.449.449,0,0,0-.365.339c-.044.3,1.058,1.036,1.267,1.311a3.339,3.339,0,0,1,.75,1.837c.035.848-.154,1.8-.189,2.658-.021.51-.048,1.02-.046,1.53a3.942,3.942,0,0,0,.742,2.714c1.014,1.081,2.021-.182,2.121-1.187a8.83,8.83,0,0,0-.051-1.6,11.49,11.49,0,0,1,1.031-6.127c.707-1.473,1.736-2.569,1.916-4.275a.89.89,0,0,0-.062-.536.661.661,0,0,0-.94-.1C181.053,240.262,180.687,241.27,180.129,241.825Z" transform="translate(-129.991 -239.678)"/><path class="x" d="M150.05,270.685c-.324-1.742-.837-3.606-.11-5.222a3.88,3.88,0,0,1,3.585-2.213,4.068,4.068,0,0,1,3.531,5.706c-.5,1.041-1.436,1.549-1.726,2.784a19.056,19.056,0,0,0-.286,2.7,3.589,3.589,0,0,1-.626,1.974,2.593,2.593,0,0,1-2.514.777,4.365,4.365,0,0,1-2.466-1.383c-.307-.622.407-1.221.6-1.8A6.964,6.964,0,0,0,150.05,270.685Z" transform="translate(-118.606 -250.103)"/><path class="d" d="M161.544,255.017h-4.3c.018.391.032.783.044,1.174l.13,4.369a10.053,10.053,0,0,1-1.138,5.878c-1.328,2.231-3.851,5.04-6.586,5.4a9.664,9.664,0,0,1-2.968-.3c-2.331-.425-6.793-1.087-8.754.7a5.69,5.69,0,0,0-1.335,3.307,36.75,36.75,0,0,1-2.989,9.117,11.556,11.556,0,0,0-1.4,3.888,5.774,5.774,0,0,0,1.872,4.569c1.4,1.326,2.916.893,4.642,1.275,1.96.433,4.234,1.419,6.213,1.539,2.084.126,1.879-2.514,2.128-4.022a43.382,43.382,0,0,1,1.79-7.806,14.534,14.534,0,0,1,4.441-6.555c1.854-1.458,4.171-2.285,5.876-3.941A9.236,9.236,0,0,0,160.524,272a11.5,11.5,0,0,0,1.7-4.807,12.443,12.443,0,0,0,.006-2.2C162.05,261.732,161.611,258.333,161.544,255.017Z" transform="translate(-111.028 -246.462)"/><path class="m" d="M108.491,337.1c-.417,1.191-.86,2.375-1.362,3.545-2.585,6.018-6.439,11.17-9.786,16.786.293.248,5.822,3.868,5.58,4.218,7.536-7.93,13.974-20.364,18.3-32.774,1.419-4.068,3.057-8.057,4.3-12.165a1.971,1.971,0,0,0,.118-.9,2,2,0,0,0-.785-1.088,22.981,22.981,0,0,0-7.09-4.1,2.236,2.236,0,0,1,.208-1.086c-.161-.187-.45.038-.583.246-2.2,3.432-2.925,8.088-3.913,12.039a38.234,38.234,0,0,1-1.257,4.832c-.645,1.66-1.3,3.324-1.888,5.007C109.7,333.473,109.124,335.293,108.491,337.1Z" transform="translate(-95.597 -270.543)"/><path class="j" d="M144.25,264.274a24.858,24.858,0,0,0,.453-3.247,2.364,2.364,0,0,0-.127-.738c-.532-1.53-1.906-.574-2.984-.915-.381-.121-.729-.332-1.108-.461a2.5,2.5,0,0,0-2.007.169c-.655.395-.619,1.308-1.214,1.8-.761.626-1.437.755-1.789,1.834-.187.575.054,1.986-.321,2.4-.344.38-1.575.2-2.1.344a5.007,5.007,0,0,0-3.362,3.011c.008-.022-2.075.158-2.278.209a7.882,7.882,0,0,0-2.377,1.039,6.794,6.794,0,0,0-3.043,4.175,9.971,9.971,0,0,0,.08,4.161,9.161,9.161,0,0,0,.646,2.022,8.119,8.119,0,0,0,5.681,4.235,14.916,14.916,0,0,0,14.554-6.317,8.635,8.635,0,0,0,.808-6.8c-.175-.542-.529-1.01-.71-1.533-.249-.721-.187-.626.271-1.245a4.029,4.029,0,0,0,.929-3A5.221,5.221,0,0,1,144.25,264.274Z" transform="translate(-106.417 -248.127)"/><path class="m" d="M137.2,341.176c.259,3.868.4,7.744.471,11.619.072,3.735-.291,7.695.09,11.41.012.123,6.581.014,6.86-.291.294-.322.1-1.9.118-2.3.068-1.8.126-3.6.188-5.407.074-2.141.184-4.28.318-6.418a32.6,32.6,0,0,1,1.285-5.609,42.8,42.8,0,0,0,.528-12.663,78.606,78.606,0,0,1,.058-15.912,21.328,21.328,0,0,1-2.481-1.27c-1.6-.72-3.2-1.428-4.78-2.186-1.294-.621-2.592-1.237-3.91-1.807-.862-.373-2.556-1.568-3.428-.83a2.706,2.706,0,0,0-.719,1.263,11.915,11.915,0,0,0-.4,6.8c.69,2.557,2.425,4.657,3.285,7.144.99,2.865.8,6.029,1.373,8.989A60.37,60.37,0,0,1,137.2,341.176Z" transform="translate(-110.511 -270.459)"/><g transform="translate(29.173 7.939)"><path class="q" d="M150.913,256.483a4.991,4.991,0,0,1,2.733-2.439,2.132,2.132,0,0,1,2.323.5,2.588,2.588,0,0,1,.168,2.25,10.666,10.666,0,0,1-1.673,3.466,2.232,2.232,0,0,1-.7.688,1.979,1.979,0,0,1-.892.2c-.744.02-2.791-.251-3.121-1.107-.156-.4.262-1.277.388-1.677A10.247,10.247,0,0,1,150.913,256.483Z" transform="translate(-147.934 -253.913)"/><path class="q" d="M154.059,258.918c-.385-1.45-2.1-1.94-3.4-1.888a4.414,4.414,0,0,0-3.591,2.061c-1.363,2.26-.139,7.116,3.187,6.508a3.859,3.859,0,0,0,2.46-1.844,10.168,10.168,0,0,0,1.042-2.563q.054-.188.108-.375A3.611,3.611,0,0,0,154.059,258.918Zm-3.262,5.61a2.507,2.507,0,0,1-2.56,0c-.394-.2-.046-.79.346-.592a1.791,1.791,0,0,0,1.869,0A.343.343,0,0,1,150.8,264.528Z" transform="translate(-146.522 -255.29)"/></g><path class="y" d="M133.092,334.9a1.5,1.5,0,0,0-.881-.08q-.728,3.558-1.642,7.076a22.539,22.539,0,0,1-.982,3.537c-.3.666-.606,1.4.331,1.838a2.041,2.041,0,0,0,1.864-.23,6.315,6.315,0,0,0,2.365-3.594,6.684,6.684,0,0,0,.545-2.669c-.05-.647-.192-1.283-.261-1.927a12.236,12.236,0,0,0-.625-2.773C133.589,335.47,133.436,335.076,133.092,334.9Z" transform="translate(-109.727 -281.748)"/></g></g><g transform="translate(78.529)"><g transform="translate(68.596 4.238)"><path class="j" d="M327.167,202.264c.177.476.307,1.118-.115,1.4a1.154,1.154,0,0,1-.488.146l-1.083.153a2.516,2.516,0,0,1-.745.031c-.2-.031-.387-.11-.583-.158-1-.25-2.011.3-3.012.558a6.434,6.434,0,0,1-4.587-.617c-1.323-.838-.419-2.343.885-2.523,1.214-.167,2.5.1,3.638-.367a1.259,1.259,0,0,0,.746-.654,1.587,1.587,0,0,0-.2-1.177l-.767-1.69a2.831,2.831,0,0,0-.545-.709,13.032,13.032,0,0,0,2.807-.409c.786-.149,1.468-.566,1.9.244A48.013,48.013,0,0,1,327.167,202.264Z" transform="translate(-311.655 -129.467)"/><g transform="translate(4.821 8.229)"><path class="z" d="M320.54,92.438c.593,2.125,1.134,4.183,2.743,5.765a11.073,11.073,0,0,0,4.258,2.6c3.27,1.2,5.682.513,7.874-2.337.392-.51.653-1.128,1.363-1.468a2.33,2.33,0,0,1,2.385.262,3.71,3.71,0,0,1,1.305,2.2,2.227,2.227,0,0,1,.056.878,5.017,5.017,0,0,1-1.809,2.72,11.5,11.5,0,0,1-2.8,2.152,11.112,11.112,0,0,1-6.627,1.409,14.643,14.643,0,0,1-10.478-6.6c-.992-1.6-1.133-3.55-1.492-5.367-.207-1.043-.246-2.148-.392-3.2A20.8,20.8,0,0,0,320.54,92.438Z" transform="translate(-316.929 -91.45)"/></g><path class="q" d="M352.679,128.754c-3.525-.278-6.141-1.442-9.279-3.093-.028-.047-1.164-.526-1.192-.573,0-.189.68.245.676.057-.043-2.347-.813-5.315-.939-7.658a57.4,57.4,0,0,1-.033-8.664,6.549,6.549,0,0,1,1.05-3.456,9.731,9.731,0,0,1,2.467-2.409c1.794-1.238,3.84-2.38,6.022-1.644a7.971,7.971,0,0,1,4.37,4.046,22.129,22.129,0,0,1,1.783,7.03l.984,7.067c.134.966.1,1.894.23,2.852a27.163,27.163,0,0,1,.592,3.543c.065.374-.016,2.087-.029,2.9C356.986,128.659,355.071,128.942,352.679,128.754Z" transform="translate(-323.09 -87.481)"/><g transform="translate(0 37.362)"><path class="m" d="M310.153,148.191a17.812,17.812,0,0,1,4.476-2.179,37.724,37.724,0,0,1,9.7-2.118c5.859-.57,11.481.12,17.259,1.026a2.186,2.186,0,0,1,.779.224,1.781,1.781,0,0,1,.706,1.549,8.72,8.72,0,0,1-.764,3.208c-.375.993-.516,2.507-1.2,3.3a5.517,5.517,0,0,1-2.389,1.422,22.062,22.062,0,0,1-5.369.987,53.168,53.168,0,0,1-6.515-.195c-2.6-.143-5.34.29-7.946.382,1.346,6.237,2.949,12.429,4.16,18.68-1.6.508-3.259.825-4.909,1.2-.371.083-.745.19-1.119.3-.066-.1-.127-.207-.185-.312-1.978-3.559-4.168-6.9-5.695-10.7-1.391-3.467-2.8-7.151-2.86-10.934-.027-1.581.108-3.953,1.208-5.224A4.679,4.679,0,0,1,310.153,148.191Z" transform="translate(-308.284 -143.687)"/></g><path class="k" d="M349.317,89.927l-.452-1.953a17.728,17.728,0,0,0-.83-2.848,5.925,5.925,0,0,0-1.706-2.393,2.924,2.924,0,0,0-1.211-.6,3.8,3.8,0,0,0-1.084-.023,6.912,6.912,0,0,0-2.065.45c-2.157.9-1.609,4.377-.989,6.026a3.214,3.214,0,0,0,1.649,2.108,7.476,7.476,0,0,1,.876.254,3.283,3.283,0,0,1,1.356,2.068,9.434,9.434,0,0,1,.3,1.676c.025.255-.117.841.11,1.015s1.042-.018,1.31-.077a7.2,7.2,0,0,0,2.457-1.151,2.97,2.97,0,0,0,.909-.856c.371-.608.086-.949-.122-1.5A17.479,17.479,0,0,1,349.317,89.927Z" transform="translate(-322.501 -79.076)"/><path class="j" d="M336.767,238.881a9.525,9.525,0,0,1-.733,1.642,10.564,10.564,0,0,0-1.171,2.162,1.979,1.979,0,0,0,.59,2.221,2.768,2.768,0,0,0,1.975.162,3.991,3.991,0,0,0,2.007-.727,3.463,3.463,0,0,0,.9-1.525,13.069,13.069,0,0,0,.635-2.719,3.788,3.788,0,0,1,.32-1.372c.433-.8,1.472-1.165,1.78-2.017a2.951,2.951,0,0,0-.107-1.715,29.246,29.246,0,0,1-.709-3.81c-.066-.556.116-2.885-.288-3.209-.955-.765-4.785,1.462-5.8,1.8a35.952,35.952,0,0,1,1.223,5.748A10.827,10.827,0,0,1,336.767,238.881Z" transform="translate(-319.992 -143.535)"/><path class="j" d="M347.535,85.01c0-.047.006-.094.008-.141a5.111,5.111,0,0,0-.647-3.58c-.717-.9-1.718-1.072-3.115-1.175-1.61-.118-3.665-.586-5.245-.138a1.712,1.712,0,0,0-1.336,1.489A1.776,1.776,0,0,0,338.67,83c1.3.317,3.262-.518,3.816,1.26.322,1.036.4,2,1.577,2.456a3.348,3.348,0,0,0,2.239-.03,1.828,1.828,0,0,0,.946-.612A2.029,2.029,0,0,0,347.535,85.01Z" transform="translate(-321.074 -78.062)"/><g transform="translate(15.943)"><path class="q" d="M352.751,77.453a.244.244,0,0,1,.072-.136.372.372,0,0,1,.619-.02.3.3,0,0,1,.05.361.384.384,0,0,1-.459.294A.358.358,0,0,1,352.751,77.453Z" transform="translate(-343.884 -76.892)"/><path class="aa" d="M337.76,77.113c.31.066.616.156.92.244q.754.218,1.51.426a2.6,2.6,0,0,0,.517.109c.162.011.21-.041.33-.142a4.452,4.452,0,0,1,.729-.555,4.26,4.26,0,0,1,2.135-.5c.089,0,.177.009.265.018a4.177,4.177,0,0,1,3.741,4.494c-.009.117-.035.332-.147.4s-.21-.008-.313-.036a5.975,5.975,0,0,1-.914-.376l-.8-.352q-.321-.14-.644-.278-3.009-1.29-6.1-2.375-.791-.279-1.586-.547c-.177-.06-.661-.233-.508-.518.057-.105.2-.113.323-.1A4.851,4.851,0,0,1,337.76,77.113Z" transform="translate(-336.872 -76.694)"/></g><g transform="translate(13.299 37.992)"><path class="m" d="M355.3,147.6a14.357,14.357,0,0,0-.114-2.105q-3.719-.186-7.413-.676c.145.019-.349.951-.428,1.036a3.141,3.141,0,0,1-1.112.609,17.814,17.814,0,0,0-2.971,1.636,19.4,19.4,0,0,0-5.283,5.732c-1.627,2.393-2.318,5.108-3.487,7.67a24.665,24.665,0,0,0-2.324,9.217q-.016.326-.026.653a66.985,66.985,0,0,0,.746,10.253q.963,7.73,1.926,15.46a55.326,55.326,0,0,0,7.065-1.245c0-.042.012-.085.015-.126.655-8.94.5-18.027,2.748-26.7,1.082-4.177,4.216-7.276,6.581-10.742C353.493,154.948,355.224,151.543,355.3,147.6Z" transform="translate(-332.131 -144.817)"/></g><path class="ab" d="M357.642,150.379a4.055,4.055,0,0,0,5.308,1.484c.3-.144.559.3.26.445a4.58,4.58,0,0,1-5.734-1.279.247.247,0,0,1-.1-.09l-.184-.3C357.023,150.354,357.463,150.1,357.642,150.379Z" transform="translate(-329.901 -109.232)"/><path class="ac" d="M348.361,101.317a13.254,13.254,0,0,0-.351-2.149,5.567,5.567,0,0,0-.471-1.059c-.095-.163-.582-.631-.208-.735s.888-.016,1.3-.106a6.732,6.732,0,0,0,1.918-.74,13.251,13.251,0,0,1-1.325,4.012C349.053,100.867,348.778,101.324,348.361,101.317Z" transform="translate(-325.493 -85.467)"/><path class="k" d="M347.05,90.477l.014-.365a.783.783,0,0,1,.39-.679,1.553,1.553,0,0,1,2.145.645c.4,1.075-.926,1.561-1.762,1.489a.8.8,0,0,1-.787-.787.859.859,0,0,1,.018-.124A.688.688,0,0,1,347.05,90.477Z" transform="translate(-325.43 -82.249)"/><path class="ad" d="M335.245,159.117a32.1,32.1,0,0,1,2.083-3.469,9.273,9.273,0,0,0,1.507-3.723,39.84,39.84,0,0,1-10.206,7.529C330.857,159.311,333.018,159.26,335.245,159.117Z" transform="translate(-317.283 -109.969)"/></g><g transform="translate(0)"><path class="j" d="M338.709,88.843l-6.863,1.04v-3.12l6.863,1.04Z" transform="translate(-250.11 -76.91)"/><g transform="translate(10.607)"><path class="aa" d="M204.306,69.1V69.1l.123,0Z" transform="translate(-204.306 -69.095)"/><path class="aa" d="M207.011,108.454l-2.7.316A13.755,13.755,0,0,0,207.011,108.454Z" transform="translate(-204.306 -86.503)"/><path class="aa" d="M208.11,91.126,277.1,83.071a2.364,2.364,0,0,0,2.09-2.348h0a2.363,2.363,0,0,0-2.061-2.344l-70.336-9.1c6.091.727,8.6,6.131,8.6,11.777C215.388,86.242,213.015,90.047,208.11,91.126Z" transform="translate(-205.405 -69.175)"/></g><g transform="translate(0 0.838)"><circle class="ae" cx="10.295" cy="10.295" r="10.295"/><circle class="af" cx="10.295" cy="10.295" r="10.295"/><g transform="translate(4.118 5.798)"><path class="v" d="M199.29,91.392a6.654,6.654,0,0,1-4.02-1.385,6.425,6.425,0,0,1-2.6-4.883,6.605,6.605,0,0,1,1.115-3.862.6.6,0,0,1,.884-.131l.033.028a.6.6,0,0,1,.1.8,5.351,5.351,0,0,0-.9,3.119,5.186,5.186,0,0,0,2.106,3.938,5.344,5.344,0,0,0,3.911,1.091.6.6,0,0,1,.669.45l.011.043a.6.6,0,0,1-.51.735A6.273,6.273,0,0,1,199.29,91.392Z" transform="translate(-192.671 -80.993)"/></g></g><g transform="translate(15.741 0.526)"><g class="ag"><g transform="translate(10.152 0)"><path class="j" d="M231.716,91.252v-.624a9.983,9.983,0,0,0,0-19.966v-.624a10.607,10.607,0,1,1,0,21.214Z" transform="translate(-231.716 -70.038)"/><g transform="translate(15.91 1.872)"><path class="j" d="M260.244,90.865v-.624a8.111,8.111,0,0,0,0-16.222v-.624a8.735,8.735,0,1,1,0,17.47Z" transform="translate(-260.244 -73.395)"/></g><g transform="translate(44.612 5.615)"><path class="j" d="M311.708,90.09v-.624a4.368,4.368,0,0,0,0-8.735v-.624a4.991,4.991,0,1,1,0,9.983Z" transform="translate(-311.708 -80.107)"/></g><g transform="translate(31.197 3.744)"><path class="j" d="M287.654,90.478v-.624a6.239,6.239,0,1,0,0-12.479v-.624a6.863,6.863,0,1,1,0,13.727Z" transform="translate(-287.654 -76.751)"/></g></g></g></g></g><path class="ah" d="M342.319,94.013a6.884,6.884,0,0,0,1.105-.428" transform="translate(-254.742 -79.927)"/><path class="k" d="M312.148,94.025a11.565,11.565,0,0,0-.505-1.089,2.669,2.669,0,0,1-.382-1.091,9.515,9.515,0,0,0-.055-1.638c-.085-.449-.187-.9-.305-1.337-.043-.163-.505-1.916-.855-1.578a.327.327,0,0,0-.081.187c-.1.6-.027,1.192-.089,1.79-.012.119-.095.277-.2.226-.223-.1-.419-1.006-.521-1.237-.311-.7-.65-1.4-.975-2.094-.216-.463-.559-1-1.068-.953a.843.843,0,0,0-.626.483,2.483,2.483,0,0,0-.2.8q-.1.75-.209,1.5a2.791,2.791,0,0,0,.153,1.7,9.013,9.013,0,0,0,1.133,2.717,21.246,21.246,0,0,1,1.972,2.235,12.046,12.046,0,0,0,.715,1.209,1.158,1.158,0,0,0,.854.495,1.739,1.739,0,0,0,1.4-1.142A1.979,1.979,0,0,0,312.148,94.025Z" transform="translate(-238.683 -76.223)"/><g transform="translate(70.37 16.666)"><path class="q" d="M335.512,113.931a22.431,22.431,0,0,1-13.784-.428c-5.987-1.951-7.957-6.6-10.263-12.17,1.137-.82,2.3-1.566,3.459-2.354,3.617,6.277,5.745,9.05,13.177,9.456a7.12,7.12,0,0,0,4.119-.775c1.89-.881,2.924-2.7,4.428-4.124a9.558,9.558,0,0,1,1.508-1.081,2,2,0,0,1,1.061-.426,2.115,2.115,0,0,1,1.2.516,6.719,6.719,0,0,1,1.65,1.715,2.546,2.546,0,0,1,.3,2.012,11.474,11.474,0,0,1-3.6,5.607,7.913,7.913,0,0,1-1.453,1.055A6.921,6.921,0,0,1,335.512,113.931Z" transform="translate(-311.466 -98.978)"/></g><path class="ai" d="M355.114,121.55a13.255,13.255,0,0,1-3.332,1.346,7.071,7.071,0,0,1-3.3.787l-.185.043a66.432,66.432,0,0,1,8.047,4.692c-.019-.013.451-1.178,1.065-2.665.423-2.343.8-4.694,1.153-7.049A13.505,13.505,0,0,1,355.114,121.55Z" transform="translate(-257.386 -91.037)"/></g></g></svg>