<svg xmlns="http://www.w3.org/2000/svg" width="187.264" height="206.766" viewBox="0 0 187.264 206.766"><defs><style>.a{fill:#2f0f1d;}.b{fill:#11161f;}.c{fill:#db6b4e;}.d{fill:#121930;}.e{fill:#f0815e;}.f{fill:#d15e49;}.g{fill:#15191d;}.h{fill:#2f2b76;}.i{fill:#131519;}.j{fill:#122246;}.k{fill:#ee7855;}.l{fill:#dd634a;}.m{fill:#261610;}.n{fill:#fff;}.o{fill:#286164;}.p{fill:#368b8f;}.q{fill:#50b2b5;}.r{fill:#9b1313;}.s{fill:#a40d11;}.t{fill:#9a0d11;}.u{fill:#8d0910;}.v{fill:#e1302d;}.w{fill:#131313;}.x{fill:#070707;}.y{fill:#0d2848;}.z{fill:#002f65;}.aa{fill:#62102f;}.ab{fill:#1a110d;}.ac{fill:#a67000;}.ad{fill:#916008;}.ae{fill:#cf8900;}.af{fill:#fda800;}.ag{fill:#0e2543;}.ah{fill:#005c87;}.ai{fill:#0d0d0d;}.aj{fill:#002f61;}.ak{fill:#ffc04f;}.al{fill:#26130d;}.am{fill:#300f1a;}.an{fill:#0c2b58;}.ao{fill:#003275;}.ap{fill:#20100d;}.aq{fill:#f39c6b;}.ar{fill:#f69c6b;}.as{fill:#d47f5e;}.at{fill:#e3e3e3;}</style></defs><g transform="translate(0 0)"><g transform="translate(36.996 0)"><g transform="translate(15.441 114.967)"><path class="a" d="M657.52,1219.032l.344-.064.344-2.881-.9-1.067Z" transform="translate(-656.727 -1211.689)"/><path class="b" d="M653.372,1213.178l.413.234-.065-4.717-.728-.166Z" transform="translate(-652.993 -1206.069)"/><g transform="translate(0.012)"><path class="c" d="M656.84,1191.388l.766,2.529a17.038,17.038,0,0,0,1.9,3.4s1.551,2.124-1.352,1.985c0,0-3.095-.165-3.049-2.151.041-1.708-1.529-3.828-1.529-3.828a1.727,1.727,0,0,1,.2-2.039l.537-.613,2.607-.455Z" transform="translate(-653.302 -1190.215)"/><path class="b" d="M659.457,1201.022a3.9,3.9,0,0,1-3.371-1.02,13.5,13.5,0,0,1-1.418-2.73c.126.4-.821-3.128-.569-3.679l-.537.613a1.8,1.8,0,0,0-.256,2.093s1.623,2.066,1.582,3.774c-.047,1.986,3.049,2.151,3.049,2.151,1.738.085,1.879-.647,1.711-1.246A1.8,1.8,0,0,1,659.457,1201.022Z" transform="translate(-653.083 -1193.139)"/><path class="b" d="M671.82,1232.454s.437.825-.95.825c0,0-5.194-.33-5.192-2.561v-1.8s.408,2.566,3.616,2.572c0,0,1.424,0,.688-.907Z" transform="translate(-663.987 -1223.722)"/></g></g><path class="d" d="M604.6,337.673a3.456,3.456,0,1,1-3.456-3.457,3.456,3.456,0,0,1,3.456,3.457Z" transform="translate(-589.677 -334.216)"/><path class="e" d="M641.7,415.279h6.809c-.309-.991-.951-3.556.042-5.3l-6.878-4.516S642.893,413.037,641.7,415.279Z" transform="translate(-627.752 -395.891)"/><path class="f" d="M642.424,410.995a2.993,2.993,0,0,0,2.143,1.89,7.183,7.183,0,0,0,3.457.256,5.38,5.38,0,0,1,.483-3.172l-6.878-4.516s.373,2.312.5,4.758C642.231,410.473,642.322,410.734,642.424,410.995Z" transform="translate(-627.714 -395.885)"/><path class="e" d="M637.467,355.315l.361-1.024.881-3.012a3.039,3.039,0,0,0,.015-1.6,4.834,4.834,0,0,1-.14-2.5,5.035,5.035,0,0,0-.656-4.172c-1.6-2.52-5.375-2.51-5.375-2.51a5.259,5.259,0,0,0-5.049,4.762c-.75,3.008,1.649,5.5,1.653,5.509a3.334,3.334,0,0,1,.483,1.218,3.755,3.755,0,0,0,.684,1.143,8.4,8.4,0,0,0,2.393,1.921,9.239,9.239,0,0,0,3.6.849C636.792,355.9,637.259,355.907,637.467,355.315Z" transform="translate(-615.361 -339.654)"/><g transform="translate(0 116.401)"><path class="a" d="M540.377,1223.986l.346.049,1.249-2.619-.511-1.3Z" transform="translate(-540.061 -1217.533)"/><path class="b" d="M538.027,1217.147l.316.355,1.448-4.49-.637-.386Z" transform="translate(-538.027 -1211.049)"/><g transform="translate(1.102)"><path class="e" d="M550.426,1202.4c-.069,2.107-.225,4.474.625,6.468,0,0,.787,2.51-1.916,1.448,0,0-2.879-1.15-2.2-3.015.586-1.6-.22-4.115-.22-4.115a1.728,1.728,0,0,1,.846-1.866l.706-.408h2.7Z" transform="translate(-546.619 -1200.907)"/><path class="b" d="M550.571,1209.645a3.9,3.9,0,0,1-2.865-2.048,13.484,13.484,0,0,1-.468-3.041c-.008.418.226-3.226.642-3.668l-.706.408a1.8,1.8,0,0,0-.913,1.9s.874,2.477.29,4.081c-.681,1.865,2.2,3.015,2.2,3.015,1.623.639,1.987-.01,2.021-.631A1.832,1.832,0,0,1,550.571,1209.645Z" transform="translate(-546.233 -1200.888)"/><path class="b" d="M552.424,1241.289s.149.922-1.164.478c0,0-4.813-1.979-4.1-4.091l.579-1.7s-.436,2.561,2.6,3.6c0,0,1.352.457.943-.639Z" transform="translate(-546.977 -1231.26)"/></g></g><path class="e" d="M562.716,960.325c-3.452,6.371-4.063,8.968-4.677,13.815-.358,2.819-.239,14.694-.609,16.465-.154.734,2.636.331,2.636.331.511-1.242,8.637-28.525,8.637-28.525s.908-2.826.154-3.317C565.07,956.626,564.221,957.547,562.716,960.325Z" transform="translate(-554.819 -873.928)"/><path class="g" d="M555.673,991.518c.511-1.242,8.553-29.094,8.553-29.094s.908-2.827.154-3.317c-3.789-2.468-4.634-1.545-6.143,1.231-3.452,6.371-4.063,8.968-4.677,13.815-.358,2.819-.94,14.287-1.31,16.055C552.252,990.207,554.317,992.668,555.673,991.518Z" transform="translate(-550.341 -873.939)"/><path class="g" d="M603.11,623.876s2.653,11.228,2.3,12.453c-1.025,3.533-10.544,8.495-19.222,1.261a64.269,64.269,0,0,1,6.1-15.329S593.8,623.826,603.11,623.876Z" transform="translate(-579.716 -583.574)"/><path class="h" d="M617.374,463.43s3.475,6.712,5.02,10.394c-.65,4.316-2.993,10.715-3.938,12.067-2.066,2.959-11.509.318-11.509.318l-2.722-9.088c7.946-2.854,3.765-11.225,3.765-11.225l1.245-.787s1.271,4.115,6.442,3.969c0,0,1.7-1.106.449-5.8A7.266,7.266,0,0,1,617.374,463.43Z" transform="translate(-595.334 -445.944)"/><path class="c" d="M637.784,709.011s.914,18.113,4.265,27.855c.5,1.448,6.226-.478,6.226-.478s2.89-15.585,2.717-22.042c-.1-3.649-1.4-11.519-1.4-11.519S638.848,701.423,637.784,709.011Z" transform="translate(-624.386 -653.232)"/><path class="c" d="M653.423,953.787l6.061-.412s-3.724,30.921-4.062,32.221c0,0-2.607.942-2.552.193.126-1.805-2.047-15.682-2.114-18.523C650.649,962.7,650.828,959.819,653.423,953.787Z" transform="translate(-635.596 -870.217)"/><path class="i" d="M637.784,709.011s.914,18.113,4.265,27.855c.5,1.448,6.226-.478,6.226-.478s2.89-15.585,2.717-22.042c-.1-3.649-1.4-11.519-1.4-11.519S638.848,701.423,637.784,709.011Z" transform="translate(-624.386 -653.232)"/><path class="i" d="M656.174,985.783c.615-1.194,3.311-32.415,3.311-32.415l-6.061.412c-2.595,6.032-2.774,8.915-2.667,13.479.066,2.841,1.442,16.717,1.316,18.523C652.072,985.783,655.367,987.35,656.174,985.783Z" transform="translate(-635.596 -870.211)"/><g transform="translate(21.63 18.251)"><path class="c" d="M710.453,491.33l-4.6-16.659c-1.655-4.456-4.122-4.565-4.122-4.565-4.73.716-1.7,9.018-1.7,9.018l5.84,13.837" transform="translate(-699.077 -470.106)"/><g transform="translate(6.29 19.3)"><g transform="translate(15.68 9.921)"><path class="c" d="M865.376,692.126c-1.987-1.474-2.124-1.874-2.424-2.474-1.3-2.573,2.009-2.008,2.815-1.7.463.181.324,1.324,1.6,2.933,0,0,2.135,1.7,2.723,1.689,0,0,.586.174.522.605C870.616,693.185,868.834,693.911,865.376,692.126Z" transform="translate(-862.655 -687.677)"/></g><g transform="translate(2.086)"><path class="c" d="M761.44,613.809" transform="translate(-761.44 -613.809)"/></g><g transform="translate(0 0.077)"><path class="c" d="M750.639,615.256,764.1,625.438c.372,1.855-.483,1.989-.483,1.989l-10.853-4.939c-4.647-2.011-6.265-4.327-6.265-4.327s-1.9-1.779,1.125-3.563A2.638,2.638,0,0,1,750.639,615.256Z" transform="translate(-745.91 -614.379)"/></g><path class="c" d="M882.284,684.859s-.589,1.139.949,1.062l1.628-.9a.579.579,0,0,0,.394-.633s-.138-.274-.642-.1Z" transform="translate(-863.872 -674.775)"/></g></g><path class="e" d="M582.619,731.554s.071,18.121,2.461,28.141c.355,1.494,5.815,1.036,5.815,1.036s3.562-17.137,4.016-23.58c.257-3.641.986-10.015.986-10.015S583.112,725.87,582.619,731.554Z" transform="translate(-576.63 -674.26)"/><path class="e" d="M591.151,467.486a4.19,4.19,0,0,0-1.361,5.1l5.26,12.777s8.531,2.9,10.6-.058c.943-1.352,1.816-4.933,2.961-10.1.778-3.51.831-9.643-1.145-11.459-1.139-1.047-4.827-1.026-4.856-1.151l-5.976,1.925Z" transform="translate(-582.522 -445.353)"/><path class="e" d="M601.611,619.3a16.066,16.066,0,0,1,3.233.986s1.965,8.372,2.077,9.645-8.644,7.862-18.423,4.11c0,0,4.939-11.649,5.66-14.083C594.986,617.157,601.611,619.3,601.611,619.3Z" transform="translate(-581.719 -580.331)"/><path class="h" d="M710.844,502.975s2.886,3.4,3.129,5.925c.135,1.406-1.641,3.765-2.529,4.628C710.815,514.141,707.091,505.321,710.844,502.975Z" transform="translate(-686.203 -480.309)"/><path class="g" d="M585.981,709.2s-3.448.766-3.137,7.087c.3,6.173,11.543,7.456,12.986,1.237C597.381,710.826,592.117,706.906,585.981,709.2Z" transform="translate(-576.807 -658.265)"/><path class="j" d="M617.978,349.461a8.642,8.642,0,0,1,.03-2c.05-.624,1.271.72,1.246-.1-.116-3.714,1.234-5.482,1.762-5.768a6.535,6.535,0,0,1,4.143-.786c1.879.334,1.806,2.834,1.806,2.834,1.6-9.153-8.608-6.229-8.608-6.229a5.658,5.658,0,0,0-4.46,5.991c-.609,5.031,4.158,7.938,4.158,7.938Z" transform="translate(-603.661 -336.601)"/><g transform="translate(12.651 9.348)"><path class="k" d="M634.216,406.6a1,1,0,0,1-.648.193,1.47,1.47,0,0,1-1.34-1.51,1.352,1.352,0,0,1,1.226-1.467l.051,0a1.271,1.271,0,0,1,.9.408,1.834,1.834,0,0,1,.276,1.5A1.382,1.382,0,0,1,634.216,406.6Z" transform="translate(-632.223 -403.814)"/><g transform="translate(0.672 0.472)"><path class="l" d="M638.125,407.628c-.042-.432-.916-.019-.784.224a1.328,1.328,0,0,0,.35.341.634.634,0,0,1,.268.472c0,.024.008.1-.017.117-.113.078-.483-.343-.565-.432a.721.721,0,0,1-.105-.69.432.432,0,0,1,.483-.323c.193.012.4.025.386.268,0,0-.009.045-.012.023Z" transform="translate(-637.228 -407.33)"/><g transform="translate(0.118 0.703)"><path class="l" d="M638.606,412.608c.092-.091.179-.015.271.051a.415.415,0,0,1,.156.255,1.015,1.015,0,0,1-.108.721.546.546,0,0,1-.469.249c-.263-.008-.342-.24-.351-.462,0-.059-.008-.2.05-.237s.108.058.15.1a.373.373,0,0,0,.223.084.477.477,0,0,0,.391-.175.215.215,0,0,0,.041-.068c0,.146-.008.178-.023.1a.413.413,0,0,0-.049-.1c-.061-.1-.164-.17-.232-.266-.033-.044-.1-.2-.048-.248Z" transform="translate(-638.104 -412.566)"/></g></g></g><g transform="translate(17.237 6.958)"><path class="m" d="M673.776,398.048c.025.259-.1.483-.272.5s-.338-.178-.363-.437.1-.483.272-.5S673.751,397.792,673.776,398.048Z" transform="translate(-672.228 -396.055)"/><path class="m" d="M700.513,394.33c.01.26-.126.475-.3.483s-.326-.2-.336-.458.125-.476.3-.483S700.5,394.07,700.513,394.33Z" transform="translate(-695.374 -392.818)"/><path class="j" d="M666.369,390.274a3.572,3.572,0,0,1,2.262-.653s.106-.006.077-.329c0,0-.008-.29-.236-.258C668.472,389.035,666.453,388.9,666.369,390.274Z" transform="translate(-666.369 -388.627)"/><path class="j" d="M697.425,386.314c-.7-.571-2-.125-2-.125-.228.033-.161.311-.161.311.057.319.161.3.161.3a4.383,4.383,0,0,1,1.911-.135C697.366,386.546,697.4,386.431,697.425,386.314Z" transform="translate(-691.374 -386.023)"/><g transform="translate(1.979 5.274)"><path class="n" d="M683.806,425.294l-2.557.473c-.134.025-.188.1-.116.177a1.618,1.618,0,0,0,2.808-.526C683.977,425.34,683.915,425.288,683.806,425.294Z" transform="translate(-681.101 -425.294)"/></g><path class="l" d="M687.572,407.32c1.34-.1,1.413-.448,1.413-.448l-.7-1.412S688.444,406.871,687.572,407.32Z" transform="translate(-684.724 -402.85)"/></g><path class="g" d="M582.619,731.554s.071,18.121,2.461,28.141c.355,1.494,5.815,1.036,5.815,1.036s3.562-17.137,4.016-23.58c.257-3.641.986-10.015.986-10.015S583.112,725.87,582.619,731.554Z" transform="translate(-576.63 -674.26)"/><path class="g" d="M603.11,623.876s2.653,11.228,2.3,12.453c-1.025,3.533-10.544,8.495-19.222,1.261a64.269,64.269,0,0,1,6.1-15.329S593.8,623.826,603.11,623.876Z" transform="translate(-579.716 -583.574)"/><path class="h" d="M608.112,486.231s9.712,2.993,11.778.033c.943-1.351,3.02-8.109,3.668-12.421-1.55-3.682-5.02-10.394-5.02-10.394a7.28,7.28,0,0,0-1.248-.15c1.255,4.694-.449,5.8-.449,5.8-5.171.147-6.442-3.969-6.442-3.969l-1.245.787s3.853,8-3.583,11.661C605.569,477.579,605.39,486.164,608.112,486.231Z" transform="translate(-596.496 -445.962)"/><path class="n" d="M641.622,422.83a.442.442,0,1,1-.442-.443.442.442,0,0,1,.442.443Z" transform="translate(-626.943 -410.545)"/><g transform="translate(4.524 21.935)"><path class="e" d="M588.887,498.9a3.992,3.992,0,0,1-.172,5.643h0c-1.606,1.511-6.654,4.392-6.7,2.188-.1-4.333.076-6.687,1.683-8.2S587.375,497.3,588.887,498.9Z" transform="translate(-580.611 -497.537)"/><path class="e" d="M580.171,522.014,576.682,520l-3.506,2.194s-2.053,13.073-1.292,16.065c.806,3.186,2.27.84,2.962-.033C574.842,538.231,580.565,524.554,580.171,522.014Z" transform="translate(-571.714 -516.985)"/><path class="e" d="M576.883,638.048a79.44,79.44,0,0,0,11.844,6.918s1.84-.772.92-1.623c-1.562-1.448-8.392-7.984-9.968-9.431C576.883,632.958,576.883,638.048,576.883,638.048Z" transform="translate(-576.189 -615.493)"/><g transform="translate(12.237 27.798)"><path class="e" d="M666.3,708.683c-2.271-.981-2.5-1.34-2.926-1.854-1.849-2.208,1.5-2.414,2.354-2.295.491.07.618,1.214,2.232,2.489,0,0,2.466,1.167,3.037,1.021,0,0,.61.035.647.47C671.641,708.515,670.068,709.629,666.3,708.683Z" transform="translate(-662.823 -704.508)"/><path class="e" d="M681.591,704.51s-.972.836.483,1.345l1.845-.222s.52.02.6-.44c0,0-.025-.306-.559-.33Z" transform="translate(-678.795 -704.51)"/></g></g></g><g transform="translate(46.952 37.821)"><path class="o" d="M897.156,743.372l-.082-.019-.126-.027-.1-.016-.089-.015-.063,7.144-11.826,7.979.074-8.521,9.8-6.609q-.216.025-.435.062l-.1.016-.167.03-.112.022-.162.034-.1.022-.257.062-.069.017q-.158.041-.317.088l-.056.016c-.146.043-.29.09-.436.138l-.015.006q-.219.075-.434.159l-.031.012q-.244.1-.483.2l-.022.01q-.241.109-.477.231l-.016.008c-.158.081-.314.168-.466.258l-.008.006q-.232.136-.452.29c-1.305.881-1.991,1.87-2,2.712q.038-4.26.075-8.52c.007-.843.693-1.834,2-2.713q.22-.145.452-.29h.008q.228-.135.466-.258l.016-.008c.156-.081.315-.157.476-.231l.024-.01c.158-.072.32-.139.483-.2h.01l.027-.01q.211-.083.427-.156l.02-.008c.144-.049.29-.1.432-.137l.038-.012.024-.007q.158-.046.315-.086l.07-.018c.085-.021.169-.042.253-.061l.051-.013.057-.012.155-.033.119-.023.158-.029.083-.016h.021c.146-.024.289-.044.432-.062l.038-.006h.028q.188-.021.374-.034h.073c.116-.008.232-.013.346-.016h.405c.105,0,.21.009.312.016h.032c.106.01.211.021.312.035h.06l.122.02c.033.006.065.011.1.017s.078.016.117.025.054.011.08.017h.01c.092.022.18.047.266.074l.06.02a2.65,2.65,0,0,1,.255.1c.065.03.126.06.184.091l.051.028.062.035.049.033.062.041.1.067.052.039.017.014a.979.979,0,0,1,.1.09l.013.013c.025.024.049.048.071.073h0l.02.023.033.038c.022.026.043.053.064.08l.028.038.014.019c.01.014.017.029.027.042s.035.053.051.08l.034.059c.016.027.03.054.044.082l.013.024.014.028c.024.047.046.1.069.144l.01.023c.029.066.057.131.085.193l.055.128.026.058c.025.056.051.112.079.167.015.028.029.055.044.083s.016.03.025.045c.024.042.05.084.078.126.017.026.038.053.056.079s.054.074.084.111c.013.015.025.033.039.048.04.049.081.1.126.146l.008.01c.046.05.1.1.146.148l.045.042.115.1.058.048c.04.033.082.065.124.1l.056.041c.062.043.126.087.193.128l.012.007.02.012.013.006.029.017.02.01.034.016.024.013.04.019.033.016.042.02.05.024.031.015.06.027.032.016.1.043c.224.1.483.209.733.29l11.836-7.987-.074,8.521-11.836,7.987c-.245-.082-.509-.193-.734-.289l-.1-.044-.016-.008-.073-.035-.028-.013-.055-.026-.034-.015-.042-.02-.026-.013-.039-.019-.019-.01-.035-.017-.015-.008-.026-.014-.011-.006-.017-.009h0c-.066-.041-.13-.084-.193-.128l-.059-.043c-.042-.031-.082-.062-.122-.1l-.031-.024-.029-.025c-.038-.034-.075-.067-.112-.1l-.047-.044c-.05-.048-.1-.1-.144-.147h0l-.009-.01c-.043-.047-.085-.1-.123-.143l-.038-.048c-.03-.038-.058-.075-.085-.113l-.02-.027-.035-.051c-.028-.041-.054-.083-.078-.126-.012-.019-.021-.04-.033-.059s-.024-.044-.035-.065h0c-.029-.057-.055-.113-.081-.17l-.02-.048q-.034-.075-.066-.151c-.025-.058-.05-.118-.076-.176l-.015-.033q-.031-.068-.065-.136l-.028-.055c-.014-.026-.028-.053-.044-.079s-.022-.04-.035-.061l-.051-.08c-.017-.027-.026-.041-.041-.061l-.029-.039c-.02-.026-.041-.053-.063-.078l-.034-.04c-.029-.033-.059-.065-.091-.1l-.013-.013c-.037-.035-.076-.07-.118-.1l-.051-.04a.9.9,0,0,0-.1-.067l-.062-.041-.111-.066-.051-.028c-.058-.031-.119-.062-.185-.091-.082-.035-.167-.065-.255-.1l-.061-.019A1.311,1.311,0,0,0,897.156,743.372Z" transform="translate(-848.245 -715.191)"/><path class="p" d="M612.153,767.93l.074-8.521,15.175,6.385-.062,7.091h.015l.1.012c.122.013.241.026.361.036h.036l.261.017.1,0,.193.009h.071c.153,0,.3,0,.45,0h.059c.123,0,.244-.008.362-.015h.028c.111-.008.219-.018.325-.03l.08-.01c.091-.011.179-.023.266-.037h.032c.1-.016.185-.034.275-.054l.068-.016q.127-.029.245-.064l.035-.009.049-.016.128-.042.065-.023.106-.041.059-.024.1-.045.055-.026.1-.052.045-.025c.045-.026.091-.054.133-.082a1.526,1.526,0,0,0,.67-1.389v-.415a1.893,1.893,0,0,1,.31-1.2,7.188,7.188,0,0,1,1.184-.9l15.156,6.377-.074,8.521-15.156-6.378a7.17,7.17,0,0,0-1.184.9,1.754,1.754,0,0,0-.308,1.076v.413a1.6,1.6,0,0,1-.676,1.519c-.042.029-.087.056-.132.083l-.046.025-.1.051-.056.027-.1.044-.058.025-.033.013-.075.027-.063.023-.126.041-.053.016h-.009l-.022.006c-.08.023-.164.044-.249.065l-.036.01-.03,0c-.091.02-.182.037-.278.054h-.027c-.089.014-.18.027-.274.038l-.04.006h-.037c-.107.011-.215.021-.326.029h-.03c-.119.008-.239.012-.363.016h-.579a1.444,1.444,0,0,1-.193-.009h-.1c-.1,0-.185-.012-.279-.019h-.016c-.121-.01-.241-.022-.364-.036l-.1-.012c-.107-.012-.215-.026-.324-.043l-.04,0h-.013l-.3-.047-.052-.01-.255-.045-.114-.023-.193-.04-.128-.029c-.061-.012-.122-.027-.182-.041l-.048-.011-.042-.011c-.164-.041-.328-.083-.492-.128l-.065-.018q-.251-.071-.5-.151l-.051-.016c-.17-.056-.34-.114-.508-.177l-.03-.012c-.175-.065-.349-.134-.519-.206-.084-.035-.167-.072-.247-.107q-.173-.077-.336-.156l-.111-.054-.209-.107-.121-.065-.185-.1-.114-.066-.069-.039-.111-.07-.1-.061c-.066-.043-.131-.086-.193-.13l-.063-.043q-.123-.086-.237-.174l-.057-.045c-.045-.035-.091-.07-.133-.106l-.023-.02c-.056-.047-.107-.1-.159-.141l-.068-.063c-.071-.069-.14-.135-.2-.2h0c-.055-.06-.106-.12-.154-.179l-.043-.058-.074-.1-.017-.027c-.012-.017-.021-.033-.033-.05-.027-.041-.052-.083-.076-.126-.01-.017-.02-.035-.029-.052l-.017-.03c-.022-.043-.042-.087-.061-.131a.061.061,0,0,0-.009-.022c-.013-.031-.024-.061-.035-.091s-.012-.039-.017-.058-.007-.019-.01-.029a1.333,1.333,0,0,1-.029-.13V777.5a1.1,1.1,0,0,1-.011-.146v-.015q.027-3.033.053-6.065Z" transform="translate(-612.153 -740.123)"/><g transform="translate(0.074 0)"><path class="q" d="M677.924,631.231l-36.637-15.417L612.706,635.1l15.175,6.385a6.535,6.535,0,0,1-1.022.667,8.384,8.384,0,0,1-1.872.545c-1.276.236-2.844.193-3.752.81-1.422.96-.3,2.7,2.5,3.949.081.037.164.072.247.107,2.978,1.255,6.579,1.469,8.042.483,1.188-.8.274-2.075.984-3.007a7.2,7.2,0,0,1,1.184-.9l15.156,6.377,11.826-7.979-.151-.07a14.209,14.209,0,0,0-1.556-.571c-1.764-.386-4.151.082-5.672-.559-1.867-.831-1.486-2.716.812-4.267,2.323-1.568,5.726-2.2,7.6-1.411,1.163.518,1.118,1.335,1.57,2.005a3.451,3.451,0,0,0,1.048,1c.056.034.266.14.535.26.224.1.488.209.733.29Z" transform="translate(-612.706 -615.814)"/></g></g><g transform="translate(15.736 79.219)"><g transform="translate(54.271 8.708)"><path class="r" d="M809.845,988.889v.13a.166.166,0,0,1-.006.055.632.632,0,0,0-.009.065c0,.021-.008.042-.012.063s-.007.032-.01.047-.012.043-.017.064l-.013.045-.01.026a1.325,1.325,0,0,1-.073.174h0a1.427,1.427,0,0,1-.1.158l-.016.026a1.55,1.55,0,0,1-.118.146c-.011.013-.024.026-.037.04s-.027.029-.04.041l-.049.046-.045.041-.044.036-.083.064-.045.032c-.031.021-.063.042-.1.062l-.043.027c-.028.017-.058.033-.088.048l-.049.028c-.047.023-.1.047-.148.071a4.024,4.024,0,0,1-.612.193,4.821,4.821,0,0,1-.527.1c-.172.025-.349.044-.527.059-.25.019-.5.032-.764.039-.565.016-1.145.011-1.708.026-.254.008-.505.019-.748.039l.075,8.662c.244-.019.5-.032.749-.038.563-.015,1.143-.011,1.708-.026.259-.007.514-.019.764-.04.178-.015.355-.034.527-.058s.356-.06.527-.1a3.921,3.921,0,0,0,.612-.193c.051-.022.1-.046.149-.071l.04-.022a1.11,1.11,0,0,0,.1-.055l.01-.006.028-.017a.927.927,0,0,0,.1-.065l.045-.032.082-.064.026-.02.019-.016c.015-.014.031-.026.045-.041s.034-.03.049-.046l.042-.041a.358.358,0,0,1,.025-.026l.011-.013a1.547,1.547,0,0,0,.118-.146l.008-.009c0-.006.006-.011.01-.016a1.464,1.464,0,0,0,.1-.159h0a1.4,1.4,0,0,0,.073-.176.082.082,0,0,0,.006-.013v-.01c.006-.017.011-.035.016-.051l.016-.058.011-.052a.237.237,0,0,1,.01-.042c0-.014,0-.01,0-.016,0-.023.007-.046.009-.069a.177.177,0,0,1,.006-.049.35.35,0,0,0,0-.078v-.057Z" transform="translate(-801.125 -988.889)"/><path class="r" d="M785.552,1003.886h-.01a14.354,14.354,0,0,0-1.572.579c-.054.023-.106.047-.154.072l.076,8.661c.048-.024.1-.048.155-.072a14.857,14.857,0,0,1,1.571-.579h.009c.136-.03.276-.054.419-.075.171-.024.346-.043.522-.058l-.075-8.661c-.179.014-.352.034-.523.059C785.828,1003.831,785.688,1003.854,785.552,1003.886Z" transform="translate(-783.816 -1001.756)"/></g><path class="s" d="M633.4,1078.648l-.076-8.661-15.424,6.49.063,7.207a6.824,6.824,0,0,1-4.269-.54,1.544,1.544,0,0,1-.676-1.408v-.429a1.924,1.924,0,0,0-.315-1.219,7.454,7.454,0,0,0-1.2-.914l-15.407,6.482.076,8.662,15.407-6.484a7.425,7.425,0,0,1,1.2.914,1.782,1.782,0,0,1,.313,1.086v.43a1.625,1.625,0,0,0,.683,1.545c1.488,1,5.146.784,8.174-.489q.128-.053.252-.109c2.014-.9,3.173-2.047,3.165-2.992q-.027-3.084-.055-6.164Z" transform="translate(-567.037 -1050.386)"/><path class="t" d="M791.385,1000.332l.076,8.66c-1.612.676-4.036.2-5.828.595a14.465,14.465,0,0,0-1.58.579c-.054.024-.106.047-.154.071l-.076-8.661c.049-.024.1-.048.154-.072a14.329,14.329,0,0,1,1.581-.579C787.348,1000.532,789.773,1001.014,791.385,1000.332Z" transform="translate(-729.551 -990.086)"/><path class="u" d="M408.783,1060.306l-29.05-19.6.075,8.661,29.05,19.6Z" transform="translate(-379.733 -1025.037)"/><path class="v" d="M437.374,952.195c-.924-.625-2.518-.584-3.814-.823a8.481,8.481,0,0,1-1.9-.555,6.655,6.655,0,0,1-1.039-.676l15.423-6.49-12.018-8.109c.049-.024.1-.048.155-.071a14.367,14.367,0,0,1,1.581-.579c1.791-.394,4.216.084,5.827-.594,1.834-.819,1.448-2.735-.888-4.31-2.361-1.594-5.82-2.236-7.784-1.408-1.125.5-1.08,1.331-1.538,2.012a3.508,3.508,0,0,1-1.062,1.018c-.056.034-.273.143-.547.266-.227.1-.492.211-.74.294l-12.032-8.12-37.239,15.67,29.05,19.6,15.407-6.482a7.466,7.466,0,0,1,1.2.914c.72.948-.208,2.242,1,3.056,1.488,1,5.147.784,8.175-.49.085-.036.169-.072.251-.109C437.679,954.941,438.819,953.17,437.374,952.195Z" transform="translate(-379.752 -924.049)"/></g><g transform="translate(125.352 8.341)"><g transform="translate(0 0)"><g transform="translate(31.668 126.392)"><g transform="translate(0.004)"><path class="w" d="M1439.064,1341.125a11.39,11.39,0,0,1-3.916,2.284,3.342,3.342,0,0,1-3.263-.845.625.625,0,0,1,.008-.883.645.645,0,0,1,.089-.073c4.332-3.293,5.628-4.227,5.628-4.227h3.977a9.049,9.049,0,0,1,.087,2.244,3.445,3.445,0,0,1-2.182,1.323c-.082.013-.235-.107-.312-.075Z" transform="translate(-1431.707 -1337.381)"/></g><path class="x" d="M1431.935,1351.026a1.124,1.124,0,0,0,.083.272,2.178,2.178,0,0,0,2.013,1.008,5.831,5.831,0,0,0,2.476-.84,11.037,11.037,0,0,0,2.05-1.391,6.164,6.164,0,0,1,1.55-.772,7.951,7.951,0,0,0,1.564-1.054c0,.428-.027.785-.027.785a3.443,3.443,0,0,1-2.182,1.322c-.082.014-.234-.107-.312-.075l-.115.253a11.388,11.388,0,0,1-3.916,2.284,3.342,3.342,0,0,1-3.263-.845.624.624,0,0,1,0-.882A.663.663,0,0,1,1431.935,1351.026Z" transform="translate(-1431.675 -1346.788)"/></g><g transform="translate(35.25 61.469)"><path class="c" d="M1465.088,886.665c-4.422,4.883-6.178-.282-6.178-.282l-.548-30.01c-.057.447-.2-3.026,5.378-2.274,5.567.75,6.977,2.92,6.977,2.92s-3.063,20.728-5.632,29.646" transform="translate(-1458.348 -853.992)"/><path class="c" d="M1462.351,1076.637s2.244,31.6,2.427,32.714c0,0,2.727.6,2.74-.025.031-1.514,3.145-20.009,3.186-22.388.1-6.023-1.448-7.161-3-11.217C1467.7,1075.72,1462.339,1071.754,1462.351,1076.637Z" transform="translate(-1461.813 -1044.625)"/></g><g transform="translate(34.472 61.469)"><path class="y" d="M1461.4,887.8c2.57-8.918,4.3-30.782,4.3-30.782s-1.409-2.17-6.976-2.92c-5.583-.752-5.436,2.721-5.379,2.274,0,0-1.692,16.273-.142,31.063C1453.207,887.437,1457.976,889.97,1461.4,887.8Z" transform="translate(-1452.553 -853.992)"/></g><path class="e" d="M1474.825,739.6c.789,2.808,4.045,13.525,4.045,13.525-11.655,13.943-20.435,1.742-20.552.471-.139-1.522,1.56-7.337,1.869-13.6C1460.186,739.987,1463.364,735.095,1474.825,739.6Z" transform="translate(-1423.064 -691.843)"/><path class="y" d="M1457.906,808.972c-.552-3.756.593-7.543,1.183-11.339h17.073c1.093,3.639,2.229,7.377,2.229,7.377s.73,8.609-6.581,9.64C1471.813,814.649,1459.071,816.86,1457.906,808.972Z" transform="translate(-1422.589 -743.733)"/><g transform="translate(42.674 62.307)"><path class="e" d="M1525.691,892.724c-3.65,5.484-6.149.636-6.149.636l-5.921-29.235c.01.45.177-3.808,5.809-3.891s7.337,1.854,7.337,1.854.147,21.431-1.072,30.637" transform="translate(-1513.621 -860.232)"/><path class="e" d="M1556.694,1086.746s5.863,33.3,6.209,34.374c0,0,2.786.193,2.7-.431-.193-1.5.309-22.5,0-24.862-.792-5.971-1.62-7-3.752-10.781C1561.848,1085.047,1555.957,1081.919,1556.694,1086.746Z" transform="translate(-1550.854 -1053.99)"/></g><g transform="translate(52.803 128.11)"><path class="w" d="M1590.691,1350.859l-1.65,5.03s.341,4.5,3.952,1.713l1.076-1.042a1.152,1.152,0,0,0,.386-1.105l-.321-1.931-.386-2.667S1591.49,1349.323,1590.691,1350.859Z" transform="translate(-1589.041 -1350.175)"/><path class="x" d="M1593.012,1390.23l1.075-1.042a1.122,1.122,0,0,0,.37-.579l.019.113a1.15,1.15,0,0,1-.386,1.1l-1.075,1.043c-3.612,2.79-3.952-1.713-3.952-1.713l.065-.193C1589.327,1390.027,1590.123,1392.462,1593.012,1390.23Z" transform="translate(-1589.06 -1383.447)"/></g><g transform="translate(41.933 59.191)"><path class="b" d="M1609.289,1103.007" transform="translate(-1595.7 -1067.285)"/><path class="z" d="M1514.047,874.083c-2.057-6.036-5.939-31-5.939-31,.009.45,1.158-5.963,6.795-6.045,5.618-.083,7.077,2.084,7.077,2.084s1.759,24.436.539,33.637C1522.519,872.755,1518.563,877.324,1514.047,874.083Z" transform="translate(-1508.108 -837.033)"/></g><path class="c" d="M1366.76,576.316s-9.538,11.215-14.279,14.932c0,0-3.186-1.178-3.089-3.344,0,0,6.982-10.329,11.366-16.44C1360.758,571.464,1366.685,569.757,1366.76,576.316Z" transform="translate(-1328.773 -547.767)"/><path class="c" d="M1263.239,686.366s-10.414,6.061-14.728,8.089c0,0-.772,1.212.475,1.327,2.088.193,16.6-4.724,16.954-5.865C1267.592,684.6,1263.239,686.366,1263.239,686.366Z" transform="translate(-1241.239 -647.167)"/><path class="c" d="M1428.916,566.1a3.886,3.886,0,0,0,4.968,2.3,3.833,3.833,0,0,0,2.266-4.925l-.011-.03a3.887,3.887,0,0,0-4.968-2.3,3.833,3.833,0,0,0-2.264,4.926Z" transform="translate(-1397.402 -538.807)"/><path class="aa" d="M1375.384,559.716a5.093,5.093,0,0,0-5.737,2.145l-8.318,12.067a13.738,13.738,0,0,0,5.763,5.939S1381.985,566.152,1375.384,559.716Z" transform="translate(-1339.109 -537.59)"/><path class="e" d="M1604.63,1122.9" transform="translate(-1549.733 -1025.31)"/><path class="k" d="M1515.273,438.414s.687-1.321,2.2-3.855c0,0,3.223-3.31,1.417-7.471,0,0-.992-3.475-7.075-2.973C1511.816,424.115,1511.234,433.7,1515.273,438.414Z" transform="translate(-1469.359 -420.339)"/><path class="e" d="M1495.572,490.533s-1.023,9.544,1.159,10.265l-7.78-.463s1.223-2.883-.2-5.01Z" transform="translate(-1449.418 -477.879)"/><path class="f" d="M1489.357,498.668c.129-2.18-.145-2.623-.627-3.344l6.823-4.791a46.449,46.449,0,0,0-.215,5.877A7.381,7.381,0,0,1,1489.357,498.668Z" transform="translate(-1449.399 -477.879)"/><path class="e" d="M1438.812,555.7c-1.738,1.266-1.931,4.294-1.314,6.186.71,2.172.992,4.945,1.7,8.086.965,4.257,1.617,7.536,2.692,11.764.889,3.5,14.939.676,14.939.676l5.036-17.208s.869-4.493-3.2-5.985a60.876,60.876,0,0,0-7.427-3.379,13.542,13.542,0,0,0-6.62-.852A32.894,32.894,0,0,0,1438.812,555.7Z" transform="translate(-1404.771 -533.589)"/><path class="ab" d="M1464.28,429.826c-.4,1.834-.857,2.787-.351,4.466.455,1.507.349,3.089,1.008,4.552.938,2.083,2.161,1.811,3.095-.105.956-1.962,1.952-4.613-.206-6.066-1.386-.933-1.885-2.538-3.545-2.846Z" transform="translate(-1427.736 -425.326)"/><path class="k" d="M1469.2,438.887l-.324-1.079-.819-3.99a4.041,4.041,0,0,1,.064-1.657,4.075,4.075,0,0,0,.142-1.7,4.945,4.945,0,0,1,1.062-4.351c1.783-2.533,5.7-2.334,5.7-2.334a5.458,5.458,0,0,1,5,5.186c.629,3.154-1.98,5.623-1.985,5.628-.209.193-.158,1.227-.233,1.516a4.15,4.15,0,0,1-2.626,2.408,11.634,11.634,0,0,1-3.92,1.118C1470.766,439.649,1469.385,439.5,1469.2,438.887Z" transform="translate(-1431.453 -420.082)"/><path class="ab" d="M1468.336,488.654c.634.572,1.5.311,2.173.726a1.141,1.141,0,0,0,1.144.112,1.8,1.8,0,0,1,1.092.037c.4.117,1.134.467,1.524.625a1.442,1.442,0,0,0,1.731-.4,3.424,3.424,0,0,0,.9-1.422,1.575,1.575,0,0,1,2.647-.652,7.829,7.829,0,0,1-1.326,1.816,13.255,13.255,0,0,0-.233,2.368,4.15,4.15,0,0,1-2.626,2.408,13.263,13.263,0,0,1-4.3.646,2.065,2.065,0,0,1-1.681-1.121l-.323-1.079-.819-3.99c-.015-.069-.02-.147-.029-.222A1.241,1.241,0,0,0,1468.336,488.654Z" transform="translate(-1431.634 -474.991)"/><path class="ab" d="M1457.007,402.52c1.093,0,1.08.915,1.917,1.425,1.795,1.092,4.58-.509,6.027,1.261a3.474,3.474,0,0,1,.367.561,8.281,8.281,0,0,1,.69,2.645c.04.262-.154.928.084,1.129.135.115.372.081.622,0,.049.4-.273.707-.411,1.074s-.354.682-.159,1.054c.5.958.117.8.162,2.723a8.151,8.151,0,0,1,1.323-1.222,9.779,9.779,0,0,0,1.869-2.067,13.08,13.08,0,0,0,1.134-2.493,7.015,7.015,0,0,0,.4-4.382s-.33-3.412-3.186-3.776c0,0,.363-2.2-4.853-2.778,0,0-4.118.065-4.344-1.356a2.022,2.022,0,0,0-.626,1.809,2.027,2.027,0,0,1-2.455-1.421S1454.163,401.81,1457.007,402.52Z" transform="translate(-1420.393 -396.318)"/><g transform="translate(45.568 12.493)"><path class="k" d="M1535.441,492.15a.86.86,0,0,0,.547.326c.65.12,1.3-.483,1.448-1.352a1.448,1.448,0,0,0-.9-1.779,1.049,1.049,0,0,0-.869.269,2.191,2.191,0,0,0-.5,1.525A1.643,1.643,0,0,0,1535.441,492.15Z" transform="translate(-1535.17 -489.334)"/><g transform="translate(0.66 0.513)"><g transform="translate(0.299)"><path class="l" d="M1542.318,493.421c.1-.454.975.1.8.338a1.414,1.414,0,0,1-.416.317.68.68,0,0,0-.346.467c-.007.027-.021.105,0,.127.111.1.557-.3.655-.386a.772.772,0,0,0,.2-.72.464.464,0,0,0-.468-.405c-.208-.013-.423-.024-.442.237,0,.006,0,.049.01.026Z" transform="translate(-1542.306 -493.153)"/></g><g transform="translate(0 0.721)"><path class="l" d="M1540.631,498.58c-.085-.109-.186-.04-.29.02a.436.436,0,0,0-.2.25,1.086,1.086,0,0,0,.023.78.579.579,0,0,0,.466.325c.28.025.393-.212.432-.447.011-.063.034-.212-.023-.259s-.122.047-.172.087a.389.389,0,0,1-.247.061.508.508,0,0,1-.394-.236.282.282,0,0,1-.034-.076c-.018.154-.014.193.012.107a.414.414,0,0,1,.066-.1c.077-.1.193-.159.28-.253.041-.043.125-.2.082-.257Z" transform="translate(-1540.081 -498.523)"/></g></g></g><path class="l" d="M1483.873,484.31l1.316.508s-1.775.111-1.843-.4c0,0,.268-1.007.559-1.96C1483.9,482.453,1483.677,484.234,1483.873,484.31Z" transform="translate(-1444.738 -470.885)"/><g transform="translate(36.717 9.572)"><path class="ab" d="M1504.37,479.212c0,.279.154.5.342.5s.342-.224.342-.5-.153-.5-.342-.5S1504.37,478.937,1504.37,479.212Z" transform="translate(-1499.655 -477.215)"/><path class="ab" d="M1476.109,476.071c0,.279.153.5.342.5s.342-.224.342-.5-.152-.5-.342-.5S1476.109,475.789,1476.109,476.071Z" transform="translate(-1475.19 -474.496)"/><path class="ab" d="M1500.639,471.4c-.123.025-.152-.14-.152-.14a.575.575,0,0,1,.009-.294.29.29,0,0,1,.146-.149,4.165,4.165,0,0,1,1.453.193c.29.086.756.3.787.567.009.079.016.216-.073.241A11.859,11.859,0,0,0,1500.639,471.4Z" transform="translate(-1496.281 -470.381)"/><path class="ab" d="M1469.312,468.173a10.318,10.318,0,0,1,1.7.178c.111.058.184-.1.185-.1a.581.581,0,0,0,.071-.29.281.281,0,0,0-.1-.182,3.077,3.077,0,0,0-1.255-.193,2.467,2.467,0,0,0-.633.085A1.221,1.221,0,0,0,1469.312,468.173Z" transform="translate(-1469.269 -467.584)"/></g><g transform="translate(38.262 15.031)"><path class="n" d="M1480.911,508.236c-.107,0-.166.049-.125.127a1.624,1.624,0,0,0,2.807.339c.066-.072.008-.146-.125-.163C1483.469,508.539,1482.037,508.357,1480.911,508.236Z" transform="translate(-1480.774 -508.236)"/></g><path class="z" d="M1524.322,819.7a10.6,10.6,0,0,1,0,10.233c-2.993,5.406-12.119,3.438-12.146-3.572C1512.152,819.443,1518.447,816.8,1524.322,819.7Z" transform="translate(-1469.696 -761.83)"/><path class="aa" d="M1444.628,555.639a32.891,32.891,0,0,0-5.808.711c-1.738,1.266-1.931,4.294-1.314,6.186.71,2.172.992,4.945,1.7,8.086.965,4.257-.251,7.37.822,11.6.889,3.5,19.482,0,19.482,0l2.361-16.363s.869-4.493-3.2-5.985a56.234,56.234,0,0,0-7.232-3.31s.49,3.31-4.906,2.4C1446.536,558.954,1443.239,558.156,1444.628,555.639Z" transform="translate(-1404.779 -534.241)"/><path class="aa" d="M1471.162,737.439c.789,2.808,1.413,12.277,1.413,12.277-2.138,8.864-21.8,2.487-21.914,1.215-.139-1.522.464-8.767.772-15.035C1451.429,735.9,1459.7,732.937,1471.162,737.439Z" transform="translate(-1416.426 -689.462)"/><path class="e" d="M1558.282,599.59c1.283,2.607,6.045,15.78,7.576,17.859.407.553,4.333,3.082,5.213-.365-2.163-13.671-5.436-21.471-5.436-21.471s-3.822-3.186-6.875-.241C1558.763,595.377,1557.374,597.783,1558.282,599.59Z" transform="translate(-1509.343 -567.557)"/><path class="e" d="M1555.826,592.737a4.6,4.6,0,1,0,5.3-3.771h0a4.6,4.6,0,0,0-5.3,3.769Z" transform="translate(-1507.428 -563.036)"/><path class="aa" d="M1551.868,583.383s3.953,1.483,4.889,4.691l2.44,8.731s-3.2,4.649-7.962,4.495l-4.708-10.457S1543.36,584.969,1551.868,583.383Z" transform="translate(-1498.934 -558.259)"/><path class="c" d="M1198.221,737.856l1.217-.033s-2.22.57-2.937-.152c0,0-.183-.114.1-.372a16.883,16.883,0,0,0,2.828-.315,12.329,12.329,0,0,1-3.327.33.362.362,0,0,1,.041-.676c-.44-.171-.065-.461-.065-.461a7.717,7.717,0,0,1,1.323-.51,31.534,31.534,0,0,0,3.031-1.181s-1.282-.839-.8-1.515l1.977,1.043,1.789,1.15.237,1.21-1.861,1.294a11.6,11.6,0,0,1-2.832.762S1196.006,738.321,1198.221,737.856Z" transform="translate(-1195.89 -687.757)"/><path class="z" d="M1552.326,1088.081l5.117,31.869s1.694,1.633,5.625,0l.652-15.571s1.159-10.288-2.92-17.626C1560.8,1086.752,1552.773,1080.276,1552.326,1088.081Z" transform="translate(-1504.454 -991.838)"/><path class="y" d="M1465.213,1085.473s2.177,3.149.226,14.97l-2,16.144a5.322,5.322,0,0,1-4.88.063l-1.609-32.159S1458.4,1079.029,1465.213,1085.473Z" transform="translate(-1421.89 -990.194)"/></g></g><g transform="translate(102.161 55.148)"><path class="ac" d="M1193.014,796.3a1.242,1.242,0,0,0-.627-1.025,2.305,2.305,0,0,0-.212-.124c-.023-.013-.046-.023-.07-.035-.053-.026-.107-.05-.163-.073l-.041-.018-.037-.012c-.089-.034-.181-.066-.275-.1h0c-.1-.028-.193-.052-.3-.075a.181.181,0,0,1-.034-.009l-.042-.008c-.119-.026-.24-.048-.363-.07h-.041c-.127-.02-.257-.039-.386-.056l-.041-.006c-.137-.018-.275-.033-.413-.049h-.024l-.335-.039-.393-.046-.071-.01c-.127-.017-.253-.036-.377-.055-.065-.011-.129-.021-.193-.034-.13-.023-.262-.05-.392-.079l-.071-.015c-.1-.021-.193-.044-.284-.068h-.007c-.1-.024-.193-.05-.282-.076l-.089-.027-.193-.06-.1-.032c-.066-.022-.129-.045-.193-.069l-.071-.027c-.08-.032-.158-.065-.234-.1a6.727,6.727,0,0,1-1.039-.676l.076,8.661a6.611,6.611,0,0,0,1.039.676c.074.034.152.067.233.1l.017.007.054.019c.063.024.127.048.193.07l.09.031.193.062.054.016.028.008c.1.027.193.054.285.078h0l.29.069.028.006.04.009c.131.029.263.056.394.08l.161.029h.032c.123.019.249.037.376.054l.075.01.386.046h0l.255.029.1.012.418.05h.033c.132.017.263.036.391.058l.042.006c.124.02.244.045.363.069l.076.018c.1.023.2.048.3.075a2.8,2.8,0,0,1,.28.1l.077.03c.056.022.111.047.164.073l.07.034a2.237,2.237,0,0,1,.212.125,1.241,1.241,0,0,1,.628,1.024Z" transform="translate(-1163.816 -786.733)"/><path class="ad" d="M1039.865,874.448l.089-.019.12-.026.1-.017.085-.015.064,7.258,12.019,8.109-.076-8.661-9.955-6.718c.145.018.29.038.439.062l.1.017.165.03.119.023.157.033.111.025c.085.019.171.04.257.062l.071.018c.107.027.214.057.321.088l.062.018c.146.044.289.09.439.14l.022.008c.146.05.29.1.434.159l.035.014c.165.065.329.134.491.207l.024.011q.246.11.483.235l.015.008c.161.083.32.171.474.262h.008q.236.145.459.289c1.327.9,2.027,1.9,2.032,2.757q-.039-4.331-.076-8.662c-.008-.855-.706-1.86-2.027-2.756-.149-.1-.3-.193-.459-.29l-.009,0c-.154-.091-.312-.178-.473-.262l-.016-.008c-.158-.082-.319-.161-.483-.235l-.024-.01q-.242-.11-.491-.208h-.01l-.025-.009c-.145-.057-.29-.111-.438-.161l-.016-.006c-.148-.051-.3-.1-.444-.141l-.034-.011-.022-.006c-.108-.032-.215-.061-.323-.09l-.066-.015c-.088-.023-.177-.043-.264-.064l-.049-.013-.055-.012-.165-.035-.114-.023-.167-.029-.08-.015h-.021c-.149-.025-.3-.045-.443-.063h-.061c-.128-.014-.256-.026-.386-.035h-.072c-.235-.015-.464-.019-.688-.013h-.075c-.109,0-.216.009-.321.017h-.025c-.11.009-.217.021-.323.037h-.058l-.129.022-.1.016c-.044.008-.088.019-.131.028l-.069.015h-.01c-.1.023-.185.049-.273.076l-.06.02c-.09.03-.177.061-.26.1a2.029,2.029,0,0,0-.188.1l-.052.03c-.021.012-.043.022-.063.035l-.049.032-.064.042c-.033.022-.064.044-.1.069l-.053.04-.018.014a1.116,1.116,0,0,0-.1.09l-.012.011c-.026.025-.05.051-.074.076l-.021.023-.034.039c-.022.027-.044.053-.064.081l-.029.038-.015.02c-.011.015-.019.029-.028.043s-.035.053-.051.08-.024.04-.036.062-.03.053-.043.079a.3.3,0,0,0-.015.028l-.015.03c-.023.046-.045.1-.067.139l-.014.031c-.028.062-.055.125-.081.186s-.04.1-.062.143l-.024.054c-.026.057-.052.114-.081.17-.015.03-.031.06-.047.088l-.022.041c-.025.043-.051.086-.079.128l-.056.078-.085.115-.039.048c-.04.049-.082.1-.126.147l-.011.011c-.046.05-.1.1-.148.15l-.045.044c-.037.035-.076.069-.117.1l-.06.05c-.041.033-.082.065-.125.1l-.059.044c-.063.043-.128.088-.193.13l-.021.012-.009.006-.028.015-.015.009-.033.015-.022.012-.035.017-.032.015-.035.017-.042.02-.04.018-.044.021-.063.029-.029.015-.1.043c-.226.1-.492.211-.739.294l-12.037-8.121.076,8.662,12.033,8.118c.246-.084.513-.193.74-.294l.186-.085h0l.078-.036h.006l.055-.026.022-.012.041-.019.026-.013.03-.015.025-.013.021-.011.021-.013.014-.008.014-.008h0c.068-.042.133-.087.193-.131l.057-.042.127-.1.031-.023.028-.025c.039-.035.079-.069.116-.1l.048-.044c.051-.049.1-.1.146-.15h0l.01-.012q.065-.073.125-.145l.039-.05c.029-.038.058-.075.085-.113.006-.01.015-.019.022-.03l.034-.048c.028-.042.055-.085.079-.128l.025-.046c.009-.015.029-.052.042-.079h0c.028-.057.055-.114.081-.171l.023-.053.062-.143c.027-.064.054-.126.082-.193l.012-.026c.021-.048.046-.1.069-.143.009-.019.018-.037.028-.055s.029-.055.045-.082.023-.041.035-.062.034-.054.052-.08.027-.042.042-.064l.029-.038c.02-.026.042-.054.064-.08l.035-.04a.994.994,0,0,1,.1-.1l.013-.013a1.581,1.581,0,0,1,.12-.1l.051-.041c.017-.013.062-.046.1-.068l.063-.041c.036-.022.074-.045.113-.068l.052-.028c.059-.032.121-.063.187-.1.083-.034.171-.066.26-.1l.061-.019A2.039,2.039,0,0,1,1039.865,874.448Z" transform="translate(-1023.215 -845.806)"/><g transform="translate(29.051 19.601)"><path class="ae" d="M1276.759,890.763l.076,8.66L1239.6,915.095l-.076-8.661Z" transform="translate(-1239.52 -890.763)"/></g><g transform="translate(0 0)"><path class="af" d="M1023.215,760.492l15.405-6.482a7.4,7.4,0,0,1,1.2.913c.72.949-.208,2.243,1,3.057,1.488,1,5.147.784,8.174-.489q.128-.053.249-.107c2.845-1.268,3.985-3.04,2.539-4.016-.924-.623-2.517-.579-3.815-.823a8.484,8.484,0,0,1-1.9-.554,6.741,6.741,0,0,1-1.039-.676l15.425-6.489,29.05,19.6-37.239,15.67-12.019-8.109c.047-.023.1-.046.15-.068a14.488,14.488,0,0,1,1.586-.579c1.792-.394,4.217.085,5.765-.567,1.9-.846,1.51-2.762-.824-4.337-2.361-1.594-5.821-2.236-7.723-1.433-1.183.527-1.137,1.356-1.595,2.036a3.514,3.514,0,0,1-1.062,1.018c-.056.034-.273.143-.547.264-.226.1-.492.211-.739.294Z" transform="translate(-1023.215 -744.825)"/></g></g><g transform="translate(0 54.498)"><path class="k" d="M457.609,1050.452s1.274-.826.05-2.352a23.475,23.475,0,0,1-6.88-1.91c-4.649-1.463-11.178-8.658-14.15-11.933-3.338-3.677-8.392-.556-5.68,3.642,5.075,7.854,18.412,13.032,26.593,12.725" transform="translate(-407.667 -993.324)"/><path class="ag" d="M313.187,1227.567c1.943-9.074,2.524-30.094,2.524-30.094s-1.556-2.067-7.163-2.427-5.233,3.089-5.207,2.644a195.437,195.437,0,0,0,2.579,29.522S309.918,1229.967,313.187,1227.567Z" transform="translate(-297.852 -1133.905)"/><path class="ah" d="M302.915,1149.473c-.552-3.755.592-7.543,1.183-11.339h17.074c1.093,3.639,2.228,7.377,2.228,7.377s.731,8.609-6.582,9.641C316.817,1155.153,304.076,1157.36,302.915,1149.473Z" transform="translate(-297.369 -1084.66)"/><g transform="translate(36.469 125.708)"><path class="w" d="M539.745,1680.13l-.973-.056c-.332-.051-.329.47-.374.488a10.6,10.6,0,0,1-2.3.731s-1.8-.234-1.993-.779l.255-3.339c2-.169,4.1-.556,4.1-.556l4.408-.619c2.124-.221,2.51.545,2.51.545S546.668,1678.48,539.745,1680.13Z" transform="translate(-534.102 -1675.959)"/><path class="ai" d="M537.076,1682.065a5.271,5.271,0,0,1,1.14-.371c2.174-.381,4.3-.6,6.112-1.994a1.792,1.792,0,0,0,.786-1.273.79.79,0,0,1,.262.249s1.3,1.939-5.624,3.586l-.973-.056c-.332-.051-.329.47-.374.487a10.583,10.583,0,0,1-2.3.731s-1.8-.234-1.992-.779l.062-.814A3.475,3.475,0,0,0,537.076,1682.065Z" transform="translate(-534.108 -1678.096)"/></g><g transform="translate(7.022 124.876)"><path class="w" d="M320.493,1673.936l-.973-.056c-.332-.051-.329.469-.375.488a10.624,10.624,0,0,1-2.3.731s-1.8-.234-1.992-.78l.253-3.338c2.006-.169,4.1-.556,4.1-.556l4.408-.62c2.124-.221,2.51.546,2.51.546S327.416,1672.289,320.493,1673.936Z" transform="translate(-314.85 -1669.764)"/><path class="ai" d="M317.817,1675.905a5.311,5.311,0,0,1,1.14-.371c2.175-.38,4.3-.6,6.112-1.994a1.791,1.791,0,0,0,.786-1.273.792.792,0,0,1,.263.249s1.3,1.94-5.624,3.586l-.973-.056c-.332-.051-.329.469-.375.483a10.617,10.617,0,0,1-2.3.731s-1.8-.233-1.992-.78l.062-.813A3.474,3.474,0,0,0,317.817,1675.905Z" transform="translate(-314.85 -1671.931)"/></g><path class="ag" d="M315.4,1450.073c.722-.861,3.089-32.52,3.089-32.52.393-4.867-7.7-2.824-7.7-2.824-1.179,4.845-.988,5.757-1.358,11.769-.147,2.375.232,22.042.144,23.555C309.58,1450.053,313.335,1452.54,315.4,1450.073Z" transform="translate(-303.109 -1323.738)"/><path class="aj" d="M316.643,1163.76s4.86,8.273,1.869,13.682-15.589-.478-14.814-6.741C304.547,1163.831,310.77,1160.858,316.643,1163.76Z" transform="translate(-298.144 -1105.886)"/><path class="e" d="M319.805,1080.1c.79,2.808,4.045,13.524,4.045,13.524-8.921,8.413-20.435,1.742-20.551.471-.138-1.522,1.56-7.337,1.869-13.6C305.167,1080.488,308.345,1075.6,319.805,1080.1Z" transform="translate(-297.821 -1032.769)"/><path class="b" d="M454.262,1443.507" transform="translate(-428.516 -1349.019)"/><path class="aj" d="M370.489,1208.437c-.947-9.233-7.524-32.785-7.524-32.785s-1.922-1.769-7.368-.386-6.048,8.5-6.161,8.055a216.427,216.427,0,0,0,14.77,28.042S368.276,1213.447,370.489,1208.437Z" transform="translate(-337.77 -1116.346)"/><path class="aj" d="M465.161,1446.275c-.16-1.112-8.371-34.193-8.371-34.193-1.931-4.08-7.483.216-7.483.216a35.16,35.16,0,0,0,2.01,12.244c.755,2.256,7.735,22.686,8.221,24.12C459.534,1448.661,463.659,1449.97,465.161,1446.275Z" transform="translate(-424.223 -1320.292)"/><g transform="translate(0.41 22.344)"><path class="c" d="M266.126,921.482s-.882,14.858-.319,20.857c0,0,0,2.726,4.8,4.092,0,0,1.746-16.542,3.168-23.927C273.775,922.5,270.94,917.026,266.126,921.482Z" transform="translate(-265.619 -917.938)"/><path class="c" d="M274.535,913.734a3.886,3.886,0,0,1-5.087-2.027,3.834,3.834,0,0,1,2.018-5.032l.029-.012a3.887,3.887,0,0,1,5.086,2.027,3.832,3.832,0,0,1-2.016,5.031Z" transform="translate(-268.666 -906.352)"/></g><path class="ak" d="M266.832,901.43a5.092,5.092,0,0,0-3.7,4.882l-.568,14.645a13.736,13.736,0,0,0,8.046,1.931S275.853,903.331,266.832,901.43Z" transform="translate(-262.567 -879.747)"/><path class="e" d="M449.611,1463.4" transform="translate(-424.49 -1366.237)"/><path class="e" d="M348.994,832.2s.031,5.23.488,10.44l-6.9-1.143a5.106,5.106,0,0,0-.412-4.506Z" transform="translate(-331.479 -819.813)"/><path class="e" d="M283.8,896.2c-1.733,1.266-1.931,4.295-1.314,6.186.71,2.172.992,4.945,1.7,8.086.965,4.257,1.617,7.535,2.691,11.764.889,3.5,14.94.676,14.94.676l5.036-17.208s.869-4.492-3.2-5.985a60.855,60.855,0,0,0-7.425-3.379,13.544,13.544,0,0,0-6.62-.852A32.884,32.884,0,0,0,283.8,896.2Z" transform="translate(-279.535 -874.515)"/><path class="aj" d="M369.295,1160.2a10.6,10.6,0,0,1,0,10.233c-2.992,5.406-12.119,3.438-12.146-3.572C357.122,1159.946,363.421,1157.3,369.295,1160.2Z" transform="translate(-344.445 -1102.757)"/><path class="ak" d="M289.75,896.14a32.881,32.881,0,0,0-5.809.709c-1.8,1.318-1.771,3.906-1.423,5.864.665,3.745,1.339,7.53,1.686,11.315.154,1.679.573,5.094.7,6.774a3.591,3.591,0,0,0,2.306,3.391c1.267.654,2.211.135,3.592.172a69.591,69.591,0,0,0,10.463-.719c.147-.017,5.581,3.648,3.793.951L307,906.356s.869-4.492-3.2-5.985a32.738,32.738,0,0,0-6-2.854S292.337,897.654,289.75,896.14Z" transform="translate(-279.676 -875.167)"/><path class="k" d="M327.937,777.048l.294-1.136.7-4.189A4.208,4.208,0,0,0,328.8,770a4.253,4.253,0,0,1-.214-1.767,5.155,5.155,0,0,0-1.28-4.491c-1.956-2.569-6.023-2.211-6.024-2.21a6.381,6.381,0,0,0-5,3.116,7.845,7.845,0,0,0-.906,5.821,11.8,11.8,0,0,0,3.4,5.319c1.014.965,2.049,1.088,3.379,1.573a13.76,13.76,0,0,0,3.668.541C326.336,777.9,327.768,777.7,327.937,777.048Z" transform="translate(-308.101 -758.622)"/><path class="al" d="M322.784,759.7l-.648,2.6a1.264,1.264,0,0,0-.954,1.511q.008.036.019.072l.235,2.148-.584.224c.048-.86-1.144-.869-1.144-.869-.869-.05-1.02.693-.97,1.408.129,1.858-.547,4.809-2.105,5.329-.616.2-1.775.419-1.97-.415-.237-1.019-2.168-3.043-2.168-3.043a8.728,8.728,0,0,1-1.8-9.006,7.085,7.085,0,0,1,1.664-2.461,8.984,8.984,0,0,1,5.185-2.317s2.643-.322,4.13.721a8.583,8.583,0,0,1,1.919,1.755A2,2,0,0,1,322.784,759.7Z" transform="translate(-303.751 -752.838)"/><g transform="translate(14.676 12.315)"><path class="k" d="M374.065,834.6a1.072,1.072,0,0,1-.676.255,1.573,1.573,0,0,1-1.533-1.52,1.441,1.441,0,0,1,1.2-1.647l.062-.009a1.36,1.36,0,0,1,.985.376,1.957,1.957,0,0,1,.4,1.576A1.474,1.474,0,0,1,374.065,834.6Z" transform="translate(-371.839 -831.681)"/></g><g transform="translate(15.377 12.821)"><path class="l" d="M378,835.738c-.076-.458-.98.041-.823.29a1.408,1.408,0,0,0,.4.34.68.68,0,0,1,.319.483c0,.027.015.107-.011.128-.115.1-.539-.334-.632-.422a.773.773,0,0,1-.159-.731.465.465,0,0,1,.491-.378c.21,0,.425,0,.429.262,0,0-.007.049-.01.026Z" transform="translate(-377.055 -835.445)"/><g transform="translate(0.181 0.74)"><path class="l" d="M378.891,841.006c.091-.1.193-.03.29.036a.439.439,0,0,1,.184.262,1.085,1.085,0,0,1-.067.772.579.579,0,0,1-.483.3c-.281.01-.38-.233-.406-.47-.007-.063-.022-.214.038-.257s.119.055.167.1a.4.4,0,0,0,.243.075.511.511,0,0,0,.406-.212.289.289,0,0,0,.038-.075c.01.155,0,.193-.018.106a.393.393,0,0,0-.06-.106c-.071-.1-.186-.171-.265-.268-.037-.044-.114-.208-.068-.261Z" transform="translate(-378.402 -840.955)"/></g></g><g transform="translate(48.896 54.302)"><path class="e" d="M632.546,1145.544c-.357-.529-.044-.805-.772-.828-.824-.027-1.563-.434-2.124-.418-.975.027-4.656.885-2.185,2.992.579.492,2.22,2.692,3.359,2.039,1.683-.965,1.111-.608,1.966-2.7Z" transform="translate(-626.626 -1144.297)"/></g><path class="e" d="M410.659,939.531a4.32,4.32,0,1,0,5.97-1.3h0A4.32,4.32,0,0,0,410.659,939.531Z" transform="translate(-390.175 -911.012)"/><path class="ak" d="M318.4,1060.638c.561,5.889.923,20.317.923,20.317-2.091,5.578-22.033.869-22.149-.4-.139-1.522.269-12.243.579-18.513A24.043,24.043,0,0,1,318.4,1060.638Z" transform="translate(-292.502 -1016.11)"/><path class="ak" d="M401.551,923.992c5.252,1.479,5.905,7.835,5.905,7.835l2.372,10.439s-5.968,4.73-9.605,3.4a77.493,77.493,0,0,1-3.893-15.735S396.367,924.163,401.551,923.992Z" transform="translate(-378.364 -899.279)"/><path class="al" d="M312.187,746.786c-.594.483-1.352.164-2.027.007-.925,1.086.182,2.169-1.219,2.7a15.553,15.553,0,0,1-2.661.49c-.656.106-1.321-.046-1.79.444-.509.531-.027,2.184-.628,2.5-1.05.554-1.874-2.317-3.212-2.092-1.142.193-1.344,2.005-.944,2.9a1.412,1.412,0,0,0-.3-.2c-.544-1.419-1.24-1.448-1.84-2.453a4.1,4.1,0,0,1-.959-2.693c0-.013.183-.657.185-.666.436-1.6,1.184-1.871,1.545-2.549a13.461,13.461,0,0,1,1.448-1.849,18.52,18.52,0,0,1,1.186-1.883,5.554,5.554,0,0,1,3.131-1.325c1.158-.153,2.255.566,3.4.364.47-.083.909-.509,1.38-.483.579.033.973.6,1.469.826.924.415,2.379.247,3.167.9a1.911,1.911,0,0,1,.148,2.637c-.3.493-.911.778-1.183,1.29C312.41,745.781,312.206,746.77,312.187,746.786Z" transform="translate(-292.036 -739.987)"/></g><g transform="translate(168.691 56.768)"><path class="e" d="M1565.654,757.221a162.614,162.614,0,0,0-8.57,17.813s.07,1.8,1.393,1.24,12-15.672,12.007-17.048C1570.511,755.688,1565.654,757.221,1565.654,757.221Z" transform="translate(-1551.911 -756.891)"/><path class="e" d="M1521.189,885.941l1.153-.392s-1.952,1.2-2.85.725c0,0-.208-.055-.014-.386a16.94,16.94,0,0,0,2.606-1.137,12.383,12.383,0,0,1-3.079,1.3s-.624-.18-.161-.661c-.471-.033-.193-.422-.193-.422a7.665,7.665,0,0,1,1.113-.878,31.308,31.308,0,0,0,2.546-2.027s-1.473-.423-1.214-1.21l2.2.41,2.048.57.586,1.086-1.395,1.786a11.62,11.62,0,0,1-2.48,1.567S1519.212,887.042,1521.189,885.941Z" transform="translate(-1518.57 -864.203)"/></g><g transform="translate(86.486 97.967)"><path class="o" d="M1178.378,1114.27a1.222,1.222,0,0,1,.617-1.008,2.123,2.123,0,0,1,.208-.123c.022-.012.046-.023.069-.034q.078-.038.159-.072c.013,0,.026-.012.041-.017l.037-.013c.087-.034.176-.065.269-.1h.006q.145-.04.29-.073a.148.148,0,0,0,.035-.01l.044-.009c.115-.025.233-.048.352-.068h.011l.039-.006c.12-.019.24-.037.363-.053l.049-.006q.2-.026.4-.047h.023l.09-.011.27-.03q.187-.021.372-.046l.075-.009c.124-.016.244-.034.364-.054l.193-.032q.193-.037.386-.079l.072-.016c.1-.02.185-.042.276-.066h.009c.1-.023.185-.049.276-.075l.084-.025c.063-.019.126-.039.187-.06l.1-.031c.062-.021.122-.044.182-.067l.075-.028c.079-.032.156-.065.23-.1a6.5,6.5,0,0,0,1.022-.666l-.074,8.521a6.466,6.466,0,0,1-1.022.666c-.074.035-.152.067-.232.1l-.017.008-.052.019c-.062.023-.125.046-.193.068l-.089.03-.187.059-.058.018-.03.008q-.135.039-.275.075h-.012c-.089.023-.181.044-.273.066l-.03.007-.045.009c-.129.028-.257.054-.386.078l-.158.028-.034,0c-.119.02-.238.036-.36.052l-.081.011-.36.044h-.012l-.256.03-.127.014c-.131.016-.263.03-.393.047l-.046.006c-.123.016-.244.034-.364.053l-.049.008c-.121.02-.239.043-.354.069l-.076.016c-.1.023-.193.047-.289.075h0a2.552,2.552,0,0,0-.272.1l-.077.03c-.055.023-.108.047-.16.073l-.07.034c-.072.039-.143.078-.208.122a1.224,1.224,0,0,0-.617,1.009Z" transform="translate(-1141.806 -1104.852)"/><path class="o" d="M930.77,1136.342l-.01-.048a.225.225,0,0,0-.01-.045c0-.015,0-.01,0-.016a.506.506,0,0,0-.009-.067.247.247,0,0,0-.006-.05.292.292,0,0,1,0-.071v-.057l.075-8.521v.13a.128.128,0,0,0,.006.05.583.583,0,0,1,.009.067c0,.023.008.04.012.059s.006.033.011.049.011.039.016.061.009.031.014.047.006.015.009.024a1.371,1.371,0,0,0,.072.172h0a1.514,1.514,0,0,0,.1.156l.017.025a1.637,1.637,0,0,0,.115.143l.037.039.041.04.048.046.045.04.043.036c.026.021.053.042.082.062l.044.031c.032.022.065.044.1.064l.038.023a1.008,1.008,0,0,0,.1.052l.042.023c.047.023.1.047.146.07.1.04.193.077.3.111l.105.029c.07.021.14.041.213.058l.058.013c.082.019.164.036.248.05l.1.018c.078.012.157.024.237.034l.079.01c.1.012.209.023.316.031.066.006.134.01.2.012l.171.011c.069,0,.138.006.208.009l.168.006c.133,0,.266.006.4.008h.011l.475.006h.452l.257,0h.177l.193.008.181.01.186.011h.063c.069,0,.138.012.207.019H937c.09.01.179.02.266.033l.031.006c.13.02.259.042.386.069h.041l.027.008.022.007.036.011.027.009.045.015.028.009.053.017.033.011.059.019.035.011.066.022.036.012.067.023.044.015.063.023.052.02.062.022.055.02.064.024.056.021.064.025.057.022.064.024.057.023.064.026.055.023.067.028.048.02.11.049c.053.023.105.046.152.07l-.075,8.52-.153-.07-.111-.048-.037-.016-.078-.034-.045-.018-.073-.03-.051-.02-.069-.027-.053-.02-.068-.026-.055-.021-.064-.024-.054-.02-.065-.023-.05-.018-.062-.022-.055-.019-.052-.018-.054-.019-.049-.016-.048-.016-.046-.016-.042-.015-.044-.014-.038-.012-.036-.012-.034-.01-.03-.009-.026-.008-.024-.008h-.018l-.024-.006c-.125-.028-.254-.05-.386-.07-.1-.014-.193-.028-.29-.039h-.05c-.087-.009-.175-.017-.265-.024l-.185-.011-.182-.01-.193-.008-.182-.006h-1.187c-.132,0-.265,0-.4-.009h-.019l-.163-.006-.193-.008-.176-.012-.193-.012h-.021q-.151-.013-.3-.03l-.074-.009-.148-.019h0l-.1-.016-.1-.016c-.084-.014-.167-.032-.249-.05l-.059-.013h-.016c-.069-.016-.133-.036-.2-.055-.034-.01-.069-.018-.1-.029-.1-.034-.2-.07-.3-.111-.05-.022-.1-.046-.146-.069l-.048-.026-.087-.048-.01-.006-.031-.02c-.033-.019-.064-.041-.1-.061l-.045-.033c-.028-.02-.054-.041-.08-.061l-.026-.02h0l-.019-.016-.044-.039-.05-.047-.04-.04-.026-.026a.067.067,0,0,0-.011-.012,1.6,1.6,0,0,1-.116-.144l-.007-.01-.01-.016a1.6,1.6,0,0,1-.1-.156h0a1.321,1.321,0,0,1-.071-.169.018.018,0,0,0-.006-.016h0v-.011a.175.175,0,0,0-.013-.046C930.8,1136.382,930.776,1136.364,930.77,1136.342Z" transform="translate(-927.479 -1118.895)"/><g transform="translate(0 19.288)"><path class="p" d="M906.584,1207.25l-.075,8.521,36.638,15.417.075-8.521Z" transform="translate(-906.509 -1207.25)"/></g><g transform="translate(36.643 15.419)"><path class="o" d="M1179.411,1197.728l-.074,8.521,28.581-19.286.074-8.521Z" transform="translate(-1179.337 -1178.442)"/></g><g transform="translate(0.085 0)"><path class="q" d="M972.356,1079.06l-15.156-6.377a7.3,7.3,0,0,0-1.184.9c-.708.932.2,2.206-.983,3.007-1.463.988-5.063.772-8.041-.483l-.247-.107c-2.8-1.247-3.918-2.993-2.5-3.949.909-.614,2.477-.579,3.752-.81a8.31,8.31,0,0,0,1.872-.546,6.48,6.48,0,0,0,1.022-.666l-15.174-6.386-11.837,7.988c-.245-.082-.509-.193-.733-.29a5.713,5.713,0,0,1-.533-.26,3.462,3.462,0,0,1-1.05-1c-.451-.67-.405-1.486-1.513-1.98-1.931-.814-5.335-.182-7.659,1.385-2.3,1.55-2.678,3.436-.869,4.241,1.586.669,3.97.193,5.733.585a13.984,13.984,0,0,1,1.555.57c.053.023.1.047.153.07l-11.825,7.978,36.638,15.417Z" transform="translate(-907.141 -1063.641)"/></g></g><g transform="translate(124.111 81.177)"><g transform="translate(12.41 118.858)"><g transform="translate(3.191)"><path class="c" d="M1304.511,1825.552s-2.22-.406-1.595,1.405c0,0,5.182,2.225,8.8,1.724a2.266,2.266,0,0,0,2.145-2.846l.042-2.244-3.413.647.193,2.131Z" transform="translate(-1302.806 -1823.592)"/></g><path class="am" d="M1293.3,1836.7a1.435,1.435,0,0,1-.341.965c-.893,1.03-2.649,1.062-3.885.982a41.807,41.807,0,0,1-5.912-.826c-.423-.09-.541-.228-.545-.352a1.725,1.725,0,0,1,1.33-1.049l-1.889-.241a4.766,4.766,0,0,0-2.943.6c-.483,1.381,1.867,2.3,1.867,2.3a38.216,38.216,0,0,0,5.5,1.536s6.633,1.565,7.433-.476Z" transform="translate(-1279.047 -1834.461)"/></g><g transform="translate(25.583 115.773)"><g transform="translate(3.196)"><path class="c" d="M1402.631,1802.586s-2.22-.406-1.595,1.405c0,0,5.182,2.225,8.8,1.724a2.266,2.266,0,0,0,2.145-2.846l.042-2.243-3.413.646.193,2.131Z" transform="translate(-1400.926 -1800.627)"/></g><path class="am" d="M1391.378,1813.76a1.432,1.432,0,0,1-.34.965c-.894,1.03-2.649,1.062-3.885.983a41.881,41.881,0,0,1-5.912-.827c-.423-.089-.541-.227-.545-.352a1.726,1.726,0,0,1,1.33-1.049l-1.889-.241a4.759,4.759,0,0,0-2.942.6c-.483,1.379,1.867,2.3,1.867,2.3a38.3,38.3,0,0,0,5.5,1.537s6.634,1.564,7.433-.476Z" transform="translate(-1377.129 -1811.515)"/></g><g transform="translate(15.709 45.052)"><g transform="translate(14.121 6.444)"><path class="an" d="M1409.069,1328.385a6.335,6.335,0,1,0,6.334-6.335A6.335,6.335,0,0,0,1409.069,1328.385Z" transform="translate(-1409.027 -1322.05)"/><path class="an" d="M1419.115,1394.073s-.088,1.593-2.949,1.631c0,0-2.7.924-3.877-2.606-4.607-13.887-3.389-28.382-3.389-28.382s6.5-3.623,12.563-1.145C1421.463,1363.579,1420.484,1381.807,1419.115,1394.073Z" transform="translate(-1408.755 -1357.244)"/></g><path class="an" d="M1435.074,1589.029s2.232,30.013,2.439,31.084a3.722,3.722,0,0,0,4.1-.038c-.011-1.472,1.594-13.745,1.76-16.05.284-3.958.76-8.966-1.743-14.659Z" transform="translate(-1417.418 -1546.727)"/><g transform="translate(0 6.442)"><path class="ao" d="M1309.735,1390.324s-.611,1.473-3.323.562c0,0-2.861-.025-2.8-3.739.253-14.629,6.661-29.79,6.661-29.79s7.22-.689,12.116,3.656C1322.4,1361.013,1315.089,1379.2,1309.735,1390.324Z" transform="translate(-1303.611 -1352.578)"/><path class="ao" d="M1352.161,1326.269a6.335,6.335,0,1,0,8.076-3.878h0a6.333,6.333,0,0,0-8.075,3.877Z" transform="translate(-1345.329 -1322.032)"/></g><path class="ao" d="M1372.71,1285.924c-.765-7.047-4.3-10.313-4.3-10.313l-12.244-1.544s-3.379,5.873-3.728,11.86c1.463,3.993,6.68,5.156,6.68,5.156l3.958,1.176S1372.057,1290.891,1372.71,1285.924Z" transform="translate(-1345.88 -1274.067)"/><g transform="translate(0.325 40.831)"><path class="ao" d="M1306.273,1581.173s6.073,31.528,6.438,32.557c-.159-.077,2.871,1.393,4.213-.5-.229-1.455-.356-17.473-.534-19.773-.3-3.958-.262-7.655-3.58-12.915C1312.809,1580.538,1304.518,1574.6,1306.273,1581.173Z" transform="translate(-1306.029 -1578.078)"/></g></g><path class="ap" d="M1387.808,1768.641" transform="translate(-1360.791 -1657.164)"/><g transform="translate(35.741 16.839)"><g transform="translate(1.037 16.934)"><path class="c" d="M1467.149,1190.086s-2.231,2.627-6.667,8.968l.766,1.3s7.6-3.828,10.022-8.124Z" transform="translate(-1460.482 -1190.086)"/></g><path class="c" d="M1454.186,1071.539s5.72,12.481,9.156,12.007c0,0,1.185.074,1.423-.82,0,0,2.426-2.152-7.662-17.672a3.109,3.109,0,0,0-3.005-.978S1451.032,1066.1,1454.186,1071.539Z" transform="translate(-1452.761 -1064.003)"/></g><g transform="translate(27.914 14.605)"><rect class="aq" width="6.183" height="6.571"/></g><g transform="translate(23.38 0.91)"><path class="e" d="M1361.431,959.244l-.233-1.051-.462-3.849a3.506,3.506,0,0,1,.229-1.563,3.556,3.556,0,0,0,.315-1.6,4.509,4.509,0,0,1,1.545-4.023c2.11-2.24,6.178-1.7,6.178-1.7a6.436,6.436,0,0,1,4.848,3.095,6.555,6.555,0,0,1,.579,5.346,10.858,10.858,0,0,1-3.715,4.668c-1.074.83-2.124.885-3.481,1.255a15.207,15.207,0,0,1-3.72.3C1362.995,960.1,1361.567,959.846,1361.431,959.244Z" transform="translate(-1360.724 -945.401)"/></g><g transform="translate(26.905 11.192)"><path class="ap" d="M1386.974,1021.959" transform="translate(-1386.974 -1021.959)"/></g><g transform="translate(23.925)"><path class="ap" d="M1367.763,949.818c.305-.433,1.416-.7,1.417-.7,1.342,0,1.166,1.792,1.293,2.568.042.253.09.513.148.772.639,2.277,2.553,2.258,4.189,2.534.061-.036.125-.071.193-.108a6.556,6.556,0,0,1,1.238-2.059,8.784,8.784,0,0,0,2.324-8.946,7.113,7.113,0,0,0-1.533-2.565,9.041,9.041,0,0,0-5.078-2.618c-1.9-.358-8.708.565-6.854,4.7,0,0,2.8,3.231,2.661,6.427" transform="translate(-1364.783 -938.626)"/></g><g transform="translate(26.905 10.135)"><g transform="translate(0 0.139)"><path class="ar" d="M1386.974,1016.037a1.288,1.288,0,0,1,1.516-.886,1.013,1.013,0,0,1,.74,1.093c-.01.111-.034.219-.045.33a2.326,2.326,0,0,1-1.437,1.629" transform="translate(-1386.974 -1015.119)"/></g><g transform="translate(0.398 0.646)"><path class="as" d="M1390.928,1018.98a.678.678,0,0,0-.3-.081c-.451-.029-.814.666-.363.791a.256.256,0,0,1-.006.356c-.156.169-.364.411-.317.649.028.141.184.216.326.251.114.028.136-.061.047-.1a.508.508,0,0,1-.172-.141l-.014-.024a.067.067,0,0,1-.011-.017.148.148,0,0,1,0-.1.278.278,0,0,0,.349,0c.086-.1.02-.264.049-.386a.907.907,0,0,1,.1-.233.24.24,0,0,0-.166-.4,1.017,1.017,0,0,0-.137.01c-.193-.1.022-.386.137-.427a.363.363,0,0,1,.393.068.558.558,0,0,1,.126.4,1.309,1.309,0,0,1-.123.477c-.041.085-.1.184-.134.27s.066.139.112.042a2.836,2.836,0,0,0,.323-.785A.6.6,0,0,0,1390.928,1018.98Z" transform="translate(-1389.936 -1018.898)"/></g><path class="as" d="M1386.974,1015.144s.054-.077.142-.216a1.8,1.8,0,0,1,.187-.216,1.454,1.454,0,0,1,.29-.222,1.183,1.183,0,0,1,.386-.139.99.99,0,0,1,.44.031,1.181,1.181,0,0,1,.223.1,1.022,1.022,0,0,1,.177.136.848.848,0,0,1,.236.4,1.2,1.2,0,0,1,.007.5l-.017.135v.017h0v-.016h0v.009l-.006.034-.014.067a1.466,1.466,0,0,1-.064.239,1.918,1.918,0,0,1-.209.417,2.49,2.49,0,0,1-.27.335,3.027,3.027,0,0,1-.509.423c-.135.09-.218.135-.218.135a1.581,1.581,0,0,0,.246-.081,2.566,2.566,0,0,0,.6-.344,2.055,2.055,0,0,0,.337-.33,1.78,1.78,0,0,0,.279-.46,1.721,1.721,0,0,0,.091-.27l.017-.064.009-.034v-.052l.02-.135a1.483,1.483,0,0,0-.006-.605,1.158,1.158,0,0,0-.331-.54,1.506,1.506,0,0,0-.122-.1l-.142-.079a1.267,1.267,0,0,0-.272-.1,1.138,1.138,0,0,0-.557.008,1.222,1.222,0,0,0-.437.219,1.265,1.265,0,0,0-.273.294,1.983,1.983,0,0,0-.152.263C1387,1015.055,1386.974,1015.144,1386.974,1015.144Z" transform="translate(-1386.974 -1014.087)"/><g transform="translate(0.022 2.557)"><g transform="translate(0.001 0.001)"><path class="n" d="M1387.9,1033.51a.375.375,0,1,1-.375-.375h0A.375.375,0,0,1,1387.9,1033.51Z" transform="translate(-1387.147 -1033.136)"/></g><path class="at" d="M1387.6,1033.7a.3.3,0,0,1-.3-.3h0a.29.29,0,0,1,.206-.278h0a.375.375,0,1,0,.375.375h0v-.027A.29.29,0,0,1,1387.6,1033.7Z" transform="translate(-1387.139 -1033.129)"/></g></g><g transform="translate(19.857 16.867)"><path class="am" d="M1358.667,1096.877l-6.826-9.795a13.111,13.111,0,0,1,.4-4.3l2.182-15.009c-.259-1.72-.377-3.9-2.7-3.513a14.4,14.4,0,0,0-2.979.83c.3,1.394-2.109,2.289-2.109,2.289-3.309,1.43-4.074.487-4.074.487a49.118,49.118,0,0,0-4.634,2.6,3.41,3.41,0,0,0-1.036,3.422l2.381,14.226-.419,3.533-4.351,11.031a9.348,9.348,0,0,1,4.239-.507c1.351.162,2.518.959,3.861,1.109a7.469,7.469,0,0,0,5.069-1.481,24.436,24.436,0,0,0,5.868-2.062h.129c1.519.009,3.238-.019,4.359-1.207C1358.259,1098.28,1358.954,1097.289,1358.667,1096.877Z" transform="translate(-1334.497 -1064.211)"/></g><g transform="translate(20.47 23.097)"><path class="e" d="M1339.061,1133.391l.04-17.28c.42-4.73,2.773-5.491,2.773-5.491,4.753-.557,4.021,8.251,4.021,8.251l-1.985,14.887" transform="translate(-1339.061 -1110.595)"/></g><g transform="translate(0 51.072)"><path class="e" d="M1191.986,1323.156c2.18-1.167,2.376-1.545,2.76-2.093,1.657-2.355-1.693-2.281-2.537-2.089-.483.111-.513,1.262-2.016,2.666,0,0-2.36,1.37-2.941,1.272,0,0-.605.086-.605.522C1186.647,1323.436,1188.3,1324.416,1191.986,1323.156Z" transform="translate(-1186.647 -1318.888)"/></g><g transform="translate(5.783 43.461)"><g transform="translate(17.797 0.053)"><path class="ar" d="M1362.22,1262.609" transform="translate(-1362.22 -1262.609)"/></g><path class="e" d="M1244.751,1262.826l-14.8,8.1c-.639,1.781.182,2.037.182,2.037l11.46-3.3c4.891-1.31,6.831-3.363,6.831-3.363s2.139-1.482-.591-3.689A2.637,2.637,0,0,0,1244.751,1262.826Z" transform="translate(-1229.707 -1262.216)"/></g><g transform="translate(25.04 0.227)"><path class="ap" d="M1373.635,950.223c.386,2.866-.048,6.661,1.379,9.792.635,1.394,1.337,2.085.956,3.7-.312,1.323-.938,2.573-1.277,3.944-.75,3.025.269,5.985,3.8,4.887a3.672,3.672,0,0,1,3.419.08,4.474,4.474,0,0,0,3.794.015c1.993-.971,1.393-2.438,2.51-3.909.85-1.121,2.054-1.093,2.7-2.6.772-1.817-.148-2.786-1.091-4.328a5.668,5.668,0,0,1-.816-4.6c.271-1.627-.13-2.449-.669-3.945-.552-1.532-.312-2.868-.573-4.4-.517-3.039-2.178-7.163-5.361-8.055a8.931,8.931,0,0,0-5.078-.227c-2.045.749-4.321,1.544-4.233,4.062A41.565,41.565,0,0,0,1373.635,950.223Z" transform="translate(-1373.083 -940.316)"/></g><path class="e" d="M1212.346,1312.605s.416,1.213-1.095.916l-1.479-1.126a.579.579,0,0,1-.3-.684s.177-.25.649,0Z" transform="translate(-1206.389 -1261.506)"/></g></g></svg>