<svg xmlns="http://www.w3.org/2000/svg" width="35.538" height="36.218" viewBox="0 0 35.538 36.218"><defs><style>.a{fill:#fff;}</style></defs><g transform="translate(-4.809 0)"><g transform="translate(4.809 0)"><g transform="translate(0 0)"><path class="a" d="M40.221,2.464a.533.533,0,0,0-.362-.188L31.977,1.6,31.834.467a.534.534,0,0,0-.6-.463L23.926.924a.531.531,0,0,0-.089-.016L13.787.05a.538.538,0,0,0-.577.486L13.06,2.29l-7.785.979a.539.539,0,0,0-.463.6L8.787,35.471a1.468,1.468,0,0,0,.046.422.538.538,0,0,0,.491.326H35.491a.533.533,0,0,0,.533-.533v-.695l1.033.088a.539.539,0,0,0,.577-.486l2.711-31.74A.533.533,0,0,0,40.221,2.464ZM8.791,26.953,5.938,4.26,8.791,3.9Zm5.437-25.8,4.667.4-4.752.6Zm16.615-.028L31.114,3.3H13.6Zm5.774,32.841-.592-.051V18.335a.533.533,0,0,0-1.067,0V35.152H9.857V4.363h25.1V15.847a.533.533,0,1,0,1.067,0V3.83a.533.533,0,0,0-.533-.533h-3.3l-.077-.611,7.124.608Z" transform="translate(-4.809 0)"/></g></g><g transform="translate(23.012 6.141)"><path class="a" d="M271.772,86.806h-2.844a.533.533,0,0,0-.444.237l-1.207,1.811a7.885,7.885,0,0,0-4.606-1.479.533.533,0,0,0-.533.533V95.3a.533.533,0,0,0,.533.533h7.395a.533.533,0,0,0,.533-.533,7.907,7.907,0,0,0-2.494-5.768l1.109-1.663h2.559a.533.533,0,1,0,0-1.067Zm-2.26,7.964H263.2V88.462a6.821,6.821,0,0,1,3.481,1.281l-.476.714a.533.533,0,1,0,.887.592l.407-.611A6.843,6.843,0,0,1,269.511,94.77Z" transform="translate(-262.137 -86.806)"/></g><g transform="translate(13.341 8.985)"><g transform="translate(0)"><path class="a" d="M144.735,141.8h-4.824l-.85-1.36a7.9,7.9,0,0,0,2.225-5.5.533.533,0,0,0-.533-.533h-6.862v-6.862a.533.533,0,0,0-.533-.533,7.928,7.928,0,1,0,4.9,14.157l.905,1.449a.533.533,0,0,0,.452.251h5.12a.533.533,0,0,0,0-1.067Zm-7.511-4.3a.533.533,0,0,0-.9.565l1.37,2.192a6.86,6.86,0,1,1-4.864-12.16v6.841a.533.533,0,0,0,.533.533H140.2a6.835,6.835,0,0,1-1.723,4.032Z" transform="translate(-125.43 -127.013)"/></g></g><g transform="translate(11.635 26.619)"><g transform="translate(0)"><path class="a" d="M106.39,376.3h-4.551a.533.533,0,1,0,0,1.067h4.551a.533.533,0,0,0,0-1.067Z" transform="translate(-101.306 -376.3)"/></g></g><g transform="translate(18.461 26.619)"><path class="a" d="M202.889,376.3h-4.551a.533.533,0,0,0,0,1.067h4.551a.533.533,0,1,0,0-1.067Z" transform="translate(-197.805 -376.3)"/></g><g transform="translate(11.635 29.463)"><g transform="translate(0)"><path class="a" d="M109.234,416.508h-7.395a.533.533,0,0,0,0,1.067h7.395a.533.533,0,0,0,0-1.067Z" transform="translate(-101.306 -416.508)"/></g></g><g transform="translate(21.305 29.463)"><path class="a" d="M240.252,416.508h-1.707a.533.533,0,0,0,0,1.067h1.707a.533.533,0,1,0,0-1.067Z" transform="translate(-238.012 -416.508)"/></g><g transform="translate(11.635 32.308)"><g transform="translate(0)"><path class="a" d="M104.115,456.715h-2.275a.533.533,0,0,0,0,1.067h2.275a.533.533,0,1,0,0-1.067Z" transform="translate(-101.306 -456.715)"/></g></g><g transform="translate(16.186 32.308)"><g transform="translate(0)"><path class="a" d="M173,456.715h-6.826a.533.533,0,0,0,0,1.067H173a.533.533,0,1,0,0-1.067Z" transform="translate(-165.639 -456.715)"/></g></g></g></svg>